999
DXF file: drw0003.dxf
999
Pro/ENGINEER 2015380 by Parametric Technology Corporation
  0
SECTION
  2
HEADER
  9
$ACADVER
  1
AC1027
  9
$DWGCODEPAGE
  3
ANSI_1252
  9
$EXTMAX
 10
22.4409448819
 20
9.842519685
 30
0.0
  9
$EXTMIN
 10
0.0
 20
0.0
 30
0.0
  9
$LIMMIN
 10
0.0
 20
0.0
  9
$LIMMAX
 10
22.4409448819
 20
9.842519685
  9
$VIEWCTR
 10
11.2204724409
 20
4.9212598425
  9
$VIEWSIZE
 40
9.842519685
  9
$CLAYER
  8
0
  9
$LTSCALE
 40
1.2342519685
  9
$CELTYPE
  6
BYLAYER
  9
$DIMSCALE
 40
1.0
  9
$DIMASZ
 40
0.1875
  9
$DIMEXO
 40
0.0625
  9
$DIMDLI
 40
0.8527559055
  9
$DIMEXE
 40
0.125
  9
$DIMCEN
 40
0.2019685039
  9
$DIMLFAC
 40
1.0
  9
$DIMBLK
  1
_CLOSED
  9
$DIMALT
 70
0
  9
$DIMALTF
 40
25.4
  9
$DIMTXT
 40
0.15625
  9
$DIMTOL
 70
0
  9
$DIMLIM
 70
0
  9
$DIMTFAC
 40
1.0
  9
$DIMGAP
 40
0.09
  9
$DIMDSEP
 70
46
  9
$AUNITS
 70
0
  9
$PDMODE
 70
3
  9
$PDSIZE
 40
0.3125
  9
$HANDSEED
  5
4DA
  9
$TILEMODE
 70
1
  9
$MEASUREMENT
 70
0
  9
$INSUNITS
 70
1
  0
ENDSEC
  0
SECTION
  2
CLASSES
  0
CLASS
  1
ACDBDICTIONARYWDFLT
  2
AcDbDictionaryWithDefault
  3
AutoCAD 2000
 90
0
 91
1
280
0
281
0
  0
CLASS
  1
ACDBPLACEHOLDER
  2
AcDbPlaceHolder
  3
AutoCAD 2000
 90
0
 91
1
280
0
281
0
  0
CLASS
  1
LAYOUT
  2
AcDbLayout
  3
AutoCAD 2000
 90
0
 91
0
280
0
281
0
  0
ENDSEC
  0
SECTION
  2
TABLES
  0
TABLE
  2
VPORT
  5
8
100
AcDbSymbolTable
 70
2
  0
VPORT
  5
1F4
100
AcDbSymbolTableRecord
100
AcDbViewportTableRecord
  2
*ACTIVE
 70
0
 10
0.0
 20
0.0
 11
1.0
 21
1.0
 12
11.2204724409
 22
4.9212598425
 13
0.0
 23
0.0
 14
1.0
 24
1.0
 15
0.0
 25
0.0
 16
0.0
 26
0.0
 36
1.0
 17
0.0
 27
0.0
 37
0.0
 40
9.842519685
 41
2.28
 42
50.0
 43
0.0
 44
0.0
 50
0.0
 51
0.0
 71
0
 72
100
 73
1
 74
1
 75
0
 76
0
 77
0
 78
0
  0
ENDTAB
  0
TABLE
  2
LTYPE
  5
5
100
AcDbSymbolTable
 70
6
  0
LTYPE
  5
14
100
AcDbSymbolTableRecord
100
AcDbLinetypeTableRecord
  2
BYBLOCK
 70
0
  3

 72
65
 73
0
 40
0.0
  0
LTYPE
  5
15
100
AcDbSymbolTableRecord
100
AcDbLinetypeTableRecord
  2
BYLAYER
 70
0
  3

 72
65
 73
0
 40
0.0
  0
LTYPE
  5
16
100
AcDbSymbolTableRecord
100
AcDbLinetypeTableRecord
  2
CONTINUOUS
 70
64
  3
Solid line
 72
65
 73
0
 40
0.0
  0
LTYPE
  5
1F5
100
AcDbSymbolTableRecord
100
AcDbLinetypeTableRecord
  2
CENTER
 70
64
  3
____ _ ____ _ ____ _ ____ _ ____ _ ____ _ ____
 72
65
 73
4
 40
0.6
 49
0.375
 74
0
 49
-0.075
 74
0
 49
0.075
 74
0
 49
-0.075
 74
0
  0
LTYPE
  5
1F6
100
AcDbSymbolTableRecord
100
AcDbLinetypeTableRecord
  2
HIDDEN
 70
64
  3
- - - - - - - - - - - - - - - - - - - -
 72
65
 73
2
 40
0.2
 49
0.1
 74
0
 49
-0.1
 74
0
  0
LTYPE
  5
1F7
100
AcDbSymbolTableRecord
100
AcDbLinetypeTableRecord
  2
PHANTOM
 70
64
  3
_____ _ _ _____ _ _ _____ _ _ _____
 72
65
 73
6
 40
0.8
 49
0.45
 74
0
 49
-0.05
 74
0
 49
0.1
 74
0
 49
-0.05
 74
0
 49
0.1
 74
0
 49
-0.05
 74
0
  0
LTYPE
  5
1F8
100
AcDbSymbolTableRecord
100
AcDbLinetypeTableRecord
  2
DOT
 70
64
  3
. . . . . . . . . . . . . . . . . . . .
 72
65
 73
2
 40
0.2
 49
0.1
 74
0
 49
-0.1
 74
0
  0
LTYPE
  5
1F9
100
AcDbSymbolTableRecord
100
AcDbLinetypeTableRecord
  2
DASHED
 70
64
  3
- - - - - - - - - - - - - - - - - - - -
 72
65
 73
2
 40
0.2
 49
0.1
 74
0
 49
-0.1
 74
0
  0
ENDTAB
  0
TABLE
  2
LAYER
  5
2
100
AcDbSymbolTable
 70
36
  0
LAYER
  5
10
100
AcDbSymbolTableRecord
100
AcDbLayerTableRecord
  2
0
 70
0
 62
7
  6
CONTINUOUS
370
-3
390
F
  0
LAYER
  5
1FA
100
AcDbSymbolTableRecord
100
AcDbLayerTableRecord
  2
DEFAULT_1
 70
0
 62
7
  6
CENTER
370
-3
390
F
  0
LAYER
  5
1FB
100
AcDbSymbolTableRecord
100
AcDbLayerTableRecord
  2
DEFAULT_2
 70
0
 62
8
  6
HIDDEN
370
-3
390
F
  0
LAYER
  5
1FC
100
AcDbSymbolTableRecord
100
AcDbLayerTableRecord
  2
DEFAULT_3
 70
0
 62
7
  6
PHANTOM
370
-3
390
F
  0
LAYER
  5
1FD
100
AcDbSymbolTableRecord
100
AcDbLayerTableRecord
  2
01___PRT_ALL_DTM_PLN
 70
0
 62
7
  6
CONTINUOUS
370
-3
390
F
  0
LAYER
  5
1FE
100
AcDbSymbolTableRecord
100
AcDbLayerTableRecord
  2
01___PRT_DEF_DTM_PLN
 70
0
 62
7
  6
CONTINUOUS
370
-3
390
F
  0
LAYER
  5
1FF
100
AcDbSymbolTableRecord
100
AcDbLayerTableRecord
  2
02___PRT_ALL_AXES
 70
0
 62
7
  6
CONTINUOUS
370
-3
390
F
  0
LAYER
  5
200
100
AcDbSymbolTableRecord
100
AcDbLayerTableRecord
  2
03___PRT_ALL_CURVES
 70
0
 62
7
  6
CONTINUOUS
370
-3
390
F
  0
LAYER
  5
201
100
AcDbSymbolTableRecord
100
AcDbLayerTableRecord
  2
04___PRT_ALL_DTM_PNT
 70
0
 62
7
  6
CONTINUOUS
370
-3
390
F
  0
LAYER
  5
202
100
AcDbSymbolTableRecord
100
AcDbLayerTableRecord
  2
05___PRT_ALL_DTM_CSYS
 70
0
 62
7
  6
CONTINUOUS
370
-3
390
F
  0
LAYER
  5
203
100
AcDbSymbolTableRecord
100
AcDbLayerTableRecord
  2
05___PRT_DEF_DTM_CSYS
 70
0
 62
7
  6
CONTINUOUS
370
-3
390
F
  0
LAYER
  5
204
100
AcDbSymbolTableRecord
100
AcDbLayerTableRecord
  2
06___PRT_ALL_SURFS
 70
0
 62
7
  6
CONTINUOUS
370
-3
390
F
  0
LAYER
  5
205
100
AcDbSymbolTableRecord
100
AcDbLayerTableRecord
  2
3_ALL_SYMBOLS
 70
0
 62
7
  6
CONTINUOUS
370
-3
390
F
  0
LAYER
  5
206
100
AcDbSymbolTableRecord
100
AcDbLayerTableRecord
  2
BLACK
 70
0
 62
7
  6
CONTINUOUS
370
-3
390
F
  0
ENDTAB
  0
TABLE
  2
STYLE
  5
3
100
AcDbSymbolTable
 70
1
  0
STYLE
  5
11
100
AcDbSymbolTableRecord
100
AcDbTextStyleTableRecord
  2
STANDARD
 70
0
 40
0.0
 41
0.8
 50
0.0
 71
0
 42
0.2
  3
txt
  4

  0
STYLE
  5
207
100
AcDbSymbolTableRecord
100
AcDbTextStyleTableRecord
  2
TEXTSTYLE_1
 70
0
 40
0.0
 41
0.8
 50
0.0
 71
0
 42
0.2
  3
gdt
  4

  0
ENDTAB
  0
TABLE
  2
VIEW
  5
6
100
AcDbSymbolTable
 70
0
  0
ENDTAB
  0
TABLE
  2
UCS
  5
7
100
AcDbSymbolTable
 70
0
  0
ENDTAB
  0
TABLE
  2
APPID
  5
9
100
AcDbSymbolTable
 70
1
  0
APPID
  5
208
100
AcDbSymbolTableRecord
100
AcDbRegAppTableRecord
  2
ACAD
 70
0
  0
ENDTAB
  0
TABLE
  2
BLOCK_RECORD
  5
1
100
AcDbSymbolTable
 70
0
  0
BLOCK_RECORD
  5
209
100
AcDbSymbolTableRecord
100
AcDbBlockTableRecord
  2
*Model_Space
  0
BLOCK_RECORD
  5
20A
100
AcDbSymbolTableRecord
100
AcDbBlockTableRecord
  2
*Paper_Space
  0
ENDTAB
  0
TABLE
  2
DIMSTYLE
  5
A
100
AcDbSymbolTable
 70
1
100
AcDbDimStyleTable
 71
0
  0
DIMSTYLE
105
20B
100
AcDbSymbolTableRecord
100
AcDbDimStyleTableRecord
  2
STANDARD
 70
0
  3

  4

 40
1.0
 41
0.1875
 42
0.0625
 43
0.38
 44
0.125
 45
0.0
 46
0.0
 47
0.01
 48
0.01
140
0.15625
141
0.09
142
0.0
143
25.4
144
1.0
145
0.0
146
1.0
147
0.09
 71
0.0
 72
0.0
 73
1
 74
1
 75
0
 76
0
 77
0
 78
4
170
0
171
2
172
0
173
0
174
0
175
0
176
0
177
0
178
0
270
2
271
2
272
2
273
2
274
2
275
0
280
0
281
0
282
0
283
1
284
4
285
0
286
0
287
3
288
0
340
11
278
46
  0
ENDTAB
  0
ENDSEC
  0
SECTION
  2
BLOCKS
  0
BLOCK
  5
20
100
AcDbEntity
  8
0
100
AcDbBlockBegin
  2
*Model_Space
 70
0
 10
0.0
 20
0.0
 30
0.0
  3
*Model_Space
  1

  0
ENDBLK
  5
21
100
AcDbEntity
  8
0
100
AcDbBlockEnd
  0
BLOCK
  5
1C
100
AcDbEntity
  8
0
100
AcDbBlockBegin
  2
*Paper_Space
 70
0
 10
0.0
 20
0.0
 30
0.0
  3
*Paper_Space
  1

  0
ENDBLK
  5
1D
100
AcDbEntity
  8
0
100
AcDbBlockEnd
  0
ENDSEC
  0
SECTION
  2
ENTITIES
  0
LINE
  5
20C
100
AcDbEntity
  8
0
100
AcDbLine
 62
7
  6
CONTINUOUS
 10
0.0
 20
0.0
 11
0.0
 21
9.842519685
  0
LINE
  5
20D
100
AcDbEntity
  8
0
100
AcDbLine
 62
7
  6
CONTINUOUS
 10
0.0
 20
0.0
 11
22.4409448819
 21
0.0
  0
LINE
  5
20E
100
AcDbEntity
  8
0
100
AcDbLine
 62
7
  6
CONTINUOUS
 10
0.0
 20
9.842519685
 11
22.4409448819
 21
9.842519685
  0
LINE
  5
20F
100
AcDbEntity
  8
0
100
AcDbLine
 62
7
  6
CONTINUOUS
 10
22.4409448819
 20
0.0
 11
22.4409448819
 21
9.842519685
  0
LINE
  5
210
100
AcDbEntity
  8
0
100
AcDbLine
 62
7
  6
CONTINUOUS
 10
2.1441615938
 20
3.5841021228
 11
2.1363505702
 21
3.5487792882
  0
LINE
  5
211
100
AcDbEntity
  8
0
100
AcDbLine
 62
7
  6
CONTINUOUS
 10
2.0975592316
 20
3.8376296819
 11
2.0737403339
 21
3.7300470047
  0
LINE
  5
212
100
AcDbEntity
  8
0
100
AcDbLine
 62
7
  6
CONTINUOUS
 10
2.3587158888
 20
8.0634515159
 11
1.150497701
 21
2.6140302543
  0
LINE
  5
213
100
AcDbEntity
  8
0
100
AcDbLine
 62
7
  6
CONTINUOUS
 10
2.5339765544
 20
6.3076139337
 11
2.4147245859
 21
5.7695430675
  0
LINE
  5
214
100
AcDbEntity
  8
0
100
AcDbLine
 62
7
  6
CONTINUOUS
 10
2.7775198625
 20
7.4060219831
 11
2.658204455
 21
6.8678742175
  0
LINE
  5
215
100
AcDbEntity
  8
0
100
AcDbLine
 62
7
  6
CONTINUOUS
 10
2.1073230111
 20
3.7225588158
 11
2.0798151371
 21
3.5984328315
  0
LINE
  5
216
100
AcDbEntity
  8
0
100
AcDbLine
 62
7
  6
CONTINUOUS
 10
2.1846340347
 20
4.071196611
 11
2.1311970268
 21
3.830196611
  0
LINE
  5
217
100
AcDbEntity
  8
0
100
AcDbLine
 62
7
  6
CONTINUOUS
 10
2.5547560819
 20
5.5348186581
 11
2.4354489959
 21
4.9966966133
  0
LINE
  5
218
100
AcDbEntity
  8
0
100
AcDbLine
 62
7
  6
CONTINUOUS
 10
2.2573938772
 20
4.0945745638
 11
2.2490316725
 21
4.0569210205
  0
LINE
  5
219
100
AcDbEntity
  8
0
100
AcDbLine
 62
7
  6
CONTINUOUS
 10
2.3354608064
 20
3.5417792882
 11
2.3629608064
 21
3.6659210205
  0
LINE
  5
21A
100
AcDbEntity
  8
0
100
AcDbLine
 62
7
  6
CONTINUOUS
 10
2.5046694678
 20
4.0095036976
 11
2.4646419087
 21
3.8288383433
  0
LINE
  5
21B
100
AcDbEntity
  8
0
100
AcDbLine
 62
7
  6
CONTINUOUS
 10
2.4254056883
 20
3.6520312567
 11
2.3853781292
 21
3.4714210205
  0
LINE
  5
21C
100
AcDbEntity
  8
0
100
AcDbLine
 62
7
  6
CONTINUOUS
 10
2.3423505702
 20
3.2773107843
 11
2.2230474205
 21
2.739161178
  0
LINE
  5
21D
100
AcDbEntity
  8
0
100
AcDbLine
 62
7
  6
CONTINUOUS
 10
3.1963284144
 20
6.7486130994
 11
3.3156271809
 21
7.2866858097
  0
LINE
  5
21E
100
AcDbEntity
  8
0
100
AcDbLine
 62
7
  6
CONTINUOUS
 10
2.9528112
 20
5.650251729
 11
3.0721143496
 21
6.1883225951
  0
LINE
  5
21F
100
AcDbEntity
  8
0
100
AcDbLine
 62
7
  6
CONTINUOUS
 10
2.973531673
 20
4.8774485818
 11
3.0928387591
 21
5.4155430675
  0
LINE
  5
220
100
AcDbEntity
  8
0
100
AcDbLine
 62
7
  6
CONTINUOUS
 10
3.2662245859
 20
6.145291099
 11
3.1469332473
 21
5.6072202329
  0
LINE
  5
221
100
AcDbEntity
  8
0
100
AcDbLine
 62
7
  6
CONTINUOUS
 10
2.902783641
 20
4.1249052724
 11
3.022031673
 21
4.66304307
  0
LINE
  5
222
100
AcDbEntity
  8
0
100
AcDbLine
 62
7
  6
CONTINUOUS
 10
2.4839489959
 20
4.7822950385
 11
2.3645867906
 21
4.2442123591
  0
LINE
  5
223
100
AcDbEntity
  8
0
100
AcDbLine
 62
7
  6
CONTINUOUS
 10
2.4021419087
 20
3.8427241701
 11
2.440283641
 21
4.0145036976
  0
LINE
  5
224
100
AcDbEntity
  8
0
100
AcDbLine
 62
7
  6
CONTINUOUS
 10
2.2631970268
 20
3.5206848
 11
2.2710592316
 21
3.5560036976
  0
LINE
  5
225
100
AcDbEntity
  8
0
100
AcDbLine
 62
7
  6
CONTINUOUS
 10
2.3758230111
 20
4.0288225953
 11
2.3842403339
 21
4.0664761386
  0
LINE
  5
226
100
AcDbEntity
  8
0
100
AcDbLine
 62
7
  6
CONTINUOUS
 10
3.0628387591
 20
3.3804879496
 11
3.0550198615
 21
3.3451139339
  0
LINE
  5
227
100
AcDbEntity
  8
0
100
AcDbLine
 62
7
  6
CONTINUOUS
 10
3.1760041135
 20
3.8909603906
 11
3.1676576568
 21
3.8532517291
  0
LINE
  5
228
100
AcDbEntity
  8
0
100
AcDbLine
 62
7
  6
CONTINUOUS
 10
3.1818663182
 20
3.3170155087
 11
3.1896852158
 21
3.3523383433
  0
LINE
  5
229
100
AcDbEntity
  8
0
100
AcDbLine
 62
7
  6
CONTINUOUS
 10
3.0260041135
 20
3.5189485795
 11
2.9984923024
 21
3.3947674772
  0
LINE
  5
22A
100
AcDbEntity
  8
0
100
AcDbLine
 62
7
  6
CONTINUOUS
 10
3.0027245859
 20
3.7095470047
 11
3.042767893
 21
3.8902517291
  0
LINE
  5
22B
100
AcDbEntity
  8
0
100
AcDbLine
 62
7
  6
CONTINUOUS
 10
2.9234608064
 20
3.3521139339
 11
2.9635041135
 21
3.5327792882
  0
LINE
  5
22C
100
AcDbEntity
  8
0
100
AcDbLine
 62
7
  6
CONTINUOUS
 10
2.7611300977
 20
2.6198580284
 11
2.8804332473
 21
3.1580036976
  0
LINE
  5
22D
100
AcDbEntity
  8
0
100
AcDbLine
 62
7
  6
CONTINUOUS
 10
3.103256082
 20
3.8675863748
 11
3.0651694678
 21
3.6957123591
  0
LINE
  5
22E
100
AcDbEntity
  8
0
100
AcDbLine
 62
7
  6
CONTINUOUS
 10
3.4700041135
 20
5.3319328315
 11
3.3506987089
 21
4.7937946658
  0
LINE
  5
22F
100
AcDbEntity
  8
0
100
AcDbLine
 62
7
  6
CONTINUOUS
 10
3.2945041135
 20
3.8251572409
 11
3.3028505702
 21
3.8628107843
  0
LINE
  5
230
100
AcDbEntity
  8
0
100
AcDbLine
 62
7
  6
CONTINUOUS
 10
3.6850749796
 20
5.4879288943
 11
3.8043230111
 21
6.0259997605
  0
LINE
  5
231
100
AcDbEntity
  8
0
100
AcDbLine
 62
7
  6
CONTINUOUS
 10
3.490724586
 20
4.5591414935
 11
3.3714332473
 21
4.0210036976
  0
LINE
  5
232
100
AcDbEntity
  8
0
100
AcDbLine
 62
7
  6
CONTINUOUS
 10
3.2540749796
 20
3.3381139339
 11
3.2815867906
 21
3.4622517291
  0
LINE
  5
233
100
AcDbEntity
  8
0
100
AcDbLine
 62
7
  6
CONTINUOUS
 10
3.3054608064
 20
3.5698934614
 11
3.3588938772
 21
3.8108777134
  0
LINE
  5
234
100
AcDbEntity
  8
0
100
AcDbLine
 62
7
  6
CONTINUOUS
 10
3.9984332473
 20
5.9829682643
 11
3.8791300977
 21
5.4448934612
  0
LINE
  5
235
100
AcDbEntity
  8
0
100
AcDbLine
 62
7
  6
CONTINUOUS
 10
4.2419648246
 20
7.0815598404
 11
4.1226824261
 21
6.5434169769
  0
LINE
  5
236
100
AcDbEntity
  8
0
100
AcDbLine
 62
7
  6
CONTINUOUS
 10
3.8888268184
 20
4.6745522703
 11
4.0081198385
 21
5.2126345748
  0
LINE
  5
237
100
AcDbEntity
  8
0
100
AcDbLine
 62
7
  6
CONTINUOUS
 10
3.6944820432
 20
3.7457290629
 11
3.5751907052
 21
3.2076463881
  0
LINE
  5
238
100
AcDbEntity
  8
0
100
AcDbLine
 62
7
  6
CONTINUOUS
 10
3.3152245859
 20
3.4548225953
 11
3.3391025387
 21
3.5624052724
  0
LINE
  5
239
100
AcDbEntity
  8
0
100
AcDbLine
 62
7
  6
CONTINUOUS
 10
3.6236907052
 20
2.9932841834
 11
3.5043836186
 21
2.455095207
  0
LINE
  5
23A
100
AcDbEntity
  8
0
100
AcDbLine
 62
7
  6
CONTINUOUS
 10
4.2021907047
 20
5.1696188267
 11
4.082883618
 21
4.6314810315
  0
LINE
  5
23B
100
AcDbEntity
  8
0
100
AcDbLine
 62
7
  6
CONTINUOUS
 10
4.4172458228
 20
5.3255912677
 11
4.5364977912
 21
5.8636818186
  0
LINE
  5
23C
100
AcDbEntity
  8
0
100
AcDbLine
 62
7
  6
CONTINUOUS
 10
4.6607904856
 20
6.4240841351
 11
4.7800671486
 21
6.9622011229
  0
LINE
  5
23D
100
AcDbEntity
  8
0
100
AcDbLine
 62
7
  6
CONTINUOUS
 10
4.2229702322
 20
4.3968274881
 11
4.1036631456
 21
3.8586896929
  0
LINE
  5
23E
100
AcDbEntity
  8
0
100
AcDbLine
 62
7
  6
CONTINUOUS
 10
4.1133285004
 20
3.0882841834
 11
4.2326198385
 21
3.6264810315
  0
LINE
  5
23F
100
AcDbEntity
  8
0
100
AcDbLine
 62
7
  6
CONTINUOUS
 10
4.9741891971
 20
6.9191696216
 11
4.854896014
 21
6.3810904357
  0
LINE
  5
240
100
AcDbEntity
  8
0
100
AcDbLine
 62
7
  6
CONTINUOUS
 10
4.7306749566
 20
5.8206503225
 11
4.611371807
 21
5.2825637086
  0
LINE
  5
241
100
AcDbEntity
  8
0
100
AcDbLine
 62
7
  6
CONTINUOUS
 10
4.0425253508
 20
2.3358471755
 11
4.1618285004
 21
2.8739337897
  0
LINE
  5
242
100
AcDbEntity
  8
0
100
AcDbLine
 62
7
  6
CONTINUOUS
 10
4.6210253503
 20
4.5122290629
 11
4.7403284999
 21
5.0503156771
  0
LINE
  5
243
100
AcDbEntity
  8
0
100
AcDbLine
 62
7
  6
CONTINUOUS
 10
4.4267458228
 20
3.5834101653
 11
4.3074387367
 21
3.0453156794
  0
LINE
  5
244
100
AcDbEntity
  8
0
100
AcDbLine
 62
7
  6
CONTINUOUS
 10
3.9094977913
 20
3.9017172519
 11
4.028856059
 21
4.4398550472
  0
LINE
  5
245
100
AcDbEntity
  8
0
100
AcDbLine
 62
7
  6
CONTINUOUS
 10
4.6417458228
 20
3.7393826063
 11
4.7610529094
 21
4.2774652834
  0
LINE
  5
246
100
AcDbEntity
  8
0
100
AcDbLine
 62
7
  6
CONTINUOUS
 10
4.9344505472
 20
5.0072841811
 11
4.8151592086
 21
4.4691463858
  0
LINE
  5
247
100
AcDbEntity
  8
0
100
AcDbLine
 62
7
  6
CONTINUOUS
 10
5.1494505472
 20
5.1632172519
 11
5.2687418857
 21
5.7013589839
  0
LINE
  5
248
100
AcDbEntity
  8
0
100
AcDbLine
 62
7
  6
CONTINUOUS
 10
5.3930147881
 20
6.2618059317
 11
5.5123042824
 21
6.7998684795
  0
LINE
  5
249
100
AcDbEntity
  8
0
100
AcDbLine
 62
7
  6
CONTINUOUS
 10
4.9551592086
 20
4.2344534724
 11
4.83586787
 21
3.6963550472
  0
LINE
  5
24A
100
AcDbEntity
  8
0
100
AcDbLine
 62
7
  6
CONTINUOUS
 10
5.462875744
 20
5.6583274879
 11
5.3435844054
 21
5.1201896929
  0
LINE
  5
24B
100
AcDbEntity
  8
0
100
AcDbLine
 62
7
  6
CONTINUOUS
 10
5.7064381428
 20
6.7568369791
 11
5.5871532791
 21
6.2187559505
  0
LINE
  5
24C
100
AcDbEntity
  8
0
100
AcDbLine
 62
7
  6
CONTINUOUS
 10
4.9050410989
 20
2.709110955
 11
4.7858009414
 21
2.1710243409
  0
LINE
  5
24D
100
AcDbEntity
  8
0
100
AcDbLine
 62
7
  6
CONTINUOUS
 10
5.3532300747
 20
4.3498432362
 11
5.4725214133
 21
4.8879810315
  0
LINE
  5
24E
100
AcDbEntity
  8
0
100
AcDbLine
 62
7
  6
CONTINUOUS
 10
5.1589387362
 20
3.4210794566
 11
5.0396473981
 21
2.8829377267
  0
LINE
  5
24F
100
AcDbEntity
  8
0
100
AcDbLine
 62
7
  6
CONTINUOUS
 10
4.8455135398
 20
2.9259613487
 11
4.964844248
 21
3.4641070157
  0
LINE
  5
250
100
AcDbEntity
  8
0
100
AcDbLine
 62
7
  6
CONTINUOUS
 10
5.8911434606
 20
3.258756622
 11
5.7719308627
 21
2.720610955
  0
LINE
  5
251
100
AcDbEntity
  8
0
100
AcDbLine
 62
7
  6
CONTINUOUS
 10
5.6666552716
 20
4.8449652834
 11
5.547363933
 21
4.3068274881
  0
LINE
  5
252
100
AcDbEntity
  8
0
100
AcDbLine
 62
7
  6
CONTINUOUS
 10
5.8816552716
 20
5.0008826063
 11
6.0009859802
 21
5.5390361493
  0
LINE
  5
253
100
AcDbEntity
  8
0
100
AcDbLine
 62
7
  6
CONTINUOUS
 10
6.1252637348
 20
6.0994339242
 11
6.2445615479
 21
6.6375733665
  0
LINE
  5
254
100
AcDbEntity
  8
0
100
AcDbLine
 62
7
  6
CONTINUOUS
 10
5.3238993666
 20
2.0517211913
 11
5.4431907052
 21
2.5898629235
  0
LINE
  5
255
100
AcDbEntity
  8
0
100
AcDbLine
 62
7
  6
CONTINUOUS
 10
6.1950804684
 20
5.4960046532
 11
6.0758284999
 21
4.9578707952
  0
LINE
  5
256
100
AcDbEntity
  8
0
100
AcDbLine
 62
7
  6
CONTINUOUS
 10
6.4386954078
 20
6.5945025013
 11
6.3193859574
 21
6.0563993616
  0
LINE
  5
257
100
AcDbEntity
  8
0
100
AcDbLine
 62
7
  6
CONTINUOUS
 10
5.3739387362
 20
3.5770637086
 11
5.4932694448
 21
4.1151463858
  0
LINE
  5
258
100
AcDbEntity
  8
0
100
AcDbLine
 62
7
  6
CONTINUOUS
 10
5.6874033031
 20
4.0721188267
 11
5.5680725944
 21
3.5340361496
  0
LINE
  5
259
100
AcDbEntity
  8
0
100
AcDbLine
 62
7
  6
CONTINUOUS
 10
5.5777182642
 20
2.7636345771
 11
5.6970489724
 21
3.30177237
  0
LINE
  5
25A
100
AcDbEntity
  8
0
100
AcDbLine
 62
7
  6
CONTINUOUS
 10
6.0854347991
 20
4.1875204015
 11
6.2047655078
 21
4.7256070157
  0
LINE
  5
25B
100
AcDbEntity
  8
0
100
AcDbLine
 62
7
  6
CONTINUOUS
 10
5.8806710201
 20
2.1178550495
 11
5.8531907052
 21
1.9936700102
  0
LINE
  5
25C
100
AcDbEntity
  8
0
100
AcDbLine
 62
7
  6
CONTINUOUS
 10
6.1062222007
 20
3.4147290629
 11
6.2255135393
 21
3.9528156771
  0
LINE
  5
25D
100
AcDbEntity
  8
0
100
AcDbLine
 62
7
  6
CONTINUOUS
 10
6.3988993661
 20
4.6825794566
 11
6.2796080275
 21
4.1444928425
  0
LINE
  5
25E
100
AcDbEntity
  8
0
100
AcDbLine
 62
7
  6
CONTINUOUS
 10
5.8709072406
 20
2.2329259157
 11
5.8470489729
 21
2.1252881204
  0
LINE
  5
25F
100
AcDbEntity
  8
0
100
AcDbLine
 62
7
  6
CONTINUOUS
 10
5.9579938548
 20
2.4664337897
 11
5.9045686579
 21
2.2254928448
  0
LINE
  5
260
100
AcDbEntity
  8
0
100
AcDbLine
 62
7
  6
CONTINUOUS
 10
6.0306710201
 20
2.4898196165
 11
6.0223245634
 21
2.4521660731
  0
LINE
  5
261
100
AcDbEntity
  8
0
100
AcDbLine
 62
7
  6
CONTINUOUS
 10
6.6139387362
 20
4.8385637086
 11
6.7332300747
 21
5.3767015036
  0
LINE
  5
262
100
AcDbEntity
  8
0
100
AcDbLine
 62
7
  6
CONTINUOUS
 10
6.8575022359
 20
5.9371036005
 11
6.9768225021
 21
6.4752555208
  0
LINE
  5
263
100
AcDbEntity
  8
0
100
AcDbLine
 62
7
  6
CONTINUOUS
 10
6.4195686574
 20
3.9097999291
 11
6.3002773188
 21
3.3717015039
  0
LINE
  5
264
100
AcDbEntity
  8
0
100
AcDbLine
 62
7
  6
CONTINUOUS
 10
6.1491749571
 20
2.4240637109
 11
6.1575214138
 21
2.4617133172
  0
LINE
  5
265
100
AcDbEntity
  8
0
100
AcDbLine
 62
7
  6
CONTINUOUS
 10
6.1755135398
 20
2.2379731598
 11
6.213584406
 21
2.4097959944
  0
LINE
  5
266
100
AcDbEntity
  8
0
100
AcDbLine
 62
7
  6
CONTINUOUS
 10
6.1087418863
 20
1.9370290653
 11
6.1362615713
 21
2.0611621361
  0
LINE
  5
267
100
AcDbEntity
  8
0
100
AcDbLine
 62
7
  6
CONTINUOUS
 10
6.3100017288
 20
2.6013629235
 11
6.4292930669
 21
3.1394534724
  0
LINE
  5
268
100
AcDbEntity
  8
0
100
AcDbLine
 62
7
  6
CONTINUOUS
 10
6.9272851928
 20
5.3336739446
 11
6.8080332243
 21
4.7955361496
  0
LINE
  5
269
100
AcDbEntity
  8
0
100
AcDbLine
 62
7
  6
CONTINUOUS
 10
7.1709169905
 20
6.4321846561
 11
7.0516298103
 21
5.8940734967
  0
LINE
  5
26A
100
AcDbEntity
  8
0
100
AcDbLine
 62
7
  6
CONTINUOUS
 10
6.623348185
 20
3.0964259133
 11
6.504096217
 21
2.5582841834
  0
LINE
  5
26B
100
AcDbEntity
  8
0
100
AcDbLine
 62
7
  6
CONTINUOUS
 10
6.8384269251
 20
3.2524101653
 11
6.9577182637
 21
3.7904928425
  0
LINE
  5
26C
100
AcDbEntity
  8
0
100
AcDbLine
 62
7
  6
CONTINUOUS
 10
6.8176788936
 20
4.0251896929
 11
6.9370096023
 21
4.5633274881
  0
LINE
  5
26D
100
AcDbEntity
  8
0
100
AcDbLine
 62
7
  6
CONTINUOUS
 10
6.0365371619
 20
1.9159247346
 11
6.0444111776
 21
1.9512959944
  0
LINE
  5
26E
100
AcDbEntity
  8
0
100
AcDbLine
 62
7
  6
CONTINUOUS
 10
5.9175607839
 20
1.9794022936
 11
5.9096867682
 21
1.944083396
  0
LINE
  5
26F
100
AcDbEntity
  8
0
100
AcDbLine
 62
7
  6
CONTINUOUS
 10
1.449644678
 20
2.1444435153
 11
5.931477298
 21
1.1507541881
  0
LINE
  5
270
100
AcDbEntity
  8
0
100
AcDbLine
 62
7
  6
CONTINUOUS
 10
7.7958285004
 20
2.2059652857
 11
7.7958285004
 21
2.0209062306
  0
LINE
  5
271
100
AcDbEntity
  8
0
100
AcDbLine
 62
7
  6
CONTINUOUS
 10
7.7958285004
 20
1.839807018
 11
7.7958285004
 21
1.6547483566
  0
LINE
  5
272
100
AcDbEntity
  8
0
100
AcDbLine
 62
7
  6
CONTINUOUS
 10
7.5897448957
 20
5.774772354
 11
7.7090403953
 21
6.3129210429
  0
LINE
  5
273
100
AcDbEntity
  8
0
100
AcDbLine
 62
7
  6
CONTINUOUS
 10
7.0422064532
 20
2.4390361519
 11
7.1614977913
 21
2.9771188267
  0
LINE
  5
274
100
AcDbEntity
  8
0
100
AcDbLine
 62
7
  6
CONTINUOUS
 10
7.3461040905
 20
4.6762290629
 11
7.4654347991
 21
5.214370795
  0
LINE
  5
275
100
AcDbEntity
  8
0
100
AcDbLine
 62
7
  6
CONTINUOUS
 10
10.1933424564
 20
1.1509473614
 11
14.505465065
 21
2.1074195675
  0
LINE
  5
276
100
AcDbEntity
  8
0
100
AcDbLine
 62
7
  6
CONTINUOUS
 10
6.1362615713
 20
2.0611621361
 11
7.7958285004
 21
1.839807018
  0
LINE
  5
277
100
AcDbEntity
  8
0
100
AcDbLine
 62
7
  6
CONTINUOUS
 10
7.7958285004
 20
2.0209062306
 11
6.1755135398
 21
2.2379731598
  0
LINE
  5
278
100
AcDbEntity
  8
0
100
AcDbLine
 62
7
  6
CONTINUOUS
 10
5.9045686579
 20
2.2254928448
 11
5.8709072406
 21
2.2329259157
  0
LINE
  5
279
100
AcDbEntity
  8
0
100
AcDbLine
 62
7
  6
CONTINUOUS
 10
5.8470489729
 20
2.1252881204
 11
5.8806710201
 21
2.1178550495
  0
LINE
  5
27A
100
AcDbEntity
  8
0
100
AcDbLine
 62
7
  6
CONTINUOUS
 10
6.213584406
 20
2.4097959944
 11
6.1491749571
 21
2.4240637109
  0
LINE
  5
27B
100
AcDbEntity
  8
0
100
AcDbLine
 62
7
  6
CONTINUOUS
 10
2.2230474205
 20
2.739161178
 11
2.7611300977
 21
2.6198580284
  0
LINE
  5
27C
100
AcDbEntity
  8
0
100
AcDbLine
 62
7
  6
CONTINUOUS
 10
4.7858009414
 20
2.1710243409
 11
5.3238993666
 21
2.0517211913
  0
LINE
  5
27D
100
AcDbEntity
  8
0
100
AcDbLine
 62
7
  6
CONTINUOUS
 10
3.5043836186
 20
2.455095207
 11
4.0425253508
 21
2.3358471755
  0
LINE
  5
27E
100
AcDbEntity
  8
0
100
AcDbLine
 62
7
  6
CONTINUOUS
 10
5.8531907052
 20
1.9936700102
 11
5.9175607839
 21
1.9794022936
  0
LINE
  5
27F
100
AcDbEntity
  8
0
100
AcDbLine
 62
7
  6
CONTINUOUS
 10
2.8804332473
 20
3.1580036976
 11
2.3423505702
 21
3.2773107843
  0
LINE
  5
280
100
AcDbEntity
  8
0
100
AcDbLine
 62
7
  6
CONTINUOUS
 10
5.4431907052
 20
2.5898629235
 11
4.9050410989
 21
2.709110955
  0
LINE
  5
281
100
AcDbEntity
  8
0
100
AcDbLine
 62
7
  6
CONTINUOUS
 10
6.1575214138
 20
2.4617133172
 11
6.0306710201
 21
2.4898196165
  0
LINE
  5
282
100
AcDbEntity
  8
0
100
AcDbLine
 62
7
  6
CONTINUOUS
 10
2.3853781292
 20
3.4714210205
 11
2.9234608064
 21
3.3521139339
  0
LINE
  5
283
100
AcDbEntity
  8
0
100
AcDbLine
 62
7
  6
CONTINUOUS
 10
5.0396473981
 20
2.8829377267
 11
5.5777182642
 21
2.7636345771
  0
LINE
  5
284
100
AcDbEntity
  8
0
100
AcDbLine
 62
7
  6
CONTINUOUS
 10
5.7719308627
 20
2.720610955
 11
6.3100017288
 21
2.6013629235
  0
LINE
  5
285
100
AcDbEntity
  8
0
100
AcDbLine
 62
7
  6
CONTINUOUS
 10
6.504096217
 20
2.5582841834
 11
7.0422064532
 21
2.4390361519
  0
LINE
  5
286
100
AcDbEntity
  8
0
100
AcDbLine
 62
7
  6
CONTINUOUS
 10
6.0444111776
 20
1.9512959944
 11
6.1087418863
 21
1.9370290653
  0
LINE
  5
287
100
AcDbEntity
  8
0
100
AcDbLine
 62
7
  6
CONTINUOUS
 10
6.0223245634
 20
2.4521660731
 11
5.9579938548
 21
2.4664337897
  0
LINE
  5
288
100
AcDbEntity
  8
0
100
AcDbLine
 62
7
  6
CONTINUOUS
 10
4.1618285004
 20
2.8739337897
 11
3.6236907052
 21
2.9932841834
  0
LINE
  5
289
100
AcDbEntity
  8
0
100
AcDbLine
 62
7
  6
CONTINUOUS
 10
3.5751907052
 20
3.2076463881
 11
4.1133285004
 21
3.0882841834
  0
LINE
  5
28A
100
AcDbEntity
  8
0
100
AcDbLine
 62
7
  6
CONTINUOUS
 10
4.3074387367
 20
3.0453156794
 11
4.8455135398
 21
2.9259613487
  0
LINE
  5
28B
100
AcDbEntity
  8
0
100
AcDbLine
 62
7
  6
CONTINUOUS
 10
5.9096867682
 20
1.944083396
 11
6.0365371619
 21
1.9159247346
  0
LINE
  5
28C
100
AcDbEntity
  8
0
100
AcDbLine
 62
7
  6
CONTINUOUS
 10
8.3470096028
 20
1.6547483566
 11
8.3470096028
 21
1.839807018
  0
LINE
  5
28D
100
AcDbEntity
  8
0
100
AcDbLine
 62
7
  6
CONTINUOUS
 10
8.3470096028
 20
2.0209062306
 11
8.3470096028
 21
2.2059652857
  0
LINE
  5
28E
100
AcDbEntity
  8
0
100
AcDbLine
 62
7
  6
CONTINUOUS
 10
10.1063009414
 20
1.9159247346
 11
10.2331513351
 21
1.944083396
  0
LINE
  5
28F
100
AcDbEntity
  8
0
100
AcDbLine
 62
7
  6
CONTINUOUS
 10
11.8285056658
 20
2.2798550495
 11
12.366615902
 21
2.3992133172
  0
LINE
  5
290
100
AcDbEntity
  8
0
100
AcDbLine
 62
7
  6
CONTINUOUS
 10
12.9268521225
 20
2.5234022936
 11
13.4649229886
 21
2.6427054432
  0
LINE
  5
291
100
AcDbEntity
  8
0
100
AcDbLine
 62
7
  6
CONTINUOUS
 10
10.7301985792
 20
2.0364219787
 11
11.2683481855
 21
2.1557251283
  0
LINE
  5
292
100
AcDbEntity
  8
0
100
AcDbLine
 62
7
  6
CONTINUOUS
 10
14.0251592091
 20
2.7668904826
 11
14.5633088154
 21
2.8861936322
  0
LINE
  5
293
100
AcDbEntity
  8
0
100
AcDbLine
 62
7
  6
CONTINUOUS
 10
10.2252773193
 20
1.9794022936
 11
10.2896473981
 21
1.9936700102
  0
LINE
  5
294
100
AcDbEntity
  8
0
100
AcDbLine
 62
7
  6
CONTINUOUS
 10
10.034096217
 20
1.9370290653
 11
10.0984269256
 21
1.9512959944
  0
LINE
  5
295
100
AcDbEntity
  8
0
100
AcDbLine
 62
7
  6
CONTINUOUS
 10
10.2621670831
 20
2.1178550495
 11
10.2957891304
 21
2.1252881204
  0
LINE
  5
296
100
AcDbEntity
  8
0
100
AcDbLine
 62
7
  6
CONTINUOUS
 10
9.9673245634
 20
2.2379731598
 11
8.3470096028
 21
2.0209062306
  0
LINE
  5
297
100
AcDbEntity
  8
0
100
AcDbLine
 62
7
  6
CONTINUOUS
 10
8.3470096028
 20
1.839807018
 11
10.0065765319
 21
2.0611621361
  0
LINE
  5
298
100
AcDbEntity
  8
0
100
AcDbLine
 62
7
  6
CONTINUOUS
 10
7.7958285004
 20
1.6547483566
 11
8.3470096028
 21
1.6547483566
  0
LINE
  5
299
100
AcDbEntity
  8
0
100
AcDbLine
 62
7
  6
CONTINUOUS
 10
8.3470096028
 20
2.2059652857
 11
7.7958285004
 21
2.2059652857
  0
LINE
  5
29A
100
AcDbEntity
  8
0
100
AcDbLine
 62
7
  6
CONTINUOUS
 10
16.2105595612
 20
2.2942526873
 11
20.9920096028
 21
2.2942526873
  0
LINE
  5
29B
100
AcDbEntity
  8
0
100
AcDbLine
 62
7
  6
CONTINUOUS
 10
3.1896852158
 20
3.3523383433
 11
3.2540749796
 21
3.3381139339
  0
LINE
  5
29C
100
AcDbEntity
  8
0
100
AcDbLine
 62
7
  6
CONTINUOUS
 10
2.2710592316
 20
3.5560036976
 11
2.3354608064
 21
3.5417792882
  0
LINE
  5
29D
100
AcDbEntity
  8
0
100
AcDbLine
 62
7
  6
CONTINUOUS
 10
3.2815867906
 20
3.4622517291
 11
3.3152245859
 21
3.4548225953
  0
LINE
  5
29E
100
AcDbEntity
  8
0
100
AcDbLine
 62
7
  6
CONTINUOUS
 10
2.1311970268
 20
3.830196611
 11
2.0975592316
 21
3.8376296819
  0
LINE
  5
29F
100
AcDbEntity
  8
0
100
AcDbLine
 62
7
  6
CONTINUOUS
 10
2.9635041135
 20
3.5327792882
 11
3.0260041135
 21
3.5189485795
  0
LINE
  5
2A0
100
AcDbEntity
  8
0
100
AcDbLine
 62
7
  6
CONTINUOUS
 10
3.0550198615
 20
3.3451139339
 11
3.1818663182
 21
3.3170155087
  0
LINE
  5
2A1
100
AcDbEntity
  8
0
100
AcDbLine
 62
7
  6
CONTINUOUS
 10
2.1363505702
 20
3.5487792882
 11
2.2631970268
 21
3.5206848
  0
LINE
  5
2A2
100
AcDbEntity
  8
0
100
AcDbLine
 62
7
  6
CONTINUOUS
 10
3.0651694678
 20
3.6957123591
 11
3.0027245859
 21
3.7095470047
  0
LINE
  5
2A3
100
AcDbEntity
  8
0
100
AcDbLine
 62
7
  6
CONTINUOUS
 10
2.3842403339
 20
4.0664761386
 11
2.2573938772
 21
4.0945745638
  0
LINE
  5
2A4
100
AcDbEntity
  8
0
100
AcDbLine
 62
7
  6
CONTINUOUS
 10
2.2490316725
 20
4.0569210205
 11
2.1846340347
 21
4.071196611
  0
LINE
  5
2A5
100
AcDbEntity
  8
0
100
AcDbLine
 62
7
  6
CONTINUOUS
 10
5.6970489724
 20
3.30177237
 11
5.1589387362
 21
3.4210794566
  0
LINE
  5
2A6
100
AcDbEntity
  8
0
100
AcDbLine
 62
7
  6
CONTINUOUS
 10
4.964844248
 20
3.4641070157
 11
4.4267458228
 21
3.5834101653
  0
LINE
  5
2A7
100
AcDbEntity
  8
0
100
AcDbLine
 62
7
  6
CONTINUOUS
 10
7.1614977913
 20
2.9771188267
 11
6.623348185
 21
3.0964259133
  0
LINE
  5
2A8
100
AcDbEntity
  8
0
100
AcDbLine
 62
7
  6
CONTINUOUS
 10
6.4292930669
 20
3.1394534724
 11
5.8911434606
 21
3.258756622
  0
LINE
  5
2A9
100
AcDbEntity
  8
0
100
AcDbLine
 62
7
  6
CONTINUOUS
 10
3.042767893
 20
3.8902517291
 11
2.5046694678
 21
4.0095036976
  0
LINE
  5
2AA
100
AcDbEntity
  8
0
100
AcDbLine
 62
7
  6
CONTINUOUS
 10
4.2326198385
 20
3.6264810315
 11
3.6944820432
 21
3.7457290629
  0
LINE
  5
2AB
100
AcDbEntity
  8
0
100
AcDbLine
 62
7
  6
CONTINUOUS
 10
4.1036631456
 20
3.8586896929
 11
4.6417458228
 21
3.7393826063
  0
LINE
  5
2AC
100
AcDbEntity
  8
0
100
AcDbLine
 62
7
  6
CONTINUOUS
 10
4.83586787
 20
3.6963550472
 11
5.3739387362
 21
3.5770637086
  0
LINE
  5
2AD
100
AcDbEntity
  8
0
100
AcDbLine
 62
7
  6
CONTINUOUS
 10
3.3714332473
 20
4.0210036976
 11
3.9094977913
 21
3.9017172519
  0
LINE
  5
2AE
100
AcDbEntity
  8
0
100
AcDbLine
 62
7
  6
CONTINUOUS
 10
5.5680725944
 20
3.5340361496
 11
6.1062222007
 21
3.4147290629
  0
LINE
  5
2AF
100
AcDbEntity
  8
0
100
AcDbLine
 62
7
  6
CONTINUOUS
 10
6.3002773188
 20
3.3717015039
 11
6.8384269251
 21
3.2524101653
  0
LINE
  5
2B0
100
AcDbEntity
  8
0
100
AcDbLine
 62
7
  6
CONTINUOUS
 10
2.3645867906
 20
4.2442123591
 11
2.902783641
 21
4.1249052724
  0
LINE
  5
2B1
100
AcDbEntity
  8
0
100
AcDbLine
 62
7
  6
CONTINUOUS
 10
2.9984923024
 20
3.3947674772
 11
3.0628387591
 21
3.3804879496
  0
LINE
  5
2B2
100
AcDbEntity
  8
0
100
AcDbLine
 62
7
  6
CONTINUOUS
 10
3.3588938772
 20
3.8108777134
 11
3.2945041135
 21
3.8251572409
  0
LINE
  5
2B3
100
AcDbEntity
  8
0
100
AcDbLine
 62
7
  6
CONTINUOUS
 10
3.3028505702
 20
3.8628107843
 11
3.1760041135
 21
3.8909603906
  0
LINE
  5
2B4
100
AcDbEntity
  8
0
100
AcDbLine
 62
7
  6
CONTINUOUS
 10
2.4646419087
 20
3.8288383433
 11
2.4021419087
 21
3.8427241701
  0
LINE
  5
2B5
100
AcDbEntity
  8
0
100
AcDbLine
 62
7
  6
CONTINUOUS
 10
2.440283641
 20
4.0145036976
 11
2.3758230111
 21
4.0288225953
  0
LINE
  5
2B6
100
AcDbEntity
  8
0
100
AcDbLine
 62
7
  6
CONTINUOUS
 10
2.3629608064
 20
3.6659210205
 11
2.4254056883
 21
3.6520312567
  0
LINE
  5
2B7
100
AcDbEntity
  8
0
100
AcDbLine
 62
7
  6
CONTINUOUS
 10
3.3391025387
 20
3.5624052724
 11
3.3054608064
 21
3.5698934614
  0
LINE
  5
2B8
100
AcDbEntity
  8
0
100
AcDbLine
 62
7
  6
CONTINUOUS
 10
3.1676576568
 20
3.8532517291
 11
3.103256082
 21
3.8675863748
  0
LINE
  5
2B9
100
AcDbEntity
  8
0
100
AcDbLine
 62
7
  6
CONTINUOUS
 10
2.0798151371
 20
3.5984328315
 11
2.1441615938
 21
3.5841021228
  0
LINE
  5
2BA
100
AcDbEntity
  8
0
100
AcDbLine
 62
7
  6
CONTINUOUS
 10
2.0737403339
 20
3.7300470047
 11
2.1073230111
 21
3.7225588158
  0
LINE
  5
2BB
100
AcDbEntity
  8
0
100
AcDbLine
 62
7
  6
CONTINUOUS
 10
8.6594505477
 20
4.4465204039
 11
8.7787418863
 21
3.9084377267
  0
LINE
  5
2BC
100
AcDbEntity
  8
0
100
AcDbLine
 62
7
  6
CONTINUOUS
 10
14.2694111776
 20
3.7787172543
 11
14.3318521225
 21
3.792607018
  0
LINE
  5
2BD
100
AcDbEntity
  8
0
100
AcDbLine
 62
7
  6
CONTINUOUS
 10
14.572088343
 20
3.9184810338
 11
14.6057497603
 21
3.9259652857
  0
LINE
  5
2BE
100
AcDbEntity
  8
0
100
AcDbLine
 62
7
  6
CONTINUOUS
 10
13.5240174768
 20
3.3937290653
 11
13.6508678705
 21
3.4218983566
  0
LINE
  5
2BF
100
AcDbEntity
  8
0
100
AcDbLine
 62
7
  6
CONTINUOUS
 10
13.3456316501
 20
3.1808432385
 11
12.8075607839
 21
3.0614810338
  0
LINE
  5
2C0
100
AcDbEntity
  8
0
100
AcDbLine
 62
7
  6
CONTINUOUS
 10
10.1848442485
 20
2.4664337897
 11
10.1205135398
 21
2.4521660731
  0
LINE
  5
2C1
100
AcDbEntity
  8
0
100
AcDbLine
 62
7
  6
CONTINUOUS
 10
14.4439781067
 20
3.4242841834
 11
13.9059072406
 21
3.3049810338
  0
LINE
  5
2C2
100
AcDbEntity
  8
0
100
AcDbLine
 62
7
  6
CONTINUOUS
 10
11.1490174768
 20
2.6938117424
 11
10.6108678705
 21
2.5745085928
  0
LINE
  5
2C3
100
AcDbEntity
  8
0
100
AcDbLine
 62
7
  6
CONTINUOUS
 10
13.7713009414
 20
3.4787999314
 11
14.3094505477
 21
3.598107018
  0
LINE
  5
2C4
100
AcDbEntity
  8
0
100
AcDbLine
 62
7
  6
CONTINUOUS
 10
12.5814190516
 20
3.2150204039
 11
13.1195686579
 21
3.3343274905
  0
LINE
  5
2C5
100
AcDbEntity
  8
0
100
AcDbLine
 62
7
  6
CONTINUOUS
 10
11.1170096028
 20
2.8903707976
 11
11.6551592091
 21
3.0096739472
  0
LINE
  5
2C6
100
AcDbEntity
  8
0
100
AcDbLine
 62
7
  6
CONTINUOUS
 10
10.3848048784
 20
2.7280440259
 11
10.9229151146
 21
2.8473471755
  0
LINE
  5
2C7
100
AcDbEntity
  8
0
100
AcDbLine
 62
7
  6
CONTINUOUS
 10
11.8492143272
 20
3.0527015062
 11
12.3873639335
 21
3.1719928448
  0
LINE
  5
2C8
100
AcDbEntity
  8
0
100
AcDbLine
 62
7
  6
CONTINUOUS
 10
9.652600154
 20
2.5657172543
 11
10.1907103902
 21
2.6850204039
  0
LINE
  5
2C9
100
AcDbEntity
  8
0
100
AcDbLine
 62
7
  6
CONTINUOUS
 10
9.9936631461
 20
2.4240637109
 11
9.9292536973
 21
2.4097959944
  0
LINE
  5
2CA
100
AcDbEntity
  8
0
100
AcDbLine
 62
7
  6
CONTINUOUS
 10
12.2473245634
 20
2.9372999314
 11
11.7091749571
 21
2.8180518999
  0
LINE
  5
2CB
100
AcDbEntity
  8
0
100
AcDbLine
 62
7
  6
CONTINUOUS
 10
10.1121670831
 20
2.4898196165
 11
9.9853166894
 21
2.4617133172
  0
LINE
  5
2CC
100
AcDbEntity
  8
0
100
AcDbLine
 62
7
  6
CONTINUOUS
 10
14.4426395241
 20
3.5973983566
 11
14.5695292878
 21
3.6255085928
  0
LINE
  5
2CD
100
AcDbEntity
  8
0
100
AcDbLine
 62
7
  6
CONTINUOUS
 10
14.5611828312
 20
3.6632172543
 11
14.6255529099
 21
3.6774810338
  0
LINE
  5
2CE
100
AcDbEntity
  8
0
100
AcDbLine
 62
7
  6
CONTINUOUS
 10
14.3699229886
 20
3.6207841834
 11
14.4343324375
 21
3.6350518999
  0
LINE
  5
2CF
100
AcDbEntity
  8
0
100
AcDbLine
 62
7
  6
CONTINUOUS
 10
13.6688206264
 20
3.6456345771
 11
13.7312615713
 21
3.6594652857
  0
LINE
  5
2D0
100
AcDbEntity
  8
0
100
AcDbLine
 62
7
  6
CONTINUOUS
 10
13.4512615713
 20
3.4171739472
 11
13.5156710201
 21
3.4314377267
  0
LINE
  5
2D1
100
AcDbEntity
  8
0
100
AcDbLine
 62
7
  6
CONTINUOUS
 10
13.6425214138
 20
3.4595518999
 11
13.7069308627
 21
3.4738156794
  0
LINE
  5
2D2
100
AcDbEntity
  8
0
100
AcDbLine
 62
7
  6
CONTINUOUS
 10
13.3642536973
 20
3.6507290653
 11
13.3978757445
 21
3.6581621361
  0
LINE
  5
2D3
100
AcDbEntity
  8
0
100
AcDbLine
 62
7
  6
CONTINUOUS
 10
10.2719308627
 20
2.2329259157
 11
10.2382694453
 21
2.2254928448
  0
LINE
  5
2D4
100
AcDbEntity
  8
0
100
AcDbLine
 62
7
  6
CONTINUOUS
 10
18.1484269256
 20
3.0127723724
 11
18.2784269256
 21
3.0127723724
  0
LINE
  5
2D5
100
AcDbEntity
  8
0
100
AcDbLine
 62
7
  6
CONTINUOUS
 10
19.0893718075
 20
3.0127723724
 11
19.2193718075
 21
3.0127723724
  0
LINE
  5
2D6
100
AcDbEntity
  8
0
100
AcDbLine
 62
7
  6
CONTINUOUS
 10
15.4082694453
 20
3.0422841834
 11
15.9595292878
 21
3.0422841834
  0
LINE
  5
2D7
100
AcDbEntity
  8
0
100
AcDbLine
 62
7
  6
CONTINUOUS
 10
16.1582694453
 20
3.0422841834
 11
16.7095292878
 21
3.0422841834
  0
LINE
  5
2D8
100
AcDbEntity
  8
0
100
AcDbLine
 62
7
  6
CONTINUOUS
 10
16.9082694453
 20
3.0422841834
 11
17.4595292878
 21
3.0422841834
  0
LINE
  5
2D9
100
AcDbEntity
  8
0
100
AcDbLine
 62
7
  6
CONTINUOUS
 10
18.4082694453
 20
3.0422841834
 11
18.9595292878
 21
3.0422841834
  0
LINE
  5
2DA
100
AcDbEntity
  8
0
100
AcDbLine
 62
7
  6
CONTINUOUS
 10
19.5332694453
 20
3.0422841834
 11
20.0845292878
 21
3.0422841834
  0
LINE
  5
2DB
100
AcDbEntity
  8
0
100
AcDbLine
 62
7
  6
CONTINUOUS
 10
18.0824426737
 20
3.0513983566
 11
18.1484269256
 21
3.0513983566
  0
LINE
  5
2DC
100
AcDbEntity
  8
0
100
AcDbLine
 62
7
  6
CONTINUOUS
 10
18.2784269256
 20
3.0513983566
 11
18.3443718075
 21
3.0513983566
  0
LINE
  5
2DD
100
AcDbEntity
  8
0
100
AcDbLine
 62
7
  6
CONTINUOUS
 10
19.0234269256
 20
3.0513983566
 11
19.0893718075
 21
3.0513983566
  0
LINE
  5
2DE
100
AcDbEntity
  8
0
100
AcDbLine
 62
7
  6
CONTINUOUS
 10
19.2193718075
 20
3.0513983566
 11
19.2853560595
 21
3.0513983566
  0
LINE
  5
2DF
100
AcDbEntity
  8
0
100
AcDbLine
 62
7
  6
CONTINUOUS
 10
20.5392536973
 20
3.0570322149
 11
20.6495292878
 21
3.0570322149
  0
LINE
  5
2E0
100
AcDbEntity
  8
0
100
AcDbLine
 62
7
  6
CONTINUOUS
 10
20.2922851934
 20
3.0914928448
 11
20.5392536973
 21
3.0914928448
  0
LINE
  5
2E1
100
AcDbEntity
  8
0
100
AcDbLine
 62
7
  6
CONTINUOUS
 10
20.6495292878
 20
3.0914928448
 11
20.776615902
 21
3.0914928448
  0
LINE
  5
2E2
100
AcDbEntity
  8
0
100
AcDbLine
 62
7
  6
CONTINUOUS
 10
20.2538206264
 20
3.1574062306
 11
20.2922851934
 21
3.1574062306
  0
LINE
  5
2E3
100
AcDbEntity
  8
0
100
AcDbLine
 62
7
  6
CONTINUOUS
 10
20.776615902
 20
3.1574062306
 11
20.8128757445
 21
3.1574062306
  0
LINE
  5
2E4
100
AcDbEntity
  8
0
100
AcDbLine
 62
7
  6
CONTINUOUS
 10
5.4932694448
 20
4.1151463858
 11
4.9551592086
 21
4.2344534724
  0
LINE
  5
2E5
100
AcDbEntity
  8
0
100
AcDbLine
 62
7
  6
CONTINUOUS
 10
6.2255135393
 20
3.9528156771
 11
5.6874033031
 21
4.0721188267
  0
LINE
  5
2E6
100
AcDbEntity
  8
0
100
AcDbLine
 62
7
  6
CONTINUOUS
 10
6.9577182637
 20
3.7904928425
 11
6.4195686574
 21
3.9097999291
  0
LINE
  5
2E7
100
AcDbEntity
  8
0
100
AcDbLine
 62
7
  6
CONTINUOUS
 10
4.028856059
 20
4.4398550472
 11
3.490724586
 21
4.5591414935
  0
LINE
  5
2E8
100
AcDbEntity
  8
0
100
AcDbLine
 62
7
  6
CONTINUOUS
 10
3.022031673
 20
4.66304307
 11
2.4839489959
 21
4.7822950385
  0
LINE
  5
2E9
100
AcDbEntity
  8
0
100
AcDbLine
 62
7
  6
CONTINUOUS
 10
5.547363933
 20
4.3068274881
 11
6.0854347991
 21
4.1875204015
  0
LINE
  5
2EA
100
AcDbEntity
  8
0
100
AcDbLine
 62
7
  6
CONTINUOUS
 10
4.8151592086
 20
4.4691463858
 11
5.3532300747
 21
4.3498432362
  0
LINE
  5
2EB
100
AcDbEntity
  8
0
100
AcDbLine
 62
7
  6
CONTINUOUS
 10
6.2796080275
 20
4.1444928425
 11
6.8176788936
 21
4.0251896929
  0
LINE
  5
2EC
100
AcDbEntity
  8
0
100
AcDbLine
 62
7
  6
CONTINUOUS
 10
4.082883618
 20
4.6314810315
 11
4.6210253503
 21
4.5122290629
  0
LINE
  5
2ED
100
AcDbEntity
  8
0
100
AcDbLine
 62
7
  6
CONTINUOUS
 10
2.4354489959
 20
4.9966966133
 11
2.973531673
 21
4.8774485818
  0
LINE
  5
2EE
100
AcDbEntity
  8
0
100
AcDbLine
 62
7
  6
CONTINUOUS
 10
3.3506987089
 20
4.7937946658
 11
3.8888268184
 21
4.6745522703
  0
LINE
  5
2EF
100
AcDbEntity
  8
0
100
AcDbLine
 62
7
  6
CONTINUOUS
 10
4.7610529094
 20
4.2774652834
 11
4.2229702322
 21
4.3968274881
  0
LINE
  5
2F0
100
AcDbEntity
  8
0
100
AcDbLine
 62
7
  6
CONTINUOUS
 10
10.0984269256
 20
1.9512959944
 11
10.1063009414
 21
1.9159247346
  0
LINE
  5
2F1
100
AcDbEntity
  8
0
100
AcDbLine
 62
7
  6
CONTINUOUS
 10
9.3168914926
 20
4.0277448133
 11
9.1975214138
 21
4.5658274905
  0
LINE
  5
2F2
100
AcDbEntity
  8
0
100
AcDbLine
 62
7
  6
CONTINUOUS
 10
9.5332300753
 20
3.1037999314
 11
9.652600154
 21
2.5657172543
  0
LINE
  5
2F3
100
AcDbEntity
  8
0
100
AcDbLine
 62
7
  6
CONTINUOUS
 10
9.0048048784
 20
3.7548983566
 11
9.1241355871
 21
3.2167566243
  0
LINE
  5
2F4
100
AcDbEntity
  8
0
100
AcDbLine
 62
7
  6
CONTINUOUS
 10
8.4366946422
 20
6.3176581991
 11
8.5559859808
 21
5.779587333
  0
LINE
  5
2F5
100
AcDbEntity
  8
0
100
AcDbLine
 62
7
  6
CONTINUOUS
 10
8.8632300753
 20
5.2599534747
 11
8.9825214138
 21
4.7217999314
  0
LINE
  5
2F6
100
AcDbEntity
  8
0
100
AcDbLine
 62
7
  6
CONTINUOUS
 10
9.6622458233
 20
3.3360637109
 11
9.5429544847
 21
3.8741463881
  0
LINE
  5
2F7
100
AcDbEntity
  8
0
100
AcDbLine
 62
7
  6
CONTINUOUS
 10
9.3916946422
 20
4.6088550495
 11
9.5109859808
 21
4.0707566243
  0
LINE
  5
2F8
100
AcDbEntity
  8
0
100
AcDbLine
 62
7
  6
CONTINUOUS
 10
10.0065765319
 20
2.0611621361
 11
10.034096217
 21
1.9370290653
  0
LINE
  5
2F9
100
AcDbEntity
  8
0
100
AcDbLine
 62
7
  6
CONTINUOUS
 10
9.9853166894
 20
2.4617133172
 11
9.9936631461
 21
2.4240637109
  0
LINE
  5
2FA
100
AcDbEntity
  8
0
100
AcDbLine
 62
7
  6
CONTINUOUS
 10
9.5206710201
 20
4.841107018
 11
9.4013403115
 21
5.3791896952
  0
LINE
  5
2FB
100
AcDbEntity
  8
0
100
AcDbLine
 62
7
  6
CONTINUOUS
 10
9.0940568469
 20
5.8988393015
 11
8.9748048784
 21
6.4369889078
  0
LINE
  5
2FC
100
AcDbEntity
  8
0
100
AcDbLine
 62
7
  6
CONTINUOUS
 10
9.9292536973
 20
2.4097959944
 11
9.9673245634
 21
2.2379731598
  0
LINE
  5
2FD
100
AcDbEntity
  8
0
100
AcDbLine
 62
7
  6
CONTINUOUS
 10
13.4764977918
 20
4.4437566243
 11
13.510119839
 21
4.4512448133
  0
LINE
  5
2FE
100
AcDbEntity
  8
0
100
AcDbLine
 62
7
  6
CONTINUOUS
 10
14.2926788941
 20
3.9694259157
 11
14.2301985792
 21
3.9555361519
  0
LINE
  5
2FF
100
AcDbEntity
  8
0
100
AcDbLine
 62
7
  6
CONTINUOUS
 10
13.3740174768
 20
3.7657999314
 11
13.3403560595
 21
3.7583156794
  0
LINE
  5
300
100
AcDbEntity
  8
0
100
AcDbLine
 62
7
  6
CONTINUOUS
 10
14.6843324375
 20
4.7115518999
 11
14.7179938548
 21
4.7190361519
  0
LINE
  5
301
100
AcDbEntity
  8
0
100
AcDbLine
 62
7
  6
CONTINUOUS
 10
14.6734269256
 20
4.4562841834
 11
14.7377970044
 21
4.4705637109
  0
LINE
  5
302
100
AcDbEntity
  8
0
100
AcDbLine
 62
7
  6
CONTINUOUS
 10
14.4822064532
 20
4.4139101676
 11
14.5465765319
 21
4.4281896952
  0
LINE
  5
303
100
AcDbEntity
  8
0
100
AcDbLine
 62
7
  6
CONTINUOUS
 10
13.4108285004
 20
3.9042015062
 11
13.3464977918
 21
3.8899377267
  0
LINE
  5
304
100
AcDbEntity
  8
0
100
AcDbLine
 62
7
  6
CONTINUOUS
 10
14.4485056658
 20
4.1713550495
 11
14.3217340123
 21
4.1432448133
  0
LINE
  5
305
100
AcDbEntity
  8
0
100
AcDbLine
 62
7
  6
CONTINUOUS
 10
10.0713796815
 20
3.223107018
 11
9.5332300753
 21
3.1037999314
  0
LINE
  5
306
100
AcDbEntity
  8
0
100
AcDbLine
 62
7
  6
CONTINUOUS
 10
13.0002773193
 20
3.8724652857
 11
12.4621670831
 21
3.7531621361
  0
LINE
  5
307
100
AcDbEntity
  8
0
100
AcDbLine
 62
7
  6
CONTINUOUS
 10
12.2680332249
 20
3.7101463881
 11
11.7299623587
 21
3.5908432385
  0
LINE
  5
308
100
AcDbEntity
  8
0
100
AcDbLine
 62
7
  6
CONTINUOUS
 10
11.5357891304
 20
3.5478156794
 11
10.9977182642
 21
3.4285085928
  0
LINE
  5
309
100
AcDbEntity
  8
0
100
AcDbLine
 62
7
  6
CONTINUOUS
 10
10.803584406
 20
3.3854928448
 11
10.2655135398
 21
3.2661345771
  0
LINE
  5
30A
100
AcDbEntity
  8
0
100
AcDbLine
 62
7
  6
CONTINUOUS
 10
13.883584406
 20
4.2719377267
 11
14.4216946422
 21
4.3912448133
  0
LINE
  5
30B
100
AcDbEntity
  8
0
100
AcDbLine
 62
7
  6
CONTINUOUS
 10
9.8563796815
 20
3.37909127
 11
10.3944505477
 21
3.4983826086
  0
LINE
  5
30C
100
AcDbEntity
  8
0
100
AcDbLine
 62
7
  6
CONTINUOUS
 10
9.1241355871
 20
3.2167566243
 11
9.6622458233
 21
3.3360637109
  0
LINE
  5
30D
100
AcDbEntity
  8
0
100
AcDbLine
 62
7
  6
CONTINUOUS
 10
11.3207891304
 20
3.7037999314
 11
11.8589387367
 21
3.82309127
  0
LINE
  5
30E
100
AcDbEntity
  8
0
100
AcDbLine
 62
7
  6
CONTINUOUS
 10
10.588584406
 20
3.5414101676
 11
11.1266946422
 21
3.6607723724
  0
LINE
  5
30F
100
AcDbEntity
  8
0
100
AcDbLine
 62
7
  6
CONTINUOUS
 10
13.7547655083
 20
4.2526188291
 11
13.8191749571
 21
4.2668983566
  0
LINE
  5
310
100
AcDbEntity
  8
0
100
AcDbLine
 62
7
  6
CONTINUOUS
 10
13.5298836186
 20
3.9676896952
 11
13.4030332249
 21
3.939579459
  0
LINE
  5
311
100
AcDbEntity
  8
0
100
AcDbLine
 62
7
  6
CONTINUOUS
 10
14.1901592091
 20
4.1361896952
 11
13.6520489729
 21
4.0169377267
  0
LINE
  5
312
100
AcDbEntity
  8
0
100
AcDbLine
 62
7
  6
CONTINUOUS
 10
13.6362615713
 20
4.1868707976
 11
13.763111965
 21
4.2149652857
  0
LINE
  5
313
100
AcDbEntity
  8
0
100
AcDbLine
 62
7
  6
CONTINUOUS
 10
14.5548836186
 20
4.3905361519
 11
14.6817340123
 21
4.4186345771
  0
LINE
  5
314
100
AcDbEntity
  8
0
100
AcDbLine
 62
7
  6
CONTINUOUS
 10
12.0530332249
 20
3.8661188291
 11
12.5911434611
 21
3.9853707976
  0
LINE
  5
315
100
AcDbEntity
  8
0
100
AcDbLine
 62
7
  6
CONTINUOUS
 10
12.7852773193
 20
4.0284534747
 11
13.3233481855
 21
4.1476896952
  0
LINE
  5
316
100
AcDbEntity
  8
0
100
AcDbLine
 62
7
  6
CONTINUOUS
 10
13.5635056658
 20
4.2102448133
 11
13.6279151146
 21
4.2245204039
  0
LINE
  5
317
100
AcDbEntity
  8
0
100
AcDbLine
 62
7
  6
CONTINUOUS
 10
13.7810647209
 20
4.4387723724
 11
13.8435056658
 21
4.452607018
  0
LINE
  5
318
100
AcDbEntity
  8
0
100
AcDbLine
 62
7
  6
CONTINUOUS
 10
14.3816552721
 20
4.5718550495
 11
14.444096217
 21
4.5856896952
  0
LINE
  5
319
100
AcDbEntity
  8
0
100
AcDbLine
 62
7
  6
CONTINUOUS
 10
13.692088343
 20
3.8362841834
 11
13.629608028
 21
3.8224534747
  0
LINE
  5
31A
100
AcDbEntity
  8
0
100
AcDbLine
 62
7
  6
CONTINUOUS
 10
13.602088343
 20
3.946579459
 11
13.5376788941
 21
3.9323156794
  0
LINE
  5
31B
100
AcDbEntity
  8
0
100
AcDbLine
 62
7
  6
CONTINUOUS
 10
14.5207103902
 20
4.1502448133
 11
14.4563009414
 21
4.1359810338
  0
LINE
  5
31C
100
AcDbEntity
  8
0
100
AcDbLine
 62
7
  6
CONTINUOUS
 10
14.5818521225
 20
4.0335479629
 11
14.5482694453
 21
4.0261188291
  0
LINE
  5
31D
100
AcDbEntity
  8
0
100
AcDbLine
 62
7
  6
CONTINUOUS
 10
14.3295292878
 20
4.1078156794
 11
14.265119839
 21
4.093607018
  0
LINE
  5
31E
100
AcDbEntity
  8
0
100
AcDbLine
 62
7
  6
CONTINUOUS
 10
18.3443718075
 20
3.2273432385
 11
18.4082694453
 21
3.2273432385
  0
LINE
  5
31F
100
AcDbEntity
  8
0
100
AcDbLine
 62
7
  6
CONTINUOUS
 10
18.9595292878
 20
3.2273432385
 11
19.0234269256
 21
3.2273432385
  0
LINE
  5
320
100
AcDbEntity
  8
0
100
AcDbLine
 62
7
  6
CONTINUOUS
 10
20.8128757445
 20
3.2873393015
 11
20.776615902
 21
3.2873393015
  0
LINE
  5
321
100
AcDbEntity
  8
0
100
AcDbLine
 62
7
  6
CONTINUOUS
 10
20.2922851934
 20
3.2873393015
 11
20.2538206264
 21
3.2873393015
  0
LINE
  5
322
100
AcDbEntity
  8
0
100
AcDbLine
 62
7
  6
CONTINUOUS
 10
18.0479938548
 20
3.2981896952
 11
18.0824426737
 21
3.2981896952
  0
LINE
  5
323
100
AcDbEntity
  8
0
100
AcDbLine
 62
7
  6
CONTINUOUS
 10
19.2853560595
 20
3.2981896952
 11
19.3198048784
 21
3.2981896952
  0
LINE
  5
324
100
AcDbEntity
  8
0
100
AcDbLine
 62
7
  6
CONTINUOUS
 10
20.776615902
 20
3.3532566243
 11
20.6495292878
 21
3.3532566243
  0
LINE
  5
325
100
AcDbEntity
  8
0
100
AcDbLine
 62
7
  6
CONTINUOUS
 10
20.4684269256
 20
3.3532566243
 11
20.2922851934
 21
3.3532566243
  0
LINE
  5
326
100
AcDbEntity
  8
0
100
AcDbLine
 62
7
  6
CONTINUOUS
 10
19.3198048784
 20
3.4084377267
 11
19.2853560595
 21
3.4084377267
  0
LINE
  5
327
100
AcDbEntity
  8
0
100
AcDbLine
 62
7
  6
CONTINUOUS
 10
19.0234269256
 20
3.4084377267
 11
18.9595292878
 21
3.4084377267
  0
LINE
  5
328
100
AcDbEntity
  8
0
100
AcDbLine
 62
7
  6
CONTINUOUS
 10
18.4082694453
 20
3.4084377267
 11
18.3443718075
 21
3.4084377267
  0
LINE
  5
329
100
AcDbEntity
  8
0
100
AcDbLine
 62
7
  6
CONTINUOUS
 10
18.0824426737
 20
3.4084377267
 11
18.0479938548
 21
3.4084377267
  0
LINE
  5
32A
100
AcDbEntity
  8
0
100
AcDbLine
 62
7
  6
CONTINUOUS
 10
20.2832694453
 20
3.4172841834
 11
20.4684269256
 21
3.4172841834
  0
LINE
  5
32B
100
AcDbEntity
  8
0
100
AcDbLine
 62
7
  6
CONTINUOUS
 10
20.6495292878
 20
3.4172841834
 11
20.8345292878
 21
3.4172841834
  0
LINE
  5
32C
100
AcDbEntity
  8
0
100
AcDbLine
 62
7
  6
CONTINUOUS
 10
19.2853560595
 20
3.535607018
 11
19.2193718075
 21
3.535607018
  0
LINE
  5
32D
100
AcDbEntity
  8
0
100
AcDbLine
 62
7
  6
CONTINUOUS
 10
19.0893718075
 20
3.535607018
 11
19.0234269256
 21
3.535607018
  0
LINE
  5
32E
100
AcDbEntity
  8
0
100
AcDbLine
 62
7
  6
CONTINUOUS
 10
18.3443718075
 20
3.535607018
 11
18.2784269256
 21
3.535607018
  0
LINE
  5
32F
100
AcDbEntity
  8
0
100
AcDbLine
 62
7
  6
CONTINUOUS
 10
18.1484269256
 20
3.535607018
 11
18.0824426737
 21
3.535607018
  0
LINE
  5
330
100
AcDbEntity
  8
0
100
AcDbLine
 62
7
  6
CONTINUOUS
 10
19.2193718075
 20
3.5717999314
 11
19.0893718075
 21
3.5717999314
  0
LINE
  5
331
100
AcDbEntity
  8
0
100
AcDbLine
 62
7
  6
CONTINUOUS
 10
18.2784269256
 20
3.5717999314
 11
18.1484269256
 21
3.5717999314
  0
LINE
  5
332
100
AcDbEntity
  8
0
100
AcDbLine
 62
7
  6
CONTINUOUS
 10
20.0845292878
 20
3.5934377267
 11
19.5332694453
 21
3.5934377267
  0
LINE
  5
333
100
AcDbEntity
  8
0
100
AcDbLine
 62
7
  6
CONTINUOUS
 10
18.9595292878
 20
3.5934377267
 11
18.4082694453
 21
3.5934377267
  0
LINE
  5
334
100
AcDbEntity
  8
0
100
AcDbLine
 62
7
  6
CONTINUOUS
 10
17.4595292878
 20
3.5934377267
 11
16.9082694453
 21
3.5934377267
  0
LINE
  5
335
100
AcDbEntity
  8
0
100
AcDbLine
 62
7
  6
CONTINUOUS
 10
16.7095292878
 20
3.5934377267
 11
16.1582694453
 21
3.5934377267
  0
LINE
  5
336
100
AcDbEntity
  8
0
100
AcDbLine
 62
7
  6
CONTINUOUS
 10
15.9595292878
 20
3.5934377267
 11
15.4082694453
 21
3.5934377267
  0
LINE
  5
337
100
AcDbEntity
  8
0
100
AcDbLine
 62
7
  6
CONTINUOUS
 10
16.1582694453
 20
3.7922841834
 11
16.7095292878
 21
3.7922841834
  0
LINE
  5
338
100
AcDbEntity
  8
0
100
AcDbLine
 62
7
  6
CONTINUOUS
 10
18.0332694453
 20
3.7922841834
 11
18.5845292878
 21
3.7922841834
  0
LINE
  5
339
100
AcDbEntity
  8
0
100
AcDbLine
 62
7
  6
CONTINUOUS
 10
18.7832694453
 20
3.7922841834
 11
19.3345292878
 21
3.7922841834
  0
LINE
  5
33A
100
AcDbEntity
  8
0
100
AcDbLine
 62
7
  6
CONTINUOUS
 10
19.5332694453
 20
3.7922841834
 11
20.0845292878
 21
3.7922841834
  0
LINE
  5
33B
100
AcDbEntity
  8
0
100
AcDbLine
 62
7
  6
CONTINUOUS
 10
5.4725214133
 20
4.8879810315
 11
4.9344505472
 21
5.0072841811
  0
LINE
  5
33C
100
AcDbEntity
  8
0
100
AcDbLine
 62
7
  6
CONTINUOUS
 10
4.0081198385
 20
5.2126345748
 11
3.4700041135
 21
5.3319328315
  0
LINE
  5
33D
100
AcDbEntity
  8
0
100
AcDbLine
 62
7
  6
CONTINUOUS
 10
4.7403284999
 20
5.0503156771
 11
4.2021907047
 21
5.1696188267
  0
LINE
  5
33E
100
AcDbEntity
  8
0
100
AcDbLine
 62
7
  6
CONTINUOUS
 10
3.0928387591
 20
5.4155430675
 11
2.5547560819
 21
5.5348186581
  0
LINE
  5
33F
100
AcDbEntity
  8
0
100
AcDbLine
 62
7
  6
CONTINUOUS
 10
6.9370096023
 20
4.5633274881
 11
6.3988993661
 21
4.6825794566
  0
LINE
  5
340
100
AcDbEntity
  8
0
100
AcDbLine
 62
7
  6
CONTINUOUS
 10
5.3435844054
 20
5.1201896929
 11
5.8816552716
 21
5.0008826063
  0
LINE
  5
341
100
AcDbEntity
  8
0
100
AcDbLine
 62
7
  6
CONTINUOUS
 10
6.8080332243
 20
4.7955361496
 11
7.3461040905
 21
4.6762290629
  0
LINE
  5
342
100
AcDbEntity
  8
0
100
AcDbLine
 62
7
  6
CONTINUOUS
 10
6.0758284999
 20
4.9578707952
 11
6.6139387362
 21
4.8385637086
  0
LINE
  5
343
100
AcDbEntity
  8
0
100
AcDbLine
 62
7
  6
CONTINUOUS
 10
3.8791300977
 20
5.4448934612
 11
4.4172458228
 21
5.3255912677
  0
LINE
  5
344
100
AcDbEntity
  8
0
100
AcDbLine
 62
7
  6
CONTINUOUS
 10
2.4147245859
 20
5.7695430675
 11
2.9528112
 21
5.650251729
  0
LINE
  5
345
100
AcDbEntity
  8
0
100
AcDbLine
 62
7
  6
CONTINUOUS
 10
3.1469332473
 20
5.6072202329
 11
3.6850749796
 21
5.4879288943
  0
LINE
  5
346
100
AcDbEntity
  8
0
100
AcDbLine
 62
7
  6
CONTINUOUS
 10
6.2047655078
 20
4.7256070157
 11
5.6666552716
 21
4.8449652834
  0
LINE
  5
347
100
AcDbEntity
  8
0
100
AcDbLine
 62
7
  6
CONTINUOUS
 10
4.611371807
 20
5.2825637086
 11
5.1494505472
 21
5.1632172519
  0
LINE
  5
348
100
AcDbEntity
  8
0
100
AcDbLine
 62
7
  6
CONTINUOUS
 10
10.2331513351
 20
1.944083396
 11
10.2252773193
 21
1.9794022936
  0
LINE
  5
349
100
AcDbEntity
  8
0
100
AcDbLine
 62
7
  6
CONTINUOUS
 10
9.7370096028
 20
3.9172290653
 11
9.8563796815
 21
3.37909127
  0
LINE
  5
34A
100
AcDbEntity
  8
0
100
AcDbLine
 62
7
  6
CONTINUOUS
 10
9.1688993666
 20
6.4799810338
 11
9.2881907052
 21
5.9419101676
  0
LINE
  5
34B
100
AcDbEntity
  8
0
100
AcDbLine
 62
7
  6
CONTINUOUS
 10
10.1205135398
 20
2.4521660731
 11
10.1121670831
 21
2.4898196165
  0
LINE
  5
34C
100
AcDbEntity
  8
0
100
AcDbLine
 62
7
  6
CONTINUOUS
 10
10.2382694453
 20
2.2254928448
 11
10.1848442485
 21
2.4664337897
  0
LINE
  5
34D
100
AcDbEntity
  8
0
100
AcDbLine
 62
7
  6
CONTINUOUS
 10
10.2957891304
 20
2.1252881204
 11
10.2719308627
 21
2.2329259157
  0
LINE
  5
34E
100
AcDbEntity
  8
0
100
AcDbLine
 62
7
  6
CONTINUOUS
 10
10.1907103902
 20
2.6850204039
 11
10.0713796815
 21
3.223107018
  0
LINE
  5
34F
100
AcDbEntity
  8
0
100
AcDbLine
 62
7
  6
CONTINUOUS
 10
9.5954741697
 20
5.4222172543
 11
9.7147655083
 21
4.8841345771
  0
LINE
  5
350
100
AcDbEntity
  8
0
100
AcDbLine
 62
7
  6
CONTINUOUS
 10
10.049096217
 20
4.1900085928
 11
9.9298048784
 21
4.7281463881
  0
LINE
  5
351
100
AcDbEntity
  8
0
100
AcDbLine
 62
7
  6
CONTINUOUS
 10
10.2655135398
 20
3.2661345771
 11
10.3848048784
 21
2.7280440259
  0
LINE
  5
352
100
AcDbEntity
  8
0
100
AcDbLine
 62
7
  6
CONTINUOUS
 10
10.3944505477
 20
3.4983826086
 11
10.2751592091
 21
4.0364810338
  0
LINE
  5
353
100
AcDbEntity
  8
0
100
AcDbLine
 62
7
  6
CONTINUOUS
 10
9.8263403115
 20
6.0611621361
 11
9.7070096028
 21
6.5993117424
  0
LINE
  5
354
100
AcDbEntity
  8
0
100
AcDbLine
 62
7
  6
CONTINUOUS
 10
10.6108678705
 20
2.5745085928
 11
10.7301985792
 21
2.0364219787
  0
LINE
  5
355
100
AcDbEntity
  8
0
100
AcDbLine
 62
7
  6
CONTINUOUS
 10
10.1238993666
 20
4.7711739472
 11
10.2431907052
 21
4.23309127
  0
LINE
  5
356
100
AcDbEntity
  8
0
100
AcDbLine
 62
7
  6
CONTINUOUS
 10
10.2528757445
 20
5.0034377267
 11
10.133584406
 21
5.5415164669
  0
LINE
  5
357
100
AcDbEntity
  8
0
100
AcDbLine
 62
7
  6
CONTINUOUS
 10
9.9011434611
 20
6.6423432385
 11
10.0204347997
 21
6.1042330023
  0
LINE
  5
358
100
AcDbEntity
  8
0
100
AcDbLine
 62
7
  6
CONTINUOUS
 10
10.4692930674
 20
4.0795518999
 11
10.588584406
 21
3.5414101676
  0
LINE
  5
359
100
AcDbEntity
  8
0
100
AcDbLine
 62
7
  6
CONTINUOUS
 10
10.2896473981
 20
1.9936700102
 11
10.2621670831
 21
2.1178550495
  0
LINE
  5
35A
100
AcDbEntity
  8
0
100
AcDbLine
 62
7
  6
CONTINUOUS
 10
14.694096217
 20
4.8266739472
 11
14.6605135398
 21
4.8191896952
  0
LINE
  5
35B
100
AcDbEntity
  8
0
100
AcDbLine
 62
7
  6
CONTINUOUS
 10
13.4862615713
 20
4.5588826086
 11
13.4526395241
 21
4.5513983566
  0
LINE
  5
35C
100
AcDbEntity
  8
0
100
AcDbLine
 62
7
  6
CONTINUOUS
 10
13.7143324375
 20
4.7397015062
 11
13.6499229886
 21
4.7253826086
  0
LINE
  5
35D
100
AcDbEntity
  8
0
100
AcDbLine
 62
7
  6
CONTINUOUS
 10
14.6329544847
 20
4.9433274905
 11
14.568623776
 21
4.9290518999
  0
LINE
  5
35E
100
AcDbEntity
  8
0
100
AcDbLine
 62
7
  6
CONTINUOUS
 10
13.642127713
 20
4.7608156794
 11
13.5152773193
 21
4.7326621361
  0
LINE
  5
35F
100
AcDbEntity
  8
0
100
AcDbLine
 62
7
  6
CONTINUOUS
 10
13.8042930674
 20
4.6293550495
 11
13.7418914926
 21
4.6155204039
  0
LINE
  5
360
100
AcDbEntity
  8
0
100
AcDbLine
 62
7
  6
CONTINUOUS
 10
13.523111965
 20
4.6972841834
 11
13.4587418863
 21
4.6830085928
  0
LINE
  5
361
100
AcDbEntity
  8
0
100
AcDbLine
 62
7
  6
CONTINUOUS
 10
12.4718127524
 20
4.5235085928
 11
11.9337418863
 21
4.4042015062
  0
LINE
  5
362
100
AcDbEntity
  8
0
100
AcDbLine
 62
7
  6
CONTINUOUS
 10
13.2040568469
 20
4.6858432385
 11
12.6659466107
 21
4.5665361519
  0
LINE
  5
363
100
AcDbEntity
  8
0
100
AcDbLine
 62
7
  6
CONTINUOUS
 10
14.3024033036
 20
4.9293274905
 11
13.7642536973
 21
4.8100204039
  0
LINE
  5
364
100
AcDbEntity
  8
0
100
AcDbLine
 62
7
  6
CONTINUOUS
 10
11.7395686579
 20
4.3611896952
 11
11.2014977918
 21
4.2418826086
  0
LINE
  5
365
100
AcDbEntity
  8
0
100
AcDbLine
 62
7
  6
CONTINUOUS
 10
11.0073639335
 20
4.1988550495
 11
10.4692930674
 21
4.0795518999
  0
LINE
  5
366
100
AcDbEntity
  8
0
100
AcDbLine
 62
7
  6
CONTINUOUS
 10
13.9958285004
 20
5.0650085928
 11
14.5339387367
 21
5.1843156794
  0
LINE
  5
367
100
AcDbEntity
  8
0
100
AcDbLine
 62
7
  6
CONTINUOUS
 10
13.172088343
 20
4.8823983566
 11
13.7101592091
 21
5.0017015062
  0
LINE
  5
368
100
AcDbEntity
  8
0
100
AcDbLine
 62
7
  6
CONTINUOUS
 10
12.4398836186
 20
4.7200637109
 11
12.9779544847
 21
4.8393707976
  0
LINE
  5
369
100
AcDbEntity
  8
0
100
AcDbLine
 62
7
  6
CONTINUOUS
 10
11.7076395241
 20
4.5577448133
 11
12.2457497603
 21
4.6770479629
  0
LINE
  5
36A
100
AcDbEntity
  8
0
100
AcDbLine
 62
7
  6
CONTINUOUS
 10
8.7787418863
 20
3.9084377267
 11
9.3168914926
 21
4.0277448133
  0
LINE
  5
36B
100
AcDbEntity
  8
0
100
AcDbLine
 62
7
  6
CONTINUOUS
 10
9.5429544847
 20
3.8741463881
 11
9.0048048784
 21
3.7548983566
  0
LINE
  5
36C
100
AcDbEntity
  8
0
100
AcDbLine
 62
7
  6
CONTINUOUS
 10
10.2751592091
 20
4.0364810338
 11
9.7370096028
 21
3.9172290653
  0
LINE
  5
36D
100
AcDbEntity
  8
0
100
AcDbLine
 62
7
  6
CONTINUOUS
 10
9.5109859808
 20
4.0707566243
 11
10.049096217
 21
4.1900085928
  0
LINE
  5
36E
100
AcDbEntity
  8
0
100
AcDbLine
 62
7
  6
CONTINUOUS
 10
10.2431907052
 20
4.23309127
 11
10.7813009414
 21
4.3523432385
  0
LINE
  5
36F
100
AcDbEntity
  8
0
100
AcDbLine
 62
7
  6
CONTINUOUS
 10
10.9753954296
 20
4.3954101676
 11
11.5135450359
 21
4.5146621361
  0
LINE
  5
370
100
AcDbEntity
  8
0
100
AcDbLine
 62
7
  6
CONTINUOUS
 10
14.4049229886
 20
4.7624928448
 11
14.3424426737
 21
4.7486621361
  0
LINE
  5
371
100
AcDbEntity
  8
0
100
AcDbLine
 62
7
  6
CONTINUOUS
 10
14.4417733823
 20
4.9009534747
 11
14.3773639335
 21
4.8866896952
  0
LINE
  5
372
100
AcDbEntity
  8
0
100
AcDbLine
 62
7
  6
CONTINUOUS
 10
14.5607891304
 20
4.9644259157
 11
14.4338993666
 21
4.9363274905
  0
LINE
  5
373
100
AcDbEntity
  8
0
100
AcDbLine
 62
7
  6
CONTINUOUS
 10
20.8345292878
 20
3.9684377267
 11
20.6495292878
 21
3.9684377267
  0
LINE
  5
374
100
AcDbEntity
  8
0
100
AcDbLine
 62
7
  6
CONTINUOUS
 10
20.4684269256
 20
3.9684377267
 11
20.2832694453
 21
3.9684377267
  0
LINE
  5
375
100
AcDbEntity
  8
0
100
AcDbLine
 62
7
  6
CONTINUOUS
 10
20.2922851934
 20
4.0324652857
 11
20.4684269256
 21
4.0324652857
  0
LINE
  5
376
100
AcDbEntity
  8
0
100
AcDbLine
 62
7
  6
CONTINUOUS
 10
20.6495292878
 20
4.0324652857
 11
20.776615902
 21
4.0324652857
  0
LINE
  5
377
100
AcDbEntity
  8
0
100
AcDbLine
 62
7
  6
CONTINUOUS
 10
20.2538206264
 20
4.0983826086
 11
20.2922851934
 21
4.0983826086
  0
LINE
  5
378
100
AcDbEntity
  8
0
100
AcDbLine
 62
7
  6
CONTINUOUS
 10
20.776615902
 20
4.0983826086
 11
20.8128757445
 21
4.0983826086
  0
LINE
  5
379
100
AcDbEntity
  8
0
100
AcDbLine
 62
7
  6
CONTINUOUS
 10
20.8128757445
 20
4.2283156794
 11
20.776615902
 21
4.2283156794
  0
LINE
  5
37A
100
AcDbEntity
  8
0
100
AcDbLine
 62
7
  6
CONTINUOUS
 10
20.2922851934
 20
4.2283156794
 11
20.2538206264
 21
4.2283156794
  0
LINE
  5
37B
100
AcDbEntity
  8
0
100
AcDbLine
 62
7
  6
CONTINUOUS
 10
20.776615902
 20
4.2942290653
 11
20.6495292878
 21
4.2942290653
  0
LINE
  5
37C
100
AcDbEntity
  8
0
100
AcDbLine
 62
7
  6
CONTINUOUS
 10
20.5392536973
 20
4.2942290653
 11
20.2922851934
 21
4.2942290653
  0
LINE
  5
37D
100
AcDbEntity
  8
0
100
AcDbLine
 62
7
  6
CONTINUOUS
 10
20.6495292878
 20
4.3286896952
 11
20.5392536973
 21
4.3286896952
  0
LINE
  5
37E
100
AcDbEntity
  8
0
100
AcDbLine
 62
7
  6
CONTINUOUS
 10
20.0845292878
 20
4.3434377267
 11
19.5332694453
 21
4.3434377267
  0
LINE
  5
37F
100
AcDbEntity
  8
0
100
AcDbLine
 62
7
  6
CONTINUOUS
 10
19.3345292878
 20
4.3434377267
 11
18.7832694453
 21
4.3434377267
  0
LINE
  5
380
100
AcDbEntity
  8
0
100
AcDbLine
 62
7
  6
CONTINUOUS
 10
18.5845292878
 20
4.3434377267
 11
18.0332694453
 21
4.3434377267
  0
LINE
  5
381
100
AcDbEntity
  8
0
100
AcDbLine
 62
7
  6
CONTINUOUS
 10
16.7095292878
 20
4.3434377267
 11
16.1582694453
 21
4.3434377267
  0
LINE
  5
382
100
AcDbEntity
  8
0
100
AcDbLine
 62
7
  6
CONTINUOUS
 10
18.0332694453
 20
4.5422841834
 11
18.5845292878
 21
4.5422841834
  0
LINE
  5
383
100
AcDbEntity
  8
0
100
AcDbLine
 62
7
  6
CONTINUOUS
 10
18.7832694453
 20
4.5422841834
 11
19.3345292878
 21
4.5422841834
  0
LINE
  5
384
100
AcDbEntity
  8
0
100
AcDbLine
 62
7
  6
CONTINUOUS
 10
19.5332694453
 20
4.5422841834
 11
20.0845292878
 21
4.5422841834
  0
LINE
  5
385
100
AcDbEntity
  8
0
100
AcDbLine
 62
7
  6
CONTINUOUS
 10
20.5392536973
 20
4.5570400889
 11
20.6495292878
 21
4.5570400889
  0
LINE
  5
386
100
AcDbEntity
  8
0
100
AcDbLine
 62
7
  6
CONTINUOUS
 10
20.2922851934
 20
4.5914889078
 11
20.5392536973
 21
4.5914889078
  0
LINE
  5
387
100
AcDbEntity
  8
0
100
AcDbLine
 62
7
  6
CONTINUOUS
 10
20.6495292878
 20
4.5914889078
 11
20.776615902
 21
4.5914889078
  0
LINE
  5
388
100
AcDbEntity
  8
0
100
AcDbLine
 62
7
  6
CONTINUOUS
 10
20.2538206264
 20
4.6573944196
 11
20.2922851934
 21
4.6573944196
  0
LINE
  5
389
100
AcDbEntity
  8
0
100
AcDbLine
 62
7
  6
CONTINUOUS
 10
20.776615902
 20
4.6573944196
 11
20.8128757445
 21
4.6573944196
  0
LINE
  5
38A
100
AcDbEntity
  8
0
100
AcDbLine
 62
7
  6
CONTINUOUS
 10
5.2687418857
 20
5.7013589839
 11
4.7306749566
 21
5.8206503225
  0
LINE
  5
38B
100
AcDbEntity
  8
0
100
AcDbLine
 62
7
  6
CONTINUOUS
 10
4.5364977912
 20
5.8636818186
 11
3.9984332473
 21
5.9829682643
  0
LINE
  5
38C
100
AcDbEntity
  8
0
100
AcDbLine
 62
7
  6
CONTINUOUS
 10
3.8043230111
 20
6.0259997605
 11
3.2662245859
 21
6.145291099
  0
LINE
  5
38D
100
AcDbEntity
  8
0
100
AcDbLine
 62
7
  6
CONTINUOUS
 10
7.4654347991
 20
5.214370795
 11
6.9272851928
 21
5.3336739446
  0
LINE
  5
38E
100
AcDbEntity
  8
0
100
AcDbLine
 62
7
  6
CONTINUOUS
 10
6.7332300747
 20
5.3767015036
 11
6.1950804684
 21
5.4960046532
  0
LINE
  5
38F
100
AcDbEntity
  8
0
100
AcDbLine
 62
7
  6
CONTINUOUS
 10
6.0009859802
 20
5.5390361493
 11
5.462875744
 21
5.6583274879
  0
LINE
  5
390
100
AcDbEntity
  8
0
100
AcDbLine
 62
7
  6
CONTINUOUS
 10
3.0721143496
 20
6.1883225951
 11
2.5339765544
 21
6.3076139337
  0
LINE
  5
391
100
AcDbEntity
  8
0
100
AcDbLine
 62
7
  6
CONTINUOUS
 10
10.9229151146
 20
2.8473471755
 11
10.803584406
 21
3.3854928448
  0
LINE
  5
392
100
AcDbEntity
  8
0
100
AcDbLine
 62
7
  6
CONTINUOUS
 10
10.3276788941
 20
5.5845479629
 11
10.4469702327
 21
5.0464534747
  0
LINE
  5
393
100
AcDbEntity
  8
0
100
AcDbLine
 62
7
  6
CONTINUOUS
 10
11.2683481855
 20
2.1557251283
 11
11.1490174768
 21
2.6938117424
  0
LINE
  5
394
100
AcDbEntity
  8
0
100
AcDbLine
 62
7
  6
CONTINUOUS
 10
10.7813009414
 20
4.3523432385
 11
10.6620096028
 21
4.8904810338
  0
LINE
  5
395
100
AcDbEntity
  8
0
100
AcDbLine
 62
7
  6
CONTINUOUS
 10
10.9977182642
 20
3.4285085928
 11
11.1170096028
 21
2.8903707976
  0
LINE
  5
396
100
AcDbEntity
  8
0
100
AcDbLine
 62
7
  6
CONTINUOUS
 10
10.5585056658
 20
6.2234849708
 11
10.4392143272
 21
6.7616345771
  0
LINE
  5
397
100
AcDbEntity
  8
0
100
AcDbLine
 62
7
  6
CONTINUOUS
 10
11.1266946422
 20
3.6607723724
 11
11.0073639335
 21
4.1988550495
  0
LINE
  5
398
100
AcDbEntity
  8
0
100
AcDbLine
 62
7
  6
CONTINUOUS
 10
10.856104091
 20
4.9335085928
 11
10.9753954296
 21
4.3954101676
  0
LINE
  5
399
100
AcDbEntity
  8
0
100
AcDbLine
 62
7
  6
CONTINUOUS
 10
10.985080469
 20
5.1657566243
 11
10.8657497603
 21
5.7038393015
  0
LINE
  5
39A
100
AcDbEntity
  8
0
100
AcDbLine
 62
7
  6
CONTINUOUS
 10
10.6333481855
 20
6.8046660731
 11
10.7526395241
 21
6.2665164669
  0
LINE
  5
39B
100
AcDbEntity
  8
0
100
AcDbLine
 62
7
  6
CONTINUOUS
 10
11.2014977918
 20
4.2418826086
 11
11.3207891304
 21
3.7037999314
  0
LINE
  5
39C
100
AcDbEntity
  8
0
100
AcDbLine
 62
7
  6
CONTINUOUS
 10
14.4146473981
 20
5.7224613487
 11
13.8764977918
 21
5.6031306401
  0
LINE
  5
39D
100
AcDbEntity
  8
0
100
AcDbLine
 62
7
  6
CONTINUOUS
 10
9.9298048784
 20
4.7281463881
 11
9.3916946422
 21
4.6088550495
  0
LINE
  5
39E
100
AcDbEntity
  8
0
100
AcDbLine
 62
7
  6
CONTINUOUS
 10
11.3942536973
 20
5.0527999314
 11
10.856104091
 21
4.9335085928
  0
LINE
  5
39F
100
AcDbEntity
  8
0
100
AcDbLine
 62
7
  6
CONTINUOUS
 10
10.6620096028
 20
4.8904810338
 11
10.1238993666
 21
4.7711739472
  0
LINE
  5
3A0
100
AcDbEntity
  8
0
100
AcDbLine
 62
7
  6
CONTINUOUS
 10
9.1975214138
 20
4.5658274905
 11
8.6594505477
 21
4.4465204039
  0
LINE
  5
3A1
100
AcDbEntity
  8
0
100
AcDbLine
 62
7
  6
CONTINUOUS
 10
12.6436631461
 20
5.5334456007
 11
13.1817340123
 21
5.6527369393
  0
LINE
  5
3A2
100
AcDbEntity
  8
0
100
AcDbLine
 62
7
  6
CONTINUOUS
 10
11.9113796815
 20
5.371107018
 11
12.4495292878
 21
5.4904141046
  0
LINE
  5
3A3
100
AcDbEntity
  8
0
100
AcDbLine
 62
7
  6
CONTINUOUS
 10
11.1791749571
 20
5.2087841834
 11
11.7173245634
 21
5.32809127
  0
LINE
  5
3A4
100
AcDbEntity
  8
0
100
AcDbLine
 62
7
  6
CONTINUOUS
 10
10.4469702327
 20
5.0464534747
 11
10.985080469
 21
5.1657566243
  0
LINE
  5
3A5
100
AcDbEntity
  8
0
100
AcDbLine
 62
7
  6
CONTINUOUS
 10
8.9825214138
 20
4.7217999314
 11
9.5206710201
 21
4.841107018
  0
LINE
  5
3A6
100
AcDbEntity
  8
0
100
AcDbLine
 62
7
  6
CONTINUOUS
 10
9.7147655083
 20
4.8841345771
 11
10.2528757445
 21
5.0034377267
  0
LINE
  5
3A7
100
AcDbEntity
  8
0
100
AcDbLine
 62
7
  6
CONTINUOUS
 10
13.6504347997
 20
5.7566345771
 11
14.188584406
 21
5.8759259157
  0
LINE
  5
3A8
100
AcDbEntity
  8
0
100
AcDbLine
 62
7
  6
CONTINUOUS
 10
12.1264584217
 20
5.2151345771
 11
11.5883088154
 21
5.0958826086
  0
LINE
  5
3A9
100
AcDbEntity
  8
0
100
AcDbLine
 62
7
  6
CONTINUOUS
 10
12.8587025162
 20
5.3774534747
 11
12.3205135398
 21
5.2582172543
  0
LINE
  5
3AA
100
AcDbEntity
  8
0
100
AcDbLine
 62
7
  6
CONTINUOUS
 10
13.5909072406
 20
5.5397841834
 11
13.0527576343
 21
5.4205361519
  0
LINE
  5
3AB
100
AcDbEntity
  8
0
100
AcDbLine
 62
7
  6
CONTINUOUS
 10
20.8128757445
 20
4.7873550495
 11
20.776615902
 21
4.7873550495
  0
LINE
  5
3AC
100
AcDbEntity
  8
0
100
AcDbLine
 62
7
  6
CONTINUOUS
 10
20.2922851934
 20
4.7873550495
 11
20.2538206264
 21
4.7873550495
  0
LINE
  5
3AD
100
AcDbEntity
  8
0
100
AcDbLine
 62
7
  6
CONTINUOUS
 10
20.776615902
 20
4.8532605613
 11
20.6495292878
 21
4.8532605613
  0
LINE
  5
3AE
100
AcDbEntity
  8
0
100
AcDbLine
 62
7
  6
CONTINUOUS
 10
20.4684269256
 20
4.8532605613
 11
20.2922851934
 21
4.8532605613
  0
LINE
  5
3AF
100
AcDbEntity
  8
0
100
AcDbLine
 62
7
  6
CONTINUOUS
 10
20.2832694453
 20
4.9172841834
 11
20.4684269256
 21
4.9172841834
  0
LINE
  5
3B0
100
AcDbEntity
  8
0
100
AcDbLine
 62
7
  6
CONTINUOUS
 10
20.6495292878
 20
4.9172841834
 11
20.8345292878
 21
4.9172841834
  0
LINE
  5
3B1
100
AcDbEntity
  8
0
100
AcDbLine
 62
7
  6
CONTINUOUS
 10
20.0845292878
 20
5.0934377267
 11
19.5332694453
 21
5.0934377267
  0
LINE
  5
3B2
100
AcDbEntity
  8
0
100
AcDbLine
 62
7
  6
CONTINUOUS
 10
19.3345292878
 20
5.0934377267
 11
18.7832694453
 21
5.0934377267
  0
LINE
  5
3B3
100
AcDbEntity
  8
0
100
AcDbLine
 62
7
  6
CONTINUOUS
 10
18.5845292878
 20
5.0934377267
 11
18.0332694453
 21
5.0934377267
  0
LINE
  5
3B4
100
AcDbEntity
  8
0
100
AcDbLine
 62
7
  6
CONTINUOUS
 10
15.4082694453
 20
5.2922841834
 11
15.9595292878
 21
5.2922841834
  0
LINE
  5
3B5
100
AcDbEntity
  8
0
100
AcDbLine
 62
7
  6
CONTINUOUS
 10
16.1582694453
 20
5.2922841834
 11
16.7095292878
 21
5.2922841834
  0
LINE
  5
3B6
100
AcDbEntity
  8
0
100
AcDbLine
 62
7
  6
CONTINUOUS
 10
16.9082694453
 20
5.2922841834
 11
17.4595292878
 21
5.2922841834
  0
LINE
  5
3B7
100
AcDbEntity
  8
0
100
AcDbLine
 62
7
  6
CONTINUOUS
 10
18.0332694453
 20
5.2922841834
 11
18.5845292878
 21
5.2922841834
  0
LINE
  5
3B8
100
AcDbEntity
  8
0
100
AcDbLine
 62
7
  6
CONTINUOUS
 10
18.7832694453
 20
5.2922841834
 11
19.3345292878
 21
5.2922841834
  0
LINE
  5
3B9
100
AcDbEntity
  8
0
100
AcDbLine
 62
7
  6
CONTINUOUS
 10
19.5332694453
 20
5.2922841834
 11
20.0845292878
 21
5.2922841834
  0
LINE
  5
3BA
100
AcDbEntity
  8
0
100
AcDbLine
 62
7
  6
CONTINUOUS
 10
20.8345292878
 20
5.4684377267
 11
20.6495292878
 21
5.4684377267
  0
LINE
  5
3BB
100
AcDbEntity
  8
0
100
AcDbLine
 62
7
  6
CONTINUOUS
 10
20.4684269256
 20
5.4684377267
 11
20.2832694453
 21
5.4684377267
  0
LINE
  5
3BC
100
AcDbEntity
  8
0
100
AcDbLine
 62
7
  6
CONTINUOUS
 10
5.5871532791
 20
6.2187559505
 11
6.1252637348
 21
6.0994339242
  0
LINE
  5
3BD
100
AcDbEntity
  8
0
100
AcDbLine
 62
7
  6
CONTINUOUS
 10
7.0516298103
 20
5.8940734967
 11
7.5897448957
 21
5.774772354
  0
LINE
  5
3BE
100
AcDbEntity
  8
0
100
AcDbLine
 62
7
  6
CONTINUOUS
 10
6.3193859574
 20
6.0563993616
 11
6.8575022359
 21
5.9371036005
  0
LINE
  5
3BF
100
AcDbEntity
  8
0
100
AcDbLine
 62
7
  6
CONTINUOUS
 10
4.854896014
 20
6.3810904357
 11
5.3930147881
 21
6.2618059317
  0
LINE
  5
3C0
100
AcDbEntity
  8
0
100
AcDbLine
 62
7
  6
CONTINUOUS
 10
2.658204455
 20
6.8678742175
 11
3.1963284144
 21
6.7486130994
  0
LINE
  5
3C1
100
AcDbEntity
  8
0
100
AcDbLine
 62
7
  6
CONTINUOUS
 10
4.1226824261
 20
6.5434169769
 11
4.6607904856
 21
6.4240841351
  0
LINE
  5
3C2
100
AcDbEntity
  8
0
100
AcDbLine
 62
7
  6
CONTINUOUS
 10
11.8589387367
 20
3.82309127
 11
11.7395686579
 21
4.3611896952
  0
LINE
  5
3C3
100
AcDbEntity
  8
0
100
AcDbLine
 62
7
  6
CONTINUOUS
 10
11.6551592091
 20
3.0096739472
 11
11.5357891304
 21
3.5478156794
  0
LINE
  5
3C4
100
AcDbEntity
  8
0
100
AcDbLine
 62
7
  6
CONTINUOUS
 10
11.7091749571
 20
2.8180518999
 11
11.8285056658
 21
2.2798550495
  0
LINE
  5
3C5
100
AcDbEntity
  8
0
100
AcDbLine
 62
7
  6
CONTINUOUS
 10
11.5135450359
 20
4.5146621361
 11
11.3942536973
 21
5.0527999314
  0
LINE
  5
3C6
100
AcDbEntity
  8
0
100
AcDbLine
 62
7
  6
CONTINUOUS
 10
11.2907891304
 20
6.3858078054
 11
11.1714190516
 21
6.9239574117
  0
LINE
  5
3C7
100
AcDbEntity
  8
0
100
AcDbLine
 62
7
  6
CONTINUOUS
 10
11.5883088154
 20
5.0958826086
 11
11.7076395241
 21
4.5577448133
  0
LINE
  5
3C8
100
AcDbEntity
  8
0
100
AcDbLine
 62
7
  6
CONTINUOUS
 10
12.366615902
 20
2.3992133172
 11
12.2473245634
 21
2.9372999314
  0
LINE
  5
3C9
100
AcDbEntity
  8
0
100
AcDbLine
 62
7
  6
CONTINUOUS
 10
11.7173245634
 20
5.32809127
 11
11.5980332249
 21
5.8662408763
  0
LINE
  5
3CA
100
AcDbEntity
  8
0
100
AcDbLine
 62
7
  6
CONTINUOUS
 10
11.9337418863
 20
4.4042015062
 11
12.0530332249
 21
3.8661188291
  0
LINE
  5
3CB
100
AcDbEntity
  8
0
100
AcDbLine
 62
7
  6
CONTINUOUS
 10
11.0599229886
 20
5.7468707976
 11
11.1791749571
 21
5.2087841834
  0
LINE
  5
3CC
100
AcDbEntity
  8
0
100
AcDbLine
 62
7
  6
CONTINUOUS
 10
11.7299623587
 20
3.5908432385
 11
11.8492143272
 21
3.0527015062
  0
LINE
  5
3CD
100
AcDbEntity
  8
0
100
AcDbLine
 62
7
  6
CONTINUOUS
 10
11.36559228
 20
6.9669889078
 11
11.4848442485
 21
6.4288393015
  0
LINE
  5
3CE
100
AcDbEntity
  8
0
100
AcDbLine
 62
7
  6
CONTINUOUS
 10
11.5980332249
 20
5.8662408763
 11
11.0599229886
 21
5.7468707976
  0
LINE
  5
3CF
100
AcDbEntity
  8
0
100
AcDbLine
 62
7
  6
CONTINUOUS
 10
10.133584406
 20
5.5415164669
 11
9.5954741697
 21
5.4222172543
  0
LINE
  5
3D0
100
AcDbEntity
  8
0
100
AcDbLine
 62
7
  6
CONTINUOUS
 10
10.8657497603
 20
5.7038393015
 11
10.3276788941
 21
5.5845479629
  0
LINE
  5
3D1
100
AcDbEntity
  8
0
100
AcDbLine
 62
7
  6
CONTINUOUS
 10
12.3302379493
 20
6.0285637109
 11
11.7921670831
 21
5.9092723724
  0
LINE
  5
3D2
100
AcDbEntity
  8
0
100
AcDbLine
 62
7
  6
CONTINUOUS
 10
13.0624820438
 20
6.1908865456
 11
12.5243324375
 21
6.071595207
  0
LINE
  5
3D3
100
AcDbEntity
  8
0
100
AcDbLine
 62
7
  6
CONTINUOUS
 10
14.0692930674
 20
6.414075522
 11
13.5311434611
 21
6.2947841834
  0
LINE
  5
3D4
100
AcDbEntity
  8
0
100
AcDbLine
 62
7
  6
CONTINUOUS
 10
12.2170489729
 20
6.5911621361
 11
12.7551985792
 21
6.7105322149
  0
LINE
  5
3D5
100
AcDbEntity
  8
0
100
AcDbLine
 62
7
  6
CONTINUOUS
 10
10.7526395241
 20
6.2665164669
 11
11.2907891304
 21
6.3858078054
  0
LINE
  5
3D6
100
AcDbEntity
  8
0
100
AcDbLine
 62
7
  6
CONTINUOUS
 10
11.4848442485
 20
6.4288393015
 11
12.0229938548
 21
6.5481306401
  0
LINE
  5
3D7
100
AcDbEntity
  8
0
100
AcDbLine
 62
7
  6
CONTINUOUS
 10
12.9493324375
 20
6.7535637109
 11
13.4874426737
 21
6.8728550495
  0
LINE
  5
3D8
100
AcDbEntity
  8
0
100
AcDbLine
 62
7
  6
CONTINUOUS
 10
9.4013403115
 20
5.3791896952
 11
8.8632300753
 21
5.2599534747
  0
LINE
  5
3D9
100
AcDbEntity
  8
0
100
AcDbLine
 62
7
  6
CONTINUOUS
 10
9.2881907052
 20
5.9419101676
 11
9.8263403115
 21
6.0611621361
  0
LINE
  5
3DA
100
AcDbEntity
  8
0
100
AcDbLine
 62
7
  6
CONTINUOUS
 10
8.5559859808
 20
5.779587333
 11
9.0940568469
 21
5.8988393015
  0
LINE
  5
3DB
100
AcDbEntity
  8
0
100
AcDbLine
 62
7
  6
CONTINUOUS
 10
10.0204347997
 20
6.1042330023
 11
10.5585056658
 21
6.2234849708
  0
LINE
  5
3DC
100
AcDbEntity
  8
0
100
AcDbLine
 62
7
  6
CONTINUOUS
 10
20.2922851934
 20
5.5324613487
 11
20.4684269256
 21
5.5324613487
  0
LINE
  5
3DD
100
AcDbEntity
  8
0
100
AcDbLine
 62
7
  6
CONTINUOUS
 10
20.6495292878
 20
5.5324613487
 11
20.776615902
 21
5.5324613487
  0
LINE
  5
3DE
100
AcDbEntity
  8
0
100
AcDbLine
 62
7
  6
CONTINUOUS
 10
20.2538206264
 20
5.5983668606
 11
20.2922851934
 21
5.5983668606
  0
LINE
  5
3DF
100
AcDbEntity
  8
0
100
AcDbLine
 62
7
  6
CONTINUOUS
 10
20.776615902
 20
5.5983668606
 11
20.8128757445
 21
5.5983668606
  0
LINE
  5
3E0
100
AcDbEntity
  8
0
100
AcDbLine
 62
7
  6
CONTINUOUS
 10
20.8128757445
 20
5.7283274905
 11
20.776615902
 21
5.7283274905
  0
LINE
  5
3E1
100
AcDbEntity
  8
0
100
AcDbLine
 62
7
  6
CONTINUOUS
 10
20.2922851934
 20
5.7283274905
 11
20.2538206264
 21
5.7283274905
  0
LINE
  5
3E2
100
AcDbEntity
  8
0
100
AcDbLine
 62
7
  6
CONTINUOUS
 10
20.776615902
 20
5.7942330023
 11
20.6495292878
 21
5.7942330023
  0
LINE
  5
3E3
100
AcDbEntity
  8
0
100
AcDbLine
 62
7
  6
CONTINUOUS
 10
20.5392536973
 20
5.7942330023
 11
20.2922851934
 21
5.7942330023
  0
LINE
  5
3E4
100
AcDbEntity
  8
0
100
AcDbLine
 62
7
  6
CONTINUOUS
 10
20.6495292878
 20
5.8286818212
 11
20.5392536973
 21
5.8286818212
  0
LINE
  5
3E5
100
AcDbEntity
  8
0
100
AcDbLine
 62
7
  6
CONTINUOUS
 10
20.0845292878
 20
5.8434456007
 11
19.5332694453
 21
5.8434456007
  0
LINE
  5
3E6
100
AcDbEntity
  8
0
100
AcDbLine
 62
7
  6
CONTINUOUS
 10
19.3345292878
 20
5.8434456007
 11
18.7832694453
 21
5.8434456007
  0
LINE
  5
3E7
100
AcDbEntity
  8
0
100
AcDbLine
 62
7
  6
CONTINUOUS
 10
18.5845292878
 20
5.8434456007
 11
18.0332694453
 21
5.8434456007
  0
LINE
  5
3E8
100
AcDbEntity
  8
0
100
AcDbLine
 62
7
  6
CONTINUOUS
 10
17.4595292878
 20
5.8434456007
 11
16.9082694453
 21
5.8434456007
  0
LINE
  5
3E9
100
AcDbEntity
  8
0
100
AcDbLine
 62
7
  6
CONTINUOUS
 10
16.7095292878
 20
5.8434456007
 11
16.1582694453
 21
5.8434456007
  0
LINE
  5
3EA
100
AcDbEntity
  8
0
100
AcDbLine
 62
7
  6
CONTINUOUS
 10
15.9595292878
 20
5.8434456007
 11
15.4082694453
 21
5.8434456007
  0
LINE
  5
3EB
100
AcDbEntity
  8
0
100
AcDbLine
 62
7
  6
CONTINUOUS
 10
15.4082694453
 20
6.0423038684
 11
15.9595292878
 21
6.0423038684
  0
LINE
  5
3EC
100
AcDbEntity
  8
0
100
AcDbLine
 62
7
  6
CONTINUOUS
 10
16.1582694453
 20
6.0423038684
 11
16.7095292878
 21
6.0423038684
  0
LINE
  5
3ED
100
AcDbEntity
  8
0
100
AcDbLine
 62
7
  6
CONTINUOUS
 10
16.9082694453
 20
6.0423038684
 11
17.4595292878
 21
6.0423038684
  0
LINE
  5
3EE
100
AcDbEntity
  8
0
100
AcDbLine
 62
7
  6
CONTINUOUS
 10
18.0332694453
 20
6.0423038684
 11
18.5845292878
 21
6.0423038684
  0
LINE
  5
3EF
100
AcDbEntity
  8
0
100
AcDbLine
 62
7
  6
CONTINUOUS
 10
18.7832694453
 20
6.0423038684
 11
19.3345292878
 21
6.0423038684
  0
LINE
  5
3F0
100
AcDbEntity
  8
0
100
AcDbLine
 62
7
  6
CONTINUOUS
 10
19.5332694453
 20
6.0423038684
 11
20.0845292878
 21
6.0423038684
  0
LINE
  5
3F1
100
AcDbEntity
  8
0
100
AcDbLine
 62
7
  6
CONTINUOUS
 10
20.2832694453
 20
6.0423038684
 11
20.8345292878
 21
6.0423038684
  0
LINE
  5
3F2
100
AcDbEntity
  8
0
100
AcDbLine
 62
7
  6
CONTINUOUS
 10
5.5123042824
 20
6.7998684795
 11
4.9741891971
 21
6.9191696216
  0
LINE
  5
3F3
100
AcDbEntity
  8
0
100
AcDbLine
 62
7
  6
CONTINUOUS
 10
7.7090403953
 20
6.3129210429
 11
7.1709169905
 21
6.4321846561
  0
LINE
  5
3F4
100
AcDbEntity
  8
0
100
AcDbLine
 62
7
  6
CONTINUOUS
 10
6.2445615479
 20
6.6375733665
 11
5.7064381428
 21
6.7568369791
  0
LINE
  5
3F5
100
AcDbEntity
  8
0
100
AcDbLine
 62
7
  6
CONTINUOUS
 10
6.9768225021
 20
6.4752555208
 11
6.4386954078
 21
6.5945025013
  0
LINE
  5
3F6
100
AcDbEntity
  8
0
100
AcDbLine
 62
7
  6
CONTINUOUS
 10
4.7800671486
 20
6.9622011229
 11
4.2419648246
 21
7.0815598404
  0
LINE
  5
3F7
100
AcDbEntity
  8
0
100
AcDbLine
 62
7
  6
CONTINUOUS
 10
3.3156271809
 20
7.2866858097
 11
2.7775198625
 21
7.4060219831
  0
LINE
  5
3F8
100
AcDbEntity
  8
0
100
AcDbLine
 62
7
  6
CONTINUOUS
 10
12.3873639335
 20
3.1719928448
 11
12.2680332249
 21
3.7101463881
  0
LINE
  5
3F9
100
AcDbEntity
  8
0
100
AcDbLine
 62
7
  6
CONTINUOUS
 10
12.2457497603
 20
4.6770479629
 11
12.1264584217
 21
5.2151345771
  0
LINE
  5
3FA
100
AcDbEntity
  8
0
100
AcDbLine
 62
7
  6
CONTINUOUS
 10
12.5911434611
 20
3.9853707976
 11
12.4718127524
 21
4.5235085928
  0
LINE
  5
3FB
100
AcDbEntity
  8
0
100
AcDbLine
 62
7
  6
CONTINUOUS
 10
12.0229938548
 20
6.5481306401
 11
11.9037025162
 21
7.0862802464
  0
LINE
  5
3FC
100
AcDbEntity
  8
0
100
AcDbLine
 62
7
  6
CONTINUOUS
 10
12.8075607839
 20
3.0614810338
 11
12.9268521225
 21
2.5234022936
  0
LINE
  5
3FD
100
AcDbEntity
  8
0
100
AcDbLine
 62
7
  6
CONTINUOUS
 10
12.3205135398
 20
5.2582172543
 11
12.4398836186
 21
4.7200637109
  0
LINE
  5
3FE
100
AcDbEntity
  8
0
100
AcDbLine
 62
7
  6
CONTINUOUS
 10
12.4495292878
 20
5.4904141046
 11
12.3302379493
 21
6.0285637109
  0
LINE
  5
3FF
100
AcDbEntity
  8
0
100
AcDbLine
 62
7
  6
CONTINUOUS
 10
12.6659466107
 20
4.5665361519
 11
12.7852773193
 21
4.0284534747
  0
LINE
  5
400
100
AcDbEntity
  8
0
100
AcDbLine
 62
7
  6
CONTINUOUS
 10
11.7921670831
 20
5.9092723724
 11
11.9113796815
 21
5.371107018
  0
LINE
  5
401
100
AcDbEntity
  8
0
100
AcDbLine
 62
7
  6
CONTINUOUS
 10
12.4621670831
 20
3.7531621361
 11
12.5814190516
 21
3.2150204039
  0
LINE
  5
402
100
AcDbEntity
  8
0
100
AcDbLine
 62
7
  6
CONTINUOUS
 10
12.0977970044
 20
7.1293511125
 11
12.2170489729
 21
6.5911621361
  0
LINE
  5
403
100
AcDbEntity
  8
0
100
AcDbLine
 62
7
  6
CONTINUOUS
 10
11.9037025162
 20
7.0862802464
 11
11.36559228
 21
6.9669889078
  0
LINE
  5
404
100
AcDbEntity
  8
0
100
AcDbLine
 62
7
  6
CONTINUOUS
 10
11.1714190516
 20
6.9239574117
 11
10.6333481855
 21
6.8046660731
  0
LINE
  5
405
100
AcDbEntity
  8
0
100
AcDbLine
 62
7
  6
CONTINUOUS
 10
10.4392143272
 20
6.7616345771
 11
9.9011434611
 21
6.6423432385
  0
LINE
  5
406
100
AcDbEntity
  8
0
100
AcDbLine
 62
7
  6
CONTINUOUS
 10
13.3681513351
 20
7.4109259157
 11
12.8300017288
 21
7.2916345771
  0
LINE
  5
407
100
AcDbEntity
  8
0
100
AcDbLine
 62
7
  6
CONTINUOUS
 10
9.7070096028
 20
6.5993117424
 11
9.1688993666
 21
6.4799810338
  0
LINE
  5
408
100
AcDbEntity
  8
0
100
AcDbLine
 62
7
  6
CONTINUOUS
 10
8.9748048784
 20
6.4369889078
 11
8.4366946422
 21
6.3176581991
  0
LINE
  5
409
100
AcDbEntity
  8
0
100
AcDbLine
 62
7
  6
CONTINUOUS
 10
12.6359072406
 20
7.248603081
 11
12.0977970044
 21
7.1293511125
  0
LINE
  5
40A
100
AcDbEntity
  8
0
100
AcDbLine
 62
7
  6
CONTINUOUS
 10
20.8345292878
 20
6.5934456007
 11
20.2832694453
 21
6.5934456007
  0
LINE
  5
40B
100
AcDbEntity
  8
0
100
AcDbLine
 62
7
  6
CONTINUOUS
 10
20.0845292878
 20
6.5934456007
 11
19.5332694453
 21
6.5934456007
  0
LINE
  5
40C
100
AcDbEntity
  8
0
100
AcDbLine
 62
7
  6
CONTINUOUS
 10
19.3345292878
 20
6.5934456007
 11
18.7832694453
 21
6.5934456007
  0
LINE
  5
40D
100
AcDbEntity
  8
0
100
AcDbLine
 62
7
  6
CONTINUOUS
 10
18.5845292878
 20
6.5934456007
 11
18.0332694453
 21
6.5934456007
  0
LINE
  5
40E
100
AcDbEntity
  8
0
100
AcDbLine
 62
7
  6
CONTINUOUS
 10
17.4595292878
 20
6.5934456007
 11
16.9082694453
 21
6.5934456007
  0
LINE
  5
40F
100
AcDbEntity
  8
0
100
AcDbLine
 62
7
  6
CONTINUOUS
 10
16.7095292878
 20
6.5934456007
 11
16.1582694453
 21
6.5934456007
  0
LINE
  5
410
100
AcDbEntity
  8
0
100
AcDbLine
 62
7
  6
CONTINUOUS
 10
15.9595292878
 20
6.5934456007
 11
15.4082694453
 21
6.5934456007
  0
LINE
  5
411
100
AcDbEntity
  8
0
100
AcDbLine
 62
7
  6
CONTINUOUS
 10
5.0779142269
 20
7.8637016563
 11
2.8283228711
 21
8.3625940051
  0
LINE
  5
412
100
AcDbEntity
  8
0
100
AcDbLine
 62
7
  6
CONTINUOUS
 10
13.3403560595
 20
3.7583156794
 11
13.3642536973
 21
3.6507290653
  0
LINE
  5
413
100
AcDbEntity
  8
0
100
AcDbLine
 62
7
  6
CONTINUOUS
 10
13.1195686579
 20
3.3343274905
 11
13.0002773193
 21
3.8724652857
  0
LINE
  5
414
100
AcDbEntity
  8
0
100
AcDbLine
 62
7
  6
CONTINUOUS
 10
12.5243324375
 20
6.071595207
 11
12.6436631461
 21
5.5334456007
  0
LINE
  5
415
100
AcDbEntity
  8
0
100
AcDbLine
 62
7
  6
CONTINUOUS
 10
13.4649229886
 20
2.6427054432
 11
13.3456316501
 21
3.1808432385
  0
LINE
  5
416
100
AcDbEntity
  8
0
100
AcDbLine
 62
7
  6
CONTINUOUS
 10
13.3464977918
 20
3.8899377267
 11
13.3740174768
 21
3.7657999314
  0
LINE
  5
417
100
AcDbEntity
  8
0
100
AcDbLine
 62
7
  6
CONTINUOUS
 10
13.3233481855
 20
4.1476896952
 11
13.2040568469
 21
4.6858432385
  0
LINE
  5
418
100
AcDbEntity
  8
0
100
AcDbLine
 62
7
  6
CONTINUOUS
 10
12.7551985792
 20
6.7105322149
 11
12.6359072406
 21
7.248603081
  0
LINE
  5
419
100
AcDbEntity
  8
0
100
AcDbLine
 62
7
  6
CONTINUOUS
 10
13.0527576343
 20
5.4205361519
 11
13.172088343
 21
4.8823983566
  0
LINE
  5
41A
100
AcDbEntity
  8
0
100
AcDbLine
 62
7
  6
CONTINUOUS
 10
13.6508678705
 20
3.4218983566
 11
13.6425214138
 21
3.4595518999
  0
LINE
  5
41B
100
AcDbEntity
  8
0
100
AcDbLine
 62
7
  6
CONTINUOUS
 10
12.8300017288
 20
7.2916345771
 11
12.9493324375
 21
6.7535637109
  0
LINE
  5
41C
100
AcDbEntity
  8
0
100
AcDbLine
 62
7
  6
CONTINUOUS
 10
13.7069308627
 20
3.4738156794
 11
13.6688206264
 21
3.6456345771
  0
LINE
  5
41D
100
AcDbEntity
  8
0
100
AcDbLine
 62
7
  6
CONTINUOUS
 10
13.629608028
 20
3.8224534747
 11
13.602088343
 21
3.946579459
  0
LINE
  5
41E
100
AcDbEntity
  8
0
100
AcDbLine
 62
7
  6
CONTINUOUS
 10
13.4587418863
 20
4.6830085928
 11
13.4862615713
 21
4.5588826086
  0
LINE
  5
41F
100
AcDbEntity
  8
0
100
AcDbLine
 62
7
  6
CONTINUOUS
 10
13.6279151146
 20
4.2245204039
 11
13.6362615713
 21
4.1868707976
  0
LINE
  5
420
100
AcDbEntity
  8
0
100
AcDbLine
 62
7
  6
CONTINUOUS
 10
12.9779544847
 20
4.8393707976
 11
12.8587025162
 21
5.3774534747
  0
LINE
  5
421
100
AcDbEntity
  8
0
100
AcDbLine
 62
7
  6
CONTINUOUS
 10
13.3978757445
 20
3.6581621361
 11
13.4512615713
 21
3.4171739472
  0
LINE
  5
422
100
AcDbEntity
  8
0
100
AcDbLine
 62
7
  6
CONTINUOUS
 10
13.1817340123
 20
5.6527369393
 11
13.0624820438
 21
6.1908865456
  0
LINE
  5
423
100
AcDbEntity
  8
0
100
AcDbLine
 62
7
  6
CONTINUOUS
 10
13.4526395241
 20
4.5513983566
 11
13.4764977918
 21
4.4437566243
  0
LINE
  5
424
100
AcDbEntity
  8
0
100
AcDbLine
 62
7
  6
CONTINUOUS
 10
13.510119839
 20
4.4512448133
 11
13.5635056658
 21
4.2102448133
  0
LINE
  5
425
100
AcDbEntity
  8
0
100
AcDbLine
 62
7
  6
CONTINUOUS
 10
13.6520489729
 20
4.0169377267
 11
13.692088343
 21
3.8362841834
  0
LINE
  5
426
100
AcDbEntity
  8
0
100
AcDbLine
 62
7
  6
CONTINUOUS
 10
13.7312615713
 20
3.6594652857
 11
13.7713009414
 21
3.4787999314
  0
LINE
  5
427
100
AcDbEntity
  8
0
100
AcDbLine
 62
7
  6
CONTINUOUS
 10
13.5156710201
 20
3.4314377267
 11
13.5240174768
 21
3.3937290653
  0
LINE
  5
428
100
AcDbEntity
  8
0
100
AcDbLine
 62
7
  6
CONTINUOUS
 10
13.5152773193
 20
4.7326621361
 11
13.523111965
 21
4.6972841834
  0
LINE
  5
429
100
AcDbEntity
  8
0
100
AcDbLine
 62
7
  6
CONTINUOUS
 10
13.5376788941
 20
3.9323156794
 11
13.5298836186
 21
3.9676896952
  0
LINE
  5
42A
100
AcDbEntity
  8
0
100
AcDbLine
 62
7
  6
CONTINUOUS
 10
13.4030332249
 20
3.939579459
 11
13.4108285004
 21
3.9042015062
  0
LINE
  5
42B
100
AcDbEntity
  8
0
100
AcDbLine
 62
7
  6
CONTINUOUS
 10
14.2305194018
 20
8.5699987977
 11
11.0438471086
 21
7.8635074646
  0
LINE
  5
42C
100
AcDbEntity
  8
0
100
AcDbLine
 62
7
  6
CONTINUOUS
 10
15.4082694453
 20
7.1673038684
 11
15.9595292878
 21
7.1673038684
  0
LINE
  5
42D
100
AcDbEntity
  8
0
100
AcDbLine
 62
7
  6
CONTINUOUS
 10
16.1582694453
 20
7.1673038684
 11
16.7095292878
 21
7.1673038684
  0
LINE
  5
42E
100
AcDbEntity
  8
0
100
AcDbLine
 62
7
  6
CONTINUOUS
 10
16.9082694453
 20
7.1673038684
 11
17.4595292878
 21
7.1673038684
  0
LINE
  5
42F
100
AcDbEntity
  8
0
100
AcDbLine
 62
7
  6
CONTINUOUS
 10
17.4595292878
 20
7.7184456007
 11
16.9082694453
 21
7.7184456007
  0
LINE
  5
430
100
AcDbEntity
  8
0
100
AcDbLine
 62
7
  6
CONTINUOUS
 10
16.7095292878
 20
7.7184456007
 11
16.1582694453
 21
7.7184456007
  0
LINE
  5
431
100
AcDbEntity
  8
0
100
AcDbLine
 62
7
  6
CONTINUOUS
 10
15.9595292878
 20
7.7184456007
 11
15.4082694453
 21
7.7184456007
  0
LINE
  5
432
100
AcDbEntity
  8
0
100
AcDbLine
 62
7
  6
CONTINUOUS
 10
13.7418914926
 20
4.6155204039
 11
13.7143324375
 21
4.7397015062
  0
LINE
  5
433
100
AcDbEntity
  8
0
100
AcDbLine
 62
7
  6
CONTINUOUS
 10
13.8435056658
 20
4.452607018
 11
13.883584406
 21
4.2719377267
  0
LINE
  5
434
100
AcDbEntity
  8
0
100
AcDbLine
 62
7
  6
CONTINUOUS
 10
14.265119839
 20
4.093607018
 11
14.2926788941
 21
3.9694259157
  0
LINE
  5
435
100
AcDbEntity
  8
0
100
AcDbLine
 62
7
  6
CONTINUOUS
 10
13.763111965
 20
4.2149652857
 11
13.7547655083
 21
4.2526188291
  0
LINE
  5
436
100
AcDbEntity
  8
0
100
AcDbLine
 62
7
  6
CONTINUOUS
 10
13.8191749571
 20
4.2668983566
 11
13.7810647209
 21
4.4387723724
  0
LINE
  5
437
100
AcDbEntity
  8
0
100
AcDbLine
 62
7
  6
CONTINUOUS
 10
13.5311434611
 20
6.2947841834
 11
13.6504347997
 21
5.7566345771
  0
LINE
  5
438
100
AcDbEntity
  8
0
100
AcDbLine
 62
7
  6
CONTINUOUS
 10
13.4874426737
 20
6.8728550495
 11
13.3681513351
 21
7.4109259157
  0
LINE
  5
439
100
AcDbEntity
  8
0
100
AcDbLine
 62
7
  6
CONTINUOUS
 10
14.3094505477
 20
3.598107018
 11
14.2694111776
 21
3.7787172543
  0
LINE
  5
43A
100
AcDbEntity
  8
0
100
AcDbLine
 62
7
  6
CONTINUOUS
 10
13.8764977918
 20
5.6031306401
 11
13.9958285004
 21
5.0650085928
  0
LINE
  5
43B
100
AcDbEntity
  8
0
100
AcDbLine
 62
7
  6
CONTINUOUS
 10
14.5633088154
 20
2.8861936322
 11
14.4439781067
 21
3.4242841834
  0
LINE
  5
43C
100
AcDbEntity
  8
0
100
AcDbLine
 62
7
  6
CONTINUOUS
 10
13.9059072406
 20
3.3049810338
 11
14.0251592091
 21
2.7668904826
  0
LINE
  5
43D
100
AcDbEntity
  8
0
100
AcDbLine
 62
7
  6
CONTINUOUS
 10
13.7101592091
 20
5.0017015062
 11
13.5909072406
 21
5.5397841834
  0
LINE
  5
43E
100
AcDbEntity
  8
0
100
AcDbLine
 62
7
  6
CONTINUOUS
 10
13.7642536973
 20
4.8100204039
 11
13.8042930674
 21
4.6293550495
  0
LINE
  5
43F
100
AcDbEntity
  8
0
100
AcDbLine
 62
7
  6
CONTINUOUS
 10
14.2301985792
 20
3.9555361519
 11
14.1901592091
 21
4.1361896952
  0
LINE
  5
440
100
AcDbEntity
  8
0
100
AcDbLine
 62
7
  6
CONTINUOUS
 10
14.3318521225
 20
3.792607018
 11
14.3699229886
 21
3.6207841834
  0
LINE
  5
441
100
AcDbEntity
  8
0
100
AcDbLine
 62
7
  6
CONTINUOUS
 10
14.5695292878
 20
3.6255085928
 11
14.5611828312
 21
3.6632172543
  0
LINE
  5
442
100
AcDbEntity
  8
0
100
AcDbLine
 62
7
  6
CONTINUOUS
 10
14.4343324375
 20
3.6350518999
 11
14.4426395241
 21
3.5973983566
  0
LINE
  5
443
100
AcDbEntity
  8
0
100
AcDbLine
 62
7
  6
CONTINUOUS
 10
14.4563009414
 20
4.1359810338
 11
14.4485056658
 21
4.1713550495
  0
LINE
  5
444
100
AcDbEntity
  8
0
100
AcDbLine
 62
7
  6
CONTINUOUS
 10
13.6499229886
 20
4.7253826086
 11
13.642127713
 21
4.7608156794
  0
LINE
  5
445
100
AcDbEntity
  8
0
100
AcDbLine
 62
7
  6
CONTINUOUS
 10
14.3217340123
 20
4.1432448133
 11
14.3295292878
 21
4.1078156794
  0
LINE
  5
446
100
AcDbEntity
  8
0
100
AcDbLine
 62
7
  6
CONTINUOUS
 10
14.4338993666
 20
4.9363274905
 11
14.4417733823
 21
4.9009534747
  0
LINE
  5
447
100
AcDbEntity
  8
0
100
AcDbLine
 62
7
  6
CONTINUOUS
 10
14.5482694453
 20
4.0261188291
 11
14.5207103902
 21
4.1502448133
  0
LINE
  5
448
100
AcDbEntity
  8
0
100
AcDbLine
 62
7
  6
CONTINUOUS
 10
14.6057497603
 20
3.9259652857
 11
14.5818521225
 21
4.0335479629
  0
LINE
  5
449
100
AcDbEntity
  8
0
100
AcDbLine
 62
7
  6
CONTINUOUS
 10
14.7179938548
 20
4.7190361519
 11
14.694096217
 21
4.8266739472
  0
LINE
  5
44A
100
AcDbEntity
  8
0
100
AcDbLine
 62
7
  6
CONTINUOUS
 10
14.6255529099
 20
3.6774810338
 11
14.572088343
 21
3.9184810338
  0
LINE
  5
44B
100
AcDbEntity
  8
0
100
AcDbLine
 62
7
  6
CONTINUOUS
 10
14.444096217
 20
4.5856896952
 11
14.4822064532
 21
4.4139101676
  0
LINE
  5
44C
100
AcDbEntity
  8
0
100
AcDbLine
 62
7
  6
CONTINUOUS
 10
14.3773639335
 20
4.8866896952
 11
14.4049229886
 21
4.7624928448
  0
LINE
  5
44D
100
AcDbEntity
  8
0
100
AcDbLine
 62
7
  6
CONTINUOUS
 10
14.6605135398
 20
4.8191896952
 11
14.6329544847
 21
4.9433274905
  0
LINE
  5
44E
100
AcDbEntity
  8
0
100
AcDbLine
 62
7
  6
CONTINUOUS
 10
14.7377970044
 20
4.4705637109
 11
14.6843324375
 21
4.7115518999
  0
LINE
  5
44F
100
AcDbEntity
  8
0
100
AcDbLine
 62
7
  6
CONTINUOUS
 10
14.4216946422
 20
4.3912448133
 11
14.3816552721
 21
4.5718550495
  0
LINE
  5
450
100
AcDbEntity
  8
0
100
AcDbLine
 62
7
  6
CONTINUOUS
 10
14.188584406
 20
5.8759259157
 11
14.0692930674
 21
6.414075522
  0
LINE
  5
451
100
AcDbEntity
  8
0
100
AcDbLine
 62
7
  6
CONTINUOUS
 10
14.5339387367
 20
5.1843156794
 11
14.4146473981
 21
5.7224613487
  0
LINE
  5
452
100
AcDbEntity
  8
0
100
AcDbLine
 62
7
  6
CONTINUOUS
 10
14.3424426737
 20
4.7486621361
 11
14.3024033036
 21
4.9293274905
  0
LINE
  5
453
100
AcDbEntity
  8
0
100
AcDbLine
 62
7
  6
CONTINUOUS
 10
14.568623776
 20
4.9290518999
 11
14.5607891304
 21
4.9644259157
  0
LINE
  5
454
100
AcDbEntity
  8
0
100
AcDbLine
 62
7
  6
CONTINUOUS
 10
14.5465765319
 20
4.4281896952
 11
14.5548836186
 21
4.3905361519
  0
LINE
  5
455
100
AcDbEntity
  8
0
100
AcDbLine
 62
7
  6
CONTINUOUS
 10
14.6817340123
 20
4.4186345771
 11
14.6734269256
 21
4.4562841834
  0
LINE
  5
456
100
AcDbEntity
  8
0
100
AcDbLine
 62
7
  6
CONTINUOUS
 10
15.4082694453
 20
7.7184456007
 11
15.4082694453
 21
7.1673038684
  0
LINE
  5
457
100
AcDbEntity
  8
0
100
AcDbLine
 62
7
  6
CONTINUOUS
 10
15.4082694453
 20
6.5934456007
 11
15.4082694453
 21
6.0423038684
  0
LINE
  5
458
100
AcDbEntity
  8
0
100
AcDbLine
 62
7
  6
CONTINUOUS
 10
15.4082694453
 20
5.8434456007
 11
15.4082694453
 21
5.2922841834
  0
LINE
  5
459
100
AcDbEntity
  8
0
100
AcDbLine
 62
7
  6
CONTINUOUS
 10
15.4082694453
 20
3.5934377267
 11
15.4082694453
 21
3.0422841834
  0
LINE
  5
45A
100
AcDbEntity
  8
0
100
AcDbLine
 62
7
  6
CONTINUOUS
 10
20.9920096028
 20
8.6633274905
 11
15.0826704166
 21
8.6633274905
  0
LINE
  5
45B
100
AcDbEntity
  8
0
100
AcDbLine
 62
7
  6
CONTINUOUS
 10
15.9595292878
 20
3.0422841834
 11
15.9595292878
 21
3.5934377267
  0
LINE
  5
45C
100
AcDbEntity
  8
0
100
AcDbLine
 62
7
  6
CONTINUOUS
 10
15.9595292878
 20
5.2922841834
 11
15.9595292878
 21
5.8434456007
  0
LINE
  5
45D
100
AcDbEntity
  8
0
100
AcDbLine
 62
7
  6
CONTINUOUS
 10
15.9595292878
 20
6.0423038684
 11
15.9595292878
 21
6.5934456007
  0
LINE
  5
45E
100
AcDbEntity
  8
0
100
AcDbLine
 62
7
  6
CONTINUOUS
 10
15.9595292878
 20
7.1673038684
 11
15.9595292878
 21
7.7184456007
  0
LINE
  5
45F
100
AcDbEntity
  8
0
100
AcDbLine
 62
7
  6
CONTINUOUS
 10
16.1582694453
 20
7.7184456007
 11
16.1582694453
 21
7.1673038684
  0
LINE
  5
460
100
AcDbEntity
  8
0
100
AcDbLine
 62
7
  6
CONTINUOUS
 10
16.1582694453
 20
6.5934456007
 11
16.1582694453
 21
6.0423038684
  0
LINE
  5
461
100
AcDbEntity
  8
0
100
AcDbLine
 62
7
  6
CONTINUOUS
 10
16.1582694453
 20
5.8434456007
 11
16.1582694453
 21
5.2922841834
  0
LINE
  5
462
100
AcDbEntity
  8
0
100
AcDbLine
 62
7
  6
CONTINUOUS
 10
16.1582694453
 20
4.3434377267
 11
16.1582694453
 21
3.7922841834
  0
LINE
  5
463
100
AcDbEntity
  8
0
100
AcDbLine
 62
7
  6
CONTINUOUS
 10
16.1582694453
 20
3.5934377267
 11
16.1582694453
 21
3.0422841834
  0
LINE
  5
464
100
AcDbEntity
  8
0
100
AcDbLine
 62
7
  6
CONTINUOUS
 10
16.7095292878
 20
3.0422841834
 11
16.7095292878
 21
3.5934377267
  0
LINE
  5
465
100
AcDbEntity
  8
0
100
AcDbLine
 62
7
  6
CONTINUOUS
 10
16.7095292878
 20
3.7922841834
 11
16.7095292878
 21
4.3434377267
  0
LINE
  5
466
100
AcDbEntity
  8
0
100
AcDbLine
 62
7
  6
CONTINUOUS
 10
16.7095292878
 20
5.2922841834
 11
16.7095292878
 21
5.8434456007
  0
LINE
  5
467
100
AcDbEntity
  8
0
100
AcDbLine
 62
7
  6
CONTINUOUS
 10
16.7095292878
 20
6.0423038684
 11
16.7095292878
 21
6.5934456007
  0
LINE
  5
468
100
AcDbEntity
  8
0
100
AcDbLine
 62
7
  6
CONTINUOUS
 10
16.7095292878
 20
7.1673038684
 11
16.7095292878
 21
7.7184456007
  0
LINE
  5
469
100
AcDbEntity
  8
0
100
AcDbLine
 62
7
  6
CONTINUOUS
 10
16.9082694453
 20
7.7184456007
 11
16.9082694453
 21
7.1673038684
  0
LINE
  5
46A
100
AcDbEntity
  8
0
100
AcDbLine
 62
7
  6
CONTINUOUS
 10
16.9082694453
 20
6.5934456007
 11
16.9082694453
 21
6.0423038684
  0
LINE
  5
46B
100
AcDbEntity
  8
0
100
AcDbLine
 62
7
  6
CONTINUOUS
 10
16.9082694453
 20
5.8434456007
 11
16.9082694453
 21
5.2922841834
  0
LINE
  5
46C
100
AcDbEntity
  8
0
100
AcDbLine
 62
7
  6
CONTINUOUS
 10
16.9082694453
 20
3.5934377267
 11
16.9082694453
 21
3.0422841834
  0
LINE
  5
46D
100
AcDbEntity
  8
0
100
AcDbLine
 62
7
  6
CONTINUOUS
 10
17.4595292878
 20
3.0422841834
 11
17.4595292878
 21
3.5934377267
  0
LINE
  5
46E
100
AcDbEntity
  8
0
100
AcDbLine
 62
7
  6
CONTINUOUS
 10
17.4595292878
 20
5.2922841834
 11
17.4595292878
 21
5.8434456007
  0
LINE
  5
46F
100
AcDbEntity
  8
0
100
AcDbLine
 62
7
  6
CONTINUOUS
 10
17.4595292878
 20
6.0423038684
 11
17.4595292878
 21
6.5934456007
  0
LINE
  5
470
100
AcDbEntity
  8
0
100
AcDbLine
 62
7
  6
CONTINUOUS
 10
17.4595292878
 20
7.1673038684
 11
17.4595292878
 21
7.7184456007
  0
LINE
  5
471
100
AcDbEntity
  8
0
100
AcDbLine
 62
7
  6
CONTINUOUS
 10
18.0332694453
 20
6.5934456007
 11
18.0332694453
 21
6.0423038684
  0
LINE
  5
472
100
AcDbEntity
  8
0
100
AcDbLine
 62
7
  6
CONTINUOUS
 10
18.0332694453
 20
5.8434456007
 11
18.0332694453
 21
5.2922841834
  0
LINE
  5
473
100
AcDbEntity
  8
0
100
AcDbLine
 62
7
  6
CONTINUOUS
 10
18.0332694453
 20
5.0934377267
 11
18.0332694453
 21
4.5422841834
  0
LINE
  5
474
100
AcDbEntity
  8
0
100
AcDbLine
 62
7
  6
CONTINUOUS
 10
18.0332694453
 20
4.3434377267
 11
18.0332694453
 21
3.7922841834
  0
LINE
  5
475
100
AcDbEntity
  8
0
100
AcDbLine
 62
7
  6
CONTINUOUS
 10
18.0479938548
 20
3.4084377267
 11
18.0479938548
 21
3.2981896952
  0
LINE
  5
476
100
AcDbEntity
  8
0
100
AcDbLine
 62
7
  6
CONTINUOUS
 10
18.0824426737
 20
3.535607018
 11
18.0824426737
 21
3.4084377267
  0
LINE
  5
477
100
AcDbEntity
  8
0
100
AcDbLine
 62
7
  6
CONTINUOUS
 10
18.0824426737
 20
3.2981896952
 11
18.0824426737
 21
3.0513983566
  0
LINE
  5
478
100
AcDbEntity
  8
0
100
AcDbLine
 62
7
  6
CONTINUOUS
 10
18.1484269256
 20
3.5717999314
 11
18.1484269256
 21
3.535607018
  0
LINE
  5
479
100
AcDbEntity
  8
0
100
AcDbLine
 62
7
  6
CONTINUOUS
 10
18.1484269256
 20
3.0513983566
 11
18.1484269256
 21
3.0127723724
  0
LINE
  5
47A
100
AcDbEntity
  8
0
100
AcDbLine
 62
7
  6
CONTINUOUS
 10
18.2784269256
 20
3.0127723724
 11
18.2784269256
 21
3.0513983566
  0
LINE
  5
47B
100
AcDbEntity
  8
0
100
AcDbLine
 62
7
  6
CONTINUOUS
 10
18.2784269256
 20
3.535607018
 11
18.2784269256
 21
3.5717999314
  0
LINE
  5
47C
100
AcDbEntity
  8
0
100
AcDbLine
 62
7
  6
CONTINUOUS
 10
18.3443718075
 20
3.0513983566
 11
18.3443718075
 21
3.2273432385
  0
LINE
  5
47D
100
AcDbEntity
  8
0
100
AcDbLine
 62
7
  6
CONTINUOUS
 10
18.3443718075
 20
3.4084377267
 11
18.3443718075
 21
3.535607018
  0
LINE
  5
47E
100
AcDbEntity
  8
0
100
AcDbLine
 62
7
  6
CONTINUOUS
 10
18.4082694453
 20
3.5934377267
 11
18.4082694453
 21
3.4084377267
  0
LINE
  5
47F
100
AcDbEntity
  8
0
100
AcDbLine
 62
7
  6
CONTINUOUS
 10
18.4082694453
 20
3.2273432385
 11
18.4082694453
 21
3.0422841834
  0
LINE
  5
480
100
AcDbEntity
  8
0
100
AcDbLine
 62
7
  6
CONTINUOUS
 10
18.5845292878
 20
3.7922841834
 11
18.5845292878
 21
4.3434377267
  0
LINE
  5
481
100
AcDbEntity
  8
0
100
AcDbLine
 62
7
  6
CONTINUOUS
 10
18.5845292878
 20
4.5422841834
 11
18.5845292878
 21
5.0934377267
  0
LINE
  5
482
100
AcDbEntity
  8
0
100
AcDbLine
 62
7
  6
CONTINUOUS
 10
18.5845292878
 20
5.2922841834
 11
18.5845292878
 21
5.8434456007
  0
LINE
  5
483
100
AcDbEntity
  8
0
100
AcDbLine
 62
7
  6
CONTINUOUS
 10
18.5845292878
 20
6.0423038684
 11
18.5845292878
 21
6.5934456007
  0
LINE
  5
484
100
AcDbEntity
  8
0
100
AcDbLine
 62
7
  6
CONTINUOUS
 10
18.7832694453
 20
6.5934456007
 11
18.7832694453
 21
6.0423038684
  0
LINE
  5
485
100
AcDbEntity
  8
0
100
AcDbLine
 62
7
  6
CONTINUOUS
 10
18.7832694453
 20
5.8434456007
 11
18.7832694453
 21
5.2922841834
  0
LINE
  5
486
100
AcDbEntity
  8
0
100
AcDbLine
 62
7
  6
CONTINUOUS
 10
18.7832694453
 20
5.0934377267
 11
18.7832694453
 21
4.5422841834
  0
LINE
  5
487
100
AcDbEntity
  8
0
100
AcDbLine
 62
7
  6
CONTINUOUS
 10
18.7832694453
 20
4.3434377267
 11
18.7832694453
 21
3.7922841834
  0
LINE
  5
488
100
AcDbEntity
  8
0
100
AcDbLine
 62
7
  6
CONTINUOUS
 10
18.9595292878
 20
3.0422841834
 11
18.9595292878
 21
3.2273432385
  0
LINE
  5
489
100
AcDbEntity
  8
0
100
AcDbLine
 62
7
  6
CONTINUOUS
 10
18.9595292878
 20
3.4084377267
 11
18.9595292878
 21
3.5934377267
  0
LINE
  5
48A
100
AcDbEntity
  8
0
100
AcDbLine
 62
7
  6
CONTINUOUS
 10
19.0234269256
 20
3.535607018
 11
19.0234269256
 21
3.4084377267
  0
LINE
  5
48B
100
AcDbEntity
  8
0
100
AcDbLine
 62
7
  6
CONTINUOUS
 10
19.0234269256
 20
3.2273432385
 11
19.0234269256
 21
3.0513983566
  0
LINE
  5
48C
100
AcDbEntity
  8
0
100
AcDbLine
 62
7
  6
CONTINUOUS
 10
19.0893718075
 20
3.5717999314
 11
19.0893718075
 21
3.535607018
  0
LINE
  5
48D
100
AcDbEntity
  8
0
100
AcDbLine
 62
7
  6
CONTINUOUS
 10
19.0893718075
 20
3.0513983566
 11
19.0893718075
 21
3.0127723724
  0
LINE
  5
48E
100
AcDbEntity
  8
0
100
AcDbLine
 62
7
  6
CONTINUOUS
 10
19.2193718075
 20
3.0127723724
 11
19.2193718075
 21
3.0513983566
  0
LINE
  5
48F
100
AcDbEntity
  8
0
100
AcDbLine
 62
7
  6
CONTINUOUS
 10
19.2193718075
 20
3.535607018
 11
19.2193718075
 21
3.5717999314
  0
LINE
  5
490
100
AcDbEntity
  8
0
100
AcDbLine
 62
7
  6
CONTINUOUS
 10
19.2853560595
 20
3.0513983566
 11
19.2853560595
 21
3.2981896952
  0
LINE
  5
491
100
AcDbEntity
  8
0
100
AcDbLine
 62
7
  6
CONTINUOUS
 10
19.2853560595
 20
3.4084377267
 11
19.2853560595
 21
3.535607018
  0
LINE
  5
492
100
AcDbEntity
  8
0
100
AcDbLine
 62
7
  6
CONTINUOUS
 10
19.3198048784
 20
3.2981896952
 11
19.3198048784
 21
3.4084377267
  0
LINE
  5
493
100
AcDbEntity
  8
0
100
AcDbLine
 62
7
  6
CONTINUOUS
 10
19.3345292878
 20
3.7922841834
 11
19.3345292878
 21
4.3434377267
  0
LINE
  5
494
100
AcDbEntity
  8
0
100
AcDbLine
 62
7
  6
CONTINUOUS
 10
19.3345292878
 20
4.5422841834
 11
19.3345292878
 21
5.0934377267
  0
LINE
  5
495
100
AcDbEntity
  8
0
100
AcDbLine
 62
7
  6
CONTINUOUS
 10
19.3345292878
 20
5.2922841834
 11
19.3345292878
 21
5.8434456007
  0
LINE
  5
496
100
AcDbEntity
  8
0
100
AcDbLine
 62
7
  6
CONTINUOUS
 10
19.3345292878
 20
6.0423038684
 11
19.3345292878
 21
6.5934456007
  0
LINE
  5
497
100
AcDbEntity
  8
0
100
AcDbLine
 62
7
  6
CONTINUOUS
 10
19.5332694453
 20
6.5934456007
 11
19.5332694453
 21
6.0423038684
  0
LINE
  5
498
100
AcDbEntity
  8
0
100
AcDbLine
 62
7
  6
CONTINUOUS
 10
19.5332694453
 20
5.8434456007
 11
19.5332694453
 21
5.2922841834
  0
LINE
  5
499
100
AcDbEntity
  8
0
100
AcDbLine
 62
7
  6
CONTINUOUS
 10
19.5332694453
 20
5.0934377267
 11
19.5332694453
 21
4.5422841834
  0
LINE
  5
49A
100
AcDbEntity
  8
0
100
AcDbLine
 62
7
  6
CONTINUOUS
 10
19.5332694453
 20
4.3434377267
 11
19.5332694453
 21
3.7922841834
  0
LINE
  5
49B
100
AcDbEntity
  8
0
100
AcDbLine
 62
7
  6
CONTINUOUS
 10
19.5332694453
 20
3.5934377267
 11
19.5332694453
 21
3.0422841834
  0
LINE
  5
49C
100
AcDbEntity
  8
0
100
AcDbLine
 62
7
  6
CONTINUOUS
 10
20.0845292878
 20
3.0422841834
 11
20.0845292878
 21
3.5934377267
  0
LINE
  5
49D
100
AcDbEntity
  8
0
100
AcDbLine
 62
7
  6
CONTINUOUS
 10
20.0845292878
 20
3.7922841834
 11
20.0845292878
 21
4.3434377267
  0
LINE
  5
49E
100
AcDbEntity
  8
0
100
AcDbLine
 62
7
  6
CONTINUOUS
 10
20.0845292878
 20
4.5422841834
 11
20.0845292878
 21
5.0934377267
  0
LINE
  5
49F
100
AcDbEntity
  8
0
100
AcDbLine
 62
7
  6
CONTINUOUS
 10
20.0845292878
 20
5.2922841834
 11
20.0845292878
 21
5.8434456007
  0
LINE
  5
4A0
100
AcDbEntity
  8
0
100
AcDbLine
 62
7
  6
CONTINUOUS
 10
20.0845292878
 20
6.0423038684
 11
20.0845292878
 21
6.5934456007
  0
LINE
  5
4A1
100
AcDbEntity
  8
0
100
AcDbLine
 62
7
  6
CONTINUOUS
 10
20.2538206264
 20
5.7283274905
 11
20.2538206264
 21
5.5983668606
  0
LINE
  5
4A2
100
AcDbEntity
  8
0
100
AcDbLine
 62
7
  6
CONTINUOUS
 10
20.2538206264
 20
4.7873550495
 11
20.2538206264
 21
4.6573944196
  0
LINE
  5
4A3
100
AcDbEntity
  8
0
100
AcDbLine
 62
7
  6
CONTINUOUS
 10
20.2538206264
 20
4.2283156794
 11
20.2538206264
 21
4.0983826086
  0
LINE
  5
4A4
100
AcDbEntity
  8
0
100
AcDbLine
 62
7
  6
CONTINUOUS
 10
20.2538206264
 20
3.2873393015
 11
20.2538206264
 21
3.1574062306
  0
LINE
  5
4A5
100
AcDbEntity
  8
0
100
AcDbLine
 62
7
  6
CONTINUOUS
 10
20.2832694453
 20
6.5934456007
 11
20.2832694453
 21
6.0423038684
  0
LINE
  5
4A6
100
AcDbEntity
  8
0
100
AcDbLine
 62
7
  6
CONTINUOUS
 10
20.2832694453
 20
5.4684377267
 11
20.2832694453
 21
4.9172841834
  0
LINE
  5
4A7
100
AcDbEntity
  8
0
100
AcDbLine
 62
7
  6
CONTINUOUS
 10
20.2832694453
 20
3.9684377267
 11
20.2832694453
 21
3.4172841834
  0
LINE
  5
4A8
100
AcDbEntity
  8
0
100
AcDbLine
 62
7
  6
CONTINUOUS
 10
20.2922851934
 20
5.7942330023
 11
20.2922851934
 21
5.7283274905
  0
LINE
  5
4A9
100
AcDbEntity
  8
0
100
AcDbLine
 62
7
  6
CONTINUOUS
 10
20.2922851934
 20
5.5983668606
 11
20.2922851934
 21
5.5324613487
  0
LINE
  5
4AA
100
AcDbEntity
  8
0
100
AcDbLine
 62
7
  6
CONTINUOUS
 10
20.2922851934
 20
4.8532605613
 11
20.2922851934
 21
4.7873550495
  0
LINE
  5
4AB
100
AcDbEntity
  8
0
100
AcDbLine
 62
7
  6
CONTINUOUS
 10
20.2922851934
 20
4.6573944196
 11
20.2922851934
 21
4.5914889078
  0
LINE
  5
4AC
100
AcDbEntity
  8
0
100
AcDbLine
 62
7
  6
CONTINUOUS
 10
20.2922851934
 20
4.2942290653
 11
20.2922851934
 21
4.2283156794
  0
LINE
  5
4AD
100
AcDbEntity
  8
0
100
AcDbLine
 62
7
  6
CONTINUOUS
 10
20.2922851934
 20
4.0983826086
 11
20.2922851934
 21
4.0324652857
  0
LINE
  5
4AE
100
AcDbEntity
  8
0
100
AcDbLine
 62
7
  6
CONTINUOUS
 10
20.2922851934
 20
3.3532566243
 11
20.2922851934
 21
3.2873393015
  0
LINE
  5
4AF
100
AcDbEntity
  8
0
100
AcDbLine
 62
7
  6
CONTINUOUS
 10
20.2922851934
 20
3.1574062306
 11
20.2922851934
 21
3.0914928448
  0
LINE
  5
4B0
100
AcDbEntity
  8
0
100
AcDbLine
 62
7
  6
CONTINUOUS
 10
20.4684269256
 20
5.5324613487
 11
20.4684269256
 21
5.4684377267
  0
LINE
  5
4B1
100
AcDbEntity
  8
0
100
AcDbLine
 62
7
  6
CONTINUOUS
 10
20.4684269256
 20
4.9172841834
 11
20.4684269256
 21
4.8532605613
  0
LINE
  5
4B2
100
AcDbEntity
  8
0
100
AcDbLine
 62
7
  6
CONTINUOUS
 10
20.4684269256
 20
4.0324652857
 11
20.4684269256
 21
3.9684377267
  0
LINE
  5
4B3
100
AcDbEntity
  8
0
100
AcDbLine
 62
7
  6
CONTINUOUS
 10
20.4684269256
 20
3.4172841834
 11
20.4684269256
 21
3.3532566243
  0
LINE
  5
4B4
100
AcDbEntity
  8
0
100
AcDbLine
 62
7
  6
CONTINUOUS
 10
20.5392536973
 20
5.8286818212
 11
20.5392536973
 21
5.7942330023
  0
LINE
  5
4B5
100
AcDbEntity
  8
0
100
AcDbLine
 62
7
  6
CONTINUOUS
 10
20.5392536973
 20
4.5914889078
 11
20.5392536973
 21
4.5570400889
  0
LINE
  5
4B6
100
AcDbEntity
  8
0
100
AcDbLine
 62
7
  6
CONTINUOUS
 10
20.5392536973
 20
4.3286896952
 11
20.5392536973
 21
4.2942290653
  0
LINE
  5
4B7
100
AcDbEntity
  8
0
100
AcDbLine
 62
7
  6
CONTINUOUS
 10
20.5392536973
 20
3.0914928448
 11
20.5392536973
 21
3.0570322149
  0
LINE
  5
4B8
100
AcDbEntity
  8
0
100
AcDbLine
 62
7
  6
CONTINUOUS
 10
20.6495292878
 20
3.0570322149
 11
20.6495292878
 21
3.0914928448
  0
LINE
  5
4B9
100
AcDbEntity
  8
0
100
AcDbLine
 62
7
  6
CONTINUOUS
 10
20.6495292878
 20
3.3532566243
 11
20.6495292878
 21
3.4172841834
  0
LINE
  5
4BA
100
AcDbEntity
  8
0
100
AcDbLine
 62
7
  6
CONTINUOUS
 10
20.6495292878
 20
3.9684377267
 11
20.6495292878
 21
4.0324652857
  0
LINE
  5
4BB
100
AcDbEntity
  8
0
100
AcDbLine
 62
7
  6
CONTINUOUS
 10
20.6495292878
 20
4.2942290653
 11
20.6495292878
 21
4.3286896952
  0
LINE
  5
4BC
100
AcDbEntity
  8
0
100
AcDbLine
 62
7
  6
CONTINUOUS
 10
20.6495292878
 20
4.5570400889
 11
20.6495292878
 21
4.5914889078
  0
LINE
  5
4BD
100
AcDbEntity
  8
0
100
AcDbLine
 62
7
  6
CONTINUOUS
 10
20.6495292878
 20
4.8532605613
 11
20.6495292878
 21
4.9172841834
  0
LINE
  5
4BE
100
AcDbEntity
  8
0
100
AcDbLine
 62
7
  6
CONTINUOUS
 10
20.6495292878
 20
5.4684377267
 11
20.6495292878
 21
5.5324613487
  0
LINE
  5
4BF
100
AcDbEntity
  8
0
100
AcDbLine
 62
7
  6
CONTINUOUS
 10
20.6495292878
 20
5.7942330023
 11
20.6495292878
 21
5.8286818212
  0
LINE
  5
4C0
100
AcDbEntity
  8
0
100
AcDbLine
 62
7
  6
CONTINUOUS
 10
20.776615902
 20
3.0914928448
 11
20.776615902
 21
3.1574062306
  0
LINE
  5
4C1
100
AcDbEntity
  8
0
100
AcDbLine
 62
7
  6
CONTINUOUS
 10
20.776615902
 20
3.2873393015
 11
20.776615902
 21
3.3532566243
  0
LINE
  5
4C2
100
AcDbEntity
  8
0
100
AcDbLine
 62
7
  6
CONTINUOUS
 10
20.776615902
 20
4.0324652857
 11
20.776615902
 21
4.0983826086
  0
LINE
  5
4C3
100
AcDbEntity
  8
0
100
AcDbLine
 62
7
  6
CONTINUOUS
 10
20.776615902
 20
4.2283156794
 11
20.776615902
 21
4.2942290653
  0
LINE
  5
4C4
100
AcDbEntity
  8
0
100
AcDbLine
 62
7
  6
CONTINUOUS
 10
20.776615902
 20
4.5914889078
 11
20.776615902
 21
4.6573944196
  0
LINE
  5
4C5
100
AcDbEntity
  8
0
100
AcDbLine
 62
7
  6
CONTINUOUS
 10
20.776615902
 20
4.7873550495
 11
20.776615902
 21
4.8532605613
  0
LINE
  5
4C6
100
AcDbEntity
  8
0
100
AcDbLine
 62
7
  6
CONTINUOUS
 10
20.776615902
 20
5.5324613487
 11
20.776615902
 21
5.5983668606
  0
LINE
  5
4C7
100
AcDbEntity
  8
0
100
AcDbLine
 62
7
  6
CONTINUOUS
 10
20.776615902
 20
5.7283274905
 11
20.776615902
 21
5.7942330023
  0
LINE
  5
4C8
100
AcDbEntity
  8
0
100
AcDbLine
 62
7
  6
CONTINUOUS
 10
20.8128757445
 20
3.1574062306
 11
20.8128757445
 21
3.2873393015
  0
LINE
  5
4C9
100
AcDbEntity
  8
0
100
AcDbLine
 62
7
  6
CONTINUOUS
 10
20.8128757445
 20
4.0983826086
 11
20.8128757445
 21
4.2283156794
  0
LINE
  5
4CA
100
AcDbEntity
  8
0
100
AcDbLine
 62
7
  6
CONTINUOUS
 10
20.8128757445
 20
4.6573944196
 11
20.8128757445
 21
4.7873550495
  0
LINE
  5
4CB
100
AcDbEntity
  8
0
100
AcDbLine
 62
7
  6
CONTINUOUS
 10
20.8128757445
 20
5.5983668606
 11
20.8128757445
 21
5.7283274905
  0
LINE
  5
4CC
100
AcDbEntity
  8
0
100
AcDbLine
 62
7
  6
CONTINUOUS
 10
20.8345292878
 20
3.4172841834
 11
20.8345292878
 21
3.9684377267
  0
LINE
  5
4CD
100
AcDbEntity
  8
0
100
AcDbLine
 62
7
  6
CONTINUOUS
 10
20.8345292878
 20
4.9172841834
 11
20.8345292878
 21
5.4684377267
  0
LINE
  5
4CE
100
AcDbEntity
  8
0
100
AcDbLine
 62
7
  6
CONTINUOUS
 10
20.8345292878
 20
6.0423038684
 11
20.8345292878
 21
6.5934456007
  0
LINE
  5
4CF
100
AcDbEntity
  8
0
100
AcDbLine
 62
7
  6
CONTINUOUS
 10
21.3857103902
 20
8.2696267031
 11
21.3857103902
 21
2.6879534747
  0
ARC
  5
4D0
100
AcDbEntity
  8
0
100
AcDbCircle
 62
7
  6
CONTINUOUS
 10
8.0613185568
 20
21.3163845989
 40
13.7795275591
100
AcDbArc
 50
257.4958742612
 51
282.500395774
  0
ARC
  5
4D1
100
AcDbEntity
  8
0
100
AcDbCircle
 62
7
  6
CONTINUOUS
 10
8.0619743361
 20
10.7599256467
 40
9.842519685
100
AcDbArc
 50
257.4988916876
 51
282.5063022908
  0
ARC
  5
4D2
100
AcDbEntity
  8
0
100
AcDbCircle
 62
7
  6
CONTINUOUS
 10
16.2105595612
 20
-5.5797630607
 40
7.874015748
100
AcDbArc
 50
90.0
 51
102.5063022908
  0
ARC
  5
4D3
100
AcDbEntity
  8
0
100
AcDbCircle
 62
7
  6
CONTINUOUS
 10
15.0826704166
 20
4.7263196165
 40
3.937007874
100
AcDbArc
 50
90.0
 51
102.500395774
  0
ARC
  5
4D4
100
AcDbEntity
  8
0
100
AcDbCircle
 62
7
  6
CONTINUOUS
 10
2.7430827474
 20
7.9782316353
 40
0.3937007874
100
AcDbArc
 50
77.4958742612
 51
167.4988918245
  0
ARC
  5
4D5
100
AcDbEntity
  8
0
100
AcDbCircle
 62
7
  6
CONTINUOUS
 10
1.5348645595
 20
2.5288103737
 40
0.3937007874
100
AcDbArc
 50
167.4988918245
 51
257.4988916876
  0
ARC
  5
4D6
100
AcDbEntity
  8
0
100
AcDbCircle
 62
7
  6
CONTINUOUS
 10
20.9920096028
 20
2.6879534747
 40
0.3937007874
100
AcDbArc
 50
270.0
 51
360.0
  0
ARC
  5
4D7
100
AcDbEntity
  8
0
100
AcDbCircle
 62
7
  6
CONTINUOUS
 10
20.9920096028
 20
8.2696267031
 40
0.3937007874
100
AcDbArc
 50
0.0
 51
90.0
  0
ENDSEC
  0
SECTION
  2
OBJECTS
  0
DICTIONARY
  5
C
100
AcDbDictionary
280
0
281
1
  3
ACAD_GROUP
350
D
  3
ACAD_MLINESTYLE
350
17
  3
ACAD_LAYOUT
350
1A
  3
ACAD_PLOTSETTINGS
350
19
  3
ACAD_PLOTSTYLENAME
350
E
  0
DICTIONARY
  5
D
102
{ACAD_REACTORS
330
C
102
}
100
AcDbDictionary
280
0
281
1
  0
ACDBDICTIONARYWDFLT
  5
E
102
{ACAD_REACTORS
330
C
102
}
100
AcDbDictionary
281
1
  3
Normal
350
F
100
AcDbDictionaryWithDefault
340
F
  0
DICTIONARY
  5
17
102
{ACAD_REACTORS
330
C
102
}
100
AcDbDictionary
280
0
281
1
  3
Standard
350
18
  0
DICTIONARY
  5
19
102
{ACAD_REACTORS
330
C
102
}
100
AcDbDictionary
281
1
  0
DICTIONARY
  5
1A
102
{ACAD_REACTORS
330
C
102
}
100
AcDbDictionary
281
1
  3
Model
350
4D8
  3
Layout1
350
4D9
  0
ACDBPLACEHOLDER
  5
F
102
{ACAD_REACTORS
330
E
102
}
  0
MLINESTYLE
  5
18
102
{ACAD_REACTORS
330
17
102
}
100
AcDbMlineStyle
  2
STANDARD
 70
0
  3

 62
256
 51
90.0
 52
90.0
 71
2
 49
0.5
 62
256
  6
BYLAYER
 49
-0.5
 62
256
  6
BYLAYER
  0
LAYOUT
  5
4D8
102
{ACAD_REACTORS
330
1A
102
}
100
AcDbPlotSettings
  1

  2
none_device
  4

  6

 40
0.0
 41
0.0
 42
0.0
 43
0.0
 44
570.0
 45
250.0
 46
0.0
 47
0.0
 48
0.0
 49
0.0
140
0.0
141
0.0
142
1.0
143
1.0
 70
1024
 72
0
 73
0
 74
0
  7

 75
0
147
1.0
148
0.0
149
0.0
100
AcDbLayout
  1
Model
 70
0
 71
0
 10
0.0
 20
0.0
 11
22.4409448819
 21
9.842519685
 12
0.0
 22
0.0
 32
0.0
 14
0.0
 24
0.0
 34
0.0
 15
0.0
 25
0.0
 35
0.0
146
0.0
 13
0.0
 23
0.0
 33
0.0
 16
1.0
 26
0.0
 36
0.0
 17
0.0
 27
1.0
 37
0.0
 76
0
330
209
345
0
346
0
  0
LAYOUT
  5
4D9
102
{ACAD_REACTORS
330
1A
102
}
100
AcDbPlotSettings
  1

  2
none_device
  4

  6

 40
0.0
 41
0.0
 42
0.0
 43
0.0
 44
570.0
 45
250.0
 46
0.0
 47
0.0
 48
0.0
 49
0.0
140
0.0
141
0.0
142
1.0
143
1.0
 70
0
 72
0
 73
0
 74
0
  7

 75
0
147
1.0
148
0.0
149
0.0
100
AcDbLayout
  1
Layout1
 70
0
 71
1
 10
0.0
 20
0.0
 11
22.4409448819
 21
9.842519685
 12
0.0
 22
0.0
 32
0.0
 14
0.0
 24
0.0
 34
0.0
 15
0.0
 25
0.0
 35
0.0
146
0.0
 13
0.0
 23
0.0
 33
0.0
 16
1.0
 26
0.0
 36
0.0
 17
0.0
 27
1.0
 37
0.0
 76
0
330
20A
345
0
346
0
  0
ENDSEC
  0
EOF
