999
DXF file: asdfggg.dxf
999
Pro/ENGINEER 2007170 by Parametric Technology Corporation
  0
SECTION
  2
HEADER
  9
$ACADVER
  1
AC1014
  9
$DWGCODEPAGE
  3
ANSI_1252
  9
$EXTMAX
 10
11.0
 20
8.5
 30
0.0
  9
$EXTMIN
 10
0.0
 20
0.0
 30
0.0
  9
$LIMMIN
 10
0.0
 20
0.0
  9
$LIMMAX
 10
11.0
 20
8.5
  9
$VIEWCTR
 10
5.5
 20
4.25
  9
$VIEWSIZE
 40
8.5
  9
$CLAYER
  8
0
  9
$LTSCALE
 40
0.605
  9
$CELTYPE
  6
BYLAYER
  9
$DIMSCALE
 40
1.0
  9
$DIMASZ
 40
0.1875
  9
$DIMEXO
 40
0.06875
  9
$DIMDLI
 40
0.418
  9
$DIMEXE
 40
0.198
  9
$DIMCEN
 40
0.099
  9
$DIMLFAC
 40
1.0
  9
$DIMBLK
  1
_CLOSED
  9
$DIMTXT
 40
0.15625
  9
$DIMTOL
 70
0
  9
$DIMLIM
 70
0
  9
$DIMTFAC
 40
1.0
  9
$PDMODE
 70
3
  9
$PDSIZE
 40
0.3125
  9
$HANDSEED
  5
4D6
  9
$MEASUREMENT
 70
0
  0
ENDSEC
  0
SECTION
  2
CLASSES
  0
ENDSEC
  0
SECTION
  2
TABLES
  0
TABLE
  2
VPORT
  5
8
100
AcDbSymbolTable
 70
2
  0
VPORT
  5
1F4
100
AcDbSymbolTableRecord
100
AcDbViewportTableRecord
  2
*ACTIVE
 70
0
 10
0.0
 20
0.0
 11
1.0
 21
1.0
 12
5.5
 22
4.25
 13
0.0
 23
0.0
 14
1.0
 24
1.0
 15
0.0
 25
0.0
 16
0.0
 26
0.0
 36
1.0
 17
0.0
 27
0.0
 37
0.0
 40
8.5
 41
1.2941176471
 42
50.0
 43
0.0
 44
0.0
 50
0.0
 51
0.0
 71
0
 72
100
 73
1
 74
1
 75
0
 76
0
 77
0
 78
0
  0
ENDTAB
  0
TABLE
  2
LTYPE
  5
5
100
AcDbSymbolTable
 70
6
  0
LTYPE
  5
14
100
AcDbSymbolTableRecord
100
AcDbLinetypeTableRecord
  2
BYBLOCK
 70
0
  3

 72
65
 73
0
 40
0.0
  0
LTYPE
  5
15
100
AcDbSymbolTableRecord
100
AcDbLinetypeTableRecord
  2
BYLAYER
 70
0
  3

 72
65
 73
0
 40
0.0
  0
LTYPE
  5
16
100
AcDbSymbolTableRecord
100
AcDbLinetypeTableRecord
  2
CONTINUOUS
 70
64
  3
Solid line
 72
65
 73
0
 40
0.0
  0
LTYPE
  5
1F5
100
AcDbSymbolTableRecord
100
AcDbLinetypeTableRecord
  2
CENTER
 70
64
  3
____ _ ____ _ ____ _ ____ _ ____ _ ____ _ ____
 72
65
 73
4
 40
0.6
 49
0.375
 74
0
 49
-0.075
 74
0
 49
0.075
 74
0
 49
-0.075
 74
0
  0
LTYPE
  5
1F6
100
AcDbSymbolTableRecord
100
AcDbLinetypeTableRecord
  2
HIDDEN
 70
64
  3
- - - - - - - - - - - - - - - - - - - -
 72
65
 73
2
 40
0.2
 49
0.1
 74
0
 49
-0.1
 74
0
  0
LTYPE
  5
1F7
100
AcDbSymbolTableRecord
100
AcDbLinetypeTableRecord
  2
PHANTOM
 70
64
  3
_____ _ _ _____ _ _ _____ _ _ _____
 72
65
 73
6
 40
0.8
 49
0.45
 74
0
 49
-0.05
 74
0
 49
0.1
 74
0
 49
-0.05
 74
0
 49
0.1
 74
0
 49
-0.05
 74
0
  0
LTYPE
  5
1F8
100
AcDbSymbolTableRecord
100
AcDbLinetypeTableRecord
  2
DOT
 70
64
  3
. . . . . . . . . . . . . . . . . . . .
 72
65
 73
2
 40
0.2
 49
0.1
 74
0
 49
-0.1
 74
0
  0
LTYPE
  5
1F9
100
AcDbSymbolTableRecord
100
AcDbLinetypeTableRecord
  2
DASHED
 70
64
  3
- - - - - - - - - - - - - - - - - - - -
 72
65
 73
2
 40
0.2
 49
0.1
 74
0
 49
-0.1
 74
0
  0
ENDTAB
  0
TABLE
  2
LAYER
  5
2
100
AcDbSymbolTable
 70
36
  0
LAYER
  5
10
100
AcDbSymbolTableRecord
100
AcDbLayerTableRecord
  2
0
 70
0
 62
7
  6
CONTINUOUS
  0
LAYER
  5
1FA
100
AcDbSymbolTableRecord
100
AcDbLayerTableRecord
  2
DEFAULT_1
 70
0
 62
7
  6
CENTER
  0
LAYER
  5
1FB
100
AcDbSymbolTableRecord
100
AcDbLayerTableRecord
  2
DEFAULT_2
 70
0
 62
8
  6
HIDDEN
  0
LAYER
  5
1FC
100
AcDbSymbolTableRecord
100
AcDbLayerTableRecord
  2
DEFAULT_3
 70
0
 62
7
  6
PHANTOM
  0
LAYER
  5
1FD
100
AcDbSymbolTableRecord
100
AcDbLayerTableRecord
  2
01___PRT_ALL_DTM_PLN
 70
0
 62
7
  6
CONTINUOUS
  0
LAYER
  5
1FE
100
AcDbSymbolTableRecord
100
AcDbLayerTableRecord
  2
01___PRT_DEF_DTM_PLN
 70
0
 62
7
  6
CONTINUOUS
  0
LAYER
  5
1FF
100
AcDbSymbolTableRecord
100
AcDbLayerTableRecord
  2
02___PRT_ALL_AXES
 70
0
 62
7
  6
CONTINUOUS
  0
LAYER
  5
200
100
AcDbSymbolTableRecord
100
AcDbLayerTableRecord
  2
03___PRT_ALL_CURVES
 70
0
 62
7
  6
CONTINUOUS
  0
LAYER
  5
201
100
AcDbSymbolTableRecord
100
AcDbLayerTableRecord
  2
04___PRT_ALL_DTM_PNT
 70
0
 62
7
  6
CONTINUOUS
  0
LAYER
  5
202
100
AcDbSymbolTableRecord
100
AcDbLayerTableRecord
  2
05___PRT_ALL_DTM_CSYS
 70
0
 62
7
  6
CONTINUOUS
  0
LAYER
  5
203
100
AcDbSymbolTableRecord
100
AcDbLayerTableRecord
  2
05___PRT_DEF_DTM_CSYS
 70
0
 62
7
  6
CONTINUOUS
  0
LAYER
  5
204
100
AcDbSymbolTableRecord
100
AcDbLayerTableRecord
  2
06___PRT_ALL_SURFS
 70
0
 62
7
  6
CONTINUOUS
  0
LAYER
  5
205
100
AcDbSymbolTableRecord
100
AcDbLayerTableRecord
  2
3_ALL_SYMBOLS
 70
0
 62
7
  6
CONTINUOUS
  0
LAYER
  5
206
100
AcDbSymbolTableRecord
100
AcDbLayerTableRecord
  2
INTFCLR_2
 70
0
 62
7
  6
CONTINUOUS
  0
ENDTAB
  0
TABLE
  2
STYLE
  5
3
100
AcDbSymbolTable
 70
1
  0
STYLE
  5
11
100
AcDbSymbolTableRecord
100
AcDbTextStyleTableRecord
  2
STANDARD
 70
0
 40
0.0
 41
0.8
 50
0.0
 71
0
 42
0.2
  3
txt
  4

  0
STYLE
  5
207
100
AcDbSymbolTableRecord
100
AcDbTextStyleTableRecord
  2
TEXTSTYLE_1
 70
0
 40
0.0
 41
0.8
 50
0.0
 71
0
 42
0.2
  3
gdt
  4

  0
ENDTAB
  0
TABLE
  2
VIEW
  5
6
100
AcDbSymbolTable
 70
0
  0
ENDTAB
  0
TABLE
  2
UCS
  5
7
100
AcDbSymbolTable
 70
0
  0
ENDTAB
  0
TABLE
  2
APPID
  5
9
100
AcDbSymbolTable
 70
1
  0
APPID
  5
208
100
AcDbSymbolTableRecord
100
AcDbRegAppTableRecord
  2
ACAD
 70
0
  0
ENDTAB
  0
TABLE
  2
BLOCK_RECORD
  5
1
100
AcDbSymbolTable
 70
0
  0
BLOCK_RECORD
  5
1F
100
AcDbSymbolTableRecord
100
AcDbBlockTableRecord
  2
*MODEL_SPACE
  0
BLOCK_RECORD
  5
1B
100
AcDbSymbolTableRecord
100
AcDbBlockTableRecord
  2
*PAPER_SPACE
  0
ENDTAB
  0
TABLE
  2
DIMSTYLE
  5
A
100
AcDbSymbolTable
 70
1
  0
DIMSTYLE
105
209
100
AcDbSymbolTableRecord
100
AcDbDimStyleTableRecord
  2
STANDARD
 70
0
  3

  4

  5
_CLOSED
  6
_CLOSED
  7
_CLOSED
 40
1.0
 41
0.1875
 42
0.0625
 43
0.38
 44
0.18
 45
0.0
 46
0.0
 47
0.01
 48
0.01
140
0.15625
141
0.09
142
0.0
143
25.4
144
1.0
145
0.0
146
1.0
147
0.09
 71
0.0
 72
0.0
 73
1
 74
1
 75
0
 76
0
 77
0
 78
4
170
0
171
2
172
0
173
0
174
0
175
0
176
0
177
0
178
0
270
2
271
2
272
2
273
2
274
2
275
0
280
0
281
0
282
0
283
1
284
4
285
0
286
0
287
3
288
0
340
11
  0
ENDTAB
  0
ENDSEC
  0
SECTION
  2
BLOCKS
  0
BLOCK
  5
20
100
AcDbEntity
  8
0
100
AcDbBlockBegin
  2
*MODEL_SPACE
 70
0
 10
0.0
 20
0.0
 30
0.0
  3
*MODEL_SPACE
  1

  0
ENDBLK
  5
21
100
AcDbEntity
  8
0
100
AcDbBlockEnd
  0
BLOCK
  5
1C
100
AcDbEntity
  8
0
100
AcDbBlockBegin
  2
*PAPER_SPACE
 70
0
 10
0.0
 20
0.0
 30
0.0
  3
*PAPER_SPACE
  1

  0
ENDBLK
  5
1D
100
AcDbEntity
  8
0
100
AcDbBlockEnd
  0
ENDSEC
  0
SECTION
  2
ENTITIES
  0
LINE
  5
20A
100
AcDbEntity
  8
0
100
AcDbLine
 62
7
  6
CONTINUOUS
 10
29.2036332644
 20
172.6899125741
 11
0.2370399288
 21
42.0300536931
  0
LINE
  5
20B
100
AcDbEntity
  8
0
100
AcDbLine
 62
7
  6
CONTINUOUS
 10
330.1835123979
 20
67.9910043578
 11
328.7979350949
 21
67.6808474853
  0
LINE
  5
20C
100
AcDbEntity
  8
0
100
AcDbLine
 62
7
  6
CONTINUOUS
 10
227.3275611927
 20
28.4741406964
 11
226.4752774899
 21
28.2841406964
  0
LINE
  5
20D
100
AcDbEntity
  8
0
100
AcDbLine
 62
7
  6
CONTINUOUS
 10
280.4241670132
 20
33.5541406964
 11
266.7905067531
 21
30.5241406964
  0
LINE
  5
20E
100
AcDbEntity
  8
0
100
AcDbLine
 62
7
  6
CONTINUOUS
 10
291.4975931899
 20
50.3741406964
 11
305.1419690803
 21
53.4065221816
  0
LINE
  5
20F
100
AcDbEntity
  8
0
100
AcDbLine
 62
7
  6
CONTINUOUS
 10
344.8078804949
 20
32.5063245289
 11
225.1946483845
 21
5.9449010089
  0
LINE
  5
210
100
AcDbEntity
  8
0
100
AcDbLine
 62
7
  6
CONTINUOUS
 10
226.4222418439
 20
20.8441406964
 11
223.2242540514
 21
20.1341406964
  0
LINE
  5
211
100
AcDbEntity
  8
0
100
AcDbLine
 62
7
  6
CONTINUOUS
 10
308.1780705947
 20
39.7341406964
 11
294.5331658695
 21
36.7041406964
  0
LINE
  5
212
100
AcDbEntity
  8
0
100
AcDbLine
 62
7
  6
CONTINUOUS
 10
252.4789749401
 20
27.3690661892
 11
238.8118893966
 21
24.3341406964
  0
LINE
  5
213
100
AcDbEntity
  8
0
100
AcDbLine
 62
7
  6
CONTINUOUS
 10
218.6794990654
 20
32.7341406964
 11
220.3010140024
 21
33.0941406964
  0
LINE
  5
214
100
AcDbEntity
  8
0
100
AcDbLine
 62
7
  6
CONTINUOUS
 10
263.7524304618
 20
44.1941406964
 11
277.3866195567
 21
47.2217611738
  0
LINE
  5
215
100
AcDbEntity
  8
0
100
AcDbLine
 62
7
  6
CONTINUOUS
 10
235.7769639038
 20
38.0012262399
 11
249.4440494473
 21
41.0361517327
  0
LINE
  5
216
100
AcDbEntity
  8
0
100
AcDbLine
 62
7
  6
CONTINUOUS
 10
312.8835123979
 20
59.5375055359
 11
309.6647678742
 21
58.8228972384
  0
LINE
  5
217
100
AcDbEntity
  8
0
100
AcDbLine
 62
7
  6
CONTINUOUS
 10
280.8938844072
 20
53.1841406964
 11
267.248979682
 21
50.1541406964
  0
LINE
  5
218
100
AcDbEntity
  8
0
100
AcDbLine
 62
7
  6
CONTINUOUS
 10
299.402413093
 20
57.2955806405
 11
285.8432898133
 21
54.2846293466
  0
LINE
  5
219
100
AcDbEntity
  8
0
100
AcDbLine
 62
7
  6
CONTINUOUS
 10
262.2557448733
 20
49.0541406964
 11
248.5445442354
 21
46.0094189655
  0
LINE
  5
21A
100
AcDbEntity
  8
0
100
AcDbLine
 62
7
  6
CONTINUOUS
 10
243.6617889021
 20
44.9341406964
 11
230.0168841769
 21
41.9041406964
  0
LINE
  5
21B
100
AcDbEntity
  8
0
100
AcDbLine
 62
7
  6
CONTINUOUS
 10
223.5384094252
 20
33.8141406964
 11
225.1612629722
 21
34.1741406964
  0
LINE
  5
21C
100
AcDbEntity
  8
0
100
AcDbLine
 62
7
  6
CONTINUOUS
 10
220.1013656727
 20
33.9941406964
 11
223.3391509231
 21
34.7123833821
  0
LINE
  5
21D
100
AcDbEntity
  8
0
100
AcDbLine
 62
7
  6
CONTINUOUS
 10
319.3630887841
 20
56.562056396
 11
333.0335123979
 21
59.5945866634
  0
LINE
  5
21E
100
AcDbEntity
  8
0
100
AcDbLine
 62
7
  6
CONTINUOUS
 10
225.1042696889
 20
40.8141406964
 11
211.4481028093
 21
37.7841406964
  0
LINE
  5
21F
100
AcDbEntity
  8
0
100
AcDbLine
 62
7
  6
CONTINUOUS
 10
336.0635123979
 20
45.9242849325
 11
322.3925599242
 21
42.8941406964
  0
LINE
  5
220
100
AcDbEntity
  8
0
100
AcDbLine
 62
7
  6
CONTINUOUS
 10
223.0116473992
 20
21.0941406964
 11
221.3423366268
 21
20.7241406964
  0
LINE
  5
221
100
AcDbEntity
  8
0
100
AcDbLine
 62
7
  6
CONTINUOUS
 10
336.2235123979
 20
64.6942849325
 11
332.9935123979
 21
63.9783607201
  0
LINE
  5
222
100
AcDbEntity
  8
0
100
AcDbLine
 62
7
  6
CONTINUOUS
 10
329.6135123979
 20
64.0042849325
 11
315.9563222305
 21
60.9771910891
  0
LINE
  5
223
100
AcDbEntity
  8
0
100
AcDbLine
 62
7
  6
CONTINUOUS
 10
337.6435123979
 20
66.0142849325
 11
336.0112993662
 21
65.652507586
  0
LINE
  5
224
100
AcDbEntity
  8
0
100
AcDbLine
 62
7
  6
CONTINUOUS
 10
332.7723639027
 20
64.9802430495
 11
330.9408226652
 21
64.5742849325
  0
LINE
  5
225
100
AcDbEntity
  8
0
100
AcDbLine
 62
7
  6
CONTINUOUS
 10
227.8328861319
 20
22.1641406964
 11
226.2073490357
 21
21.8041406964
  0
LINE
  5
226
100
AcDbEntity
  8
0
100
AcDbLine
 62
7
  6
CONTINUOUS
 10
314.3135123979
 20
60.7077488423
 11
312.7031770795
 21
60.351115508
  0
LINE
  5
227
100
AcDbEntity
  8
0
100
AcDbLine
 62
7
  6
CONTINUOUS
 10
309.4843435789
 20
59.6382557013
 11
308.4272251755
 21
59.4041406964
  0
LINE
  5
228
100
AcDbEntity
  8
0
100
AcDbLine
 62
7
  6
CONTINUOUS
 10
314.9235123979
 20
65.6368683306
 11
313.2998459691
 21
65.2772826185
  0
LINE
  5
229
100
AcDbEntity
  8
0
100
AcDbLine
 62
7
  6
CONTINUOUS
 10
225.8606089814
 20
31.0241406964
 11
226.7192411721
 21
31.2141406964
  0
LINE
  5
22A
100
AcDbEntity
  8
0
100
AcDbLine
 62
7
  6
CONTINUOUS
 10
220.3737332806
 20
25.0941406964
 11
178.1647253725
 21
19.3441406564
  0
LINE
  5
22B
100
AcDbEntity
  8
0
100
AcDbLine
 62
7
  6
CONTINUOUS
 10
337.1435123979
 20
72.3342849325
 11
336.2839410477
 21
72.1431326769
  0
LINE
  5
22C
100
AcDbEntity
  8
0
100
AcDbLine
 62
7
  6
CONTINUOUS
 10
178.1635123979
 20
23.9459663214
 11
219.3766837429
 21
29.5841406964
  0
LINE
  5
22D
100
AcDbEntity
  8
0
100
AcDbLine
 62
7
  6
CONTINUOUS
 10
27.4853382609
 20
119.156370494
 11
30.5153382609
 21
132.8238172601
  0
LINE
  5
22E
100
AcDbEntity
  8
0
100
AcDbLine
 62
7
  6
CONTINUOUS
 10
33.6753382609
 20
146.6582071742
 11
36.7053382609
 21
160.3256539403
  0
LINE
  5
22F
100
AcDbEntity
  8
0
100
AcDbLine
 62
7
  6
CONTINUOUS
 10
305.5763314252
 20
68.2032343327
 11
305.8535123979
 21
68.2648740885
  0
LINE
  5
230
100
AcDbEntity
  8
0
100
AcDbLine
 62
7
  6
CONTINUOUS
 10
327.6083389242
 20
73.0842849325
 11
329.1835123979
 21
73.4342849325
  0
LINE
  5
231
100
AcDbEntity
  8
0
100
AcDbLine
 62
7
  6
CONTINUOUS
 10
335.6782803526
 20
74.8742849325
 11
336.5369125433
 21
75.0642849325
  0
LINE
  5
232
100
AcDbEntity
  8
0
100
AcDbLine
 62
7
  6
CONTINUOUS
 10
312.9565941223
 20
69.7042849325
 11
313.9681418706
 21
69.9279372338
  0
LINE
  5
233
100
AcDbEntity
  8
0
100
AcDbLine
 62
7
  6
CONTINUOUS
 10
306.4635123979
 20
68.2710517138
 11
305.6035123979
 21
68.0809064839
  0
LINE
  5
234
100
AcDbEntity
  8
0
100
AcDbLine
 62
7
  6
CONTINUOUS
 10
18.8253382609
 20
67.3453347198
 11
19.4353382609
 21
70.1014193872
  0
LINE
  5
235
100
AcDbEntity
  8
0
100
AcDbLine
 62
7
  6
CONTINUOUS
 10
20.2853382609
 20
69.913601405
 11
21.6453382609
 21
76.04816497
  0
LINE
  5
236
100
AcDbEntity
  8
0
100
AcDbLine
 62
7
  6
CONTINUOUS
 10
18.9853382609
 20
63.9960787302
 11
19.6853382609
 21
67.1535746828
  0
LINE
  5
237
100
AcDbEntity
  8
0
100
AcDbLine
 62
7
  6
CONTINUOUS
 10
305.1556317448
 20
71.4134678506
 11
306.7835123979
 21
71.7742849325
  0
LINE
  5
238
100
AcDbEntity
  8
0
100
AcDbLine
 62
7
  6
CONTINUOUS
 10
333.9660365134
 20
77.6642849325
 11
335.007645239
 21
77.8949650825
  0
LINE
  5
239
100
AcDbEntity
  8
0
100
AcDbLine
 62
7
  6
CONTINUOUS
 10
310.6320159905
 20
72.4906401808
 11
312.2597442604
 21
72.8508274351
  0
LINE
  5
23A
100
AcDbEntity
  8
0
100
AcDbLine
 62
7
  6
CONTINUOUS
 10
328.4829309251
 20
76.5924547326
 11
330.1235123979
 21
76.9542849325
  0
LINE
  5
23B
100
AcDbEntity
  8
0
100
AcDbLine
 62
7
  6
CONTINUOUS
 10
28.0153382609
 20
99.8236728361
 11
31.0453382609
 21
113.4798397157
  0
LINE
  5
23C
100
AcDbEntity
  8
0
100
AcDbLine
 62
7
  6
CONTINUOUS
 10
20.4153382609
 20
62.728542796
 11
20.6153382609
 21
63.6329251884
  0
LINE
  5
23D
100
AcDbEntity
  8
0
100
AcDbLine
 62
7
  6
CONTINUOUS
 10
23.2753382609
 20
75.6868026699
 11
23.4953382609
 21
76.6775218249
  0
LINE
  5
23E
100
AcDbEntity
  8
0
100
AcDbLine
 62
7
  6
CONTINUOUS
 10
264.2138331328
 20
63.8222217168
 11
277.8582090231
 21
66.854603202
  0
LINE
  5
23F
100
AcDbEntity
  8
0
100
AcDbLine
 62
7
  6
CONTINUOUS
 10
282.807287256
 20
67.9678496667
 11
296.3640224557
 21
70.9782706614
  0
LINE
  5
240
100
AcDbEntity
  8
0
100
AcDbLine
 62
7
  6
CONTINUOUS
 10
226.9838149149
 20
55.5741406964
 11
240.6263338674
 21
58.6036109096
  0
LINE
  5
241
100
AcDbEntity
  8
0
100
AcDbLine
 62
7
  6
CONTINUOUS
 10
245.5057024348
 20
59.6941406964
 11
259.2145146381
 21
62.7383320494
  0
LINE
  5
242
100
AcDbEntity
  8
0
100
AcDbLine
 62
7
  6
CONTINUOUS
 10
208.4131216489
 20
51.4514769261
 11
222.0716740211
 21
54.4820062139
  0
LINE
  5
243
100
AcDbEntity
  8
0
100
AcDbLine
 62
7
  6
CONTINUOUS
 10
312.9230070097
 20
74.6471191418
 11
326.5918133685
 21
77.6742849325
  0
LINE
  5
244
100
AcDbEntity
  8
0
100
AcDbLine
 62
7
  6
CONTINUOUS
 10
26.2153382609
 20
80.0288812151
 11
29.2453382609
 21
93.6850480947
  0
LINE
  5
245
100
AcDbEntity
  8
0
100
AcDbLine
 62
7
  6
CONTINUOUS
 10
329.332013235
 20
80.5519925576
 11
333.1435123979
 21
81.3968051075
  0
LINE
  5
246
100
AcDbEntity
  8
0
100
AcDbLine
 62
7
  6
CONTINUOUS
 10
305.9935519759
 20
75.3620141914
 11
309.8135123979
 21
76.2080027296
  0
LINE
  5
247
100
AcDbEntity
  8
0
100
AcDbLine
 62
7
  6
CONTINUOUS
 10
447.613720843
 20
54.5841394698
 11
447.7068240473
 21
49.8850617099
  0
LINE
  5
248
100
AcDbEntity
  8
0
100
AcDbLine
 62
7
  6
CONTINUOUS
 10
487.8538423763
 20
50.3282943751
 11
487.8527573605
 21
51.2082937062
  0
LINE
  5
249
100
AcDbEntity
  8
0
100
AcDbLine
 62
7
  6
CONTINUOUS
 10
424.5735123979
 20
56.3842882175
 11
424.5708385877
 21
59.1842869409
  0
LINE
  5
24A
100
AcDbEntity
  8
0
100
AcDbLine
 62
7
  6
CONTINUOUS
 10
425.4594869568
 20
50.1121664013
 11
425.453509833
 21
56.3821635523
  0
LINE
  5
24B
100
AcDbEntity
  8
0
100
AcDbLine
 62
7
  6
CONTINUOUS
 10
164.1653382609
 20
14.6441406964
 11
164.1647253124
 21
19.3441406564
  0
LINE
  5
24C
100
AcDbEntity
  8
0
100
AcDbLine
 62
7
  6
CONTINUOUS
 10
164.1641254053
 20
23.9441407364
 11
164.1635125169
 21
28.6441406964
  0
LINE
  5
24D
100
AcDbEntity
  8
0
100
AcDbLine
 62
7
  6
CONTINUOUS
 10
178.1647253725
 20
19.3441406564
 11
178.1653382609
 21
14.6441406964
  0
LINE
  5
24E
100
AcDbEntity
  8
0
100
AcDbLine
 62
7
  6
CONTINUOUS
 10
494.8030973217
 20
56.2462868069
 11
494.8036140931
 21
52.9462868473
  0
LINE
  5
24F
100
AcDbEntity
  8
0
100
AcDbLine
 62
7
  6
CONTINUOUS
 10
178.1635123979
 20
28.6459663214
 11
178.1635123979
 21
23.9459663214
  0
LINE
  5
250
100
AcDbEntity
  8
0
100
AcDbLine
 62
7
  6
CONTINUOUS
 10
357.5235123979
 20
49.8842849325
 11
357.5235123979
 21
63.8842849325
  0
LINE
  5
251
100
AcDbEntity
  8
0
100
AcDbLine
 62
7
  6
CONTINUOUS
 10
357.5335161251
 20
107.0342849325
 11
357.5335161251
 21
121.0342849325
  0
LINE
  5
252
100
AcDbEntity
  8
0
100
AcDbLine
 62
7
  6
CONTINUOUS
 10
357.5335161251
 20
126.0842849325
 11
357.5335161251
 21
140.0842849325
  0
LINE
  5
253
100
AcDbEntity
  8
0
100
AcDbLine
 62
7
  6
CONTINUOUS
 10
357.5335161251
 20
154.6642849325
 11
357.5335161251
 21
168.6642849325
  0
LINE
  5
254
100
AcDbEntity
  8
0
100
AcDbLine
 62
7
  6
CONTINUOUS
 10
371.5235123979
 20
63.8842849325
 11
371.5235123979
 21
49.8842849325
  0
LINE
  5
255
100
AcDbEntity
  8
0
100
AcDbLine
 62
7
  6
CONTINUOUS
 10
371.5335161251
 20
168.6642849325
 11
371.5335161251
 21
154.6642849325
  0
LINE
  5
256
100
AcDbEntity
  8
0
100
AcDbLine
 62
7
  6
CONTINUOUS
 10
371.5335161251
 20
140.0842849325
 11
371.5335161251
 21
126.0842849325
  0
LINE
  5
257
100
AcDbEntity
  8
0
100
AcDbLine
 62
7
  6
CONTINUOUS
 10
371.5335161251
 20
121.0342849325
 11
371.5335161251
 21
107.0342849325
  0
LINE
  5
258
100
AcDbEntity
  8
0
100
AcDbLine
 62
7
  6
CONTINUOUS
 10
376.5735123979
 20
49.8842849325
 11
376.5735123979
 21
63.8842849325
  0
LINE
  5
259
100
AcDbEntity
  8
0
100
AcDbLine
 62
7
  6
CONTINUOUS
 10
376.5735123979
 20
68.9342849325
 11
376.5735123979
 21
82.9342849325
  0
LINE
  5
25A
100
AcDbEntity
  8
0
100
AcDbLine
 62
7
  6
CONTINUOUS
 10
376.5835161251
 20
107.0342849325
 11
376.5835161251
 21
121.0342849325
  0
LINE
  5
25B
100
AcDbEntity
  8
0
100
AcDbLine
 62
7
  6
CONTINUOUS
 10
376.5835161251
 20
126.0842849325
 11
376.5835161251
 21
140.0842849325
  0
LINE
  5
25C
100
AcDbEntity
  8
0
100
AcDbLine
 62
7
  6
CONTINUOUS
 10
376.5835161251
 20
154.6642849325
 11
376.5835161251
 21
168.6642849325
  0
LINE
  5
25D
100
AcDbEntity
  8
0
100
AcDbLine
 62
7
  6
CONTINUOUS
 10
390.5735123979
 20
82.9342849325
 11
390.5735123979
 21
68.9342849325
  0
LINE
  5
25E
100
AcDbEntity
  8
0
100
AcDbLine
 62
7
  6
CONTINUOUS
 10
390.5735123979
 20
63.8842849325
 11
390.5735123979
 21
49.8842849325
  0
LINE
  5
25F
100
AcDbEntity
  8
0
100
AcDbLine
 62
7
  6
CONTINUOUS
 10
390.5835161251
 20
168.6642849325
 11
390.5835161251
 21
154.6642849325
  0
LINE
  5
260
100
AcDbEntity
  8
0
100
AcDbLine
 62
7
  6
CONTINUOUS
 10
390.5835161251
 20
140.0842849325
 11
390.5835161251
 21
126.0842849325
  0
LINE
  5
261
100
AcDbEntity
  8
0
100
AcDbLine
 62
7
  6
CONTINUOUS
 10
390.5835161251
 20
121.0342849325
 11
390.5835161251
 21
107.0342849325
  0
LINE
  5
262
100
AcDbEntity
  8
0
100
AcDbLine
 62
7
  6
CONTINUOUS
 10
395.6235123979
 20
49.8842849325
 11
395.6235123979
 21
63.8842849325
  0
LINE
  5
263
100
AcDbEntity
  8
0
100
AcDbLine
 62
7
  6
CONTINUOUS
 10
395.6335161251
 20
107.0342849325
 11
395.6335161251
 21
121.0342849325
  0
LINE
  5
264
100
AcDbEntity
  8
0
100
AcDbLine
 62
7
  6
CONTINUOUS
 10
395.6335161251
 20
126.0842849325
 11
395.6335161251
 21
140.0842849325
  0
LINE
  5
265
100
AcDbEntity
  8
0
100
AcDbLine
 62
7
  6
CONTINUOUS
 10
395.6335161251
 20
154.6642849325
 11
395.6335161251
 21
168.6642849325
  0
LINE
  5
266
100
AcDbEntity
  8
0
100
AcDbLine
 62
7
  6
CONTINUOUS
 10
409.6235123979
 20
63.8842849325
 11
409.6235123979
 21
49.8842849325
  0
LINE
  5
267
100
AcDbEntity
  8
0
100
AcDbLine
 62
7
  6
CONTINUOUS
 10
409.6335161251
 20
168.6642849325
 11
409.6335161251
 21
154.6642849325
  0
LINE
  5
268
100
AcDbEntity
  8
0
100
AcDbLine
 62
7
  6
CONTINUOUS
 10
409.6335161251
 20
140.0842849325
 11
409.6335161251
 21
126.0842849325
  0
LINE
  5
269
100
AcDbEntity
  8
0
100
AcDbLine
 62
7
  6
CONTINUOUS
 10
409.6335161251
 20
121.0342849325
 11
409.6335161251
 21
107.0342849325
  0
LINE
  5
26A
100
AcDbEntity
  8
0
100
AcDbLine
 62
7
  6
CONTINUOUS
 10
424.2035161251
 20
68.9342849325
 11
424.2035161251
 21
82.9342849325
  0
LINE
  5
26B
100
AcDbEntity
  8
0
100
AcDbLine
 62
7
  6
CONTINUOUS
 10
424.2035161251
 20
87.9842849325
 11
424.2035161251
 21
101.9842849325
  0
LINE
  5
26C
100
AcDbEntity
  8
0
100
AcDbLine
 62
7
  6
CONTINUOUS
 10
424.2035161251
 20
107.0342849325
 11
424.2035161251
 21
121.0342849325
  0
LINE
  5
26D
100
AcDbEntity
  8
0
100
AcDbLine
 62
7
  6
CONTINUOUS
 10
424.2035161251
 20
126.0842849325
 11
424.2035161251
 21
140.0842849325
  0
LINE
  5
26E
100
AcDbEntity
  8
0
100
AcDbLine
 62
7
  6
CONTINUOUS
 10
438.2035161251
 20
140.0842849325
 11
438.2035161251
 21
126.0842849325
  0
LINE
  5
26F
100
AcDbEntity
  8
0
100
AcDbLine
 62
7
  6
CONTINUOUS
 10
438.2035161251
 20
121.0342849325
 11
438.2035161251
 21
107.0342849325
  0
LINE
  5
270
100
AcDbEntity
  8
0
100
AcDbLine
 62
7
  6
CONTINUOUS
 10
438.2035161251
 20
101.9842849325
 11
438.2035161251
 21
87.9842849325
  0
LINE
  5
271
100
AcDbEntity
  8
0
100
AcDbLine
 62
7
  6
CONTINUOUS
 10
438.2035161251
 20
82.9342849325
 11
438.2035161251
 21
68.9342849325
  0
LINE
  5
272
100
AcDbEntity
  8
0
100
AcDbLine
 62
7
  6
CONTINUOUS
 10
443.2535161251
 20
68.9342849325
 11
443.2535161251
 21
82.9342849325
  0
LINE
  5
273
100
AcDbEntity
  8
0
100
AcDbLine
 62
7
  6
CONTINUOUS
 10
443.2535161251
 20
87.9842849325
 11
443.2535161251
 21
101.9842849325
  0
LINE
  5
274
100
AcDbEntity
  8
0
100
AcDbLine
 62
7
  6
CONTINUOUS
 10
443.2535161251
 20
107.0342849325
 11
443.2535161251
 21
121.0342849325
  0
LINE
  5
275
100
AcDbEntity
  8
0
100
AcDbLine
 62
7
  6
CONTINUOUS
 10
443.2535161251
 20
126.0842849325
 11
443.2535161251
 21
140.0842849325
  0
LINE
  5
276
100
AcDbEntity
  8
0
100
AcDbLine
 62
7
  6
CONTINUOUS
 10
456.0035161316
 20
62.4147135731
 11
456.0035161281
 21
59.1847135731
  0
LINE
  5
277
100
AcDbEntity
  8
0
100
AcDbLine
 62
7
  6
CONTINUOUS
 10
456.8735161251
 20
59.184786192
 11
456.8735123986
 21
56.384786192
  0
LINE
  5
278
100
AcDbEntity
  8
0
100
AcDbLine
 62
7
  6
CONTINUOUS
 10
457.2535161251
 20
140.0842849325
 11
457.2535161251
 21
126.0842849325
  0
LINE
  5
279
100
AcDbEntity
  8
0
100
AcDbLine
 62
7
  6
CONTINUOUS
 10
457.2535161251
 20
121.0342849325
 11
457.2535161251
 21
107.0342849325
  0
LINE
  5
27A
100
AcDbEntity
  8
0
100
AcDbLine
 62
7
  6
CONTINUOUS
 10
457.2535161251
 20
101.9842849325
 11
457.2535161251
 21
87.9842849325
  0
LINE
  5
27B
100
AcDbEntity
  8
0
100
AcDbLine
 62
7
  6
CONTINUOUS
 10
457.2535161251
 20
82.9342849325
 11
457.2535161251
 21
68.9342849325
  0
LINE
  5
27C
100
AcDbEntity
  8
0
100
AcDbLine
 62
7
  6
CONTINUOUS
 10
462.3035161251
 20
49.8842849325
 11
462.3035161251
 21
63.8842849325
  0
LINE
  5
27D
100
AcDbEntity
  8
0
100
AcDbLine
 62
7
  6
CONTINUOUS
 10
462.3035161251
 20
68.9342849325
 11
462.3035161251
 21
82.9342849325
  0
LINE
  5
27E
100
AcDbEntity
  8
0
100
AcDbLine
 62
7
  6
CONTINUOUS
 10
462.3035161251
 20
87.9842849325
 11
462.3035161251
 21
101.9842849325
  0
LINE
  5
27F
100
AcDbEntity
  8
0
100
AcDbLine
 62
7
  6
CONTINUOUS
 10
462.3035161251
 20
107.0342849325
 11
462.3035161251
 21
121.0342849325
  0
LINE
  5
280
100
AcDbEntity
  8
0
100
AcDbLine
 62
7
  6
CONTINUOUS
 10
462.3035161251
 20
126.0842849325
 11
462.3035161251
 21
140.0842849325
  0
LINE
  5
281
100
AcDbEntity
  8
0
100
AcDbLine
 62
7
  6
CONTINUOUS
 10
476.3035161251
 20
140.0842849325
 11
476.3035161251
 21
126.0842849325
  0
LINE
  5
282
100
AcDbEntity
  8
0
100
AcDbLine
 62
7
  6
CONTINUOUS
 10
476.3035161251
 20
121.0342849325
 11
476.3035161251
 21
107.0342849325
  0
LINE
  5
283
100
AcDbEntity
  8
0
100
AcDbLine
 62
7
  6
CONTINUOUS
 10
476.3035161251
 20
101.9842849325
 11
476.3035161251
 21
87.9842849325
  0
LINE
  5
284
100
AcDbEntity
  8
0
100
AcDbLine
 62
7
  6
CONTINUOUS
 10
476.3035161251
 20
82.9342849325
 11
476.3035161251
 21
68.9342849325
  0
LINE
  5
285
100
AcDbEntity
  8
0
100
AcDbLine
 62
7
  6
CONTINUOUS
 10
476.3035161251
 20
63.8842849325
 11
476.3035161251
 21
49.8842849325
  0
LINE
  5
286
100
AcDbEntity
  8
0
100
AcDbLine
 62
7
  6
CONTINUOUS
 10
480.6033741548
 20
90.9227021956
 11
480.6035161251
 21
94.2227021926
  0
LINE
  5
287
100
AcDbEntity
  8
0
100
AcDbLine
 62
7
  6
CONTINUOUS
 10
480.6035161251
 20
52.7930666312
 11
480.6035161251
 21
56.0930666312
  0
LINE
  5
288
100
AcDbEntity
  8
0
100
AcDbLine
 62
7
  6
CONTINUOUS
 10
480.6035161251
 20
76.7142849325
 11
480.6035161251
 21
80.0142849325
  0
LINE
  5
289
100
AcDbEntity
  8
0
100
AcDbLine
 62
7
  6
CONTINUOUS
 10
480.6035161251
 20
114.8129334232
 11
480.6035161251
 21
118.1129334232
  0
LINE
  5
28A
100
AcDbEntity
  8
0
100
AcDbLine
 62
7
  6
CONTINUOUS
 10
481.3535161251
 20
59.4206781798
 11
481.3535161251
 21
73.4206781798
  0
LINE
  5
28B
100
AcDbEntity
  8
0
100
AcDbLine
 62
7
  6
CONTINUOUS
 10
481.3535161251
 20
97.5129334232
 11
481.3535161251
 21
111.5129334232
  0
LINE
  5
28C
100
AcDbEntity
  8
0
100
AcDbLine
 62
7
  6
CONTINUOUS
 10
481.3535161251
 20
126.0842849325
 11
481.3535161251
 21
140.0842849325
  0
LINE
  5
28D
100
AcDbEntity
  8
0
100
AcDbLine
 62
7
  6
CONTINUOUS
 10
481.5834681368
 20
94.2130040123
 11
481.5835161251
 21
95.8930040116
  0
LINE
  5
28E
100
AcDbEntity
  8
0
100
AcDbLine
 62
7
  6
CONTINUOUS
 10
481.5834669442
 20
56.1028845813
 11
481.5834918475
 21
57.7828845811
  0
LINE
  5
28F
100
AcDbEntity
  8
0
100
AcDbLine
 62
7
  6
CONTINUOUS
 10
481.5835151932
 20
118.1142849325
 11
481.5835161251
 21
119.7842849325
  0
LINE
  5
290
100
AcDbEntity
  8
0
100
AcDbLine
 62
7
  6
CONTINUOUS
 10
481.5835161251
 20
113.1429334232
 11
481.5835161251
 21
114.8129334232
  0
LINE
  5
291
100
AcDbEntity
  8
0
100
AcDbLine
 62
7
  6
CONTINUOUS
 10
481.5834774724
 20
80.0229888292
 11
481.5834644849
 21
81.6929888292
  0
LINE
  5
292
100
AcDbEntity
  8
0
100
AcDbLine
 62
7
  6
CONTINUOUS
 10
481.5835161251
 20
75.0528012821
 11
481.5834791202
 21
76.7228012817
  0
LINE
  5
293
100
AcDbEntity
  8
0
100
AcDbLine
 62
7
  6
CONTINUOUS
 10
486.0533381167
 20
73.4615835267
 11
486.0533478823
 21
75.0915835267
  0
LINE
  5
294
100
AcDbEntity
  8
0
100
AcDbLine
 62
7
  6
CONTINUOUS
 10
486.0535159135
 20
95.8943793898
 11
486.0535159027
 21
97.5143793898
  0
LINE
  5
295
100
AcDbEntity
  8
0
100
AcDbLine
 62
7
  6
CONTINUOUS
 10
486.0535161251
 20
111.5129334232
 11
486.0535161251
 21
113.1429334232
  0
LINE
  5
296
100
AcDbEntity
  8
0
100
AcDbLine
 62
7
  6
CONTINUOUS
 10
487.853182011
 20
88.3697793873
 11
487.8531965809
 21
89.2497793872
  0
LINE
  5
297
100
AcDbEntity
  8
0
100
AcDbLine
 62
7
  6
CONTINUOUS
 10
487.8532281009
 20
81.7474332918
 11
487.8532092239
 21
82.6274332916
  0
LINE
  5
298
100
AcDbEntity
  8
0
100
AcDbLine
 62
7
  6
CONTINUOUS
 10
490.6537393088
 20
120.6729334218
 11
490.6537022764
 21
119.7929334226
  0
LINE
  5
299
100
AcDbEntity
  8
0
100
AcDbLine
 62
7
  6
CONTINUOUS
 10
490.6531920388
 20
89.2529125739
 11
490.653180258
 21
88.372912574
  0
LINE
  5
29A
100
AcDbEntity
  8
0
100
AcDbLine
 62
7
  6
CONTINUOUS
 10
490.6535047814
 20
113.1429334232
 11
490.6535161251
 21
111.5129334232
  0
LINE
  5
29B
100
AcDbEntity
  8
0
100
AcDbLine
 62
7
  6
CONTINUOUS
 10
490.653245581
 20
75.1314980786
 11
490.6533359118
 21
73.5014980811
  0
LINE
  5
29C
100
AcDbEntity
  8
0
100
AcDbLine
 62
7
  6
CONTINUOUS
 10
493.8837022764
 20
119.792933422
 11
493.8836319888
 21
118.1229334234
  0
LINE
  5
29D
100
AcDbEntity
  8
0
100
AcDbLine
 62
7
  6
CONTINUOUS
 10
493.8832629231
 20
90.9265286199
 11
493.88318573
 21
89.2465286217
  0
LINE
  5
29E
100
AcDbEntity
  8
0
100
AcDbLine
 62
7
  6
CONTINUOUS
 10
493.8835474393
 20
114.8129334232
 11
493.8835047814
 21
113.1429334237
  0
LINE
  5
29F
100
AcDbEntity
  8
0
100
AcDbLine
 62
7
  6
CONTINUOUS
 10
493.8830884085
 20
76.8295246036
 11
493.8831239864
 21
75.1595246039
  0
LINE
  5
2A0
100
AcDbEntity
  8
0
100
AcDbLine
 62
7
  6
CONTINUOUS
 10
493.8829287922
 20
81.7996962589
 11
493.882982424
 21
80.1296962598
  0
LINE
  5
2A1
100
AcDbEntity
  8
0
100
AcDbLine
 62
7
  6
CONTINUOUS
 10
493.8836696275
 20
52.936178421
 11
493.8837809209
 21
51.2561784247
  0
LINE
  5
2A2
100
AcDbEntity
  8
0
100
AcDbLine
 62
7
  6
CONTINUOUS
 10
493.8831031909
 20
57.9072344184
 11
493.8832946218
 21
56.2272344293
  0
LINE
  5
2A3
100
AcDbEntity
  8
0
100
AcDbLine
 62
7
  6
CONTINUOUS
 10
494.8036319888
 20
118.1229334239
 11
494.8034930898
 21
114.8229334268
  0
LINE
  5
2A4
100
AcDbEntity
  8
0
100
AcDbLine
 62
7
  6
CONTINUOUS
 10
494.8029495583
 20
80.1374726228
 11
494.8030540758
 21
76.8374726245
  0
LINE
  5
2A5
100
AcDbEntity
  8
0
100
AcDbLine
 62
7
  6
CONTINUOUS
 10
495.3531584394
 20
73.5423417966
 11
495.3531089687
 21
59.5423417966
  0
LINE
  5
2A6
100
AcDbEntity
  8
0
100
AcDbLine
 62
7
  6
CONTINUOUS
 10
495.3535161251
 20
140.0842849325
 11
495.3535161251
 21
126.0842849325
  0
LINE
  5
2A7
100
AcDbEntity
  8
0
100
AcDbLine
 62
7
  6
CONTINUOUS
 10
495.3535161251
 20
111.5129334232
 11
495.3536135552
 21
97.5129334235
  0
LINE
  5
2A8
100
AcDbEntity
  8
0
100
AcDbLine
 62
7
  6
CONTINUOUS
 10
505.3535161251
 20
44.8842849325
 11
505.3535161251
 21
178.6642849325
  0
LINE
  5
2A9
100
AcDbEntity
  8
0
100
AcDbLine
 62
7
  6
CONTINUOUS
 10
481.5832005064
 20
89.24276328
 11
481.5833741529
 21
90.922763271
  0
LINE
  5
2AA
100
AcDbEntity
  8
0
100
AcDbLine
 62
7
  6
CONTINUOUS
 10
481.5831941619
 20
51.134284935
 11
481.583286396
 21
52.8142849325
  0
LINE
  5
2AB
100
AcDbEntity
  8
0
100
AcDbLine
 62
7
  6
CONTINUOUS
 10
486.0532658403
 20
57.8278340364
 11
486.0534376734
 21
59.4478340273
  0
LINE
  5
2AC
100
AcDbEntity
  8
0
100
AcDbLine
 62
7
  6
CONTINUOUS
 10
490.6538827246
 20
51.2305338945
 11
490.653754054
 21
50.3505339039
  0
LINE
  5
2AD
100
AcDbEntity
  8
0
100
AcDbLine
 62
7
  6
CONTINUOUS
 10
490.6536144261
 20
97.5157946215
 11
490.6535159135
 21
95.8957946244
  0
LINE
  5
2AE
100
AcDbEntity
  8
0
100
AcDbLine
 62
7
  6
CONTINUOUS
 10
490.6531036672
 20
82.6517459745
 11
490.6530497261
 21
81.7717459762
  0
LINE
  5
2AF
100
AcDbEntity
  8
0
100
AcDbLine
 62
7
  6
CONTINUOUS
 10
490.6533516488
 20
59.4945805837
 11
490.6532682528
 21
57.8745805859
  0
LINE
  5
2B0
100
AcDbEntity
  8
0
100
AcDbLine
 62
7
  6
CONTINUOUS
 10
493.8835157606
 20
95.8967886092
 11
493.8834141048
 21
94.2167886123
  0
LINE
  5
2B1
100
AcDbEntity
  8
0
100
AcDbLine
 62
7
  6
CONTINUOUS
 10
494.8034140612
 20
94.2170717925
 11
494.8032143177
 21
90.9170717985
  0
LINE
  5
2B2
100
AcDbEntity
  8
0
100
AcDbLine
 62
7
  6
CONTINUOUS
 10
487.8535101605
 20
119.7929334232
 11
487.8537393088
 21
120.6729333933
  0
LINE
  5
2B3
100
AcDbEntity
  8
0
100
AcDbLine
 62
7
  6
CONTINUOUS
 10
425.4508385877
 20
59.1842973091
 11
425.4592921327
 21
62.4142862468
  0
LINE
  5
2B4
100
AcDbEntity
  8
0
100
AcDbLine
 62
7
  6
CONTINUOUS
 10
427.1392921327
 20
62.4142880791
 11
427.1416983156
 21
63.3342849325
  0
LINE
  5
2B5
100
AcDbEntity
  8
0
100
AcDbLine
 62
7
  6
CONTINUOUS
 10
430.4074084737
 20
50.1141373588
 11
430.4048507826
 21
49.1341406964
  0
LINE
  5
2B6
100
AcDbEntity
  8
0
100
AcDbLine
 62
7
  6
CONTINUOUS
 10
430.4416983156
 20
63.3342823545
 11
430.4393091579
 21
62.4142854567
  0
LINE
  5
2B7
100
AcDbEntity
  8
0
100
AcDbLine
 62
7
  6
CONTINUOUS
 10
432.1193091579
 20
62.4142851901
 11
432.1109322755
 21
59.1842960527
  0
LINE
  5
2B8
100
AcDbEntity
  8
0
100
AcDbLine
 62
7
  6
CONTINUOUS
 10
432.0990021004
 20
54.5842152282
 11
432.0874084711
 21
50.1142302631
  0
LINE
  5
2B9
100
AcDbEntity
  8
0
100
AcDbLine
 62
7
  6
CONTINUOUS
 10
433.7309322755
 20
59.1843007243
 11
433.7431159734
 21
63.8842849325
  0
LINE
  5
2BA
100
AcDbEntity
  8
0
100
AcDbLine
 62
7
  6
CONTINUOUS
 10
433.7068240671
 20
49.8843164669
 11
433.7190020981
 21
54.5843006898
  0
LINE
  5
2BB
100
AcDbEntity
  8
0
100
AcDbLine
 62
7
  6
CONTINUOUS
 10
454.3363681016
 20
63.3345697166
 11
454.3335161374
 21
62.4145741371
  0
LINE
  5
2BC
100
AcDbEntity
  8
0
100
AcDbLine
 62
7
  6
CONTINUOUS
 10
447.7431159734
 20
63.8842849325
 11
447.6777300866
 21
59.1847397752
  0
LINE
  5
2BD
100
AcDbEntity
  8
0
100
AcDbLine
 62
7
  6
CONTINUOUS
 10
449.1706479396
 20
50.1150524042
 11
449.2337207754
 21
54.5846073952
  0
LINE
  5
2BE
100
AcDbEntity
  8
0
100
AcDbLine
 62
7
  6
CONTINUOUS
 10
449.2977300807
 20
59.1846019667
 11
449.3429842605
 21
62.4142849325
  0
LINE
  5
2BF
100
AcDbEntity
  8
0
100
AcDbLine
 62
7
  6
CONTINUOUS
 10
450.8367456589
 20
49.135140338
 11
450.8506479396
 21
50.1150417242
  0
LINE
  5
2C0
100
AcDbEntity
  8
0
100
AcDbLine
 62
7
  6
CONTINUOUS
 10
451.0229842577
 20
62.4143822896
 11
451.0363681139
 21
63.3342849325
  0
LINE
  5
2C1
100
AcDbEntity
  8
0
100
AcDbLine
 62
7
  6
CONTINUOUS
 10
456.0035161251
 20
56.3822397917
 11
455.8433852952
 21
50.1142849325
  0
LINE
  5
2C2
100
AcDbEntity
  8
0
100
AcDbLine
 62
7
  6
CONTINUOUS
 10
427.1048508104
 20
49.1345688723
 11
427.139486003
 21
50.113956642
  0
LINE
  5
2C3
100
AcDbEntity
  8
0
100
AcDbLine
 62
7
  6
CONTINUOUS
 10
454.1733853143
 20
50.1145380686
 11
454.1367456579
 21
49.1352232389
  0
LINE
  5
2C4
100
AcDbEntity
  8
0
100
AcDbLine
 62
7
  6
CONTINUOUS
 10
46.6153382609
 20
70.4981248423
 11
46.8253382609
 21
71.4477263543
  0
LINE
  5
2C5
100
AcDbEntity
  8
0
100
AcDbLine
 62
7
  6
CONTINUOUS
 10
114.7638323038
 20
23.2541406964
 11
115.4605860639
 21
26.4041406964
  0
LINE
  5
2C6
100
AcDbEntity
  8
0
100
AcDbLine
 62
7
  6
CONTINUOUS
 10
44.043715035
 20
57.5741406964
 11
44.2429106572
 21
58.4741406964
  0
LINE
  5
2C7
100
AcDbEntity
  8
0
100
AcDbLine
 62
7
  6
CONTINUOUS
 10
70.8753382609
 20
138.8943267792
 11
73.8953382609
 21
152.5392049688
  0
LINE
  5
2C8
100
AcDbEntity
  8
0
100
AcDbLine
 62
7
  6
CONTINUOUS
 10
75.5012784375
 20
49.9641406964
 11
78.5270599502
 21
63.6322819025
  0
LINE
  5
2C9
100
AcDbEntity
  8
0
100
AcDbLine
 62
7
  6
CONTINUOUS
 10
112.7463168618
 20
41.7141406964
 11
115.7726268849
 21
55.3846693036
  0
LINE
  5
2CA
100
AcDbEntity
  8
0
100
AcDbLine
 62
7
  6
CONTINUOUS
 10
123.9594995421
 20
33.8241406964
 11
122.9920918301
 21
29.4541406964
  0
LINE
  5
2CB
100
AcDbEntity
  8
0
100
AcDbLine
 62
7
  6
CONTINUOUS
 10
131.3242689027
 20
37.5941406964
 11
134.3506303994
 21
51.2649018218
  0
LINE
  5
2CC
100
AcDbEntity
  8
0
100
AcDbLine
 62
7
  6
CONTINUOUS
 10
28.7553382609
 20
69.9379562761
 11
29.7753382609
 21
74.5426821228
  0
LINE
  5
2CD
100
AcDbEntity
  8
0
100
AcDbLine
 62
7
  6
CONTINUOUS
 10
43.4613334874
 20
71.511075987
 11
42.4253382609
 21
66.8341406964
  0
LINE
  5
2CE
100
AcDbEntity
  8
0
100
AcDbLine
 62
7
  6
CONTINUOUS
 10
44.0053912475
 20
66.4841406964
 11
44.9753382609
 21
70.8629054831
  0
LINE
  5
2CF
100
AcDbEntity
  8
0
100
AcDbLine
 62
7
  6
CONTINUOUS
 10
49.9773993189
 20
70.7489312414
 11
49.7759427041
 21
69.8394680247
  0
LINE
  5
2D0
100
AcDbEntity
  8
0
100
AcDbLine
 62
7
  6
CONTINUOUS
 10
51.7853382609
 20
74.7441406964
 11
54.8153382609
 21
88.4228851235
  0
LINE
  5
2D1
100
AcDbEntity
  8
0
100
AcDbLine
 62
7
  6
CONTINUOUS
 10
87.5571914472
 20
149.5104450356
 11
84.5353382609
 21
135.8684788865
  0
LINE
  5
2D2
100
AcDbEntity
  8
0
100
AcDbLine
 62
7
  6
CONTINUOUS
 10
88.4527773629
 20
86.1172757329
 11
91.4805463708
 21
99.7859484861
  0
LINE
  5
2D3
100
AcDbEntity
  8
0
100
AcDbLine
 62
7
  6
CONTINUOUS
 10
99.9525766034
 20
117.4358122797
 11
96.9219282044
 21
103.7541406964
  0
LINE
  5
2D4
100
AcDbEntity
  8
0
100
AcDbLine
 62
7
  6
CONTINUOUS
 10
106.1617047243
 20
145.3364719777
 11
103.1310289029
 21
131.6546765978
  0
LINE
  5
2D5
100
AcDbEntity
  8
0
100
AcDbLine
 62
7
  6
CONTINUOUS
 10
92.205860426
 20
60.6041406964
 11
89.1771645378
 21
46.9341406964
  0
LINE
  5
2D6
100
AcDbEntity
  8
0
100
AcDbLine
 62
7
  6
CONTINUOUS
 10
101.8772815782
 20
102.6559069372
 11
104.9047831591
 21
116.3233724088
  0
LINE
  5
2D7
100
AcDbEntity
  8
0
100
AcDbLine
 62
7
  6
CONTINUOUS
 10
87.6879507988
 20
27.7541406964
 11
90.716646687
 21
41.4241406964
  0
LINE
  5
2D8
100
AcDbEntity
  8
0
100
AcDbLine
 62
7
  6
CONTINUOUS
 10
105.149219124
 20
96.7581794783
 11
102.1214501162
 21
83.0895067251
  0
LINE
  5
2D9
100
AcDbEntity
  8
0
100
AcDbLine
 62
7
  6
CONTINUOUS
 10
94.1391392499
 20
45.8341406964
 11
97.1678351381
 21
59.5041406964
  0
LINE
  5
2DA
100
AcDbEntity
  8
0
100
AcDbLine
 62
7
  6
CONTINUOUS
 10
107.0520505076
 20
81.9978657298
 11
110.0778853044
 21
95.6578066091
  0
LINE
  5
2DB
100
AcDbEntity
  8
0
100
AcDbLine
 62
7
  6
CONTINUOUS
 10
118.5617569067
 20
113.298194866
 11
115.5342553258
 21
99.6307293944
  0
LINE
  5
2DC
100
AcDbEntity
  8
0
100
AcDbLine
 62
7
  6
CONTINUOUS
 10
124.7518578856
 20
141.2129512242
 11
121.7206174454
 21
127.528606908
  0
LINE
  5
2DD
100
AcDbEntity
  8
0
100
AcDbLine
 62
7
  6
CONTINUOUS
 10
107.555025271
 20
62.3741406964
 11
110.5918353745
 21
76.0807641565
  0
LINE
  5
2DE
100
AcDbEntity
  8
0
100
AcDbLine
 62
7
  6
CONTINUOUS
 10
104.3925327874
 20
38.3941406964
 11
101.3638368991
 21
24.7241406964
  0
LINE
  5
2DF
100
AcDbEntity
  8
0
100
AcDbLine
 62
7
  6
CONTINUOUS
 10
110.8437212384
 20
56.4741406964
 11
107.8150253502
 21
42.8041406964
  0
LINE
  5
2E0
100
AcDbEntity
  8
0
100
AcDbLine
 62
7
  6
CONTINUOUS
 10
120.4746100243
 20
98.5384441799
 11
123.5023790084
 21
112.2071168258
  0
LINE
  5
2E1
100
AcDbEntity
  8
0
100
AcDbLine
 62
7
  6
CONTINUOUS
 10
124.2677214749
 20
73.0507641565
 11
121.2309113713
 21
59.3441406964
  0
LINE
  5
2E2
100
AcDbEntity
  8
0
100
AcDbLine
 62
7
  6
CONTINUOUS
 10
119.0477467806
 20
34.8941406964
 11
119.2641041135
 21
35.8706681691
  0
LINE
  5
2E3
100
AcDbEntity
  8
0
100
AcDbLine
 62
7
  6
CONTINUOUS
 10
137.1733166647
 20
109.1788461157
 11
134.1455476806
 21
95.5101734699
  0
LINE
  5
2E4
100
AcDbEntity
  8
0
100
AcDbLine
 62
7
  6
CONTINUOUS
 10
126.1737065207
 20
58.2541406964
 11
129.2009984781
 21
71.9178040631
  0
LINE
  5
2E5
100
AcDbEntity
  8
0
100
AcDbLine
 62
7
  6
CONTINUOUS
 10
122.5459934516
 20
35.1441406964
 11
122.3332979101
 21
34.1841406964
  0
LINE
  5
2E6
100
AcDbEntity
  8
0
100
AcDbLine
 62
7
  6
CONTINUOUS
 10
122.0028416971
 20
24.9641406964
 11
121.3049344938
 21
21.8141406964
  0
LINE
  5
2E7
100
AcDbEntity
  8
0
100
AcDbLine
 62
7
  6
CONTINUOUS
 10
129.4508988504
 20
52.3541406964
 11
126.4222029621
 21
38.6841406964
  0
LINE
  5
2E8
100
AcDbEntity
  8
0
100
AcDbLine
 62
7
  6
CONTINUOUS
 10
139.030838282
 20
94.4208639101
 11
142.0601193651
 21
108.0963628322
  0
LINE
  5
2E9
100
AcDbEntity
  8
0
100
AcDbLine
 62
7
  6
CONTINUOUS
 10
145.241295185
 20
122.3328221539
 11
148.2695125275
 21
136.003518886
  0
LINE
  5
2EA
100
AcDbEntity
  8
0
100
AcDbLine
 62
7
  6
CONTINUOUS
 10
142.8673379123
 20
68.889919202
 11
139.8400459549
 21
55.2262558353
  0
LINE
  5
2EB
100
AcDbEntity
  8
0
100
AcDbLine
 62
7
  6
CONTINUOUS
 10
161.9399075199
 20
132.9753683823
 11
158.9116901774
 21
119.3046716502
  0
LINE
  5
2EC
100
AcDbEntity
  8
0
100
AcDbLine
 62
7
  6
CONTINUOUS
 10
148.0509584159
 20
48.2294865233
 11
145.0227407011
 21
34.561644756
  0
LINE
  5
2ED
100
AcDbEntity
  8
0
100
AcDbLine
 62
7
  6
CONTINUOUS
 10
26.1753382609
 20
65.7088239471
 11
25.4753382609
 21
62.5513279945
  0
LINE
  5
2EE
100
AcDbEntity
  8
0
100
AcDbLine
 62
7
  6
CONTINUOUS
 10
44.1853382609
 20
129.7932512218
 11
41.1553382609
 21
116.1258044557
  0
LINE
  5
2EF
100
AcDbEntity
  8
0
100
AcDbLine
 62
7
  6
CONTINUOUS
 10
50.3748093478
 20
157.2952051592
 11
47.3453382609
 21
143.6301441659
  0
LINE
  5
2F0
100
AcDbEntity
  8
0
100
AcDbLine
 62
7
  6
CONTINUOUS
 10
46.0853382609
 20
115.0347067347
 11
49.1153382609
 21
128.7021535008
  0
LINE
  5
2F1
100
AcDbEntity
  8
0
100
AcDbLine
 62
7
  6
CONTINUOUS
 10
42.9129547179
 20
90.6550104752
 11
39.8853382609
 21
76.9983151768
  0
LINE
  5
2F2
100
AcDbEntity
  8
0
100
AcDbLine
 62
7
  6
CONTINUOUS
 10
51.2653382609
 20
94.007055285
 11
54.2953382609
 21
107.6745020511
  0
LINE
  5
2F3
100
AcDbEntity
  8
0
100
AcDbLine
 62
7
  6
CONTINUOUS
 10
47.4432001273
 20
57.7641406964
 11
47.2436749309
 21
56.8641406964
  0
LINE
  5
2F4
100
AcDbEntity
  8
0
100
AcDbLine
 62
7
  6
CONTINUOUS
 10
62.7853382609
 20
125.6715874625
 11
59.7553382609
 21
112.0041406964
  0
LINE
  5
2F5
100
AcDbEntity
  8
0
100
AcDbLine
 62
7
  6
CONTINUOUS
 10
51.7395773857
 20
69.4041406964
 11
50.3828060503
 21
63.2841406964
  0
LINE
  5
2F6
100
AcDbEntity
  8
0
100
AcDbLine
 62
7
  6
CONTINUOUS
 10
64.6853382609
 20
110.9100606502
 11
67.7153382609
 21
124.5775074163
  0
LINE
  5
2F7
100
AcDbEntity
  8
0
100
AcDbLine
 62
7
  6
CONTINUOUS
 10
67.8653584925
 20
104.6661009938
 11
64.8358835575
 21
91.0010226431
  0
LINE
  5
2F8
100
AcDbEntity
  8
0
100
AcDbLine
 62
7
  6
CONTINUOUS
 10
56.9486489277
 20
54.0841406964
 11
59.9781581285
 21
67.7493736104
  0
LINE
  5
2F9
100
AcDbEntity
  8
0
100
AcDbLine
 62
7
  6
CONTINUOUS
 10
55.1653382609
 20
34.9741406964
 11
58.1965504926
 21
48.6470554864
  0
LINE
  5
2FA
100
AcDbEntity
  8
0
100
AcDbLine
 62
7
  6
CONTINUOUS
 10
68.4964700793
 20
85.3923562888
 11
65.464082688
 21
71.7141406964
  0
LINE
  5
2FB
100
AcDbEntity
  8
0
100
AcDbLine
 62
7
  6
CONTINUOUS
 10
69.9412392261
 20
90.2332892748
 11
72.8937771965
 21
103.5513274056
  0
LINE
  5
2FC
100
AcDbEntity
  8
0
100
AcDbLine
 62
7
  6
CONTINUOUS
 10
81.3853382609
 20
121.546941378
 11
78.3553382609
 21
107.8794946119
  0
LINE
  5
2FD
100
AcDbEntity
  8
0
100
AcDbLine
 62
7
  6
CONTINUOUS
 10
70.4695661354
 20
70.6241406964
 11
73.4996191888
 21
84.2918267709
  0
LINE
  5
2FE
100
AcDbEntity
  8
0
100
AcDbLine
 62
7
  6
CONTINUOUS
 10
73.6353818457
 20
64.7241406964
 11
70.6048158073
 21
51.0541406964
  0
LINE
  5
2FF
100
AcDbEntity
  8
0
100
AcDbLine
 62
7
  6
CONTINUOUS
 10
89.4653382609
 20
134.6817850335
 11
92.49893066
 21
148.3654360647
  0
LINE
  5
300
100
AcDbEntity
  8
0
100
AcDbLine
 62
7
  6
CONTINUOUS
 10
83.2823020522
 20
106.7779730148
 11
86.3153382609
 21
120.4591152334
  0
LINE
  5
301
100
AcDbEntity
  8
0
100
AcDbLine
 62
7
  6
CONTINUOUS
 10
86.4778635831
 20
100.5398079568
 11
83.525851222
 21
87.2241406964
  0
LINE
  5
302
100
AcDbEntity
  8
0
100
AcDbLine
 62
7
  6
CONTINUOUS
 10
88.9748871926
 20
66.5001654303
 11
92.0039409938
 21
80.1633441697
  0
LINE
  5
303
100
AcDbEntity
  8
0
100
AcDbLine
 62
7
  6
CONTINUOUS
 10
108.0632795872
 20
130.5563658171
 11
111.0963799524
 21
144.2377974269
  0
LINE
  5
304
100
AcDbEntity
  8
0
100
AcDbLine
 62
7
  6
CONTINUOUS
 10
105.6534564934
 20
77.1373194358
 11
102.6244026922
 21
63.4741406964
  0
LINE
  5
305
100
AcDbEntity
  8
0
100
AcDbLine
 62
7
  6
CONTINUOUS
 10
126.6632004504
 20
126.4367096904
 11
129.6933260483
 21
140.1047229919
  0
LINE
  5
306
100
AcDbEntity
  8
0
100
AcDbLine
 62
7
  6
CONTINUOUS
 10
123.7451685844
 20
92.6278428531
 11
120.7169497704
 21
78.9684304977
  0
LINE
  5
307
100
AcDbEntity
  8
0
100
AcDbLine
 62
7
  6
CONTINUOUS
 10
125.6373558805
 20
77.8804617834
 11
128.6682386076
 21
91.551890274
  0
LINE
  5
308
100
AcDbEntity
  8
0
100
AcDbLine
 62
7
  6
CONTINUOUS
 10
114.6016025924
 20
26.5941406964
 11
115.206955422
 21
29.3241406964
  0
LINE
  5
309
100
AcDbEntity
  8
0
100
AcDbLine
 62
7
  6
CONTINUOUS
 10
116.0220784266
 20
29.1441406964
 11
117.3791331215
 21
35.2641406964
  0
LINE
  5
30A
100
AcDbEntity
  8
0
100
AcDbLine
 62
7
  6
CONTINUOUS
 10
143.3418082211
 20
137.081426431
 11
140.3111545427
 21
123.4110311122
  0
LINE
  5
30B
100
AcDbEntity
  8
0
100
AcDbLine
 62
7
  6
CONTINUOUS
 10
142.3383697236
 20
88.521295168
 11
139.3074869965
 21
74.8498666774
  0
LINE
  5
30C
100
AcDbEntity
  8
0
100
AcDbLine
 62
7
  6
CONTINUOUS
 10
155.7675293823
 20
105.0600130726
 11
152.7353312062
 21
91.3826509746
  0
LINE
  5
30D
100
AcDbEntity
  8
0
100
AcDbLine
 62
7
  6
CONTINUOUS
 10
28.1353382609
 20
74.6628093234
 11
27.1653382609
 21
70.2910331276
  0
LINE
  5
30E
100
AcDbEntity
  8
0
100
AcDbLine
 62
7
  6
CONTINUOUS
 10
26.7453382609
 20
60.8050438967
 11
27.7553382609
 21
65.3570995232
  0
LINE
  5
30F
100
AcDbEntity
  8
0
100
AcDbLine
 62
7
  6
CONTINUOUS
 10
44.714808911
 20
110.4468879046
 11
41.6853382609
 21
96.7931067977
  0
LINE
  5
310
100
AcDbEntity
  8
0
100
AcDbLine
 62
7
  6
CONTINUOUS
 10
42.6230698342
 20
58.8341406964
 11
43.3242036212
 21
61.9941406964
  0
LINE
  5
311
100
AcDbEntity
  8
0
100
AcDbLine
 62
7
  6
CONTINUOUS
 10
71.8658542891
 20
45.6141406964
 11
68.832785027
 21
31.9441406964
  0
LINE
  5
312
100
AcDbEntity
  8
0
100
AcDbLine
 62
7
  6
CONTINUOUS
 10
87.1678633857
 20
81.2541406964
 11
84.1370129015
 21
67.5941406964
  0
LINE
  5
313
100
AcDbEntity
  8
0
100
AcDbLine
 62
7
  6
CONTINUOUS
 10
22.6153382609
 20
42.1841406964
 11
25.6553382609
 21
55.8740781104
  0
LINE
  5
314
100
AcDbEntity
  8
0
100
AcDbLine
 62
7
  6
CONTINUOUS
 10
39.3002429861
 20
52.8440781104
 11
36.2602429861
 21
39.1541406964
  0
LINE
  5
315
100
AcDbEntity
  8
0
100
AcDbLine
 62
7
  6
CONTINUOUS
 10
41.5149814859
 20
62.3952355873
 11
40.4843757175
 21
57.7541406964
  0
LINE
  5
316
100
AcDbEntity
  8
0
100
AcDbLine
 62
7
  6
CONTINUOUS
 10
49.769233774
 20
60.5541406964
 11
49.0697418983
 21
57.4041406964
  0
LINE
  5
317
100
AcDbEntity
  8
0
100
AcDbLine
 62
7
  6
CONTINUOUS
 10
51.2349126858
 20
63.0941406964
 11
50.6276863753
 21
60.3641406964
  0
LINE
  5
318
100
AcDbEntity
  8
0
100
AcDbLine
 62
7
  6
CONTINUOUS
 10
119.6800766408
 20
22.1741406964
 11
119.4798504715
 21
21.2741406964
  0
LINE
  5
319
100
AcDbEntity
  8
0
100
AcDbLine
 62
7
  6
CONTINUOUS
 10
23.8353382609
 20
62.913706219
 11
23.6353382609
 21
62.0152755768
  0
LINE
  5
31A
100
AcDbEntity
  8
0
100
AcDbLine
 62
7
  6
CONTINUOUS
 10
116.2354975926
 20
21.9941406964
 11
116.4338250971
 21
22.8841406964
  0
LINE
  5
31B
100
AcDbEntity
  8
0
100
AcDbLine
 62
7
  6
CONTINUOUS
 10
26.7153382609
 20
75.9642546056
 11
26.5053382609
 21
75.0247686115
  0
LINE
  5
31C
100
AcDbEntity
  8
0
100
AcDbLine
 62
7
  6
CONTINUOUS
 10
309.3034354507
 20
85.6921305095
 11
309.0411463921
 21
85.6336461379
  0
LINE
  5
31D
100
AcDbEntity
  8
0
100
AcDbLine
 62
7
  6
CONTINUOUS
 10
338.5450484299
 20
95.0150963317
 11
339.3935161251
 21
95.2042849325
  0
LINE
  5
31E
100
AcDbEntity
  8
0
100
AcDbLine
 62
7
  6
CONTINUOUS
 10
307.8635161251
 20
90.9412089921
 11
308.7135161251
 21
91.1305835384
  0
LINE
  5
31F
100
AcDbEntity
  8
0
100
AcDbLine
 62
7
  6
CONTINUOUS
 10
339.9975054549
 20
92.4843585759
 11
339.0980038407
 21
92.2842849325
  0
LINE
  5
320
100
AcDbEntity
  8
0
100
AcDbLine
 62
7
  6
CONTINUOUS
 10
312.8719402499
 20
92.6325507043
 11
314.4982440277
 21
92.9942849325
  0
LINE
  5
321
100
AcDbEntity
  8
0
100
AcDbLine
 62
7
  6
CONTINUOUS
 10
252.9535161251
 20
134.8142849325
 11
239.2885042527
 21
131.7748143306
  0
LINE
  5
322
100
AcDbEntity
  8
0
100
AcDbLine
 62
7
  6
CONTINUOUS
 10
287.8840258583
 20
88.5854944804
 11
301.5314338681
 21
91.6185498361
  0
LINE
  5
323
100
AcDbEntity
  8
0
100
AcDbLine
 62
7
  6
CONTINUOUS
 10
304.5635123979
 20
77.9642849325
 11
290.9179581389
 21
74.9341406964
  0
LINE
  5
324
100
AcDbEntity
  8
0
100
AcDbLine
 62
7
  6
CONTINUOUS
 10
211.7059966666
 20
57.3503405652
 11
197.9035123979
 21
54.2853483079
  0
LINE
  5
325
100
AcDbEntity
  8
0
100
AcDbLine
 62
7
  6
CONTINUOUS
 10
248.7884225867
 20
65.5941406964
 11
235.1435178616
 21
62.5641406964
  0
LINE
  5
326
100
AcDbEntity
  8
0
100
AcDbLine
 62
7
  6
CONTINUOUS
 10
309.4535161251
 20
92.8192487929
 11
312.6735161251
 21
93.5342849325
  0
LINE
  5
327
100
AcDbEntity
  8
0
100
AcDbLine
 62
7
  6
CONTINUOUS
 10
269.3941501982
 20
84.5026641627
 11
282.9463738624
 21
87.5120833217
  0
LINE
  5
328
100
AcDbEntity
  8
0
100
AcDbLine
 62
7
  6
CONTINUOUS
 10
314.3684018965
 20
99.6542849325
 11
300.7335161251
 21
96.6265097505
  0
LINE
  5
329
100
AcDbEntity
  8
0
100
AcDbLine
 62
7
  6
CONTINUOUS
 10
295.7696236837
 20
95.5326380649
 11
282.1321352459
 21
92.5042849325
  0
LINE
  5
32A
100
AcDbEntity
  8
0
100
AcDbLine
 62
7
  6
CONTINUOUS
 10
300.9835161251
 20
116.2174399989
 11
287.3135161251
 21
113.1818673193
  0
LINE
  5
32B
100
AcDbEntity
  8
0
100
AcDbLine
 62
7
  6
CONTINUOUS
 10
247.1286554049
 20
118.5882939331
 11
260.7555065222
 21
121.6142849325
  0
LINE
  5
32C
100
AcDbEntity
  8
0
100
AcDbLine
 62
7
  6
CONTINUOUS
 10
290.1465912868
 20
143.0542849325
 11
276.4735161251
 21
140.0180293796
  0
LINE
  5
32D
100
AcDbEntity
  8
0
100
AcDbLine
 62
7
  6
CONTINUOUS
 10
308.7435161251
 20
147.1842849325
 11
295.0735161251
 21
144.1487122528
  0
LINE
  5
32E
100
AcDbEntity
  8
0
100
AcDbLine
 62
7
  6
CONTINUOUS
 10
199.0417607356
 20
137.23454159
 11
212.7098021881
 21
140.2696793528
  0
LINE
  5
32F
100
AcDbEntity
  8
0
100
AcDbLine
 62
7
  6
CONTINUOUS
 10
327.6758621059
 20
186.2863245289
 11
225.1559709236
 21
163.5206639003
  0
LINE
  5
330
100
AcDbEntity
  8
0
100
AcDbLine
 62
7
  6
CONTINUOUS
 10
285.9818989473
 20
73.8422976533
 11
272.4291500404
 21
70.8352438036
  0
LINE
  5
331
100
AcDbEntity
  8
0
100
AcDbLine
 62
7
  6
CONTINUOUS
 10
340.5035161251
 20
85.9496610688
 11
338.9077747751
 21
85.5956015195
  0
LINE
  5
332
100
AcDbEntity
  8
0
100
AcDbLine
 62
7
  6
CONTINUOUS
 10
335.67175181
 20
84.8775999258
 11
334.0564089814
 21
84.5191912439
  0
LINE
  5
333
100
AcDbEntity
  8
0
100
AcDbLine
 62
7
  6
CONTINUOUS
 10
230.1596792775
 20
61.4741406964
 11
216.5035123979
 21
58.4441406964
  0
LINE
  5
334
100
AcDbEntity
  8
0
100
AcDbLine
 62
7
  6
CONTINUOUS
 10
317.1635123979
 20
80.9942849325
 11
315.5214710135
 21
80.6299524343
  0
LINE
  5
335
100
AcDbEntity
  8
0
100
AcDbLine
 62
7
  6
CONTINUOUS
 10
312.2727996058
 20
79.9142849325
 11
310.6635123979
 21
79.5572198583
  0
LINE
  5
336
100
AcDbEntity
  8
0
100
AcDbLine
 62
7
  6
CONTINUOUS
 10
315.1974305865
 20
89.8456598567
 11
316.7935161251
 21
90.1997957737
  0
LINE
  5
337
100
AcDbEntity
  8
0
100
AcDbLine
 62
7
  6
CONTINUOUS
 10
331.3435161251
 20
96.5943905943
 11
332.9835161251
 21
96.9582701546
  0
LINE
  5
338
100
AcDbEntity
  8
0
100
AcDbLine
 62
7
  6
CONTINUOUS
 10
336.1734599472
 20
97.8037365741
 11
337.8435161251
 21
98.1742849325
  0
LINE
  5
339
100
AcDbEntity
  8
0
100
AcDbLine
 62
7
  6
CONTINUOUS
 10
308.5896965847
 20
91.6886364449
 11
309.6517609649
 21
91.9242849325
  0
LINE
  5
33A
100
AcDbEntity
  8
0
100
AcDbLine
 62
7
  6
CONTINUOUS
 10
332.7835161251
 20
97.8552245078
 11
336.0035161251
 21
98.5696709616
  0
LINE
  5
33B
100
AcDbEntity
  8
0
100
AcDbLine
 62
7
  6
CONTINUOUS
 10
194.8735123979
 20
67.930253033
 11
208.6765316087
 21
70.9928363023
  0
LINE
  5
33C
100
AcDbEntity
  8
0
100
AcDbLine
 62
7
  6
CONTINUOUS
 10
232.1139735429
 20
76.2182538268
 11
245.7570240105
 21
79.2453435864
  0
LINE
  5
33D
100
AcDbEntity
  8
0
100
AcDbLine
 62
7
  6
CONTINUOUS
 10
315.7759010953
 20
94.786172231
 11
329.4435161251
 21
97.8187123212
  0
LINE
  5
33E
100
AcDbEntity
  8
0
100
AcDbLine
 62
7
  6
CONTINUOUS
 10
213.4735123979
 20
72.0890454216
 11
227.1320608549
 21
75.1195738407
  0
LINE
  5
33F
100
AcDbEntity
  8
0
100
AcDbLine
 62
7
  6
CONTINUOUS
 10
221.4078803617
 20
79.0177946002
 11
207.7245325548
 21
75.9817637564
  0
LINE
  5
340
100
AcDbEntity
  8
0
100
AcDbLine
 62
7
  6
CONTINUOUS
 10
335.3235161251
 20
104.2942849325
 11
321.6535161251
 21
101.2612156704
  0
LINE
  5
341
100
AcDbEntity
  8
0
100
AcDbLine
 62
7
  6
CONTINUOUS
 10
202.9153618091
 20
74.9177380244
 11
189.2640067801
 21
71.8888056671
  0
LINE
  5
342
100
AcDbEntity
  8
0
100
AcDbLine
 62
7
  6
CONTINUOUS
 10
277.3415233384
 20
91.4436926244
 11
263.539769847
 21
88.3813901901
  0
LINE
  5
343
100
AcDbEntity
  8
0
100
AcDbLine
 62
7
  6
CONTINUOUS
 10
279.1331423496
 20
106.0095563322
 11
292.7735161251
 21
109.0360521933
  0
LINE
  5
344
100
AcDbEntity
  8
0
100
AcDbLine
 62
7
  6
CONTINUOUS
 10
318.6235161251
 20
114.9173825501
 11
332.2935161251
 21
117.9504518121
  0
LINE
  5
345
100
AcDbEntity
  8
0
100
AcDbLine
 62
7
  6
CONTINUOUS
 10
297.7021318896
 20
110.2776480603
 11
311.3399283575
 21
113.3035720741
  0
LINE
  5
346
100
AcDbEntity
  8
0
100
AcDbLine
 62
7
  6
CONTINUOUS
 10
241.8888078482
 20
97.8960123877
 11
255.5786440731
 21
100.9334828674
  0
LINE
  5
347
100
AcDbEntity
  8
0
100
AcDbLine
 62
7
  6
CONTINUOUS
 10
223.2996430701
 20
93.773933787
 11
236.968625866
 21
96.806777354
  0
LINE
  5
348
100
AcDbEntity
  8
0
100
AcDbLine
 62
7
  6
CONTINUOUS
 10
204.6924517507
 20
89.6473087905
 11
218.3757995576
 21
92.6833396343
  0
LINE
  5
349
100
AcDbEntity
  8
0
100
AcDbLine
 62
7
  6
CONTINUOUS
 10
186.2286234496
 20
85.5692351406
 11
199.8775907933
 21
88.5976377236
  0
LINE
  5
34A
100
AcDbEntity
  8
0
100
AcDbLine
 62
7
  6
CONTINUOUS
 10
282.3877440377
 20
112.0641738921
 11
268.6945415107
 21
109.0259565049
  0
LINE
  5
34B
100
AcDbEntity
  8
0
100
AcDbLine
 62
7
  6
CONTINUOUS
 10
263.7900250151
 20
107.9377532694
 11
250.1626461779
 21
104.9141406964
  0
LINE
  5
34C
100
AcDbEntity
  8
0
100
AcDbLine
 62
7
  6
CONTINUOUS
 10
207.9895594027
 20
95.5568697978
 11
194.3027952456
 21
92.5200809418
  0
LINE
  5
34D
100
AcDbEntity
  8
0
100
AcDbLine
 62
7
  6
CONTINUOUS
 10
326.5535161251
 20
121.8642849325
 11
312.8859010953
 21
118.8317448423
  0
LINE
  5
34E
100
AcDbEntity
  8
0
100
AcDbLine
 62
7
  6
CONTINUOUS
 10
245.1823646455
 20
103.8215699374
 11
231.5377841403
 21
100.7941406964
  0
LINE
  5
34F
100
AcDbEntity
  8
0
100
AcDbLine
 62
7
  6
CONTINUOUS
 10
226.6025838008
 20
99.6991293978
 11
213.0266521011
 21
96.6869318015
  0
LINE
  5
350
100
AcDbEntity
  8
0
100
AcDbLine
 62
7
  6
CONTINUOUS
 10
191.2735123979
 20
106.1730156264
 11
204.9578936683
 21
109.2092757728
  0
LINE
  5
351
100
AcDbEntity
  8
0
100
AcDbLine
 62
7
  6
CONTINUOUS
 10
284.2860653129
 20
126.8265450456
 11
297.9565947039
 21
129.8597317678
  0
LINE
  5
352
100
AcDbEntity
  8
0
100
AcDbLine
 62
7
  6
CONTINUOUS
 10
309.8533610052
 20
132.4993598721
 11
323.520976035
 21
135.5318999622
  0
LINE
  5
353
100
AcDbEntity
  8
0
100
AcDbLine
 62
7
  6
CONTINUOUS
 10
228.5026364482
 20
114.4735081509
 11
242.1472169534
 21
117.5009373919
  0
LINE
  5
354
100
AcDbEntity
  8
0
100
AcDbLine
 62
7
  6
CONTINUOUS
 10
265.6591520894
 20
122.7177133796
 11
279.3499650465
 21
125.7554005744
  0
LINE
  5
355
100
AcDbEntity
  8
0
100
AcDbLine
 62
7
  6
CONTINUOUS
 10
209.8735123979
 20
110.8980875713
 11
223.4494440975
 21
113.9102851676
  0
LINE
  5
356
100
AcDbEntity
  8
0
100
AcDbLine
 62
7
  6
CONTINUOUS
 10
215.75914435
 20
126.5376716716
 11
202.0905731661
 21
123.5049194321
  0
LINE
  5
357
100
AcDbEntity
  8
0
100
AcDbLine
 62
7
  6
CONTINUOUS
 10
271.5520574206
 20
138.9254818534
 11
257.8785011654
 21
135.8916235374
  0
LINE
  5
358
100
AcDbEntity
  8
0
100
AcDbLine
 62
7
  6
CONTINUOUS
 10
234.3414931309
 20
130.7408143766
 11
220.5080872093
 21
127.6714889713
  0
LINE
  5
359
100
AcDbEntity
  8
0
100
AcDbLine
 62
7
  6
CONTINUOUS
 10
197.1401138602
 20
122.4866549054
 11
183.4735123979
 21
119.4543397034
  0
LINE
  5
35A
100
AcDbEntity
  8
0
100
AcDbLine
 62
7
  6
CONTINUOUS
 10
292.0395093604
 20
157.8116605167
 11
305.7124234781
 21
160.8453763567
  0
LINE
  5
35B
100
AcDbEntity
  8
0
100
AcDbLine
 62
7
  6
CONTINUOUS
 10
254.8450430231
 20
149.5633762152
 11
268.5185992783
 21
152.5972345312
  0
LINE
  5
35C
100
AcDbEntity
  8
0
100
AcDbLine
 62
7
  6
CONTINUOUS
 10
273.4375563455
 20
153.7010569013
 11
287.1111610172
 21
156.7349259599
  0
LINE
  5
35D
100
AcDbEntity
  8
0
100
AcDbLine
 62
7
  6
CONTINUOUS
 10
217.4834179855
 20
141.3036301182
 11
231.3168239071
 21
144.3729555235
  0
LINE
  5
35E
100
AcDbEntity
  8
0
100
AcDbLine
 62
7
  6
CONTINUOUS
 10
236.2479891218
 20
145.4670715175
 11
249.9145899596
 21
148.499386581
  0
LINE
  5
35F
100
AcDbEntity
  8
0
100
AcDbLine
 62
7
  6
CONTINUOUS
 10
180.4435123979
 20
133.110506583
 11
194.1101138602
 21
136.142821785
  0
LINE
  5
360
100
AcDbEntity
  8
0
100
AcDbLine
 62
7
  6
CONTINUOUS
 10
315.7335123979
 20
79.6742849325
 11
312.4858022752
 21
78.9542849325
  0
LINE
  5
361
100
AcDbEntity
  8
0
100
AcDbLine
 62
7
  6
CONTINUOUS
 10
267.4631267063
 20
69.7141406964
 11
253.8302003709
 21
66.6917936916
  0
LINE
  5
362
100
AcDbEntity
  8
0
100
AcDbLine
 62
7
  6
CONTINUOUS
 10
332.4703487599
 20
84.1454459414
 11
318.7935123979
 21
81.1133643181
  0
LINE
  5
363
100
AcDbEntity
  8
0
100
AcDbLine
 62
7
  6
CONTINUOUS
 10
317.7758792441
 20
85.69982246
 11
316.1971161416
 21
85.3498191066
  0
LINE
  5
364
100
AcDbEntity
  8
0
100
AcDbLine
 62
7
  6
CONTINUOUS
 10
330.4904082572
 20
93.1003843803
 11
332.0435161251
 21
93.4447001052
  0
LINE
  5
365
100
AcDbEntity
  8
0
100
AcDbLine
 62
7
  6
CONTINUOUS
 10
250.7946624285
 20
80.3842205019
 11
264.4251989845
 21
83.4060377054
  0
LINE
  5
366
100
AcDbEntity
  8
0
100
AcDbLine
 62
7
  6
CONTINUOUS
 10
258.6077270371
 20
87.2701725837
 11
244.919745371
 21
84.235620106
  0
LINE
  5
367
100
AcDbEntity
  8
0
100
AcDbLine
 62
7
  6
CONTINUOUS
 10
260.5109960974
 20
102.0320303763
 11
274.3132840615
 21
105.0919239502
  0
LINE
  5
368
100
AcDbEntity
  8
0
100
AcDbLine
 62
7
  6
CONTINUOUS
 10
339.0735123979
 20
84.8442849325
 11
335.8372401831
 21
84.1274132296
  0
LINE
  5
369
100
AcDbEntity
  8
0
100
AcDbLine
 62
7
  6
CONTINUOUS
 10
333.0435161251
 20
89.0842849325
 11
331.4535161251
 21
88.732081554
  0
LINE
  5
36A
100
AcDbEntity
  8
0
100
AcDbLine
 62
7
  6
CONTINUOUS
 10
239.9911715052
 20
83.1616851699
 11
226.3235123979
 21
80.1341406964
  0
LINE
  5
36B
100
AcDbEntity
  8
0
100
AcDbLine
 62
7
  6
CONTINUOUS
 10
481.583286396
 20
52.8142849325
 11
480.6035161251
 21
52.7930666312
  0
LINE
  5
36C
100
AcDbEntity
  8
0
100
AcDbLine
 62
7
  6
CONTINUOUS
 10
493.8832946218
 20
56.2272344293
 11
494.8030973217
 21
56.2462868069
  0
LINE
  5
36D
100
AcDbEntity
  8
0
100
AcDbLine
 62
7
  6
CONTINUOUS
 10
487.8527573605
 20
51.2082937062
 11
481.5831941619
 21
51.134284935
  0
LINE
  5
36E
100
AcDbEntity
  8
0
100
AcDbLine
 62
7
  6
CONTINUOUS
 10
494.8036140931
 20
52.9462868473
 11
493.8836696275
 21
52.936178421
  0
LINE
  5
36F
100
AcDbEntity
  8
0
100
AcDbLine
 62
7
  6
CONTINUOUS
 10
494.8034930898
 20
114.8229334268
 11
493.8835474393
 21
114.8129334232
  0
LINE
  5
370
100
AcDbEntity
  8
0
100
AcDbLine
 62
7
  6
CONTINUOUS
 10
490.6532682528
 20
57.8745805859
 11
493.8831031909
 21
57.9072344184
  0
LINE
  5
371
100
AcDbEntity
  8
0
100
AcDbLine
 62
7
  6
CONTINUOUS
 10
495.3531089687
 20
59.5423417966
 11
490.6533516488
 21
59.4945805837
  0
LINE
  5
372
100
AcDbEntity
  8
0
100
AcDbLine
 62
7
  6
CONTINUOUS
 10
480.6035161251
 20
56.0930666312
 11
481.5834669442
 21
56.1028845813
  0
LINE
  5
373
100
AcDbEntity
  8
0
100
AcDbLine
 62
7
  6
CONTINUOUS
 10
481.5834918475
 20
57.7828845811
 11
486.0532658403
 21
57.8278340364
  0
LINE
  5
374
100
AcDbEntity
  8
0
100
AcDbLine
 62
7
  6
CONTINUOUS
 10
480.6035161251
 20
80.0142849325
 11
481.5834774724
 21
80.0229888292
  0
LINE
  5
375
100
AcDbEntity
  8
0
100
AcDbLine
 62
7
  6
CONTINUOUS
 10
481.3535161251
 20
73.4206781798
 11
486.0533381167
 21
73.4615835267
  0
LINE
  5
376
100
AcDbEntity
  8
0
100
AcDbLine
 62
7
  6
CONTINUOUS
 10
490.6533359118
 20
73.5014980811
 11
495.3531584394
 21
73.5423417966
  0
LINE
  5
377
100
AcDbEntity
  8
0
100
AcDbLine
 62
7
  6
CONTINUOUS
 10
481.5834791202
 20
76.7228012817
 11
480.6035161251
 21
76.7142849325
  0
LINE
  5
378
100
AcDbEntity
  8
0
100
AcDbLine
 62
7
  6
CONTINUOUS
 10
481.5834644849
 20
81.6929888292
 11
487.8532281009
 21
81.7474332918
  0
LINE
  5
379
100
AcDbEntity
  8
0
100
AcDbLine
 62
7
  6
CONTINUOUS
 10
487.8532092239
 20
82.6274332916
 11
490.6531036672
 21
82.6517459745
  0
LINE
  5
37A
100
AcDbEntity
  8
0
100
AcDbLine
 62
7
  6
CONTINUOUS
 10
493.8831239864
 20
75.1595246039
 11
490.653245581
 21
75.1314980786
  0
LINE
  5
37B
100
AcDbEntity
  8
0
100
AcDbLine
 62
7
  6
CONTINUOUS
 10
486.0533478823
 20
75.0915835267
 11
481.5835161251
 21
75.0528012821
  0
LINE
  5
37C
100
AcDbEntity
  8
0
100
AcDbLine
 62
7
  6
CONTINUOUS
 10
494.8030540758
 20
76.8374726245
 11
493.8830884085
 21
76.8295246036
  0
LINE
  5
37D
100
AcDbEntity
  8
0
100
AcDbLine
 62
7
  6
CONTINUOUS
 10
490.6530497261
 20
81.7717459762
 11
493.8829287922
 21
81.7996962589
  0
LINE
  5
37E
100
AcDbEntity
  8
0
100
AcDbLine
 62
7
  6
CONTINUOUS
 10
493.882982424
 20
80.1296962598
 11
494.8029495583
 21
80.1374726228
  0
LINE
  5
37F
100
AcDbEntity
  8
0
100
AcDbLine
 62
7
  6
CONTINUOUS
 10
490.653754054
 20
50.3505339039
 11
487.8538423763
 21
50.3282943751
  0
LINE
  5
380
100
AcDbEntity
  8
0
100
AcDbLine
 62
7
  6
CONTINUOUS
 10
493.8837809209
 20
51.2561784247
 11
490.6538827246
 21
51.2305338945
  0
LINE
  5
381
100
AcDbEntity
  8
0
100
AcDbLine
 62
7
  6
CONTINUOUS
 10
486.0534376734
 20
59.4478340273
 11
481.3535161251
 21
59.4206781798
  0
LINE
  5
382
100
AcDbEntity
  8
0
100
AcDbLine
 62
7
  6
CONTINUOUS
 10
456.8735123986
 20
56.384786192
 11
456.0035161251
 21
56.3822397917
  0
LINE
  5
383
100
AcDbEntity
  8
0
100
AcDbLine
 62
7
  6
CONTINUOUS
 10
480.6035161251
 20
118.1129334232
 11
481.5835151932
 21
118.1142849325
  0
LINE
  5
384
100
AcDbEntity
  8
0
100
AcDbLine
 62
7
  6
CONTINUOUS
 10
481.5835161251
 20
119.7842849325
 11
487.8535101605
 21
119.7929334232
  0
LINE
  5
385
100
AcDbEntity
  8
0
100
AcDbLine
 62
7
  6
CONTINUOUS
 10
427.139486003
 20
50.113956642
 11
425.4594869568
 21
50.1121664013
  0
LINE
  5
386
100
AcDbEntity
  8
0
100
AcDbLine
 62
7
  6
CONTINUOUS
 10
490.653180258
 20
88.372912574
 11
487.853182011
 21
88.3697793873
  0
LINE
  5
387
100
AcDbEntity
  8
0
100
AcDbLine
 62
7
  6
CONTINUOUS
 10
487.8531965809
 20
89.2497793872
 11
481.5832005064
 21
89.24276328
  0
LINE
  5
388
100
AcDbEntity
  8
0
100
AcDbLine
 62
7
  6
CONTINUOUS
 10
493.8834141048
 20
94.2167886123
 11
494.8034140612
 21
94.2170717925
  0
LINE
  5
389
100
AcDbEntity
  8
0
100
AcDbLine
 62
7
  6
CONTINUOUS
 10
490.6535159135
 20
95.8957946244
 11
493.8835157606
 21
95.8967886092
  0
LINE
  5
38A
100
AcDbEntity
  8
0
100
AcDbLine
 62
7
  6
CONTINUOUS
 10
481.5835161251
 20
95.8930040116
 11
486.0535159135
 21
95.8943793898
  0
LINE
  5
38B
100
AcDbEntity
  8
0
100
AcDbLine
 62
7
  6
CONTINUOUS
 10
486.0535159027
 20
97.5143793898
 11
481.3535161251
 21
97.5129334232
  0
LINE
  5
38C
100
AcDbEntity
  8
0
100
AcDbLine
 62
7
  6
CONTINUOUS
 10
164.1635125169
 20
28.6441406964
 11
178.1635123979
 21
28.6459663214
  0
LINE
  5
38D
100
AcDbEntity
  8
0
100
AcDbLine
 62
7
  6
CONTINUOUS
 10
449.2337207754
 20
54.5846073952
 11
447.613720843
 21
54.5841394698
  0
LINE
  5
38E
100
AcDbEntity
  8
0
100
AcDbLine
 62
7
  6
CONTINUOUS
 10
178.1653382609
 20
14.6441406964
 11
164.1653382609
 21
14.6441406964
  0
LINE
  5
38F
100
AcDbEntity
  8
0
100
AcDbLine
 62
7
  6
CONTINUOUS
 10
366.485919729
 20
34.8842849325
 11
495.3535161251
 21
34.8842849325
  0
LINE
  5
390
100
AcDbEntity
  8
0
100
AcDbLine
 62
7
  6
CONTINUOUS
 10
454.1367456579
 20
49.1352232389
 11
450.8367456589
 21
49.135140338
  0
LINE
  5
391
100
AcDbEntity
  8
0
100
AcDbLine
 62
7
  6
CONTINUOUS
 10
447.7068240473
 20
49.8850617099
 11
433.7068240671
 21
49.8843164669
  0
LINE
  5
392
100
AcDbEntity
  8
0
100
AcDbLine
 62
7
  6
CONTINUOUS
 10
476.3035161251
 20
49.8842849325
 11
462.3035161251
 21
49.8842849325
  0
LINE
  5
393
100
AcDbEntity
  8
0
100
AcDbLine
 62
7
  6
CONTINUOUS
 10
409.6235123979
 20
49.8842849325
 11
395.6235123979
 21
49.8842849325
  0
LINE
  5
394
100
AcDbEntity
  8
0
100
AcDbLine
 62
7
  6
CONTINUOUS
 10
390.5735123979
 20
49.8842849325
 11
376.5735123979
 21
49.8842849325
  0
LINE
  5
395
100
AcDbEntity
  8
0
100
AcDbLine
 62
7
  6
CONTINUOUS
 10
371.5235123979
 20
49.8842849325
 11
357.5235123979
 21
49.8842849325
  0
LINE
  5
396
100
AcDbEntity
  8
0
100
AcDbLine
 62
7
  6
CONTINUOUS
 10
432.0874084711
 20
50.1142302631
 11
430.4074084737
 21
50.1141373588
  0
LINE
  5
397
100
AcDbEntity
  8
0
100
AcDbLine
 62
7
  6
CONTINUOUS
 10
450.8506479396
 20
50.1150417242
 11
449.1706479396
 21
50.1150524042
  0
LINE
  5
398
100
AcDbEntity
  8
0
100
AcDbLine
 62
7
  6
CONTINUOUS
 10
433.7190020981
 20
54.5843006898
 11
432.0990021004
 21
54.5842152282
  0
LINE
  5
399
100
AcDbEntity
  8
0
100
AcDbLine
 62
7
  6
CONTINUOUS
 10
456.0035161281
 20
59.1847135731
 11
456.8735161251
 21
59.184786192
  0
LINE
  5
39A
100
AcDbEntity
  8
0
100
AcDbLine
 62
7
  6
CONTINUOUS
 10
424.5708385877
 20
59.1842869409
 11
425.4508385877
 21
59.1842973091
  0
LINE
  5
39B
100
AcDbEntity
  8
0
100
AcDbLine
 62
7
  6
CONTINUOUS
 10
432.1109322755
 20
59.1842960527
 11
433.7309322755
 21
59.1843007243
  0
LINE
  5
39C
100
AcDbEntity
  8
0
100
AcDbLine
 62
7
  6
CONTINUOUS
 10
454.3335161374
 20
62.4145741371
 11
456.0035161316
 21
62.4147135731
  0
LINE
  5
39D
100
AcDbEntity
  8
0
100
AcDbLine
 62
7
  6
CONTINUOUS
 10
449.3429842605
 20
62.4142849325
 11
451.0229842577
 21
62.4143822896
  0
LINE
  5
39E
100
AcDbEntity
  8
0
100
AcDbLine
 62
7
  6
CONTINUOUS
 10
425.4592921327
 20
62.4142862468
 11
427.1392921327
 21
62.4142880791
  0
LINE
  5
39F
100
AcDbEntity
  8
0
100
AcDbLine
 62
7
  6
CONTINUOUS
 10
430.4393091579
 20
62.4142854567
 11
432.1193091579
 21
62.4142851901
  0
LINE
  5
3A0
100
AcDbEntity
  8
0
100
AcDbLine
 62
7
  6
CONTINUOUS
 10
451.0363681139
 20
63.3342849325
 11
454.3363681016
 21
63.3345697166
  0
LINE
  5
3A1
100
AcDbEntity
  8
0
100
AcDbLine
 62
7
  6
CONTINUOUS
 10
427.1416983156
 20
63.3342849325
 11
430.4416983156
 21
63.3342823545
  0
LINE
  5
3A2
100
AcDbEntity
  8
0
100
AcDbLine
 62
7
  6
CONTINUOUS
 10
357.5235123979
 20
63.8842849325
 11
371.5235123979
 21
63.8842849325
  0
LINE
  5
3A3
100
AcDbEntity
  8
0
100
AcDbLine
 62
7
  6
CONTINUOUS
 10
376.5735123979
 20
63.8842849325
 11
390.5735123979
 21
63.8842849325
  0
LINE
  5
3A4
100
AcDbEntity
  8
0
100
AcDbLine
 62
7
  6
CONTINUOUS
 10
395.6235123979
 20
63.8842849325
 11
409.6235123979
 21
63.8842849325
  0
LINE
  5
3A5
100
AcDbEntity
  8
0
100
AcDbLine
 62
7
  6
CONTINUOUS
 10
433.7431159734
 20
63.8842849325
 11
447.7431159734
 21
63.8842849325
  0
LINE
  5
3A6
100
AcDbEntity
  8
0
100
AcDbLine
 62
7
  6
CONTINUOUS
 10
462.3035161251
 20
63.8842849325
 11
476.3035161251
 21
63.8842849325
  0
LINE
  5
3A7
100
AcDbEntity
  8
0
100
AcDbLine
 62
7
  6
CONTINUOUS
 10
476.3035161251
 20
68.9342849325
 11
462.3035161251
 21
68.9342849325
  0
LINE
  5
3A8
100
AcDbEntity
  8
0
100
AcDbLine
 62
7
  6
CONTINUOUS
 10
457.2535161251
 20
68.9342849325
 11
443.2535161251
 21
68.9342849325
  0
LINE
  5
3A9
100
AcDbEntity
  8
0
100
AcDbLine
 62
7
  6
CONTINUOUS
 10
438.2035161251
 20
68.9342849325
 11
424.2035161251
 21
68.9342849325
  0
LINE
  5
3AA
100
AcDbEntity
  8
0
100
AcDbLine
 62
7
  6
CONTINUOUS
 10
390.5735123979
 20
68.9342849325
 11
376.5735123979
 21
68.9342849325
  0
LINE
  5
3AB
100
AcDbEntity
  8
0
100
AcDbLine
 62
7
  6
CONTINUOUS
 10
376.5735123979
 20
82.9342849325
 11
390.5735123979
 21
82.9342849325
  0
LINE
  5
3AC
100
AcDbEntity
  8
0
100
AcDbLine
 62
7
  6
CONTINUOUS
 10
424.2035161251
 20
82.9342849325
 11
438.2035161251
 21
82.9342849325
  0
LINE
  5
3AD
100
AcDbEntity
  8
0
100
AcDbLine
 62
7
  6
CONTINUOUS
 10
443.2535161251
 20
82.9342849325
 11
457.2535161251
 21
82.9342849325
  0
LINE
  5
3AE
100
AcDbEntity
  8
0
100
AcDbLine
 62
7
  6
CONTINUOUS
 10
462.3035161251
 20
82.9342849325
 11
476.3035161251
 21
82.9342849325
  0
LINE
  5
3AF
100
AcDbEntity
  8
0
100
AcDbLine
 62
7
  6
CONTINUOUS
 10
476.3035161251
 20
87.9842849325
 11
462.3035161251
 21
87.9842849325
  0
LINE
  5
3B0
100
AcDbEntity
  8
0
100
AcDbLine
 62
7
  6
CONTINUOUS
 10
457.2535161251
 20
87.9842849325
 11
443.2535161251
 21
87.9842849325
  0
LINE
  5
3B1
100
AcDbEntity
  8
0
100
AcDbLine
 62
7
  6
CONTINUOUS
 10
438.2035161251
 20
87.9842849325
 11
424.2035161251
 21
87.9842849325
  0
LINE
  5
3B2
100
AcDbEntity
  8
0
100
AcDbLine
 62
7
  6
CONTINUOUS
 10
481.5833741529
 20
90.922763271
 11
480.6033741548
 21
90.9227021956
  0
LINE
  5
3B3
100
AcDbEntity
  8
0
100
AcDbLine
 62
7
  6
CONTINUOUS
 10
424.2035161251
 20
101.9842849325
 11
438.2035161251
 21
101.9842849325
  0
LINE
  5
3B4
100
AcDbEntity
  8
0
100
AcDbLine
 62
7
  6
CONTINUOUS
 10
443.2535161251
 20
101.9842849325
 11
457.2535161251
 21
101.9842849325
  0
LINE
  5
3B5
100
AcDbEntity
  8
0
100
AcDbLine
 62
7
  6
CONTINUOUS
 10
462.3035161251
 20
101.9842849325
 11
476.3035161251
 21
101.9842849325
  0
LINE
  5
3B6
100
AcDbEntity
  8
0
100
AcDbLine
 62
7
  6
CONTINUOUS
 10
476.3035161251
 20
107.0342849325
 11
462.3035161251
 21
107.0342849325
  0
LINE
  5
3B7
100
AcDbEntity
  8
0
100
AcDbLine
 62
7
  6
CONTINUOUS
 10
457.2535161251
 20
107.0342849325
 11
443.2535161251
 21
107.0342849325
  0
LINE
  5
3B8
100
AcDbEntity
  8
0
100
AcDbLine
 62
7
  6
CONTINUOUS
 10
438.2035161251
 20
107.0342849325
 11
424.2035161251
 21
107.0342849325
  0
LINE
  5
3B9
100
AcDbEntity
  8
0
100
AcDbLine
 62
7
  6
CONTINUOUS
 10
409.6335161251
 20
107.0342849325
 11
395.6335161251
 21
107.0342849325
  0
LINE
  5
3BA
100
AcDbEntity
  8
0
100
AcDbLine
 62
7
  6
CONTINUOUS
 10
390.5835161251
 20
107.0342849325
 11
376.5835161251
 21
107.0342849325
  0
LINE
  5
3BB
100
AcDbEntity
  8
0
100
AcDbLine
 62
7
  6
CONTINUOUS
 10
371.5335161251
 20
107.0342849325
 11
357.5335161251
 21
107.0342849325
  0
LINE
  5
3BC
100
AcDbEntity
  8
0
100
AcDbLine
 62
7
  6
CONTINUOUS
 10
481.3535161251
 20
111.5129334232
 11
486.0535161251
 21
111.5129334232
  0
LINE
  5
3BD
100
AcDbEntity
  8
0
100
AcDbLine
 62
7
  6
CONTINUOUS
 10
490.6535161251
 20
111.5129334232
 11
495.3535161251
 21
111.5129334232
  0
LINE
  5
3BE
100
AcDbEntity
  8
0
100
AcDbLine
 62
7
  6
CONTINUOUS
 10
493.8835047814
 20
113.1429334237
 11
490.6535047814
 21
113.1429334232
  0
LINE
  5
3BF
100
AcDbEntity
  8
0
100
AcDbLine
 62
7
  6
CONTINUOUS
 10
486.0535161251
 20
113.1429334232
 11
481.5835161251
 21
113.1429334232
  0
LINE
  5
3C0
100
AcDbEntity
  8
0
100
AcDbLine
 62
7
  6
CONTINUOUS
 10
481.5835161251
 20
114.8129334232
 11
480.6035161251
 21
114.8129334232
  0
LINE
  5
3C1
100
AcDbEntity
  8
0
100
AcDbLine
 62
7
  6
CONTINUOUS
 10
493.8836319888
 20
118.1229334234
 11
494.8036319888
 21
118.1229334239
  0
LINE
  5
3C2
100
AcDbEntity
  8
0
100
AcDbLine
 62
7
  6
CONTINUOUS
 10
490.6537022764
 20
119.7929334226
 11
493.8837022764
 21
119.792933422
  0
LINE
  5
3C3
100
AcDbEntity
  8
0
100
AcDbLine
 62
7
  6
CONTINUOUS
 10
487.8537393088
 20
120.6729333933
 11
490.6537393088
 21
120.6729334218
  0
LINE
  5
3C4
100
AcDbEntity
  8
0
100
AcDbLine
 62
7
  6
CONTINUOUS
 10
357.5335161251
 20
121.0342849325
 11
371.5335161251
 21
121.0342849325
  0
LINE
  5
3C5
100
AcDbEntity
  8
0
100
AcDbLine
 62
7
  6
CONTINUOUS
 10
376.5835161251
 20
121.0342849325
 11
390.5835161251
 21
121.0342849325
  0
LINE
  5
3C6
100
AcDbEntity
  8
0
100
AcDbLine
 62
7
  6
CONTINUOUS
 10
395.6335161251
 20
121.0342849325
 11
409.6335161251
 21
121.0342849325
  0
LINE
  5
3C7
100
AcDbEntity
  8
0
100
AcDbLine
 62
7
  6
CONTINUOUS
 10
424.2035161251
 20
121.0342849325
 11
438.2035161251
 21
121.0342849325
  0
LINE
  5
3C8
100
AcDbEntity
  8
0
100
AcDbLine
 62
7
  6
CONTINUOUS
 10
443.2535161251
 20
121.0342849325
 11
457.2535161251
 21
121.0342849325
  0
LINE
  5
3C9
100
AcDbEntity
  8
0
100
AcDbLine
 62
7
  6
CONTINUOUS
 10
462.3035161251
 20
121.0342849325
 11
476.3035161251
 21
121.0342849325
  0
LINE
  5
3CA
100
AcDbEntity
  8
0
100
AcDbLine
 62
7
  6
CONTINUOUS
 10
495.3535161251
 20
126.0842849325
 11
481.3535161251
 21
126.0842849325
  0
LINE
  5
3CB
100
AcDbEntity
  8
0
100
AcDbLine
 62
7
  6
CONTINUOUS
 10
476.3035161251
 20
126.0842849325
 11
462.3035161251
 21
126.0842849325
  0
LINE
  5
3CC
100
AcDbEntity
  8
0
100
AcDbLine
 62
7
  6
CONTINUOUS
 10
457.2535161251
 20
126.0842849325
 11
443.2535161251
 21
126.0842849325
  0
LINE
  5
3CD
100
AcDbEntity
  8
0
100
AcDbLine
 62
7
  6
CONTINUOUS
 10
438.2035161251
 20
126.0842849325
 11
424.2035161251
 21
126.0842849325
  0
LINE
  5
3CE
100
AcDbEntity
  8
0
100
AcDbLine
 62
7
  6
CONTINUOUS
 10
409.6335161251
 20
126.0842849325
 11
395.6335161251
 21
126.0842849325
  0
LINE
  5
3CF
100
AcDbEntity
  8
0
100
AcDbLine
 62
7
  6
CONTINUOUS
 10
390.5835161251
 20
126.0842849325
 11
376.5835161251
 21
126.0842849325
  0
LINE
  5
3D0
100
AcDbEntity
  8
0
100
AcDbLine
 62
7
  6
CONTINUOUS
 10
371.5335161251
 20
126.0842849325
 11
357.5335161251
 21
126.0842849325
  0
LINE
  5
3D1
100
AcDbEntity
  8
0
100
AcDbLine
 62
7
  6
CONTINUOUS
 10
357.5335161251
 20
140.0842849325
 11
371.5335161251
 21
140.0842849325
  0
LINE
  5
3D2
100
AcDbEntity
  8
0
100
AcDbLine
 62
7
  6
CONTINUOUS
 10
376.5835161251
 20
140.0842849325
 11
390.5835161251
 21
140.0842849325
  0
LINE
  5
3D3
100
AcDbEntity
  8
0
100
AcDbLine
 62
7
  6
CONTINUOUS
 10
395.6335161251
 20
140.0842849325
 11
409.6335161251
 21
140.0842849325
  0
LINE
  5
3D4
100
AcDbEntity
  8
0
100
AcDbLine
 62
7
  6
CONTINUOUS
 10
424.2035161251
 20
140.0842849325
 11
438.2035161251
 21
140.0842849325
  0
LINE
  5
3D5
100
AcDbEntity
  8
0
100
AcDbLine
 62
7
  6
CONTINUOUS
 10
443.2535161251
 20
140.0842849325
 11
457.2535161251
 21
140.0842849325
  0
LINE
  5
3D6
100
AcDbEntity
  8
0
100
AcDbLine
 62
7
  6
CONTINUOUS
 10
462.3035161251
 20
140.0842849325
 11
476.3035161251
 21
140.0842849325
  0
LINE
  5
3D7
100
AcDbEntity
  8
0
100
AcDbLine
 62
7
  6
CONTINUOUS
 10
481.3535161251
 20
140.0842849325
 11
495.3535161251
 21
140.0842849325
  0
LINE
  5
3D8
100
AcDbEntity
  8
0
100
AcDbLine
 62
7
  6
CONTINUOUS
 10
409.6335161251
 20
154.6642849325
 11
395.6335161251
 21
154.6642849325
  0
LINE
  5
3D9
100
AcDbEntity
  8
0
100
AcDbLine
 62
7
  6
CONTINUOUS
 10
390.5835161251
 20
154.6642849325
 11
376.5835161251
 21
154.6642849325
  0
LINE
  5
3DA
100
AcDbEntity
  8
0
100
AcDbLine
 62
7
  6
CONTINUOUS
 10
371.5335161251
 20
154.6642849325
 11
357.5335161251
 21
154.6642849325
  0
LINE
  5
3DB
100
AcDbEntity
  8
0
100
AcDbLine
 62
7
  6
CONTINUOUS
 10
357.5335161251
 20
168.6642849325
 11
371.5335161251
 21
168.6642849325
  0
LINE
  5
3DC
100
AcDbEntity
  8
0
100
AcDbLine
 62
7
  6
CONTINUOUS
 10
376.5835161251
 20
168.6642849325
 11
390.5835161251
 21
168.6642849325
  0
LINE
  5
3DD
100
AcDbEntity
  8
0
100
AcDbLine
 62
7
  6
CONTINUOUS
 10
395.6335161251
 20
168.6642849325
 11
409.6335161251
 21
168.6642849325
  0
LINE
  5
3DE
100
AcDbEntity
  8
0
100
AcDbLine
 62
7
  6
CONTINUOUS
 10
495.3535161251
 20
188.6642849325
 11
349.35390134
 21
188.6642849325
  0
LINE
  5
3DF
100
AcDbEntity
  8
0
100
AcDbLine
 62
7
  6
CONTINUOUS
 10
430.4048507826
 20
49.1341406964
 11
427.1048508104
 21
49.1345688723
  0
LINE
  5
3E0
100
AcDbEntity
  8
0
100
AcDbLine
 62
7
  6
CONTINUOUS
 10
455.8433852952
 20
50.1142849325
 11
454.1733853143
 21
50.1145380686
  0
LINE
  5
3E1
100
AcDbEntity
  8
0
100
AcDbLine
 62
7
  6
CONTINUOUS
 10
447.6777300866
 20
59.1847397752
 11
449.2977300807
 21
59.1846019667
  0
LINE
  5
3E2
100
AcDbEntity
  8
0
100
AcDbLine
 62
7
  6
CONTINUOUS
 10
495.3536135552
 20
97.5129334235
 11
490.6536144261
 21
97.5157946215
  0
LINE
  5
3E3
100
AcDbEntity
  8
0
100
AcDbLine
 62
7
  6
CONTINUOUS
 10
493.88318573
 20
89.2465286217
 11
490.6531920388
 21
89.2529125739
  0
LINE
  5
3E4
100
AcDbEntity
  8
0
100
AcDbLine
 62
7
  6
CONTINUOUS
 10
425.453509833
 20
56.3821635523
 11
424.5735123979
 21
56.3842882175
  0
LINE
  5
3E5
100
AcDbEntity
  8
0
100
AcDbLine
 62
7
  6
CONTINUOUS
 10
480.6035161251
 20
94.2227021926
 11
481.5834681368
 21
94.2130040123
  0
LINE
  5
3E6
100
AcDbEntity
  8
0
100
AcDbLine
 62
7
  6
CONTINUOUS
 10
494.8032143177
 20
90.9170717985
 11
493.8832629231
 21
90.9265286199
  0
LINE
  5
3E7
100
AcDbEntity
  8
0
100
AcDbLine
 62
7
  6
CONTINUOUS
 10
164.1647253124
 20
19.3441406564
 11
122.0028416971
 21
24.9641406964
  0
LINE
  5
3E8
100
AcDbEntity
  8
0
100
AcDbLine
 62
7
  6
CONTINUOUS
 10
122.9920918301
 20
29.4541406964
 11
164.1641254053
 21
23.9441407364
  0
LINE
  5
3E9
100
AcDbEntity
  8
0
100
AcDbLine
 62
7
  6
CONTINUOUS
 10
115.206955422
 20
29.3241406964
 11
116.0220784266
 21
29.1441406964
  0
LINE
  5
3EA
100
AcDbEntity
  8
0
100
AcDbLine
 62
7
  6
CONTINUOUS
 10
25.4753382609
 20
62.5513279945
 11
23.8353382609
 21
62.913706219
  0
LINE
  5
3EB
100
AcDbEntity
  8
0
100
AcDbLine
 62
7
  6
CONTINUOUS
 10
19.4353382609
 20
70.1014193872
 11
20.2853382609
 21
69.913601405
  0
LINE
  5
3EC
100
AcDbEntity
  8
0
100
AcDbLine
 62
7
  6
CONTINUOUS
 10
115.4605860639
 20
26.4041406964
 11
114.6016025924
 21
26.5941406964
  0
LINE
  5
3ED
100
AcDbEntity
  8
0
100
AcDbLine
 62
7
  6
CONTINUOUS
 10
122.3332979101
 20
34.1841406964
 11
123.9594995421
 21
33.8241406964
  0
LINE
  5
3EE
100
AcDbEntity
  8
0
100
AcDbLine
 62
7
  6
CONTINUOUS
 10
119.2641041135
 20
35.8706681691
 11
122.5459934516
 21
35.1441406964
  0
LINE
  5
3EF
100
AcDbEntity
  8
0
100
AcDbLine
 62
7
  6
CONTINUOUS
 10
145.0227407011
 20
34.561644756
 11
131.3242689027
 21
37.5941406964
  0
LINE
  5
3F0
100
AcDbEntity
  8
0
100
AcDbLine
 62
7
  6
CONTINUOUS
 10
49.0697418983
 20
57.4041406964
 11
47.4432001273
 21
57.7641406964
  0
LINE
  5
3F1
100
AcDbEntity
  8
0
100
AcDbLine
 62
7
  6
CONTINUOUS
 10
50.6276863753
 20
60.3641406964
 11
49.769233774
 21
60.5541406964
  0
LINE
  5
3F2
100
AcDbEntity
  8
0
100
AcDbLine
 62
7
  6
CONTINUOUS
 10
78.5270599502
 20
63.6322819025
 11
92.205860426
 21
60.6041406964
  0
LINE
  5
3F3
100
AcDbEntity
  8
0
100
AcDbLine
 62
7
  6
CONTINUOUS
 10
101.3638368991
 20
24.7241406964
 11
87.6879507988
 21
27.7541406964
  0
LINE
  5
3F4
100
AcDbEntity
  8
0
100
AcDbLine
 62
7
  6
CONTINUOUS
 10
116.4338250971
 20
22.8841406964
 11
114.7638323038
 21
23.2541406964
  0
LINE
  5
3F5
100
AcDbEntity
  8
0
100
AcDbLine
 62
7
  6
CONTINUOUS
 10
121.3049344938
 20
21.8141406964
 11
119.6800766408
 21
22.1741406964
  0
LINE
  5
3F6
100
AcDbEntity
  8
0
100
AcDbLine
 62
7
  6
CONTINUOUS
 10
90.716646687
 20
41.4241406964
 11
104.3925327874
 21
38.3941406964
  0
LINE
  5
3F7
100
AcDbEntity
  8
0
100
AcDbLine
 62
7
  6
CONTINUOUS
 10
107.8150253502
 20
42.8041406964
 11
94.1391392499
 21
45.8341406964
  0
LINE
  5
3F8
100
AcDbEntity
  8
0
100
AcDbLine
 62
7
  6
CONTINUOUS
 10
89.1771645378
 20
46.9341406964
 11
75.5012784375
 21
49.9641406964
  0
LINE
  5
3F9
100
AcDbEntity
  8
0
100
AcDbLine
 62
7
  6
CONTINUOUS
 10
126.4222029621
 20
38.6841406964
 11
112.7463168618
 21
41.7141406964
  0
LINE
  5
3FA
100
AcDbEntity
  8
0
100
AcDbLine
 62
7
  6
CONTINUOUS
 10
23.6353382609
 20
62.0152755768
 11
20.4153382609
 21
62.728542796
  0
LINE
  5
3FB
100
AcDbEntity
  8
0
100
AcDbLine
 62
7
  6
CONTINUOUS
 10
42.4253382609
 20
66.8341406964
 11
44.0053912475
 21
66.4841406964
  0
LINE
  5
3FC
100
AcDbEntity
  8
0
100
AcDbLine
 62
7
  6
CONTINUOUS
 10
134.3506303994
 20
51.2649018218
 11
148.0509584159
 21
48.2294865233
  0
LINE
  5
3FD
100
AcDbEntity
  8
0
100
AcDbLine
 62
7
  6
CONTINUOUS
 10
97.1678351381
 20
59.5041406964
 11
110.8437212384
 21
56.4741406964
  0
LINE
  5
3FE
100
AcDbEntity
  8
0
100
AcDbLine
 62
7
  6
CONTINUOUS
 10
115.7726268849
 20
55.3846693036
 11
129.4508988504
 21
52.3541406964
  0
LINE
  5
3FF
100
AcDbEntity
  8
0
100
AcDbLine
 62
7
  6
CONTINUOUS
 10
59.9781581285
 20
67.7493736104
 11
73.6353818457
 21
64.7241406964
  0
LINE
  5
400
100
AcDbEntity
  8
0
100
AcDbLine
 62
7
  6
CONTINUOUS
 10
29.7753382609
 20
74.5426821228
 11
43.4613334874
 21
71.511075987
  0
LINE
  5
401
100
AcDbEntity
  8
0
100
AcDbLine
 62
7
  6
CONTINUOUS
 10
23.4953382609
 20
76.6775218249
 11
26.7153382609
 21
75.9642546056
  0
LINE
  5
402
100
AcDbEntity
  8
0
100
AcDbLine
 62
7
  6
CONTINUOUS
 10
121.2309113713
 20
59.3441406964
 11
107.555025271
 21
62.3741406964
  0
LINE
  5
403
100
AcDbEntity
  8
0
100
AcDbLine
 62
7
  6
CONTINUOUS
 10
139.8400459549
 20
55.2262558353
 11
126.1737065207
 21
58.2541406964
  0
LINE
  5
404
100
AcDbEntity
  8
0
100
AcDbLine
 62
7
  6
CONTINUOUS
 10
65.464082688
 20
71.7141406964
 11
51.7853382609
 21
74.7441406964
  0
LINE
  5
405
100
AcDbEntity
  8
0
100
AcDbLine
 62
7
  6
CONTINUOUS
 10
129.2009984781
 20
71.9178040631
 11
142.8673379123
 21
68.889919202
  0
LINE
  5
406
100
AcDbEntity
  8
0
100
AcDbLine
 62
7
  6
CONTINUOUS
 10
54.8153382609
 20
88.4228851235
 11
68.4964700793
 21
85.3923562888
  0
LINE
  5
407
100
AcDbEntity
  8
0
100
AcDbLine
 62
7
  6
CONTINUOUS
 10
110.5918353745
 20
76.0807641565
 11
124.2677214749
 21
73.0507641565
  0
LINE
  5
408
100
AcDbEntity
  8
0
100
AcDbLine
 62
7
  6
CONTINUOUS
 10
64.8358835575
 20
91.0010226431
 11
51.2653382609
 21
94.007055285
  0
LINE
  5
409
100
AcDbEntity
  8
0
100
AcDbLine
 62
7
  6
CONTINUOUS
 10
102.1214501162
 20
83.0895067251
 11
88.4527773629
 21
86.1172757329
  0
LINE
  5
40A
100
AcDbEntity
  8
0
100
AcDbLine
 62
7
  6
CONTINUOUS
 10
83.525851222
 20
87.2241406964
 11
69.9412392261
 21
90.2332892748
  0
LINE
  5
40B
100
AcDbEntity
  8
0
100
AcDbLine
 62
7
  6
CONTINUOUS
 10
91.4805463708
 20
99.7859484861
 11
105.149219124
 21
96.7581794783
  0
LINE
  5
40C
100
AcDbEntity
  8
0
100
AcDbLine
 62
7
  6
CONTINUOUS
 10
115.5342553258
 20
99.6307293944
 11
101.8772815782
 21
102.6559069372
  0
LINE
  5
40D
100
AcDbEntity
  8
0
100
AcDbLine
 62
7
  6
CONTINUOUS
 10
134.1455476806
 20
95.5101734699
 11
120.4746100243
 21
98.5384441799
  0
LINE
  5
40E
100
AcDbEntity
  8
0
100
AcDbLine
 62
7
  6
CONTINUOUS
 10
104.9047831591
 20
116.3233724088
 11
118.5617569067
 21
113.298194866
  0
LINE
  5
40F
100
AcDbEntity
  8
0
100
AcDbLine
 62
7
  6
CONTINUOUS
 10
123.5023790084
 20
112.2071168258
 11
137.1733166647
 21
109.1788461157
  0
LINE
  5
410
100
AcDbEntity
  8
0
100
AcDbLine
 62
7
  6
CONTINUOUS
 10
142.0601193651
 20
108.0963628322
 11
155.7675293823
 21
105.0600130726
  0
LINE
  5
411
100
AcDbEntity
  8
0
100
AcDbLine
 62
7
  6
CONTINUOUS
 10
47.3453382609
 20
143.6301441659
 11
33.6753382609
 21
146.6582071742
  0
LINE
  5
412
100
AcDbEntity
  8
0
100
AcDbLine
 62
7
  6
CONTINUOUS
 10
103.1310289029
 20
131.6546765978
 11
89.4653382609
 21
134.6817850335
  0
LINE
  5
413
100
AcDbEntity
  8
0
100
AcDbLine
 62
7
  6
CONTINUOUS
 10
158.9116901774
 20
119.3046716502
 11
145.241295185
 21
122.3328221539
  0
LINE
  5
414
100
AcDbEntity
  8
0
100
AcDbLine
 62
7
  6
CONTINUOUS
 10
84.5353382609
 20
135.8684788865
 11
70.8753382609
 21
138.8943267792
  0
LINE
  5
415
100
AcDbEntity
  8
0
100
AcDbLine
 62
7
  6
CONTINUOUS
 10
129.6933260483
 20
140.1047229919
 11
143.3418082211
 21
137.081426431
  0
LINE
  5
416
100
AcDbEntity
  8
0
100
AcDbLine
 62
7
  6
CONTINUOUS
 10
111.0963799524
 20
144.2377974269
 11
124.7518578856
 21
141.2129512242
  0
LINE
  5
417
100
AcDbEntity
  8
0
100
AcDbLine
 62
7
  6
CONTINUOUS
 10
148.2695125275
 20
136.003518886
 11
161.9399075199
 21
132.9753683823
  0
LINE
  5
418
100
AcDbEntity
  8
0
100
AcDbLine
 62
7
  6
CONTINUOUS
 10
7.8356038606
 20
30.1026974825
 11
116.8896468147
 21
5.92599822
  0
LINE
  5
419
100
AcDbEntity
  8
0
100
AcDbLine
 62
7
  6
CONTINUOUS
 10
68.832785027
 20
31.9441406964
 11
55.1653382609
 21
34.9741406964
  0
LINE
  5
41A
100
AcDbEntity
  8
0
100
AcDbLine
 62
7
  6
CONTINUOUS
 10
117.3791331215
 20
35.2641406964
 11
119.0477467806
 21
34.8941406964
  0
LINE
  5
41B
100
AcDbEntity
  8
0
100
AcDbLine
 62
7
  6
CONTINUOUS
 10
43.3242036212
 20
61.9941406964
 11
41.5149814859
 21
62.3952355873
  0
LINE
  5
41C
100
AcDbEntity
  8
0
100
AcDbLine
 62
7
  6
CONTINUOUS
 10
21.6453382609
 20
76.04816497
 11
23.2753382609
 21
75.6868026699
  0
LINE
  5
41D
100
AcDbEntity
  8
0
100
AcDbLine
 62
7
  6
CONTINUOUS
 10
49.7759427041
 20
69.8394680247
 11
51.7395773857
 21
69.4041406964
  0
LINE
  5
41E
100
AcDbEntity
  8
0
100
AcDbLine
 62
7
  6
CONTINUOUS
 10
46.8253382609
 20
71.4477263543
 11
49.9773993189
 21
70.7489312414
  0
LINE
  5
41F
100
AcDbEntity
  8
0
100
AcDbLine
 62
7
  6
CONTINUOUS
 10
39.8853382609
 20
76.9983151768
 11
26.2153382609
 21
80.0288812151
  0
LINE
  5
420
100
AcDbEntity
  8
0
100
AcDbLine
 62
7
  6
CONTINUOUS
 10
102.6244026922
 20
63.4741406964
 11
88.9748871926
 21
66.5001654303
  0
LINE
  5
421
100
AcDbEntity
  8
0
100
AcDbLine
 62
7
  6
CONTINUOUS
 10
84.1370129015
 20
67.5941406964
 11
70.4695661354
 21
70.6241406964
  0
LINE
  5
422
100
AcDbEntity
  8
0
100
AcDbLine
 62
7
  6
CONTINUOUS
 10
29.2453382609
 20
93.6850480947
 11
42.9129547179
 21
90.6550104752
  0
LINE
  5
423
100
AcDbEntity
  8
0
100
AcDbLine
 62
7
  6
CONTINUOUS
 10
92.0039409938
 20
80.1633441697
 11
105.6534564934
 21
77.1373194358
  0
LINE
  5
424
100
AcDbEntity
  8
0
100
AcDbLine
 62
7
  6
CONTINUOUS
 10
120.7169497704
 20
78.9684304977
 11
107.0520505076
 21
81.9978657298
  0
LINE
  5
425
100
AcDbEntity
  8
0
100
AcDbLine
 62
7
  6
CONTINUOUS
 10
139.3074869965
 20
74.8498666774
 11
125.6373558805
 21
77.8804617834
  0
LINE
  5
426
100
AcDbEntity
  8
0
100
AcDbLine
 62
7
  6
CONTINUOUS
 10
41.6853382609
 20
96.7931067977
 11
28.0153382609
 21
99.8236728361
  0
LINE
  5
427
100
AcDbEntity
  8
0
100
AcDbLine
 62
7
  6
CONTINUOUS
 10
54.2953382609
 20
107.6745020511
 11
67.8653584925
 21
104.6661009938
  0
LINE
  5
428
100
AcDbEntity
  8
0
100
AcDbLine
 62
7
  6
CONTINUOUS
 10
72.8937771965
 20
103.5513274056
 11
86.4778635831
 21
100.5398079568
  0
LINE
  5
429
100
AcDbEntity
  8
0
100
AcDbLine
 62
7
  6
CONTINUOUS
 10
110.0778853044
 20
95.6578066091
 11
123.7451685844
 21
92.6278428531
  0
LINE
  5
42A
100
AcDbEntity
  8
0
100
AcDbLine
 62
7
  6
CONTINUOUS
 10
128.6682386076
 20
91.551890274
 11
142.3383697236
 21
88.521295168
  0
LINE
  5
42B
100
AcDbEntity
  8
0
100
AcDbLine
 62
7
  6
CONTINUOUS
 10
96.9219282044
 20
103.7541406964
 11
83.2823020522
 21
106.7779730148
  0
LINE
  5
42C
100
AcDbEntity
  8
0
100
AcDbLine
 62
7
  6
CONTINUOUS
 10
152.7353312062
 20
91.3826509746
 11
139.030838282
 21
94.4208639101
  0
LINE
  5
42D
100
AcDbEntity
  8
0
100
AcDbLine
 62
7
  6
CONTINUOUS
 10
41.1553382609
 20
116.1258044557
 11
27.4853382609
 21
119.156370494
  0
LINE
  5
42E
100
AcDbEntity
  8
0
100
AcDbLine
 62
7
  6
CONTINUOUS
 10
78.3553382609
 20
107.8794946119
 11
64.6853382609
 21
110.9100606502
  0
LINE
  5
42F
100
AcDbEntity
  8
0
100
AcDbLine
 62
7
  6
CONTINUOUS
 10
59.7553382609
 20
112.0041406964
 11
46.0853382609
 21
115.0347067347
  0
LINE
  5
430
100
AcDbEntity
  8
0
100
AcDbLine
 62
7
  6
CONTINUOUS
 10
30.5153382609
 20
132.8238172601
 11
44.1853382609
 21
129.7932512218
  0
LINE
  5
431
100
AcDbEntity
  8
0
100
AcDbLine
 62
7
  6
CONTINUOUS
 10
67.7153382609
 20
124.5775074163
 11
81.3853382609
 21
121.546941378
  0
LINE
  5
432
100
AcDbEntity
  8
0
100
AcDbLine
 62
7
  6
CONTINUOUS
 10
49.1153382609
 20
128.7021535008
 11
62.7853382609
 21
125.6715874625
  0
LINE
  5
433
100
AcDbEntity
  8
0
100
AcDbLine
 62
7
  6
CONTINUOUS
 10
86.3153382609
 20
120.4591152334
 11
99.9525766034
 21
117.4358122797
  0
LINE
  5
434
100
AcDbEntity
  8
0
100
AcDbLine
 62
7
  6
CONTINUOUS
 10
121.7206174454
 20
127.528606908
 11
108.0632795872
 21
130.5563658171
  0
LINE
  5
435
100
AcDbEntity
  8
0
100
AcDbLine
 62
7
  6
CONTINUOUS
 10
140.3111545427
 20
123.4110311122
 11
126.6632004504
 21
126.4367096904
  0
LINE
  5
436
100
AcDbEntity
  8
0
100
AcDbLine
 62
7
  6
CONTINUOUS
 10
36.7053382609
 20
160.3256539403
 11
50.3748093478
 21
157.2952051592
  0
LINE
  5
437
100
AcDbEntity
  8
0
100
AcDbLine
 62
7
  6
CONTINUOUS
 10
92.49893066
 20
148.3654360647
 11
106.1617047243
 21
145.3364719777
  0
LINE
  5
438
100
AcDbEntity
  8
0
100
AcDbLine
 62
7
  6
CONTINUOUS
 10
73.8953382609
 20
152.5392049688
 11
87.5571914472
 21
149.5104450356
  0
LINE
  5
439
100
AcDbEntity
  8
0
100
AcDbLine
 62
7
  6
CONTINUOUS
 10
116.8509693539
 20
163.5017611114
 11
41.130989475
 21
180.2884765059
  0
LINE
  5
43A
100
AcDbEntity
  8
0
100
AcDbLine
 62
7
  6
CONTINUOUS
 10
119.4798504715
 20
21.2741406964
 11
116.2354975926
 21
21.9941406964
  0
LINE
  5
43B
100
AcDbEntity
  8
0
100
AcDbLine
 62
7
  6
CONTINUOUS
 10
58.1965504926
 20
48.6470554864
 11
71.8658542891
 21
45.6141406964
  0
LINE
  5
43C
100
AcDbEntity
  8
0
100
AcDbLine
 62
7
  6
CONTINUOUS
 10
70.6048158073
 20
51.0541406964
 11
56.9486489277
 21
54.0841406964
  0
LINE
  5
43D
100
AcDbEntity
  8
0
100
AcDbLine
 62
7
  6
CONTINUOUS
 10
47.2436749309
 20
56.8641406964
 11
44.043715035
 21
57.5741406964
  0
LINE
  5
43E
100
AcDbEntity
  8
0
100
AcDbLine
 62
7
  6
CONTINUOUS
 10
31.0453382609
 20
113.4798397157
 11
44.714808911
 21
110.4468879046
  0
LINE
  5
43F
100
AcDbEntity
  8
0
100
AcDbLine
 62
7
  6
CONTINUOUS
 10
36.2602429861
 20
39.1541406964
 11
22.6153382609
 21
42.1841406964
  0
LINE
  5
440
100
AcDbEntity
  8
0
100
AcDbLine
 62
7
  6
CONTINUOUS
 10
25.6553382609
 20
55.8740781104
 11
39.3002429861
 21
52.8440781104
  0
LINE
  5
441
100
AcDbEntity
  8
0
100
AcDbLine
 62
7
  6
CONTINUOUS
 10
40.4843757175
 20
57.7541406964
 11
26.7453382609
 21
60.8050438967
  0
LINE
  5
442
100
AcDbEntity
  8
0
100
AcDbLine
 62
7
  6
CONTINUOUS
 10
27.1653382609
 20
70.2910331276
 11
28.7553382609
 21
69.9379562761
  0
LINE
  5
443
100
AcDbEntity
  8
0
100
AcDbLine
 62
7
  6
CONTINUOUS
 10
26.5053382609
 20
75.0247686115
 11
28.1353382609
 21
74.6628093234
  0
LINE
  5
444
100
AcDbEntity
  8
0
100
AcDbLine
 62
7
  6
CONTINUOUS
 10
44.2429106572
 20
58.4741406964
 11
42.6230698342
 21
58.8341406964
  0
LINE
  5
445
100
AcDbEntity
  8
0
100
AcDbLine
 62
7
  6
CONTINUOUS
 10
73.4996191888
 20
84.2918267709
 11
87.1678633857
 21
81.2541406964
  0
LINE
  5
446
100
AcDbEntity
  8
0
100
AcDbLine
 62
7
  6
CONTINUOUS
 10
44.9753382609
 20
70.8629054831
 11
46.6153382609
 21
70.4981248423
  0
LINE
  5
447
100
AcDbEntity
  8
0
100
AcDbLine
 62
7
  6
CONTINUOUS
 10
27.7553382609
 20
65.3570995232
 11
26.1753382609
 21
65.7088239471
  0
LINE
  5
448
100
AcDbEntity
  8
0
100
AcDbLine
 62
7
  6
CONTINUOUS
 10
20.6153382609
 20
63.6329251884
 11
18.9853382609
 21
63.9960787302
  0
LINE
  5
449
100
AcDbEntity
  8
0
100
AcDbLine
 62
7
  6
CONTINUOUS
 10
19.6853382609
 20
67.1535746828
 11
18.8253382609
 21
67.3453347198
  0
LINE
  5
44A
100
AcDbEntity
  8
0
100
AcDbLine
 62
7
  6
CONTINUOUS
 10
50.3828060503
 20
63.2841406964
 11
51.2349126858
 21
63.0941406964
  0
LINE
  5
44B
100
AcDbEntity
  8
0
100
AcDbLine
 62
7
  6
CONTINUOUS
 10
226.2073490357
 20
21.8041406964
 11
226.4222418439
 21
20.8441406964
  0
LINE
  5
44C
100
AcDbEntity
  8
0
100
AcDbLine
 62
7
  6
CONTINUOUS
 10
332.9835161251
 20
96.9582701546
 11
332.7835161251
 21
97.8552245078
  0
LINE
  5
44D
100
AcDbEntity
  8
0
100
AcDbLine
 62
7
  6
CONTINUOUS
 10
259.2145146381
 20
62.7383320494
 11
262.2557448733
 21
49.0541406964
  0
LINE
  5
44E
100
AcDbEntity
  8
0
100
AcDbLine
 62
7
  6
CONTINUOUS
 10
266.7905067531
 20
30.5241406964
 11
263.7524304618
 21
44.1941406964
  0
LINE
  5
44F
100
AcDbEntity
  8
0
100
AcDbLine
 62
7
  6
CONTINUOUS
 10
277.3866195567
 20
47.2217611738
 11
280.4241670132
 21
33.5541406964
  0
LINE
  5
450
100
AcDbEntity
  8
0
100
AcDbLine
 62
7
  6
CONTINUOUS
 10
290.9179581389
 20
74.9341406964
 11
287.8840258583
 21
88.5854944804
  0
LINE
  5
451
100
AcDbEntity
  8
0
100
AcDbLine
 62
7
  6
CONTINUOUS
 10
305.6035123979
 20
68.0809064839
 11
305.5763314252
 21
68.2032343327
  0
LINE
  5
452
100
AcDbEntity
  8
0
100
AcDbLine
 62
7
  6
CONTINUOUS
 10
332.0435161251
 20
93.4447001052
 11
331.3435161251
 21
96.5943905943
  0
LINE
  5
453
100
AcDbEntity
  8
0
100
AcDbLine
 62
7
  6
CONTINUOUS
 10
336.5369125433
 20
75.0642849325
 11
337.1435123979
 21
72.3342849325
  0
LINE
  5
454
100
AcDbEntity
  8
0
100
AcDbLine
 62
7
  6
CONTINUOUS
 10
197.9035123979
 20
54.2853483079
 11
194.8735123979
 21
67.930253033
  0
LINE
  5
455
100
AcDbEntity
  8
0
100
AcDbLine
 62
7
  6
CONTINUOUS
 10
199.8775907933
 20
88.5976377236
 11
202.9153618091
 21
74.9177380244
  0
LINE
  5
456
100
AcDbEntity
  8
0
100
AcDbLine
 62
7
  6
CONTINUOUS
 10
211.4481028093
 20
37.7841406964
 11
208.4131216489
 21
51.4514769261
  0
LINE
  5
457
100
AcDbEntity
  8
0
100
AcDbLine
 62
7
  6
CONTINUOUS
 10
208.6765316087
 20
70.9928363023
 11
211.7059966666
 21
57.3503405652
  0
LINE
  5
458
100
AcDbEntity
  8
0
100
AcDbLine
 62
7
  6
CONTINUOUS
 10
204.9578936683
 20
109.2092757728
 11
207.9895594027
 21
95.5568697978
  0
LINE
  5
459
100
AcDbEntity
  8
0
100
AcDbLine
 62
7
  6
CONTINUOUS
 10
216.5035123979
 20
58.4441406964
 11
213.4735123979
 21
72.0890454216
  0
LINE
  5
45A
100
AcDbEntity
  8
0
100
AcDbLine
 62
7
  6
CONTINUOUS
 10
202.0905731661
 20
123.5049194321
 11
199.0417607356
 21
137.23454159
  0
LINE
  5
45B
100
AcDbEntity
  8
0
100
AcDbLine
 62
7
  6
CONTINUOUS
 10
225.1612629722
 20
34.1741406964
 11
225.8606089814
 21
31.0241406964
  0
LINE
  5
45C
100
AcDbEntity
  8
0
100
AcDbLine
 62
7
  6
CONTINUOUS
 10
226.7192411721
 20
31.2141406964
 11
227.3275611927
 21
28.4741406964
  0
LINE
  5
45D
100
AcDbEntity
  8
0
100
AcDbLine
 62
7
  6
CONTINUOUS
 10
212.7098021881
 20
140.2696793528
 11
215.75914435
 21
126.5376716716
  0
LINE
  5
45E
100
AcDbEntity
  8
0
100
AcDbLine
 62
7
  6
CONTINUOUS
 10
238.8118893966
 20
24.3341406964
 11
235.7769639038
 21
38.0012262399
  0
LINE
  5
45F
100
AcDbEntity
  8
0
100
AcDbLine
 62
7
  6
CONTINUOUS
 10
240.6263338674
 20
58.6036109096
 11
243.6617889021
 21
44.9341406964
  0
LINE
  5
460
100
AcDbEntity
  8
0
100
AcDbLine
 62
7
  6
CONTINUOUS
 10
249.4440494473
 20
41.0361517327
 11
252.4789749401
 21
27.3690661892
  0
LINE
  5
461
100
AcDbEntity
  8
0
100
AcDbLine
 62
7
  6
CONTINUOUS
 10
248.5445442354
 20
46.0094189655
 11
245.5057024348
 21
59.6941406964
  0
LINE
  5
462
100
AcDbEntity
  8
0
100
AcDbLine
 62
7
  6
CONTINUOUS
 10
245.7570240105
 20
79.2453435864
 11
248.7884225867
 21
65.5941406964
  0
LINE
  5
463
100
AcDbEntity
  8
0
100
AcDbLine
 62
7
  6
CONTINUOUS
 10
239.2885042527
 20
131.7748143306
 11
236.2479891218
 21
145.4670715175
  0
LINE
  5
464
100
AcDbEntity
  8
0
100
AcDbLine
 62
7
  6
CONTINUOUS
 10
267.248979682
 20
50.1541406964
 11
264.2138331328
 21
63.8222217168
  0
LINE
  5
465
100
AcDbEntity
  8
0
100
AcDbLine
 62
7
  6
CONTINUOUS
 10
249.9145899596
 20
148.499386581
 11
252.9535161251
 21
134.8142849325
  0
LINE
  5
466
100
AcDbEntity
  8
0
100
AcDbLine
 62
7
  6
CONTINUOUS
 10
272.4291500404
 20
70.8352438036
 11
269.3941501982
 21
84.5026641627
  0
LINE
  5
467
100
AcDbEntity
  8
0
100
AcDbLine
 62
7
  6
CONTINUOUS
 10
277.8582090231
 20
66.854603202
 11
280.8938844072
 21
53.1841406964
  0
LINE
  5
468
100
AcDbEntity
  8
0
100
AcDbLine
 62
7
  6
CONTINUOUS
 10
282.9463738624
 20
87.5120833217
 11
285.9818989473
 21
73.8422976533
  0
LINE
  5
469
100
AcDbEntity
  8
0
100
AcDbLine
 62
7
  6
CONTINUOUS
 10
282.1321352459
 20
92.5042849325
 11
279.1331423496
 21
106.0095563322
  0
LINE
  5
46A
100
AcDbEntity
  8
0
100
AcDbLine
 62
7
  6
CONTINUOUS
 10
294.5331658695
 20
36.7041406964
 11
291.4975931899
 21
50.3741406964
  0
LINE
  5
46B
100
AcDbEntity
  8
0
100
AcDbLine
 62
7
  6
CONTINUOUS
 10
296.3640224557
 20
70.9782706614
 11
299.402413093
 21
57.2955806405
  0
LINE
  5
46C
100
AcDbEntity
  8
0
100
AcDbLine
 62
7
  6
CONTINUOUS
 10
305.1419690803
 20
53.4065221816
 11
308.1780705947
 21
39.7341406964
  0
LINE
  5
46D
100
AcDbEntity
  8
0
100
AcDbLine
 62
7
  6
CONTINUOUS
 10
301.5314338681
 20
91.6185498361
 11
304.5635123979
 21
77.9642849325
  0
LINE
  5
46E
100
AcDbEntity
  8
0
100
AcDbLine
 62
7
  6
CONTINUOUS
 10
300.7335161251
 20
96.6265097505
 11
297.7021318896
 21
110.2776480603
  0
LINE
  5
46F
100
AcDbEntity
  8
0
100
AcDbLine
 62
7
  6
CONTINUOUS
 10
295.0735161251
 20
144.1487122528
 11
292.0395093604
 21
157.8116605167
  0
LINE
  5
470
100
AcDbEntity
  8
0
100
AcDbLine
 62
7
  6
CONTINUOUS
 10
314.4982440277
 20
92.9942849325
 11
315.1974305865
 21
89.8456598567
  0
LINE
  5
471
100
AcDbEntity
  8
0
100
AcDbLine
 62
7
  6
CONTINUOUS
 10
335.007645239
 20
77.8949650825
 11
335.6782803526
 21
74.8742849325
  0
LINE
  5
472
100
AcDbEntity
  8
0
100
AcDbLine
 62
7
  6
CONTINUOUS
 10
337.8435161251
 20
98.1742849325
 11
338.5450484299
 21
95.0150963317
  0
LINE
  5
473
100
AcDbEntity
  8
0
100
AcDbLine
 62
7
  6
CONTINUOUS
 10
339.3935161251
 20
95.2042849325
 11
339.9975054549
 21
92.4843585759
  0
LINE
  5
474
100
AcDbEntity
  8
0
100
AcDbLine
 62
7
  6
CONTINUOUS
 10
189.2640067801
 20
71.8888056671
 11
186.2286234496
 21
85.5692351406
  0
LINE
  5
475
100
AcDbEntity
  8
0
100
AcDbLine
 62
7
  6
CONTINUOUS
 10
183.4735123979
 20
119.4543397034
 11
180.4435123979
 21
133.110506583
  0
LINE
  5
476
100
AcDbEntity
  8
0
100
AcDbLine
 62
7
  6
CONTINUOUS
 10
194.3027952456
 20
92.5200809418
 11
191.2735123979
 21
106.1730156264
  0
LINE
  5
477
100
AcDbEntity
  8
0
100
AcDbLine
 62
7
  6
CONTINUOUS
 10
194.1101138602
 20
136.142821785
 11
197.1401138602
 21
122.4866549054
  0
LINE
  5
478
100
AcDbEntity
  8
0
100
AcDbLine
 62
7
  6
CONTINUOUS
 10
207.7245325548
 20
75.9817637564
 11
204.6924517507
 21
89.6473087905
  0
LINE
  5
479
100
AcDbEntity
  8
0
100
AcDbLine
 62
7
  6
CONTINUOUS
 10
220.3010140024
 20
33.0941406964
 11
220.1013656727
 21
33.9941406964
  0
LINE
  5
47A
100
AcDbEntity
  8
0
100
AcDbLine
 62
7
  6
CONTINUOUS
 10
223.3391509231
 20
34.7123833821
 11
223.5384094252
 21
33.8141406964
  0
LINE
  5
47B
100
AcDbEntity
  8
0
100
AcDbLine
 62
7
  6
CONTINUOUS
 10
226.4752774899
 20
28.2841406964
 11
227.8328861319
 21
22.1641406964
  0
LINE
  5
47C
100
AcDbEntity
  8
0
100
AcDbLine
 62
7
  6
CONTINUOUS
 10
222.0716740211
 20
54.4820062139
 11
225.1042696889
 21
40.8141406964
  0
LINE
  5
47D
100
AcDbEntity
  8
0
100
AcDbLine
 62
7
  6
CONTINUOUS
 10
213.0266521011
 20
96.6869318015
 11
209.8735123979
 21
110.8980875713
  0
LINE
  5
47E
100
AcDbEntity
  8
0
100
AcDbLine
 62
7
  6
CONTINUOUS
 10
218.3757995576
 20
92.6833396343
 11
221.4078803617
 21
79.0177946002
  0
LINE
  5
47F
100
AcDbEntity
  8
0
100
AcDbLine
 62
7
  6
CONTINUOUS
 10
230.0168841769
 20
41.9041406964
 11
226.9838149149
 21
55.5741406964
  0
LINE
  5
480
100
AcDbEntity
  8
0
100
AcDbLine
 62
7
  6
CONTINUOUS
 10
227.1320608549
 20
75.1195738407
 11
230.1596792775
 21
61.4741406964
  0
LINE
  5
481
100
AcDbEntity
  8
0
100
AcDbLine
 62
7
  6
CONTINUOUS
 10
223.4494440975
 20
113.9102851676
 11
226.6025838008
 21
99.6991293978
  0
LINE
  5
482
100
AcDbEntity
  8
0
100
AcDbLine
 62
7
  6
CONTINUOUS
 10
220.5080872093
 20
127.6714889713
 11
217.4834179855
 21
141.3036301182
  0
LINE
  5
483
100
AcDbEntity
  8
0
100
AcDbLine
 62
7
  6
CONTINUOUS
 10
235.1435178616
 20
62.5641406964
 11
232.1139735429
 21
76.2182538268
  0
LINE
  5
484
100
AcDbEntity
  8
0
100
AcDbLine
 62
7
  6
CONTINUOUS
 10
231.5377841403
 20
100.7941406964
 11
228.5026364482
 21
114.4735081509
  0
LINE
  5
485
100
AcDbEntity
  8
0
100
AcDbLine
 62
7
  6
CONTINUOUS
 10
231.3168239071
 20
144.3729555235
 11
234.3414931309
 21
130.7408143766
  0
LINE
  5
486
100
AcDbEntity
  8
0
100
AcDbLine
 62
7
  6
CONTINUOUS
 10
244.919745371
 20
84.235620106
 11
241.8888078482
 21
97.8960123877
  0
LINE
  5
487
100
AcDbEntity
  8
0
100
AcDbLine
 62
7
  6
CONTINUOUS
 10
242.1472169534
 20
117.5009373919
 11
245.1823646455
 21
103.8215699374
  0
LINE
  5
488
100
AcDbEntity
  8
0
100
AcDbLine
 62
7
  6
CONTINUOUS
 10
250.1626461779
 20
104.9141406964
 11
247.1286554049
 21
118.5882939331
  0
LINE
  5
489
100
AcDbEntity
  8
0
100
AcDbLine
 62
7
  6
CONTINUOUS
 10
264.4251989845
 20
83.4060377054
 11
267.4631267063
 21
69.7141406964
  0
LINE
  5
48A
100
AcDbEntity
  8
0
100
AcDbLine
 62
7
  6
CONTINUOUS
 10
263.539769847
 20
88.3813901901
 11
260.5109960974
 21
102.0320303763
  0
LINE
  5
48B
100
AcDbEntity
  8
0
100
AcDbLine
 62
7
  6
CONTINUOUS
 10
260.7555065222
 20
121.6142849325
 11
263.7900250151
 21
107.9377532694
  0
LINE
  5
48C
100
AcDbEntity
  8
0
100
AcDbLine
 62
7
  6
CONTINUOUS
 10
257.8785011654
 20
135.8916235374
 11
254.8450430231
 21
149.5633762152
  0
LINE
  5
48D
100
AcDbEntity
  8
0
100
AcDbLine
 62
7
  6
CONTINUOUS
 10
274.3132840615
 20
105.0919239502
 11
277.3415233384
 21
91.4436926244
  0
LINE
  5
48E
100
AcDbEntity
  8
0
100
AcDbLine
 62
7
  6
CONTINUOUS
 10
285.8432898133
 20
54.2846293466
 11
282.807287256
 21
67.9678496667
  0
LINE
  5
48F
100
AcDbEntity
  8
0
100
AcDbLine
 62
7
  6
CONTINUOUS
 10
268.5185992783
 20
152.5972345312
 11
271.5520574206
 21
138.9254818534
  0
LINE
  5
490
100
AcDbEntity
  8
0
100
AcDbLine
 62
7
  6
CONTINUOUS
 10
279.3499650465
 20
125.7554005744
 11
282.3877440377
 21
112.0641738921
  0
LINE
  5
491
100
AcDbEntity
  8
0
100
AcDbLine
 62
7
  6
CONTINUOUS
 10
276.4735161251
 20
140.0180293796
 11
273.4375563455
 21
153.7010569013
  0
LINE
  5
492
100
AcDbEntity
  8
0
100
AcDbLine
 62
7
  6
CONTINUOUS
 10
287.3135161251
 20
113.1818673193
 11
284.2860653129
 21
126.8265450456
  0
LINE
  5
493
100
AcDbEntity
  8
0
100
AcDbLine
 62
7
  6
CONTINUOUS
 10
292.7735161251
 20
109.0360521933
 11
295.7696236837
 21
95.5326380649
  0
LINE
  5
494
100
AcDbEntity
  8
0
100
AcDbLine
 62
7
  6
CONTINUOUS
 10
287.1111610172
 20
156.7349259599
 11
290.1465912868
 21
143.0542849325
  0
LINE
  5
495
100
AcDbEntity
  8
0
100
AcDbLine
 62
7
  6
CONTINUOUS
 10
297.9565947039
 20
129.8597317678
 11
300.9835161251
 21
116.2174399989
  0
LINE
  5
496
100
AcDbEntity
  8
0
100
AcDbLine
 62
7
  6
CONTINUOUS
 10
313.2998459691
 20
65.2772826185
 11
314.3135123979
 21
60.7077488423
  0
LINE
  5
497
100
AcDbEntity
  8
0
100
AcDbLine
 62
7
  6
CONTINUOUS
 10
309.0411463921
 20
85.6336461379
 11
307.8635161251
 21
90.9412089921
  0
LINE
  5
498
100
AcDbEntity
  8
0
100
AcDbLine
 62
7
  6
CONTINUOUS
 10
308.7135161251
 20
91.1305835384
 11
308.5896965847
 21
91.6886364449
  0
LINE
  5
499
100
AcDbEntity
  8
0
100
AcDbLine
 62
7
  6
CONTINUOUS
 10
312.4858022752
 20
78.9542849325
 11
312.2727996058
 21
79.9142849325
  0
LINE
  5
49A
100
AcDbEntity
  8
0
100
AcDbLine
 62
7
  6
CONTINUOUS
 10
315.5214710135
 20
80.6299524343
 11
315.7335123979
 21
79.6742849325
  0
LINE
  5
49B
100
AcDbEntity
  8
0
100
AcDbLine
 62
7
  6
CONTINUOUS
 10
316.1971161416
 20
85.3498191066
 11
317.1635123979
 21
80.9942849325
  0
LINE
  5
49C
100
AcDbEntity
  8
0
100
AcDbLine
 62
7
  6
CONTINUOUS
 10
311.3399283575
 20
113.3035720741
 11
314.3684018965
 21
99.6542849325
  0
LINE
  5
49D
100
AcDbEntity
  8
0
100
AcDbLine
 62
7
  6
CONTINUOUS
 10
318.7935123979
 20
81.1133643181
 11
317.7758792441
 21
85.69982246
  0
LINE
  5
49E
100
AcDbEntity
  8
0
100
AcDbLine
 62
7
  6
CONTINUOUS
 10
316.7935161251
 20
90.1997957737
 11
315.7759010953
 21
94.786172231
  0
LINE
  5
49F
100
AcDbEntity
  8
0
100
AcDbLine
 62
7
  6
CONTINUOUS
 10
312.8859010953
 20
118.8317448423
 11
309.8533610052
 21
132.4993598721
  0
LINE
  5
4A0
100
AcDbEntity
  8
0
100
AcDbLine
 62
7
  6
CONTINUOUS
 10
305.7124234781
 20
160.8453763567
 11
308.7435161251
 21
147.1842849325
  0
LINE
  5
4A1
100
AcDbEntity
  8
0
100
AcDbLine
 62
7
  6
CONTINUOUS
 10
328.7979350949
 20
67.6808474853
 11
329.6135123979
 21
64.0042849325
  0
LINE
  5
4A2
100
AcDbEntity
  8
0
100
AcDbLine
 62
7
  6
CONTINUOUS
 10
321.6535161251
 20
101.2612156704
 11
318.6235161251
 21
114.9173825501
  0
LINE
  5
4A3
100
AcDbEntity
  8
0
100
AcDbLine
 62
7
  6
CONTINUOUS
 10
329.1835123979
 20
73.4342849325
 11
328.4829309251
 21
76.5924547326
  0
LINE
  5
4A4
100
AcDbEntity
  8
0
100
AcDbLine
 62
7
  6
CONTINUOUS
 10
329.4435161251
 20
97.8187123212
 11
330.4904082572
 21
93.1003843803
  0
LINE
  5
4A5
100
AcDbEntity
  8
0
100
AcDbLine
 62
7
  6
CONTINUOUS
 10
336.2839410477
 20
72.1431326769
 11
337.6435123979
 21
66.0142849325
  0
LINE
  5
4A6
100
AcDbEntity
  8
0
100
AcDbLine
 62
7
  6
CONTINUOUS
 10
334.0564089814
 20
84.5191912439
 11
333.0435161251
 21
89.0842849325
  0
LINE
  5
4A7
100
AcDbEntity
  8
0
100
AcDbLine
 62
7
  6
CONTINUOUS
 10
323.520976035
 20
135.5318999622
 11
326.5535161251
 21
121.8642849325
  0
LINE
  5
4A8
100
AcDbEntity
  8
0
100
AcDbLine
 62
7
  6
CONTINUOUS
 10
336.0035161251
 20
98.5696709616
 11
336.1734599472
 21
97.8037365741
  0
LINE
  5
4A9
100
AcDbEntity
  8
0
100
AcDbLine
 62
7
  6
CONTINUOUS
 10
332.2935161251
 20
117.9504518121
 11
335.3235161251
 21
104.2942849325
  0
LINE
  5
4AA
100
AcDbEntity
  8
0
100
AcDbLine
 62
7
  6
CONTINUOUS
 10
339.0980038407
 20
92.2842849325
 11
340.5035161251
 21
85.9496610688
  0
LINE
  5
4AB
100
AcDbEntity
  8
0
100
AcDbLine
 62
7
  6
CONTINUOUS
 10
221.3423366268
 20
20.7241406964
 11
220.3737332806
 21
25.0941406964
  0
LINE
  5
4AC
100
AcDbEntity
  8
0
100
AcDbLine
 62
7
  6
CONTINUOUS
 10
226.3235123979
 20
80.1341406964
 11
223.2996430701
 21
93.773933787
  0
LINE
  5
4AD
100
AcDbEntity
  8
0
100
AcDbLine
 62
7
  6
CONTINUOUS
 10
253.8302003709
 20
66.6917936916
 11
250.7946624285
 21
80.3842205019
  0
LINE
  5
4AE
100
AcDbEntity
  8
0
100
AcDbLine
 62
7
  6
CONTINUOUS
 10
255.5786440731
 20
100.9334828674
 11
258.6077270371
 21
87.2701725837
  0
LINE
  5
4AF
100
AcDbEntity
  8
0
100
AcDbLine
 62
7
  6
CONTINUOUS
 10
268.6945415107
 20
109.0259565049
 11
265.6591520894
 21
122.7177133796
  0
LINE
  5
4B0
100
AcDbEntity
  8
0
100
AcDbLine
 62
7
  6
CONTINUOUS
 10
305.8535123979
 20
68.2648740885
 11
305.1556317448
 21
71.4134678506
  0
LINE
  5
4B1
100
AcDbEntity
  8
0
100
AcDbLine
 62
7
  6
CONTINUOUS
 10
312.7031770795
 20
60.351115508
 11
312.8835123979
 21
59.5375055359
  0
LINE
  5
4B2
100
AcDbEntity
  8
0
100
AcDbLine
 62
7
  6
CONTINUOUS
 10
310.6635123979
 20
79.5572198583
 11
309.3034354507
 21
85.6921305095
  0
LINE
  5
4B3
100
AcDbEntity
  8
0
100
AcDbLine
 62
7
  6
CONTINUOUS
 10
315.9563222305
 20
60.9771910891
 11
314.9235123979
 21
65.6368683306
  0
LINE
  5
4B4
100
AcDbEntity
  8
0
100
AcDbLine
 62
7
  6
CONTINUOUS
 10
322.3925599242
 20
42.8941406964
 11
319.3630887841
 21
56.562056396
  0
LINE
  5
4B5
100
AcDbEntity
  8
0
100
AcDbLine
 62
7
  6
CONTINUOUS
 10
330.9408226652
 20
64.5742849325
 11
330.1835123979
 21
67.9910043578
  0
LINE
  5
4B6
100
AcDbEntity
  8
0
100
AcDbLine
 62
7
  6
CONTINUOUS
 10
333.0335123979
 20
59.5945866634
 11
336.0635123979
 21
45.9242849325
  0
LINE
  5
4B7
100
AcDbEntity
  8
0
100
AcDbLine
 62
7
  6
CONTINUOUS
 10
331.4535161251
 20
88.732081554
 11
332.4703487599
 21
84.1454459414
  0
LINE
  5
4B8
100
AcDbEntity
  8
0
100
AcDbLine
 62
7
  6
CONTINUOUS
 10
223.2242540514
 20
20.1341406964
 11
223.0116473992
 21
21.0941406964
  0
LINE
  5
4B9
100
AcDbEntity
  8
0
100
AcDbLine
 62
7
  6
CONTINUOUS
 10
236.968625866
 20
96.806777354
 11
239.9911715052
 21
83.1616851699
  0
LINE
  5
4BA
100
AcDbEntity
  8
0
100
AcDbLine
 62
7
  6
CONTINUOUS
 10
308.4272251755
 20
59.4041406964
 11
306.4635123979
 21
68.2710517138
  0
LINE
  5
4BB
100
AcDbEntity
  8
0
100
AcDbLine
 62
7
  6
CONTINUOUS
 10
312.2597442604
 20
72.8508274351
 11
312.9565941223
 21
69.7042849325
  0
LINE
  5
4BC
100
AcDbEntity
  8
0
100
AcDbLine
 62
7
  6
CONTINUOUS
 10
313.9681418706
 20
69.9279372338
 11
312.9230070097
 21
74.6471191418
  0
LINE
  5
4BD
100
AcDbEntity
  8
0
100
AcDbLine
 62
7
  6
CONTINUOUS
 10
309.6517609649
 20
91.9242849325
 11
309.4535161251
 21
92.8192487929
  0
LINE
  5
4BE
100
AcDbEntity
  8
0
100
AcDbLine
 62
7
  6
CONTINUOUS
 10
326.5918133685
 20
77.6742849325
 11
327.6083389242
 21
73.0842849325
  0
LINE
  5
4BF
100
AcDbEntity
  8
0
100
AcDbLine
 62
7
  6
CONTINUOUS
 10
336.0112993662
 20
65.652507586
 11
336.2235123979
 21
64.6942849325
  0
LINE
  5
4C0
100
AcDbEntity
  8
0
100
AcDbLine
 62
7
  6
CONTINUOUS
 10
219.3766837429
 20
29.5841406964
 11
218.6794990654
 21
32.7341406964
  0
LINE
  5
4C1
100
AcDbEntity
  8
0
100
AcDbLine
 62
7
  6
CONTINUOUS
 10
309.6647678742
 20
58.8228972384
 11
309.4843435789
 21
59.6382557013
  0
LINE
  5
4C2
100
AcDbEntity
  8
0
100
AcDbLine
 62
7
  6
CONTINUOUS
 10
332.9935123979
 20
63.9783607201
 11
332.7723639027
 21
64.9802430495
  0
LINE
  5
4C3
100
AcDbEntity
  8
0
100
AcDbLine
 62
7
  6
CONTINUOUS
 10
335.8372401831
 20
84.1274132296
 11
335.67175181
 21
84.8775999258
  0
LINE
  5
4C4
100
AcDbEntity
  8
0
100
AcDbLine
 62
7
  6
CONTINUOUS
 10
338.9077747751
 20
85.5956015195
 11
339.0735123979
 21
84.8442849325
  0
LINE
  5
4C5
100
AcDbEntity
  8
0
100
AcDbLine
 62
7
  6
CONTINUOUS
 10
333.1435123979
 20
81.3968051075
 11
333.9660365134
 21
77.6642849325
  0
LINE
  5
4C6
100
AcDbEntity
  8
0
100
AcDbLine
 62
7
  6
CONTINUOUS
 10
306.7835123979
 20
71.7742849325
 11
305.9935519759
 21
75.3620141914
  0
LINE
  5
4C7
100
AcDbEntity
  8
0
100
AcDbLine
 62
7
  6
CONTINUOUS
 10
309.8135123979
 20
76.2080027296
 11
310.6320159905
 21
72.4906401808
  0
LINE
  5
4C8
100
AcDbEntity
  8
0
100
AcDbLine
 62
7
  6
CONTINUOUS
 10
312.6735161251
 20
93.5342849325
 11
312.8719402499
 21
92.6325507043
  0
LINE
  5
4C9
100
AcDbEntity
  8
0
100
AcDbLine
 62
7
  6
CONTINUOUS
 10
330.1235123979
 20
76.9542849325
 11
329.332013235
 21
80.5519925576
  0
ARC
  5
4CA
100
AcDbEntity
  8
0
100
AcDbCircle
 62
7
  6
CONTINUOUS
 10
170.9995502992
 20
250.0
 40
250.0
100
AcDbArc
 50
257.5
 51
282.52
  0
ARC
  5
4CB
100
AcDbEntity
  8
0
100
AcDbCircle
 62
7
  6
CONTINUOUS
 10
170.9608728384
 20
407.5757628913
 40
250.0
100
AcDbArc
 50
257.5
 51
282.52
  0
ARC
  5
4CC
100
AcDbEntity
  8
0
100
AcDbCircle
 62
7
  6
CONTINUOUS
 10
349.35390134
 20
88.6642849325
 40
100.0
100
AcDbArc
 50
90.0
 51
102.52
  0
ARC
  5
4CD
100
AcDbEntity
  8
0
100
AcDbCircle
 62
7
  6
CONTINUOUS
 10
366.485919729
 20
-65.1157150675
 40
100.0
100
AcDbArc
 50
90.0
 51
102.52
  0
ARC
  5
4CE
100
AcDbEntity
  8
0
100
AcDbCircle
 62
7
  6
CONTINUOUS
 10
495.3535161251
 20
44.8842849325
 40
10.0
100
AcDbArc
 50
270.0
 51
360.0
  0
ARC
  5
4CF
100
AcDbEntity
  8
0
100
AcDbCircle
 62
7
  6
CONTINUOUS
 10
10.0
 20
39.8656575537
 40
10.0
100
AcDbArc
 50
167.5
 51
257.5
  0
ARC
  5
4D0
100
AcDbEntity
  8
0
100
AcDbCircle
 62
7
  6
CONTINUOUS
 10
38.9665933356
 20
170.5255164347
 40
10.0
100
AcDbArc
 50
77.5
 51
167.5
  0
ARC
  5
4D1
100
AcDbEntity
  8
0
100
AcDbCircle
 62
7
  6
CONTINUOUS
 10
495.3535161251
 20
178.6642849325
 40
10.0
100
AcDbArc
 50
0.0
 51
90.0
  0
ENDSEC
  0
SECTION
  2
OBJECTS
  0
DICTIONARY
  5
4D2
100
AcDbDictionary
  3
ACAD_GROUP
350
4D3
  3
ACAD_MLINESTYLE
350
4D4
  0
DICTIONARY
  5
4D3
102
{ACAD_REACTORS
330
4D2
102
}
100
AcDbDictionary
  0
DICTIONARY
  5
4D4
102
{ACAD_REACTORS
330
4D2
102
}
100
AcDbDictionary
  3
STANDARD
350
4D5
  0
MLINESTYLE
  5
4D5
102
{ACAD_REACTORS
330
4D4
102
}
100
AcDbMlineStyle
  2
STANDARD
 70
0
  3

 62
256
 51
90.0
 52
90.0
 71
2
 49
0.5
 62
256
  6
BYLAYER
 49
-0.5
 62
256
  6
BYLAYER
  0
ENDSEC
  0
EOF
