999
DXF file: drw0001.dxf
999
Pro/ENGINEER 2007170 by Parametric Technology Corporation
  0
SECTION
  2
HEADER
  9
$ACADVER
  1
AC1014
  9
$DWGCODEPAGE
  3
ANSI_1252
  9
$EXTMAX
 10
594.0
 20
420.0
 30
0.0
  9
$EXTMIN
 10
0.0
 20
0.0
 30
0.0
  9
$LIMMIN
 10
0.0
 20
0.0
  9
$LIMMAX
 10
594.0
 20
420.0
  9
$VIEWCTR
 10
297.0
 20
210.0
  9
$VIEWSIZE
 40
420.0
  9
$CLAYER
  8
0
  9
$LTSCALE
 40
32.67
  9
$CELTYPE
  6
BYLAYER
  9
$DIMSCALE
 40
1.0
  9
$DIMASZ
 40
0.1875
  9
$DIMEXO
 40
3.7125
  9
$DIMDLI
 40
22.572
  9
$DIMEXE
 40
10.692
  9
$DIMCEN
 40
5.346
  9
$DIMLFAC
 40
1.0
  9
$DIMBLK
  1
_CLOSED
  9
$DIMTXT
 40
0.15625
  9
$DIMTOL
 70
0
  9
$DIMLIM
 70
0
  9
$DIMTFAC
 40
1.0
  9
$PDMODE
 70
3
  9
$PDSIZE
 40
0.3125
  9
$HANDSEED
  5
4DA
  9
$MEASUREMENT
 70
1
  0
ENDSEC
  0
SECTION
  2
CLASSES
  0
ENDSEC
  0
SECTION
  2
TABLES
  0
TABLE
  2
VPORT
  5
8
100
AcDbSymbolTable
 70
2
  0
VPORT
  5
1F4
100
AcDbSymbolTableRecord
100
AcDbViewportTableRecord
  2
*ACTIVE
 70
0
 10
0.0
 20
0.0
 11
1.0
 21
1.0
 12
297.0
 22
210.0
 13
0.0
 23
0.0
 14
1.0
 24
1.0
 15
0.0
 25
0.0
 16
0.0
 26
0.0
 36
1.0
 17
0.0
 27
0.0
 37
0.0
 40
420.0
 41
1.4142857143
 42
50.0
 43
0.0
 44
0.0
 50
0.0
 51
0.0
 71
0
 72
100
 73
1
 74
1
 75
0
 76
0
 77
0
 78
0
  0
ENDTAB
  0
TABLE
  2
LTYPE
  5
5
100
AcDbSymbolTable
 70
6
  0
LTYPE
  5
14
100
AcDbSymbolTableRecord
100
AcDbLinetypeTableRecord
  2
BYBLOCK
 70
0
  3

 72
65
 73
0
 40
0.0
  0
LTYPE
  5
15
100
AcDbSymbolTableRecord
100
AcDbLinetypeTableRecord
  2
BYLAYER
 70
0
  3

 72
65
 73
0
 40
0.0
  0
LTYPE
  5
16
100
AcDbSymbolTableRecord
100
AcDbLinetypeTableRecord
  2
CONTINUOUS
 70
64
  3
Solid line
 72
65
 73
0
 40
0.0
  0
LTYPE
  5
1F5
100
AcDbSymbolTableRecord
100
AcDbLinetypeTableRecord
  2
CENTER
 70
64
  3
____ _ ____ _ ____ _ ____ _ ____ _ ____ _ ____
 72
65
 73
4
 40
0.6
 49
0.375
 74
0
 49
-0.075
 74
0
 49
0.075
 74
0
 49
-0.075
 74
0
  0
LTYPE
  5
1F6
100
AcDbSymbolTableRecord
100
AcDbLinetypeTableRecord
  2
HIDDEN
 70
64
  3
- - - - - - - - - - - - - - - - - - - -
 72
65
 73
2
 40
0.2
 49
0.1
 74
0
 49
-0.1
 74
0
  0
LTYPE
  5
1F7
100
AcDbSymbolTableRecord
100
AcDbLinetypeTableRecord
  2
PHANTOM
 70
64
  3
_____ _ _ _____ _ _ _____ _ _ _____
 72
65
 73
6
 40
0.8
 49
0.45
 74
0
 49
-0.05
 74
0
 49
0.1
 74
0
 49
-0.05
 74
0
 49
0.1
 74
0
 49
-0.05
 74
0
  0
LTYPE
  5
1F8
100
AcDbSymbolTableRecord
100
AcDbLinetypeTableRecord
  2
DOT
 70
64
  3
. . . . . . . . . . . . . . . . . . . .
 72
65
 73
2
 40
0.2
 49
0.1
 74
0
 49
-0.1
 74
0
  0
LTYPE
  5
1F9
100
AcDbSymbolTableRecord
100
AcDbLinetypeTableRecord
  2
DASHED
 70
64
  3
- - - - - - - - - - - - - - - - - - - -
 72
65
 73
2
 40
0.2
 49
0.1
 74
0
 49
-0.1
 74
0
  0
ENDTAB
  0
TABLE
  2
LAYER
  5
2
100
AcDbSymbolTable
 70
36
  0
LAYER
  5
10
100
AcDbSymbolTableRecord
100
AcDbLayerTableRecord
  2
0
 70
0
 62
7
  6
CONTINUOUS
  0
LAYER
  5
1FA
100
AcDbSymbolTableRecord
100
AcDbLayerTableRecord
  2
DEFAULT_1
 70
0
 62
7
  6
CENTER
  0
LAYER
  5
1FB
100
AcDbSymbolTableRecord
100
AcDbLayerTableRecord
  2
DEFAULT_2
 70
0
 62
8
  6
HIDDEN
  0
LAYER
  5
1FC
100
AcDbSymbolTableRecord
100
AcDbLayerTableRecord
  2
DEFAULT_3
 70
0
 62
7
  6
PHANTOM
  0
LAYER
  5
1FD
100
AcDbSymbolTableRecord
100
AcDbLayerTableRecord
  2
01___PRT_ALL_DTM_PLN
 70
0
 62
7
  6
CONTINUOUS
  0
LAYER
  5
1FE
100
AcDbSymbolTableRecord
100
AcDbLayerTableRecord
  2
01___PRT_DEF_DTM_PLN
 70
0
 62
7
  6
CONTINUOUS
  0
LAYER
  5
1FF
100
AcDbSymbolTableRecord
100
AcDbLayerTableRecord
  2
02___PRT_ALL_AXES
 70
0
 62
7
  6
CONTINUOUS
  0
LAYER
  5
200
100
AcDbSymbolTableRecord
100
AcDbLayerTableRecord
  2
03___PRT_ALL_CURVES
 70
0
 62
7
  6
CONTINUOUS
  0
LAYER
  5
201
100
AcDbSymbolTableRecord
100
AcDbLayerTableRecord
  2
04___PRT_ALL_DTM_PNT
 70
0
 62
7
  6
CONTINUOUS
  0
LAYER
  5
202
100
AcDbSymbolTableRecord
100
AcDbLayerTableRecord
  2
05___PRT_ALL_DTM_CSYS
 70
0
 62
7
  6
CONTINUOUS
  0
LAYER
  5
203
100
AcDbSymbolTableRecord
100
AcDbLayerTableRecord
  2
05___PRT_DEF_DTM_CSYS
 70
0
 62
7
  6
CONTINUOUS
  0
LAYER
  5
204
100
AcDbSymbolTableRecord
100
AcDbLayerTableRecord
  2
06___PRT_ALL_SURFS
 70
0
 62
7
  6
CONTINUOUS
  0
LAYER
  5
205
100
AcDbSymbolTableRecord
100
AcDbLayerTableRecord
  2
3_ALL_SYMBOLS
 70
0
 62
7
  6
CONTINUOUS
  0
LAYER
  5
206
100
AcDbSymbolTableRecord
100
AcDbLayerTableRecord
  2
INTFCLR_2
 70
0
 62
7
  6
CONTINUOUS
  0
ENDTAB
  0
TABLE
  2
STYLE
  5
3
100
AcDbSymbolTable
 70
1
  0
STYLE
  5
11
100
AcDbSymbolTableRecord
100
AcDbTextStyleTableRecord
  2
STANDARD
 70
0
 40
0.0
 41
0.8
 50
0.0
 71
0
 42
0.2
  3
txt
  4

  0
STYLE
  5
207
100
AcDbSymbolTableRecord
100
AcDbTextStyleTableRecord
  2
TEXTSTYLE_1
 70
0
 40
0.0
 41
0.8
 50
0.0
 71
0
 42
0.2
  3
gdt
  4

  0
ENDTAB
  0
TABLE
  2
VIEW
  5
6
100
AcDbSymbolTable
 70
0
  0
ENDTAB
  0
TABLE
  2
UCS
  5
7
100
AcDbSymbolTable
 70
0
  0
ENDTAB
  0
TABLE
  2
APPID
  5
9
100
AcDbSymbolTable
 70
1
  0
APPID
  5
208
100
AcDbSymbolTableRecord
100
AcDbRegAppTableRecord
  2
ACAD
 70
0
  0
ENDTAB
  0
TABLE
  2
BLOCK_RECORD
  5
1
100
AcDbSymbolTable
 70
0
  0
BLOCK_RECORD
  5
1F
100
AcDbSymbolTableRecord
100
AcDbBlockTableRecord
  2
*MODEL_SPACE
  0
BLOCK_RECORD
  5
1B
100
AcDbSymbolTableRecord
100
AcDbBlockTableRecord
  2
*PAPER_SPACE
  0
ENDTAB
  0
TABLE
  2
DIMSTYLE
  5
A
100
AcDbSymbolTable
 70
1
  0
DIMSTYLE
105
209
100
AcDbSymbolTableRecord
100
AcDbDimStyleTableRecord
  2
STANDARD
 70
0
  3

  4

  5
_CLOSED
  6
_CLOSED
  7
_CLOSED
 40
1.0
 41
0.1875
 42
0.0625
 43
0.38
 44
0.18
 45
0.0
 46
0.0
 47
0.01
 48
0.01
140
0.15625
141
0.09
142
0.0
143
25.4
144
1.0
145
0.0
146
1.0
147
0.09
 71
0.0
 72
0.0
 73
1
 74
1
 75
0
 76
0
 77
0
 78
8
170
0
171
2
172
0
173
0
174
0
175
0
176
0
177
0
178
0
270
2
271
2
272
2
273
2
274
2
275
0
280
0
281
0
282
0
283
1
284
8
285
0
286
0
287
3
288
0
340
11
  0
ENDTAB
  0
ENDSEC
  0
SECTION
  2
BLOCKS
  0
BLOCK
  5
20
100
AcDbEntity
  8
0
100
AcDbBlockBegin
  2
*MODEL_SPACE
 70
0
 10
0.0
 20
0.0
 30
0.0
  3
*MODEL_SPACE
  1

  0
ENDBLK
  5
21
100
AcDbEntity
  8
0
100
AcDbBlockEnd
  0
BLOCK
  5
1C
100
AcDbEntity
  8
0
100
AcDbBlockBegin
  2
*PAPER_SPACE
 70
0
 10
0.0
 20
0.0
 30
0.0
  3
*PAPER_SPACE
  1

  0
ENDBLK
  5
1D
100
AcDbEntity
  8
0
100
AcDbBlockEnd
  0
ENDSEC
  0
SECTION
  2
ENTITIES
  0
LINE
  5
20A
100
AcDbEntity
  8
0
100
AcDbLine
 62
7
  6
CONTINUOUS
 10
0.0
 20
0.0
 11
0.0
 21
420.0
  0
LINE
  5
20B
100
AcDbEntity
  8
0
100
AcDbLine
 62
7
  6
CONTINUOUS
 10
29.2036332639
 20
172.6899125722
 11
0.2370399298
 21
42.0300536918
  0
LINE
  5
20C
100
AcDbEntity
  8
0
100
AcDbLine
 62
7
  6
CONTINUOUS
 10
20.4153382625
 20
62.7285427951
 11
20.6153382612
 21
63.6329251875
  0
LINE
  5
20D
100
AcDbEntity
  8
0
100
AcDbLine
 62
7
  6
CONTINUOUS
 10
18.8253382624
 20
67.3453347172
 11
19.4353382616
 21
70.1014193854
  0
LINE
  5
20E
100
AcDbEntity
  8
0
100
AcDbLine
 62
7
  6
CONTINUOUS
 10
28.7553382626
 20
69.9379562732
 11
29.7753382623
 21
74.5426821208
  0
LINE
  5
20F
100
AcDbEntity
  8
0
100
AcDbLine
 62
7
  6
CONTINUOUS
 10
27.4853382626
 20
119.156370493
 11
30.5153382605
 21
132.8238172576
  0
LINE
  5
210
100
AcDbEntity
  8
0
100
AcDbLine
 62
7
  6
CONTINUOUS
 10
33.6753382626
 20
146.6582071732
 11
36.7053382605
 21
160.3256539378
  0
LINE
  5
211
100
AcDbEntity
  8
0
100
AcDbLine
 62
7
  6
CONTINUOUS
 10
20.2853382608
 20
69.9136014019
 11
21.6453382612
 21
76.0481649671
  0
LINE
  5
212
100
AcDbEntity
  8
0
100
AcDbLine
 62
7
  6
CONTINUOUS
 10
18.9853382624
 20
63.9960787284
 11
19.685338262
 21
67.1535746817
  0
LINE
  5
213
100
AcDbEntity
  8
0
100
AcDbLine
 62
7
  6
CONTINUOUS
 10
26.1753382614
 20
65.708823944
 11
25.4753382618
 21
62.5513279934
  0
LINE
  5
214
100
AcDbEntity
  8
0
100
AcDbLine
 62
7
  6
CONTINUOUS
 10
44.1853382611
 20
129.7932512207
 11
41.1553382607
 21
116.1258044535
  0
LINE
  5
215
100
AcDbEntity
  8
0
100
AcDbLine
 62
7
  6
CONTINUOUS
 10
50.3748093492
 20
157.2952051575
 11
47.3453382606
 21
143.6301441641
  0
LINE
  5
216
100
AcDbEntity
  8
0
100
AcDbLine
 62
7
  6
CONTINUOUS
 10
28.0153382618
 20
99.8236728338
 11
31.0453382623
 21
113.479839715
  0
LINE
  5
217
100
AcDbEntity
  8
0
100
AcDbLine
 62
7
  6
CONTINUOUS
 10
26.2153382626
 20
80.0288812119
 11
29.2453382605
 21
93.6850480931
  0
LINE
  5
218
100
AcDbEntity
  8
0
100
AcDbLine
 62
7
  6
CONTINUOUS
 10
28.1353382606
 20
74.6628093228
 11
27.1653382626
 21
70.2910331261
  0
LINE
  5
219
100
AcDbEntity
  8
0
100
AcDbLine
 62
7
  6
CONTINUOUS
 10
26.7453382618
 20
60.8050438939
 11
27.7553382611
 21
65.3570995218
  0
LINE
  5
21A
100
AcDbEntity
  8
0
100
AcDbLine
 62
7
  6
CONTINUOUS
 10
23.2753382625
 20
75.6868026672
 11
23.495338262
 21
76.6775218237
  0
LINE
  5
21B
100
AcDbEntity
  8
0
100
AcDbLine
 62
7
  6
CONTINUOUS
 10
22.6153382617
 20
42.1841406938
 11
25.6553382625
 21
55.8740781094
  0
LINE
  5
21C
100
AcDbEntity
  8
0
100
AcDbLine
 62
7
  6
CONTINUOUS
 10
23.8353382627
 20
62.913706217
 11
23.6353382614
 21
62.0152755755
  0
LINE
  5
21D
100
AcDbEntity
  8
0
100
AcDbLine
 62
7
  6
CONTINUOUS
 10
26.7153382609
 20
75.9642546041
 11
26.5053382618
 21
75.024768609
  0
LINE
  5
21E
100
AcDbEntity
  8
0
100
AcDbLine
 62
7
  6
CONTINUOUS
 10
7.8356038614
 20
30.1026974805
 11
116.8896468146
 21
5.9259982191
  0
LINE
  5
21F
100
AcDbEntity
  8
0
100
AcDbLine
 62
7
  6
CONTINUOUS
 10
46.6153382627
 20
70.4981248404
 11
46.8253382618
 21
71.4477263524
  0
LINE
  5
220
100
AcDbEntity
  8
0
100
AcDbLine
 62
7
  6
CONTINUOUS
 10
44.0437150366
 20
57.5741406935
 11
44.242910658
 21
58.4741406944
  0
LINE
  5
221
100
AcDbEntity
  8
0
100
AcDbLine
 62
7
  6
CONTINUOUS
 10
70.8753382617
 20
138.8943267777
 11
73.8953382619
 21
152.5392049667
  0
LINE
  5
222
100
AcDbEntity
  8
0
100
AcDbLine
 62
7
  6
CONTINUOUS
 10
43.4613334886
 20
71.5110759844
 11
42.4253382607
 21
66.8341406952
  0
LINE
  5
223
100
AcDbEntity
  8
0
100
AcDbLine
 62
7
  6
CONTINUOUS
 10
44.0053912474
 20
66.4841406941
 11
44.975338261
 21
70.8629054824
  0
LINE
  5
224
100
AcDbEntity
  8
0
100
AcDbLine
 62
7
  6
CONTINUOUS
 10
49.9773993186
 20
70.74893124
 11
49.775942706
 21
69.8394680221
  0
LINE
  5
225
100
AcDbEntity
  8
0
100
AcDbLine
 62
7
  6
CONTINUOUS
 10
51.7853382605
 20
74.7441406943
 11
54.8153382609
 21
88.4228851224
  0
LINE
  5
226
100
AcDbEntity
  8
0
100
AcDbLine
 62
7
  6
CONTINUOUS
 10
46.0853382609
 20
115.0347067323
 11
49.1153382614
 21
128.7021534994
  0
LINE
  5
227
100
AcDbEntity
  8
0
100
AcDbLine
 62
7
  6
CONTINUOUS
 10
42.9129547175
 20
90.6550104727
 11
39.8853382607
 21
76.998315175
  0
LINE
  5
228
100
AcDbEntity
  8
0
100
AcDbLine
 62
7
  6
CONTINUOUS
 10
51.2653382616
 20
94.0070552824
 11
54.295338262
 21
107.6745020496
  0
LINE
  5
229
100
AcDbEntity
  8
0
100
AcDbLine
 62
7
  6
CONTINUOUS
 10
47.4432001274
 20
57.7641406945
 11
47.2436749308
 21
56.8641406936
  0
LINE
  5
22A
100
AcDbEntity
  8
0
100
AcDbLine
 62
7
  6
CONTINUOUS
 10
62.7853382619
 20
125.67158746
 11
59.7553382615
 21
112.0041406954
  0
LINE
  5
22B
100
AcDbEntity
  8
0
100
AcDbLine
 62
7
  6
CONTINUOUS
 10
51.7395773868
 20
69.4041406936
 11
50.3828060516
 21
63.2841406933
  0
LINE
  5
22C
100
AcDbEntity
  8
0
100
AcDbLine
 62
7
  6
CONTINUOUS
 10
64.6853382618
 20
110.9100606483
 11
67.7153382622
 21
124.5775074155
  0
LINE
  5
22D
100
AcDbEntity
  8
0
100
AcDbLine
 62
7
  6
CONTINUOUS
 10
44.7148089116
 20
110.4468879018
 11
41.6853382624
 21
96.7931067969
  0
LINE
  5
22E
100
AcDbEntity
  8
0
100
AcDbLine
 62
7
  6
CONTINUOUS
 10
42.6230698337
 20
58.8341406957
 11
43.3242036207
 21
61.9941406952
  0
LINE
  5
22F
100
AcDbEntity
  8
0
100
AcDbLine
 62
7
  6
CONTINUOUS
 10
39.3002429869
 20
52.8440781089
 11
36.2602429861
 21
39.1541406933
  0
LINE
  5
230
100
AcDbEntity
  8
0
100
AcDbLine
 62
7
  6
CONTINUOUS
 10
41.514981486
 20
62.3952355852
 11
40.4843757189
 21
57.7541406942
  0
LINE
  5
231
100
AcDbEntity
  8
0
100
AcDbLine
 62
7
  6
CONTINUOUS
 10
49.7692337735
 20
60.5541406949
 11
49.0697418984
 21
57.4041406957
  0
LINE
  5
232
100
AcDbEntity
  8
0
100
AcDbLine
 62
7
  6
CONTINUOUS
 10
51.2349126862
 20
63.0941406949
 11
50.6276863771
 21
60.3641406939
  0
LINE
  5
233
100
AcDbEntity
  8
0
100
AcDbLine
 62
7
  6
CONTINUOUS
 10
0.0
 20
0.0
 11
594.0
 21
0.0
  0
LINE
  5
234
100
AcDbEntity
  8
0
100
AcDbLine
 62
7
  6
CONTINUOUS
 10
164.1647253123
 20
19.3441406538
 11
122.0028416987
 21
24.9641406939
  0
LINE
  5
235
100
AcDbEntity
  8
0
100
AcDbLine
 62
7
  6
CONTINUOUS
 10
115.2069554226
 20
29.3241406937
 11
116.0220784278
 21
29.1441406956
  0
LINE
  5
236
100
AcDbEntity
  8
0
100
AcDbLine
 62
7
  6
CONTINUOUS
 10
115.4605860634
 20
26.4041406943
 11
114.6016025921
 21
26.5941406953
  0
LINE
  5
237
100
AcDbEntity
  8
0
100
AcDbLine
 62
7
  6
CONTINUOUS
 10
122.333297911
 20
34.1841406943
 11
123.959499543
 21
33.8241406955
  0
LINE
  5
238
100
AcDbEntity
  8
0
100
AcDbLine
 62
7
  6
CONTINUOUS
 10
119.2641041129
 20
35.8706681671
 11
122.5459934521
 21
35.1441406946
  0
LINE
  5
239
100
AcDbEntity
  8
0
100
AcDbLine
 62
7
  6
CONTINUOUS
 10
101.3638368985
 20
24.7241406939
 11
87.6879507985
 21
27.7541406943
  0
LINE
  5
23A
100
AcDbEntity
  8
0
100
AcDbLine
 62
7
  6
CONTINUOUS
 10
116.4338250973
 20
22.8841406934
 11
114.7638323032
 21
23.2541406951
  0
LINE
  5
23B
100
AcDbEntity
  8
0
100
AcDbLine
 62
7
  6
CONTINUOUS
 10
121.304934494
 20
21.8141406947
 11
119.6800766414
 21
22.1741406935
  0
LINE
  5
23C
100
AcDbEntity
  8
0
100
AcDbLine
 62
7
  6
CONTINUOUS
 10
90.7166466867
 20
41.4241406949
 11
104.3925327868
 21
38.3941406944
  0
LINE
  5
23D
100
AcDbEntity
  8
0
100
AcDbLine
 62
7
  6
CONTINUOUS
 10
68.8327850266
 20
31.9441406938
 11
55.1653382619
 21
34.9741406942
  0
LINE
  5
23E
100
AcDbEntity
  8
0
100
AcDbLine
 62
7
  6
CONTINUOUS
 10
117.3791331229
 20
35.2641406933
 11
119.0477467808
 21
34.8941406942
  0
LINE
  5
23F
100
AcDbEntity
  8
0
100
AcDbLine
 62
7
  6
CONTINUOUS
 10
119.4798504709
 20
21.2741406952
 11
116.235497592
 21
21.9941406954
  0
LINE
  5
240
100
AcDbEntity
  8
0
100
AcDbLine
 62
7
  6
CONTINUOUS
 10
58.1965504926
 20
48.6470554845
 11
71.8658542893
 21
45.6141406943
  0
LINE
  5
241
100
AcDbEntity
  8
0
100
AcDbLine
 62
7
  6
CONTINUOUS
 10
36.2602429861
 20
39.1541406933
 11
22.6153382617
 21
42.1841406938
  0
LINE
  5
242
100
AcDbEntity
  8
0
100
AcDbLine
 62
7
  6
CONTINUOUS
 10
25.6553382625
 20
55.8740781094
 11
39.3002429869
 21
52.8440781089
  0
LINE
  5
243
100
AcDbEntity
  8
0
100
AcDbLine
 62
7
  6
CONTINUOUS
 10
87.5571914486
 20
149.5104450349
 11
84.535338262
 21
135.8684788848
  0
LINE
  5
244
100
AcDbEntity
  8
0
100
AcDbLine
 62
7
  6
CONTINUOUS
 10
67.865358493
 20
104.6661009925
 11
64.8358835589
 21
91.0010226407
  0
LINE
  5
245
100
AcDbEntity
  8
0
100
AcDbLine
 62
7
  6
CONTINUOUS
 10
56.9486489295
 20
54.0841406936
 11
59.9781581283
 21
67.7493736094
  0
LINE
  5
246
100
AcDbEntity
  8
0
100
AcDbLine
 62
7
  6
CONTINUOUS
 10
55.1653382619
 20
34.9741406942
 11
58.1965504926
 21
48.6470554845
  0
LINE
  5
247
100
AcDbEntity
  8
0
100
AcDbLine
 62
7
  6
CONTINUOUS
 10
68.4964700807
 20
85.3923562863
 11
65.4640826885
 21
71.7141406939
  0
LINE
  5
248
100
AcDbEntity
  8
0
100
AcDbLine
 62
7
  6
CONTINUOUS
 10
69.9412392257
 20
90.233289274
 11
72.8937771967
 21
103.5513274029
  0
LINE
  5
249
100
AcDbEntity
  8
0
100
AcDbLine
 62
7
  6
CONTINUOUS
 10
81.3853382628
 20
121.546941376
 11
78.3553382623
 21
107.8794946089
  0
LINE
  5
24A
100
AcDbEntity
  8
0
100
AcDbLine
 62
7
  6
CONTINUOUS
 10
70.469566137
 20
70.6241406945
 11
73.4996191905
 21
84.2918267678
  0
LINE
  5
24B
100
AcDbEntity
  8
0
100
AcDbLine
 62
7
  6
CONTINUOUS
 10
73.635381845
 20
64.7241406937
 11
70.6048158081
 21
51.0541406957
  0
LINE
  5
24C
100
AcDbEntity
  8
0
100
AcDbLine
 62
7
  6
CONTINUOUS
 10
89.4653382623
 20
134.6817850326
 11
92.4989306609
 21
148.3654360625
  0
LINE
  5
24D
100
AcDbEntity
  8
0
100
AcDbLine
 62
7
  6
CONTINUOUS
 10
83.2823020533
 20
106.7779730121
 11
86.3153382605
 21
120.4591152306
  0
LINE
  5
24E
100
AcDbEntity
  8
0
100
AcDbLine
 62
7
  6
CONTINUOUS
 10
71.8658542893
 20
45.6141406943
 11
68.8327850266
 21
31.9441406938
  0
LINE
  5
24F
100
AcDbEntity
  8
0
100
AcDbLine
 62
7
  6
CONTINUOUS
 10
178.1653382609
 20
14.6441406939
 11
164.1653382625
 21
14.6441406939
  0
LINE
  5
250
100
AcDbEntity
  8
0
100
AcDbLine
 62
7
  6
CONTINUOUS
 10
122.9920918309
 20
29.4541406954
 11
164.1641254049
 21
23.9441407349
  0
LINE
  5
251
100
AcDbEntity
  8
0
100
AcDbLine
 62
7
  6
CONTINUOUS
 10
25.4753382618
 20
62.5513279934
 11
23.8353382627
 21
62.913706217
  0
LINE
  5
252
100
AcDbEntity
  8
0
100
AcDbLine
 62
7
  6
CONTINUOUS
 10
19.4353382616
 20
70.1014193854
 11
20.2853382608
 21
69.9136014019
  0
LINE
  5
253
100
AcDbEntity
  8
0
100
AcDbLine
 62
7
  6
CONTINUOUS
 10
145.0227407007
 20
34.5616447552
 11
131.3242689029
 21
37.5941406942
  0
LINE
  5
254
100
AcDbEntity
  8
0
100
AcDbLine
 62
7
  6
CONTINUOUS
 10
49.0697418984
 20
57.4041406957
 11
47.4432001274
 21
57.7641406945
  0
LINE
  5
255
100
AcDbEntity
  8
0
100
AcDbLine
 62
7
  6
CONTINUOUS
 10
50.6276863771
 20
60.3641406939
 11
49.7692337735
 21
60.5541406949
  0
LINE
  5
256
100
AcDbEntity
  8
0
100
AcDbLine
 62
7
  6
CONTINUOUS
 10
78.5270599509
 20
63.6322818995
 11
92.2058604266
 21
60.6041406939
  0
LINE
  5
257
100
AcDbEntity
  8
0
100
AcDbLine
 62
7
  6
CONTINUOUS
 10
107.81502535
 20
42.8041406933
 11
94.1391392499
 21
45.8341406937
  0
LINE
  5
258
100
AcDbEntity
  8
0
100
AcDbLine
 62
7
  6
CONTINUOUS
 10
89.1771645384
 20
46.9341406934
 11
75.5012784383
 21
49.9641406938
  0
LINE
  5
259
100
AcDbEntity
  8
0
100
AcDbLine
 62
7
  6
CONTINUOUS
 10
126.4222029615
 20
38.6841406935
 11
112.7463168615
 21
41.714140694
  0
LINE
  5
25A
100
AcDbEntity
  8
0
100
AcDbLine
 62
7
  6
CONTINUOUS
 10
23.6353382614
 20
62.0152755755
 11
20.4153382625
 21
62.7285427951
  0
LINE
  5
25B
100
AcDbEntity
  8
0
100
AcDbLine
 62
7
  6
CONTINUOUS
 10
42.4253382607
 20
66.8341406952
 11
44.0053912474
 21
66.4841406941
  0
LINE
  5
25C
100
AcDbEntity
  8
0
100
AcDbLine
 62
7
  6
CONTINUOUS
 10
134.350630399
 20
51.264901821
 11
148.0509584162
 21
48.2294865203
  0
LINE
  5
25D
100
AcDbEntity
  8
0
100
AcDbLine
 62
7
  6
CONTINUOUS
 10
97.1678351382
 20
59.5041406943
 11
110.8437212382
 21
56.4741406939
  0
LINE
  5
25E
100
AcDbEntity
  8
0
100
AcDbLine
 62
7
  6
CONTINUOUS
 10
115.7726268846
 20
55.3846693016
 11
129.4508988498
 21
52.3541406941
  0
LINE
  5
25F
100
AcDbEntity
  8
0
100
AcDbLine
 62
7
  6
CONTINUOUS
 10
59.9781581283
 20
67.7493736094
 11
73.635381845
 21
64.7241406937
  0
LINE
  5
260
100
AcDbEntity
  8
0
100
AcDbLine
 62
7
  6
CONTINUOUS
 10
29.7753382623
 20
74.5426821208
 11
43.4613334886
 21
71.5110759844
  0
LINE
  5
261
100
AcDbEntity
  8
0
100
AcDbLine
 62
7
  6
CONTINUOUS
 10
23.495338262
 20
76.6775218237
 11
26.7153382609
 21
75.9642546041
  0
LINE
  5
262
100
AcDbEntity
  8
0
100
AcDbLine
 62
7
  6
CONTINUOUS
 10
121.2309113731
 20
59.3441406943
 11
107.5550252705
 21
62.3741406947
  0
LINE
  5
263
100
AcDbEntity
  8
0
100
AcDbLine
 62
7
  6
CONTINUOUS
 10
139.8400459556
 20
55.2262558338
 11
126.1737065218
 21
58.2541406949
  0
LINE
  5
264
100
AcDbEntity
  8
0
100
AcDbLine
 62
7
  6
CONTINUOUS
 10
65.4640826885
 20
71.7141406939
 11
51.7853382605
 21
74.7441406943
  0
LINE
  5
265
100
AcDbEntity
  8
0
100
AcDbLine
 62
7
  6
CONTINUOUS
 10
43.3242036207
 20
61.9941406952
 11
41.514981486
 21
62.3952355852
  0
LINE
  5
266
100
AcDbEntity
  8
0
100
AcDbLine
 62
7
  6
CONTINUOUS
 10
21.6453382612
 20
76.0481649671
 11
23.2753382625
 21
75.6868026672
  0
LINE
  5
267
100
AcDbEntity
  8
0
100
AcDbLine
 62
7
  6
CONTINUOUS
 10
49.775942706
 20
69.8394680221
 11
51.7395773868
 21
69.4041406936
  0
LINE
  5
268
100
AcDbEntity
  8
0
100
AcDbLine
 62
7
  6
CONTINUOUS
 10
46.8253382618
 20
71.4477263524
 11
49.9773993186
 21
70.74893124
  0
LINE
  5
269
100
AcDbEntity
  8
0
100
AcDbLine
 62
7
  6
CONTINUOUS
 10
39.8853382607
 20
76.998315175
 11
26.2153382626
 21
80.0288812119
  0
LINE
  5
26A
100
AcDbEntity
  8
0
100
AcDbLine
 62
7
  6
CONTINUOUS
 10
102.6244026934
 20
63.4741406943
 11
88.9748871934
 21
66.5001654297
  0
LINE
  5
26B
100
AcDbEntity
  8
0
100
AcDbLine
 62
7
  6
CONTINUOUS
 10
84.1370129017
 20
67.5941406941
 11
70.469566137
 21
70.6241406945
  0
LINE
  5
26C
100
AcDbEntity
  8
0
100
AcDbLine
 62
7
  6
CONTINUOUS
 10
70.6048158081
 20
51.0541406957
 11
56.9486489295
 21
54.0841406936
  0
LINE
  5
26D
100
AcDbEntity
  8
0
100
AcDbLine
 62
7
  6
CONTINUOUS
 10
47.2436749308
 20
56.8641406936
 11
44.0437150366
 21
57.5741406935
  0
LINE
  5
26E
100
AcDbEntity
  8
0
100
AcDbLine
 62
7
  6
CONTINUOUS
 10
40.4843757189
 20
57.7541406942
 11
26.7453382618
 21
60.8050438939
  0
LINE
  5
26F
100
AcDbEntity
  8
0
100
AcDbLine
 62
7
  6
CONTINUOUS
 10
27.1653382626
 20
70.2910331261
 11
28.7553382626
 21
69.9379562732
  0
LINE
  5
270
100
AcDbEntity
  8
0
100
AcDbLine
 62
7
  6
CONTINUOUS
 10
26.5053382618
 20
75.024768609
 11
28.1353382606
 21
74.6628093228
  0
LINE
  5
271
100
AcDbEntity
  8
0
100
AcDbLine
 62
7
  6
CONTINUOUS
 10
44.242910658
 20
58.4741406944
 11
42.6230698337
 21
58.8341406957
  0
LINE
  5
272
100
AcDbEntity
  8
0
100
AcDbLine
 62
7
  6
CONTINUOUS
 10
44.975338261
 20
70.8629054824
 11
46.6153382627
 21
70.4981248404
  0
LINE
  5
273
100
AcDbEntity
  8
0
100
AcDbLine
 62
7
  6
CONTINUOUS
 10
27.7553382611
 20
65.3570995218
 11
26.1753382614
 21
65.708823944
  0
LINE
  5
274
100
AcDbEntity
  8
0
100
AcDbLine
 62
7
  6
CONTINUOUS
 10
20.6153382612
 20
63.6329251875
 11
18.9853382624
 21
63.9960787284
  0
LINE
  5
275
100
AcDbEntity
  8
0
100
AcDbLine
 62
7
  6
CONTINUOUS
 10
19.685338262
 20
67.1535746817
 11
18.8253382624
 21
67.3453347172
  0
LINE
  5
276
100
AcDbEntity
  8
0
100
AcDbLine
 62
7
  6
CONTINUOUS
 10
50.3828060516
 20
63.2841406933
 11
51.2349126862
 21
63.0941406949
  0
LINE
  5
277
100
AcDbEntity
  8
0
100
AcDbLine
 62
7
  6
CONTINUOUS
 10
75.5012784383
 20
49.9641406938
 11
78.5270599509
 21
63.6322818995
  0
LINE
  5
278
100
AcDbEntity
  8
0
100
AcDbLine
 62
7
  6
CONTINUOUS
 10
88.4527773638
 20
86.1172757306
 11
91.4805463705
 21
99.7859484846
  0
LINE
  5
279
100
AcDbEntity
  8
0
100
AcDbLine
 62
7
  6
CONTINUOUS
 10
99.9525766045
 20
117.435812278
 11
96.9219282055
 21
103.7541406955
  0
LINE
  5
27A
100
AcDbEntity
  8
0
100
AcDbLine
 62
7
  6
CONTINUOUS
 10
106.1617047247
 20
145.3364719757
 11
103.1310289039
 21
131.6546765961
  0
LINE
  5
27B
100
AcDbEntity
  8
0
100
AcDbLine
 62
7
  6
CONTINUOUS
 10
92.2058604266
 20
60.6041406939
 11
89.1771645384
 21
46.9341406934
  0
LINE
  5
27C
100
AcDbEntity
  8
0
100
AcDbLine
 62
7
  6
CONTINUOUS
 10
101.877281579
 20
102.6559069357
 11
104.9047831593
 21
116.3233724074
  0
LINE
  5
27D
100
AcDbEntity
  8
0
100
AcDbLine
 62
7
  6
CONTINUOUS
 10
87.6879507985
 20
27.7541406943
 11
90.7166466867
 21
41.4241406949
  0
LINE
  5
27E
100
AcDbEntity
  8
0
100
AcDbLine
 62
7
  6
CONTINUOUS
 10
86.4778635844
 20
100.5398079548
 11
83.5258512233
 21
87.2241406949
  0
LINE
  5
27F
100
AcDbEntity
  8
0
100
AcDbLine
 62
7
  6
CONTINUOUS
 10
88.9748871934
 20
66.5001654297
 11
92.0039409956
 21
80.1633441688
  0
LINE
  5
280
100
AcDbEntity
  8
0
100
AcDbLine
 62
7
  6
CONTINUOUS
 10
108.063279588
 20
130.5563658159
 11
111.0963799531
 21
144.2377974243
  0
LINE
  5
281
100
AcDbEntity
  8
0
100
AcDbLine
 62
7
  6
CONTINUOUS
 10
87.1678633855
 20
81.2541406943
 11
84.1370129017
 21
67.5941406941
  0
LINE
  5
282
100
AcDbEntity
  8
0
100
AcDbLine
 62
7
  6
CONTINUOUS
 10
280.4241670144
 20
33.5541406945
 11
266.7905067532
 21
30.524140694
  0
LINE
  5
283
100
AcDbEntity
  8
0
100
AcDbLine
 62
7
  6
CONTINUOUS
 10
344.8078804946
 20
32.5063245275
 11
225.1946483855
 21
5.9449010058
  0
LINE
  5
284
100
AcDbEntity
  8
0
100
AcDbLine
 62
7
  6
CONTINUOUS
 10
226.4222418435
 20
20.8441406942
 11
223.224254051
 21
20.1341406943
  0
LINE
  5
285
100
AcDbEntity
  8
0
100
AcDbLine
 62
7
  6
CONTINUOUS
 10
308.1780705946
 20
39.7341406941
 11
294.5331658703
 21
36.7041406937
  0
LINE
  5
286
100
AcDbEntity
  8
0
100
AcDbLine
 62
7
  6
CONTINUOUS
 10
252.4789749394
 20
27.3690661863
 11
238.8118893984
 21
24.3341406941
  0
LINE
  5
287
100
AcDbEntity
  8
0
100
AcDbLine
 62
7
  6
CONTINUOUS
 10
336.0635123979
 20
45.9242849305
 11
322.3925599253
 21
42.8941406936
  0
LINE
  5
288
100
AcDbEntity
  8
0
100
AcDbLine
 62
7
  6
CONTINUOUS
 10
223.0116473997
 20
21.0941406945
 11
221.3423366286
 21
20.7241406954
  0
LINE
  5
289
100
AcDbEntity
  8
0
100
AcDbLine
 62
7
  6
CONTINUOUS
 10
227.8328861316
 20
22.1641406958
 11
226.2073490373
 21
21.8041406944
  0
LINE
  5
28A
100
AcDbEntity
  8
0
100
AcDbLine
 62
7
  6
CONTINUOUS
 10
178.1635123997
 20
23.9459663193
 11
219.3766837426
 21
29.5841406944
  0
LINE
  5
28B
100
AcDbEntity
  8
0
100
AcDbLine
 62
7
  6
CONTINUOUS
 10
220.3737332801
 20
25.0941406955
 11
178.1647253742
 21
19.3441406538
  0
LINE
  5
28C
100
AcDbEntity
  8
0
100
AcDbLine
 62
7
  6
CONTINUOUS
 10
164.1635125181
 20
28.6441406948
 11
178.1635123997
 21
28.6459663198
  0
LINE
  5
28D
100
AcDbEntity
  8
0
100
AcDbLine
 62
7
  6
CONTINUOUS
 10
366.4859197293
 20
34.8842849303
 11
495.3535161261
 21
34.8842849303
  0
LINE
  5
28E
100
AcDbEntity
  8
0
100
AcDbLine
 62
7
  6
CONTINUOUS
 10
129.2009984784
 20
71.917804061
 11
142.8673379122
 21
68.8899191998
  0
LINE
  5
28F
100
AcDbEntity
  8
0
100
AcDbLine
 62
7
  6
CONTINUOUS
 10
54.8153382609
 20
88.4228851224
 11
68.4964700807
 21
85.3923562863
  0
LINE
  5
290
100
AcDbEntity
  8
0
100
AcDbLine
 62
7
  6
CONTINUOUS
 10
110.5918353742
 20
76.0807641552
 11
124.2677214742
 21
73.0507641547
  0
LINE
  5
291
100
AcDbEntity
  8
0
100
AcDbLine
 62
7
  6
CONTINUOUS
 10
64.8358835589
 20
91.0010226407
 11
51.2653382616
 21
94.0070552824
  0
LINE
  5
292
100
AcDbEntity
  8
0
100
AcDbLine
 62
7
  6
CONTINUOUS
 10
102.1214501179
 20
83.0895067239
 11
88.4527773638
 21
86.1172757306
  0
LINE
  5
293
100
AcDbEntity
  8
0
100
AcDbLine
 62
7
  6
CONTINUOUS
 10
83.5258512233
 20
87.2241406949
 11
69.9412392257
 21
90.233289274
  0
LINE
  5
294
100
AcDbEntity
  8
0
100
AcDbLine
 62
7
  6
CONTINUOUS
 10
29.2453382605
 20
93.6850480931
 11
42.9129547175
 21
90.6550104727
  0
LINE
  5
295
100
AcDbEntity
  8
0
100
AcDbLine
 62
7
  6
CONTINUOUS
 10
92.0039409956
 20
80.1633441688
 11
105.653456493
 21
77.1373194335
  0
LINE
  5
296
100
AcDbEntity
  8
0
100
AcDbLine
 62
7
  6
CONTINUOUS
 10
120.7169497721
 20
78.9684304956
 11
107.0520505081
 21
81.9978657271
  0
LINE
  5
297
100
AcDbEntity
  8
0
100
AcDbLine
 62
7
  6
CONTINUOUS
 10
139.3074869979
 20
74.8498666754
 11
125.63735588
 21
77.8804617826
  0
LINE
  5
298
100
AcDbEntity
  8
0
100
AcDbLine
 62
7
  6
CONTINUOUS
 10
41.6853382624
 20
96.7931067969
 11
28.0153382618
 21
99.8236728338
  0
LINE
  5
299
100
AcDbEntity
  8
0
100
AcDbLine
 62
7
  6
CONTINUOUS
 10
73.4996191905
 20
84.2918267678
 11
87.1678633855
 21
81.2541406943
  0
LINE
  5
29A
100
AcDbEntity
  8
0
100
AcDbLine
 62
7
  6
CONTINUOUS
 10
112.7463168615
 20
41.714140694
 11
115.7726268846
 21
55.3846693016
  0
LINE
  5
29B
100
AcDbEntity
  8
0
100
AcDbLine
 62
7
  6
CONTINUOUS
 10
105.1492191246
 20
96.7581794754
 11
102.1214501179
 21
83.0895067239
  0
LINE
  5
29C
100
AcDbEntity
  8
0
100
AcDbLine
 62
7
  6
CONTINUOUS
 10
94.1391392499
 20
45.8341406937
 11
97.1678351382
 21
59.5041406943
  0
LINE
  5
29D
100
AcDbEntity
  8
0
100
AcDbLine
 62
7
  6
CONTINUOUS
 10
107.0520505081
 20
81.9978657271
 11
110.0778853048
 21
95.6578066063
  0
LINE
  5
29E
100
AcDbEntity
  8
0
100
AcDbLine
 62
7
  6
CONTINUOUS
 10
118.561756907
 20
113.2981948637
 11
115.5342553268
 21
99.6307293919
  0
LINE
  5
29F
100
AcDbEntity
  8
0
100
AcDbLine
 62
7
  6
CONTINUOUS
 10
124.7518578872
 20
141.2129512235
 11
121.7206174447
 21
127.5286069057
  0
LINE
  5
2A0
100
AcDbEntity
  8
0
100
AcDbLine
 62
7
  6
CONTINUOUS
 10
107.5550252705
 20
62.3741406947
 11
110.5918353742
 21
76.0807641552
  0
LINE
  5
2A1
100
AcDbEntity
  8
0
100
AcDbLine
 62
7
  6
CONTINUOUS
 10
104.3925327868
 20
38.3941406944
 11
101.3638368985
 21
24.7241406939
  0
LINE
  5
2A2
100
AcDbEntity
  8
0
100
AcDbLine
 62
7
  6
CONTINUOUS
 10
110.8437212382
 20
56.4741406939
 11
107.81502535
 21
42.8041406933
  0
LINE
  5
2A3
100
AcDbEntity
  8
0
100
AcDbLine
 62
7
  6
CONTINUOUS
 10
120.4746100257
 20
98.5384441775
 11
123.5023790095
 21
112.2071168248
  0
LINE
  5
2A4
100
AcDbEntity
  8
0
100
AcDbLine
 62
7
  6
CONTINUOUS
 10
105.653456493
 20
77.1373194335
 11
102.6244026934
 21
63.4741406943
  0
LINE
  5
2A5
100
AcDbEntity
  8
0
100
AcDbLine
 62
7
  6
CONTINUOUS
 10
126.6632004501
 20
126.4367096889
 11
129.6933260484
 21
140.1047229904
  0
LINE
  5
2A6
100
AcDbEntity
  8
0
100
AcDbLine
 62
7
  6
CONTINUOUS
 10
123.7451685849
 20
92.6278428516
 11
120.7169497721
 21
78.9684304956
  0
LINE
  5
2A7
100
AcDbEntity
  8
0
100
AcDbLine
 62
7
  6
CONTINUOUS
 10
330.1835123977
 20
67.9910043555
 11
328.7979350952
 21
67.6808474828
  0
LINE
  5
2A8
100
AcDbEntity
  8
0
100
AcDbLine
 62
7
  6
CONTINUOUS
 10
227.3275611936
 20
28.4741406945
 11
226.4752774905
 21
28.2841406935
  0
LINE
  5
2A9
100
AcDbEntity
  8
0
100
AcDbLine
 62
7
  6
CONTINUOUS
 10
337.1435123995
 20
72.3342849298
 11
336.2839410477
 21
72.1431326756
  0
LINE
  5
2AA
100
AcDbEntity
  8
0
100
AcDbLine
 62
7
  6
CONTINUOUS
 10
291.4975931911
 20
50.3741406942
 11
305.1419690798
 21
53.4065221809
  0
LINE
  5
2AB
100
AcDbEntity
  8
0
100
AcDbLine
 62
7
  6
CONTINUOUS
 10
218.6794990663
 20
32.7341406936
 11
220.3010140021
 21
33.094140695
  0
LINE
  5
2AC
100
AcDbEntity
  8
0
100
AcDbLine
 62
7
  6
CONTINUOUS
 10
263.7524304621
 20
44.1941406946
 11
277.3866195564
 21
47.2217611722
  0
LINE
  5
2AD
100
AcDbEntity
  8
0
100
AcDbLine
 62
7
  6
CONTINUOUS
 10
235.7769639036
 20
38.0012262377
 11
249.4440494472
 21
41.0361517299
  0
LINE
  5
2AE
100
AcDbEntity
  8
0
100
AcDbLine
 62
7
  6
CONTINUOUS
 10
312.8835123978
 20
59.5375055349
 11
309.6647678752
 21
58.8228972359
  0
LINE
  5
2AF
100
AcDbEntity
  8
0
100
AcDbLine
 62
7
  6
CONTINUOUS
 10
280.8938844087
 20
53.1841406953
 11
267.2489796818
 21
50.1541406948
  0
LINE
  5
2B0
100
AcDbEntity
  8
0
100
AcDbLine
 62
7
  6
CONTINUOUS
 10
299.4024130939
 20
57.2955806385
 11
285.8432898134
 21
54.2846293452
  0
LINE
  5
2B1
100
AcDbEntity
  8
0
100
AcDbLine
 62
7
  6
CONTINUOUS
 10
262.2557448728
 20
49.0541406952
 11
248.5445442358
 21
46.009418964
  0
LINE
  5
2B2
100
AcDbEntity
  8
0
100
AcDbLine
 62
7
  6
CONTINUOUS
 10
243.6617889035
 20
44.9341406954
 11
230.0168841766
 21
41.904140695
  0
LINE
  5
2B3
100
AcDbEntity
  8
0
100
AcDbLine
 62
7
  6
CONTINUOUS
 10
223.5384094247
 20
33.8141406952
 11
225.1612629735
 21
34.174140694
  0
LINE
  5
2B4
100
AcDbEntity
  8
0
100
AcDbLine
 62
7
  6
CONTINUOUS
 10
220.101365674
 20
33.9941406933
 11
223.339150923
 21
34.7123833793
  0
LINE
  5
2B5
100
AcDbEntity
  8
0
100
AcDbLine
 62
7
  6
CONTINUOUS
 10
319.3630887859
 20
56.5620563931
 11
333.0335123975
 21
59.5945866602
  0
LINE
  5
2B6
100
AcDbEntity
  8
0
100
AcDbLine
 62
7
  6
CONTINUOUS
 10
225.104269689
 20
40.8141406957
 11
211.4481028103
 21
37.7841406952
  0
LINE
  5
2B7
100
AcDbEntity
  8
0
100
AcDbLine
 62
7
  6
CONTINUOUS
 10
336.223512398
 20
64.6942849317
 11
332.9935123987
 21
63.9783607171
  0
LINE
  5
2B8
100
AcDbEntity
  8
0
100
AcDbLine
 62
7
  6
CONTINUOUS
 10
329.6135123973
 20
64.00428493
 11
315.9563222314
 21
60.9771910883
  0
LINE
  5
2B9
100
AcDbEntity
  8
0
100
AcDbLine
 62
7
  6
CONTINUOUS
 10
337.6435123977
 20
66.0142849308
 11
336.011299368
 21
65.6525075847
  0
LINE
  5
2BA
100
AcDbEntity
  8
0
100
AcDbLine
 62
7
  6
CONTINUOUS
 10
332.7723639028
 20
64.9802430466
 11
330.9408226662
 21
64.5742849304
  0
LINE
  5
2BB
100
AcDbEntity
  8
0
100
AcDbLine
 62
7
  6
CONTINUOUS
 10
314.3135123979
 20
60.7077488408
 11
312.7031770791
 21
60.3511155053
  0
LINE
  5
2BC
100
AcDbEntity
  8
0
100
AcDbLine
 62
7
  6
CONTINUOUS
 10
309.4843435802
 20
59.6382556991
 11
308.4272251763
 21
59.4041406936
  0
LINE
  5
2BD
100
AcDbEntity
  8
0
100
AcDbLine
 62
7
  6
CONTINUOUS
 10
314.9235123996
 20
65.6368683298
 11
313.2998459695
 21
65.2772826176
  0
LINE
  5
2BE
100
AcDbEntity
  8
0
100
AcDbLine
 62
7
  6
CONTINUOUS
 10
225.8606089815
 20
31.0241406948
 11
226.7192411733
 21
31.2141406933
  0
LINE
  5
2BF
100
AcDbEntity
  8
0
100
AcDbLine
 62
7
  6
CONTINUOUS
 10
481.5832863972
 20
52.81428493
 11
480.6035161266
 21
52.7930666285
  0
LINE
  5
2C0
100
AcDbEntity
  8
0
100
AcDbLine
 62
7
  6
CONTINUOUS
 10
493.8832946216
 20
56.2272344262
 11
494.8030973235
 21
56.2462868062
  0
LINE
  5
2C1
100
AcDbEntity
  8
0
100
AcDbLine
 62
7
  6
CONTINUOUS
 10
487.8527573609
 20
51.2082937046
 11
481.5831941621
 21
51.1342849321
  0
LINE
  5
2C2
100
AcDbEntity
  8
0
100
AcDbLine
 62
7
  6
CONTINUOUS
 10
494.8036140941
 20
52.9462868453
 11
493.8836696272
 21
52.93617842
  0
LINE
  5
2C3
100
AcDbEntity
  8
0
100
AcDbLine
 62
7
  6
CONTINUOUS
 10
490.6532682546
 20
57.8745805828
 11
493.8831031919
 21
57.9072344164
  0
LINE
  5
2C4
100
AcDbEntity
  8
0
100
AcDbLine
 62
7
  6
CONTINUOUS
 10
495.3531089692
 20
59.5423417939
 11
490.6533516504
 21
59.4945805813
  0
LINE
  5
2C5
100
AcDbEntity
  8
0
100
AcDbLine
 62
7
  6
CONTINUOUS
 10
480.6035161266
 20
56.09306663
 11
481.5834669454
 21
56.1028845784
  0
LINE
  5
2C6
100
AcDbEntity
  8
0
100
AcDbLine
 62
7
  6
CONTINUOUS
 10
481.5834918476
 20
57.7828845788
 11
486.0532658417
 21
57.8278340342
  0
LINE
  5
2C7
100
AcDbEntity
  8
0
100
AcDbLine
 62
7
  6
CONTINUOUS
 10
490.653754055
 20
50.3505339012
 11
487.8538423777
 21
50.3282943724
  0
LINE
  5
2C8
100
AcDbEntity
  8
0
100
AcDbLine
 62
7
  6
CONTINUOUS
 10
493.8837809224
 20
51.2561784222
 11
490.6538827263
 21
51.2305338938
  0
LINE
  5
2C9
100
AcDbEntity
  8
0
100
AcDbLine
 62
7
  6
CONTINUOUS
 10
486.0534376727
 20
59.4478340251
 11
481.3535161252
 21
59.420678179
  0
LINE
  5
2CA
100
AcDbEntity
  8
0
100
AcDbLine
 62
7
  6
CONTINUOUS
 10
456.873512398
 20
56.3847861913
 11
456.0035161268
 21
56.3822397905
  0
LINE
  5
2CB
100
AcDbEntity
  8
0
100
AcDbLine
 62
7
  6
CONTINUOUS
 10
427.1394860038
 20
50.1139566401
 11
425.4594869584
 21
50.1121663998
  0
LINE
  5
2CC
100
AcDbEntity
  8
0
100
AcDbLine
 62
7
  6
CONTINUOUS
 10
449.2337207764
 20
54.5846073939
 11
447.6137208439
 21
54.5841394675
  0
LINE
  5
2CD
100
AcDbEntity
  8
0
100
AcDbLine
 62
7
  6
CONTINUOUS
 10
454.1367456592
 20
49.1352232381
 11
450.8367456602
 21
49.1351403351
  0
LINE
  5
2CE
100
AcDbEntity
  8
0
100
AcDbLine
 62
7
  6
CONTINUOUS
 10
447.7068240486
 20
49.885061708
 11
433.706824068
 21
49.8843164643
  0
LINE
  5
2CF
100
AcDbEntity
  8
0
100
AcDbLine
 62
7
  6
CONTINUOUS
 10
476.3035161261
 20
49.8842849302
 11
462.3035161252
 21
49.8842849302
  0
LINE
  5
2D0
100
AcDbEntity
  8
0
100
AcDbLine
 62
7
  6
CONTINUOUS
 10
409.6235123973
 20
49.8842849302
 11
395.6235123988
 21
49.8842849302
  0
LINE
  5
2D1
100
AcDbEntity
  8
0
100
AcDbLine
 62
7
  6
CONTINUOUS
 10
390.5735123973
 20
49.8842849302
 11
376.5735123988
 21
49.8842849302
  0
LINE
  5
2D2
100
AcDbEntity
  8
0
100
AcDbLine
 62
7
  6
CONTINUOUS
 10
371.5235123973
 20
49.8842849302
 11
357.5235123988
 21
49.8842849302
  0
LINE
  5
2D3
100
AcDbEntity
  8
0
100
AcDbLine
 62
7
  6
CONTINUOUS
 10
432.0874084727
 20
50.1142302616
 11
430.4074084748
 21
50.114137356
  0
LINE
  5
2D4
100
AcDbEntity
  8
0
100
AcDbLine
 62
7
  6
CONTINUOUS
 10
450.8506479413
 20
50.115041723
 11
449.1706479409
 21
50.1150524011
  0
LINE
  5
2D5
100
AcDbEntity
  8
0
100
AcDbLine
 62
7
  6
CONTINUOUS
 10
433.719002098
 20
54.5843006889
 11
432.099002102
 21
54.5842152256
  0
LINE
  5
2D6
100
AcDbEntity
  8
0
100
AcDbLine
 62
7
  6
CONTINUOUS
 10
456.0035161293
 20
59.1847135709
 11
456.8735161267
 21
59.1847861895
  0
LINE
  5
2D7
100
AcDbEntity
  8
0
100
AcDbLine
 62
7
  6
CONTINUOUS
 10
424.5708385884
 20
59.1842869398
 11
425.4508385886
 21
59.1842973081
  0
LINE
  5
2D8
100
AcDbEntity
  8
0
100
AcDbLine
 62
7
  6
CONTINUOUS
 10
432.1109322763
 20
59.1842960508
 11
433.7309322773
 21
59.1843007218
  0
LINE
  5
2D9
100
AcDbEntity
  8
0
100
AcDbLine
 62
7
  6
CONTINUOUS
 10
454.3335161368
 20
62.4145741343
 11
456.0035161319
 21
62.4147135701
  0
LINE
  5
2DA
100
AcDbEntity
  8
0
100
AcDbLine
 62
7
  6
CONTINUOUS
 10
449.3429842612
 20
62.4142849299
 11
451.0229842591
 21
62.4143822881
  0
LINE
  5
2DB
100
AcDbEntity
  8
0
100
AcDbLine
 62
7
  6
CONTINUOUS
 10
425.4592921328
 20
62.4142862456
 11
427.1392921332
 21
62.4142880769
  0
LINE
  5
2DC
100
AcDbEntity
  8
0
100
AcDbLine
 62
7
  6
CONTINUOUS
 10
430.4393091578
 20
62.4142854557
 11
432.1193091582
 21
62.414285189
  0
LINE
  5
2DD
100
AcDbEntity
  8
0
100
AcDbLine
 62
7
  6
CONTINUOUS
 10
451.0363681134
 20
63.3342849314
 11
454.3363681022
 21
63.3345697136
  0
LINE
  5
2DE
100
AcDbEntity
  8
0
100
AcDbLine
 62
7
  6
CONTINUOUS
 10
427.1416983159
 20
63.3342849314
 11
430.4416983173
 21
63.3342823533
  0
LINE
  5
2DF
100
AcDbEntity
  8
0
100
AcDbLine
 62
7
  6
CONTINUOUS
 10
357.5235123988
 20
63.8842849312
 11
371.5235123973
 21
63.8842849312
  0
LINE
  5
2E0
100
AcDbEntity
  8
0
100
AcDbLine
 62
7
  6
CONTINUOUS
 10
376.5735123988
 20
63.8842849312
 11
390.5735123973
 21
63.8842849312
  0
LINE
  5
2E1
100
AcDbEntity
  8
0
100
AcDbLine
 62
7
  6
CONTINUOUS
 10
395.6235123988
 20
63.8842849312
 11
409.6235123973
 21
63.8842849312
  0
LINE
  5
2E2
100
AcDbEntity
  8
0
100
AcDbLine
 62
7
  6
CONTINUOUS
 10
433.7431159741
 20
63.8842849312
 11
447.743115975
 21
63.8842849312
  0
LINE
  5
2E3
100
AcDbEntity
  8
0
100
AcDbLine
 62
7
  6
CONTINUOUS
 10
462.3035161252
 20
63.8842849312
 11
476.3035161261
 21
63.8842849312
  0
LINE
  5
2E4
100
AcDbEntity
  8
0
100
AcDbLine
 62
7
  6
CONTINUOUS
 10
430.4048507837
 20
49.1341406952
 11
427.1048508102
 21
49.1345688706
  0
LINE
  5
2E5
100
AcDbEntity
  8
0
100
AcDbLine
 62
7
  6
CONTINUOUS
 10
455.8433852964
 20
50.11428493
 11
454.1733853141
 21
50.1145380664
  0
LINE
  5
2E6
100
AcDbEntity
  8
0
100
AcDbLine
 62
7
  6
CONTINUOUS
 10
447.677730086
 20
59.1847397735
 11
449.2977300819
 21
59.1846019658
  0
LINE
  5
2E7
100
AcDbEntity
  8
0
100
AcDbLine
 62
7
  6
CONTINUOUS
 10
425.453509833
 20
56.3821635499
 11
424.5735123981
 21
56.3842882167
  0
LINE
  5
2E8
100
AcDbEntity
  8
0
100
AcDbLine
 62
7
  6
CONTINUOUS
 10
91.4805463705
 20
99.7859484846
 11
105.1492191246
 21
96.7581794754
  0
LINE
  5
2E9
100
AcDbEntity
  8
0
100
AcDbLine
 62
7
  6
CONTINUOUS
 10
115.5342553268
 20
99.6307293919
 11
101.877281579
 21
102.6559069357
  0
LINE
  5
2EA
100
AcDbEntity
  8
0
100
AcDbLine
 62
7
  6
CONTINUOUS
 10
134.1455476825
 20
95.5101734675
 11
120.4746100257
 21
98.5384441775
  0
LINE
  5
2EB
100
AcDbEntity
  8
0
100
AcDbLine
 62
7
  6
CONTINUOUS
 10
54.295338262
 20
107.6745020496
 11
67.865358493
 21
104.6661009925
  0
LINE
  5
2EC
100
AcDbEntity
  8
0
100
AcDbLine
 62
7
  6
CONTINUOUS
 10
72.8937771967
 20
103.5513274029
 11
86.4778635844
 21
100.5398079548
  0
LINE
  5
2ED
100
AcDbEntity
  8
0
100
AcDbLine
 62
7
  6
CONTINUOUS
 10
110.0778853048
 20
95.6578066063
 11
123.7451685849
 21
92.6278428516
  0
LINE
  5
2EE
100
AcDbEntity
  8
0
100
AcDbLine
 62
7
  6
CONTINUOUS
 10
128.6682386092
 20
91.5518902715
 11
142.3383697245
 21
88.5212951669
  0
LINE
  5
2EF
100
AcDbEntity
  8
0
100
AcDbLine
 62
7
  6
CONTINUOUS
 10
96.9219282055
 20
103.7541406955
 11
83.2823020533
 21
106.7779730121
  0
LINE
  5
2F0
100
AcDbEntity
  8
0
100
AcDbLine
 62
7
  6
CONTINUOUS
 10
152.7353312064
 20
91.3826509732
 11
139.0308382827
 21
94.4208639087
  0
LINE
  5
2F1
100
AcDbEntity
  8
0
100
AcDbLine
 62
7
  6
CONTINUOUS
 10
41.1553382607
 20
116.1258044535
 11
27.4853382626
 21
119.156370493
  0
LINE
  5
2F2
100
AcDbEntity
  8
0
100
AcDbLine
 62
7
  6
CONTINUOUS
 10
78.3553382623
 20
107.8794946089
 11
64.6853382618
 21
110.9100606483
  0
LINE
  5
2F3
100
AcDbEntity
  8
0
100
AcDbLine
 62
7
  6
CONTINUOUS
 10
59.7553382615
 20
112.0041406954
 11
46.0853382609
 21
115.0347067323
  0
LINE
  5
2F4
100
AcDbEntity
  8
0
100
AcDbLine
 62
7
  6
CONTINUOUS
 10
31.0453382623
 20
113.479839715
 11
44.7148089116
 21
110.4468879018
  0
LINE
  5
2F5
100
AcDbEntity
  8
0
100
AcDbLine
 62
7
  6
CONTINUOUS
 10
164.1653382625
 20
14.6441406939
 11
164.1647253123
 21
19.3441406538
  0
LINE
  5
2F6
100
AcDbEntity
  8
0
100
AcDbLine
 62
7
  6
CONTINUOUS
 10
164.1641254049
 20
23.9441407349
 11
164.1635125181
 21
28.6441406948
  0
LINE
  5
2F7
100
AcDbEntity
  8
0
100
AcDbLine
 62
7
  6
CONTINUOUS
 10
114.7638323032
 20
23.2541406951
 11
115.4605860634
 21
26.4041406943
  0
LINE
  5
2F8
100
AcDbEntity
  8
0
100
AcDbLine
 62
7
  6
CONTINUOUS
 10
123.959499543
 20
33.8241406955
 11
122.9920918309
 21
29.4541406954
  0
LINE
  5
2F9
100
AcDbEntity
  8
0
100
AcDbLine
 62
7
  6
CONTINUOUS
 10
131.3242689029
 20
37.5941406942
 11
134.350630399
 21
51.264901821
  0
LINE
  5
2FA
100
AcDbEntity
  8
0
100
AcDbLine
 62
7
  6
CONTINUOUS
 10
124.2677214742
 20
73.0507641547
 11
121.2309113731
 21
59.3441406943
  0
LINE
  5
2FB
100
AcDbEntity
  8
0
100
AcDbLine
 62
7
  6
CONTINUOUS
 10
119.0477467808
 20
34.8941406942
 11
119.2641041129
 21
35.8706681671
  0
LINE
  5
2FC
100
AcDbEntity
  8
0
100
AcDbLine
 62
7
  6
CONTINUOUS
 10
137.1733166663
 20
109.1788461148
 11
134.1455476825
 21
95.5101734675
  0
LINE
  5
2FD
100
AcDbEntity
  8
0
100
AcDbLine
 62
7
  6
CONTINUOUS
 10
126.1737065218
 20
58.2541406949
 11
129.2009984784
 21
71.917804061
  0
LINE
  5
2FE
100
AcDbEntity
  8
0
100
AcDbLine
 62
7
  6
CONTINUOUS
 10
122.5459934521
 20
35.1441406946
 11
122.333297911
 21
34.1841406943
  0
LINE
  5
2FF
100
AcDbEntity
  8
0
100
AcDbLine
 62
7
  6
CONTINUOUS
 10
122.0028416987
 20
24.9641406939
 11
121.304934494
 21
21.8141406947
  0
LINE
  5
300
100
AcDbEntity
  8
0
100
AcDbLine
 62
7
  6
CONTINUOUS
 10
129.4508988498
 20
52.3541406941
 11
126.4222029615
 21
38.6841406935
  0
LINE
  5
301
100
AcDbEntity
  8
0
100
AcDbLine
 62
7
  6
CONTINUOUS
 10
139.0308382827
 20
94.4208639087
 11
142.0601193666
 21
108.0963628315
  0
LINE
  5
302
100
AcDbEntity
  8
0
100
AcDbLine
 62
7
  6
CONTINUOUS
 10
145.2412951861
 20
122.3328221512
 11
148.2695125282
 21
136.003518884
  0
LINE
  5
303
100
AcDbEntity
  8
0
100
AcDbLine
 62
7
  6
CONTINUOUS
 10
125.63735588
 20
77.8804617826
 11
128.6682386092
 21
91.5518902715
  0
LINE
  5
304
100
AcDbEntity
  8
0
100
AcDbLine
 62
7
  6
CONTINUOUS
 10
114.6016025921
 20
26.5941406953
 11
115.2069554226
 21
29.3241406937
  0
LINE
  5
305
100
AcDbEntity
  8
0
100
AcDbLine
 62
7
  6
CONTINUOUS
 10
116.0220784278
 20
29.1441406956
 11
117.3791331229
 21
35.2641406933
  0
LINE
  5
306
100
AcDbEntity
  8
0
100
AcDbLine
 62
7
  6
CONTINUOUS
 10
143.3418082206
 20
137.0814264284
 11
140.3111545435
 21
123.4110311099
  0
LINE
  5
307
100
AcDbEntity
  8
0
100
AcDbLine
 62
7
  6
CONTINUOUS
 10
142.3383697245
 20
88.5212951669
 11
139.3074869979
 21
74.8498666754
  0
LINE
  5
308
100
AcDbEntity
  8
0
100
AcDbLine
 62
7
  6
CONTINUOUS
 10
119.6800766414
 20
22.1741406935
 11
119.4798504709
 21
21.2741406952
  0
LINE
  5
309
100
AcDbEntity
  8
0
100
AcDbLine
 62
7
  6
CONTINUOUS
 10
116.235497592
 20
21.9941406954
 11
116.4338250973
 21
22.8841406934
  0
LINE
  5
30A
100
AcDbEntity
  8
0
100
AcDbLine
 62
7
  6
CONTINUOUS
 10
309.3034354508
 20
85.6921305077
 11
309.041146392
 21
85.6336461365
  0
LINE
  5
30B
100
AcDbEntity
  8
0
100
AcDbLine
 62
7
  6
CONTINUOUS
 10
305.5763314268
 20
68.2032343299
 11
305.8535123989
 21
68.2648740872
  0
LINE
  5
30C
100
AcDbEntity
  8
0
100
AcDbLine
 62
7
  6
CONTINUOUS
 10
339.9975054545
 20
92.4843585742
 11
339.0980038423
 21
92.2842849307
  0
LINE
  5
30D
100
AcDbEntity
  8
0
100
AcDbLine
 62
7
  6
CONTINUOUS
 10
327.6083389248
 20
73.084284931
 11
329.1835123987
 21
73.4342849295
  0
LINE
  5
30E
100
AcDbEntity
  8
0
100
AcDbLine
 62
7
  6
CONTINUOUS
 10
264.2138331334
 20
63.8222217152
 11
277.8582090247
 21
66.8546031993
  0
LINE
  5
30F
100
AcDbEntity
  8
0
100
AcDbLine
 62
7
  6
CONTINUOUS
 10
282.807287257
 20
67.9678496647
 11
296.3640224575
 21
70.9782706594
  0
LINE
  5
310
100
AcDbEntity
  8
0
100
AcDbLine
 62
7
  6
CONTINUOUS
 10
226.9838149164
 20
55.5741406955
 11
240.626333867
 21
58.6036109079
  0
LINE
  5
311
100
AcDbEntity
  8
0
100
AcDbLine
 62
7
  6
CONTINUOUS
 10
245.5057024344
 20
59.6941406953
 11
259.2145146383
 21
62.7383320466
  0
LINE
  5
312
100
AcDbEntity
  8
0
100
AcDbLine
 62
7
  6
CONTINUOUS
 10
304.5635123983
 20
77.9642849296
 11
290.9179581401
 21
74.9341406953
  0
LINE
  5
313
100
AcDbEntity
  8
0
100
AcDbLine
 62
7
  6
CONTINUOUS
 10
211.7059966684
 20
57.3503405645
 11
197.9035123989
 21
54.2853483049
  0
LINE
  5
314
100
AcDbEntity
  8
0
100
AcDbLine
 62
7
  6
CONTINUOUS
 10
248.7884225873
 20
65.5941406936
 11
235.1435178629
 21
62.5641406957
  0
LINE
  5
315
100
AcDbEntity
  8
0
100
AcDbLine
 62
7
  6
CONTINUOUS
 10
208.4131216489
 20
51.4514769241
 11
222.0716740219
 21
54.4820062123
  0
LINE
  5
316
100
AcDbEntity
  8
0
100
AcDbLine
 62
7
  6
CONTINUOUS
 10
285.9818989469
 20
73.8422976517
 11
272.4291500403
 21
70.8352438029
  0
LINE
  5
317
100
AcDbEntity
  8
0
100
AcDbLine
 62
7
  6
CONTINUOUS
 10
340.5035161265
 20
85.9496610671
 11
338.9077747764
 21
85.5956015186
  0
LINE
  5
318
100
AcDbEntity
  8
0
100
AcDbLine
 62
7
  6
CONTINUOUS
 10
335.6717518098
 20
84.8775999244
 11
334.0564089826
 21
84.5191912432
  0
LINE
  5
319
100
AcDbEntity
  8
0
100
AcDbLine
 62
7
  6
CONTINUOUS
 10
230.1596792784
 20
61.4741406938
 11
216.5035123972
 21
58.4441406934
  0
LINE
  5
31A
100
AcDbEntity
  8
0
100
AcDbLine
 62
7
  6
CONTINUOUS
 10
317.1635123976
 20
80.9942849301
 11
315.5214710132
 21
80.6299524329
  0
LINE
  5
31B
100
AcDbEntity
  8
0
100
AcDbLine
 62
7
  6
CONTINUOUS
 10
312.2727996061
 20
79.9142849311
 11
310.6635123979
 21
79.5572198565
  0
LINE
  5
31C
100
AcDbEntity
  8
0
100
AcDbLine
 62
7
  6
CONTINUOUS
 10
305.1556317449
 20
71.4134678484
 11
306.7835123982
 21
71.7742849297
  0
LINE
  5
31D
100
AcDbEntity
  8
0
100
AcDbLine
 62
7
  6
CONTINUOUS
 10
329.3320132346
 20
80.5519925558
 11
333.1435123985
 21
81.3968051055
  0
LINE
  5
31E
100
AcDbEntity
  8
0
100
AcDbLine
 62
7
  6
CONTINUOUS
 10
315.7335123976
 20
79.674284931
 11
312.4858022763
 21
78.9542849308
  0
LINE
  5
31F
100
AcDbEntity
  8
0
100
AcDbLine
 62
7
  6
CONTINUOUS
 10
267.4631267059
 20
69.7141406934
 11
253.8302003726
 21
66.6917936901
  0
LINE
  5
320
100
AcDbEntity
  8
0
100
AcDbLine
 62
7
  6
CONTINUOUS
 10
332.4703487613
 20
84.1454459404
 11
318.793512399
 21
81.113364316
  0
LINE
  5
321
100
AcDbEntity
  8
0
100
AcDbLine
 62
7
  6
CONTINUOUS
 10
317.775879245
 20
85.6998224583
 11
316.1971161415
 21
85.3498191044
  0
LINE
  5
322
100
AcDbEntity
  8
0
100
AcDbLine
 62
7
  6
CONTINUOUS
 10
333.9660365141
 20
77.6642849302
 11
335.0076452386
 21
77.894965081
  0
LINE
  5
323
100
AcDbEntity
  8
0
100
AcDbLine
 62
7
  6
CONTINUOUS
 10
312.9230070102
 20
74.6471191408
 11
326.5918133683
 21
77.6742849305
  0
LINE
  5
324
100
AcDbEntity
  8
0
100
AcDbLine
 62
7
  6
CONTINUOUS
 10
305.9935519766
 20
75.3620141906
 11
309.8135123987
 21
76.2080027272
  0
LINE
  5
325
100
AcDbEntity
  8
0
100
AcDbLine
 62
7
  6
CONTINUOUS
 10
339.0735123977
 20
84.8442849314
 11
335.8372401835
 21
84.1274132282
  0
LINE
  5
326
100
AcDbEntity
  8
0
100
AcDbLine
 62
7
  6
CONTINUOUS
 10
333.0435161265
 20
89.0842849299
 11
331.4535161264
 21
88.7320815525
  0
LINE
  5
327
100
AcDbEntity
  8
0
100
AcDbLine
 62
7
  6
CONTINUOUS
 10
335.6782803541
 20
74.8742849298
 11
336.5369125433
 21
75.0642849308
  0
LINE
  5
328
100
AcDbEntity
  8
0
100
AcDbLine
 62
7
  6
CONTINUOUS
 10
310.6320159915
 20
72.4906401797
 11
312.2597442601
 21
72.8508274324
  0
LINE
  5
329
100
AcDbEntity
  8
0
100
AcDbLine
 62
7
  6
CONTINUOUS
 10
312.9565941237
 20
69.7042849295
 11
313.968141872
 21
69.927937233
  0
LINE
  5
32A
100
AcDbEntity
  8
0
100
AcDbLine
 62
7
  6
CONTINUOUS
 10
306.4635123981
 20
68.2710517126
 11
305.6035123986
 21
68.0809064821
  0
LINE
  5
32B
100
AcDbEntity
  8
0
100
AcDbLine
 62
7
  6
CONTINUOUS
 10
328.4829309246
 20
76.5924547294
 11
330.1235123983
 21
76.9542849303
  0
LINE
  5
32C
100
AcDbEntity
  8
0
100
AcDbLine
 62
7
  6
CONTINUOUS
 10
480.6035161266
 20
80.0142849317
 11
481.5834774737
 21
80.0229888285
  0
LINE
  5
32D
100
AcDbEntity
  8
0
100
AcDbLine
 62
7
  6
CONTINUOUS
 10
481.3535161252
 20
73.4206781774
 11
486.0533381174
 21
73.4615835236
  0
LINE
  5
32E
100
AcDbEntity
  8
0
100
AcDbLine
 62
7
  6
CONTINUOUS
 10
490.6533359126
 20
73.5014980793
 11
495.3531584408
 21
73.5423417949
  0
LINE
  5
32F
100
AcDbEntity
  8
0
100
AcDbLine
 62
7
  6
CONTINUOUS
 10
481.5834791197
 20
76.7228012785
 11
480.6035161266
 21
76.7142849303
  0
LINE
  5
330
100
AcDbEntity
  8
0
100
AcDbLine
 62
7
  6
CONTINUOUS
 10
481.5834644867
 20
81.692988826
 11
487.8532281016
 21
81.7474332892
  0
LINE
  5
331
100
AcDbEntity
  8
0
100
AcDbLine
 62
7
  6
CONTINUOUS
 10
487.8532092243
 20
82.6274332894
 11
490.6531036677
 21
82.6517459738
  0
LINE
  5
332
100
AcDbEntity
  8
0
100
AcDbLine
 62
7
  6
CONTINUOUS
 10
493.8831239869
 20
75.1595246032
 11
490.6532455826
 21
75.1314980755
  0
LINE
  5
333
100
AcDbEntity
  8
0
100
AcDbLine
 62
7
  6
CONTINUOUS
 10
486.0533478837
 20
75.0915835249
 11
481.5835161249
 21
75.0528012809
  0
LINE
  5
334
100
AcDbEntity
  8
0
100
AcDbLine
 62
7
  6
CONTINUOUS
 10
494.8030540775
 20
76.8374726214
 11
493.8830884091
 21
76.8295246007
  0
LINE
  5
335
100
AcDbEntity
  8
0
100
AcDbLine
 62
7
  6
CONTINUOUS
 10
490.6530497257
 20
81.7717459736
 11
493.882928793
 21
81.799696258
  0
LINE
  5
336
100
AcDbEntity
  8
0
100
AcDbLine
 62
7
  6
CONTINUOUS
 10
493.8829824251
 20
80.1296962579
 11
494.802949559
 21
80.1374726203
  0
LINE
  5
337
100
AcDbEntity
  8
0
100
AcDbLine
 62
7
  6
CONTINUOUS
 10
490.6531802589
 20
88.3729125731
 11
487.8531820108
 21
88.3697793866
  0
LINE
  5
338
100
AcDbEntity
  8
0
100
AcDbLine
 62
7
  6
CONTINUOUS
 10
476.3035161261
 20
68.9342849302
 11
462.3035161252
 21
68.9342849302
  0
LINE
  5
339
100
AcDbEntity
  8
0
100
AcDbLine
 62
7
  6
CONTINUOUS
 10
457.2535161261
 20
68.9342849302
 11
443.2535161252
 21
68.9342849302
  0
LINE
  5
33A
100
AcDbEntity
  8
0
100
AcDbLine
 62
7
  6
CONTINUOUS
 10
438.2035161261
 20
68.9342849302
 11
424.2035161252
 21
68.9342849302
  0
LINE
  5
33B
100
AcDbEntity
  8
0
100
AcDbLine
 62
7
  6
CONTINUOUS
 10
390.5735123973
 20
68.9342849302
 11
376.5735123988
 21
68.9342849302
  0
LINE
  5
33C
100
AcDbEntity
  8
0
100
AcDbLine
 62
7
  6
CONTINUOUS
 10
376.5735123988
 20
82.9342849312
 11
390.5735123973
 21
82.9342849312
  0
LINE
  5
33D
100
AcDbEntity
  8
0
100
AcDbLine
 62
7
  6
CONTINUOUS
 10
424.2035161252
 20
82.9342849312
 11
438.2035161261
 21
82.9342849312
  0
LINE
  5
33E
100
AcDbEntity
  8
0
100
AcDbLine
 62
7
  6
CONTINUOUS
 10
443.2535161252
 20
82.9342849312
 11
457.2535161261
 21
82.9342849312
  0
LINE
  5
33F
100
AcDbEntity
  8
0
100
AcDbLine
 62
7
  6
CONTINUOUS
 10
462.3035161252
 20
82.9342849312
 11
476.3035161261
 21
82.9342849312
  0
LINE
  5
340
100
AcDbEntity
  8
0
100
AcDbLine
 62
7
  6
CONTINUOUS
 10
476.3035161261
 20
87.9842849302
 11
462.3035161252
 21
87.9842849302
  0
LINE
  5
341
100
AcDbEntity
  8
0
100
AcDbLine
 62
7
  6
CONTINUOUS
 10
457.2535161261
 20
87.9842849302
 11
443.2535161252
 21
87.9842849302
  0
LINE
  5
342
100
AcDbEntity
  8
0
100
AcDbLine
 62
7
  6
CONTINUOUS
 10
438.2035161261
 20
87.9842849302
 11
424.2035161252
 21
87.9842849302
  0
LINE
  5
343
100
AcDbEntity
  8
0
100
AcDbLine
 62
7
  6
CONTINUOUS
 10
104.9047831593
 20
116.3233724074
 11
118.561756907
 21
113.2981948637
  0
LINE
  5
344
100
AcDbEntity
  8
0
100
AcDbLine
 62
7
  6
CONTINUOUS
 10
123.5023790095
 20
112.2071168248
 11
137.1733166663
 21
109.1788461148
  0
LINE
  5
345
100
AcDbEntity
  8
0
100
AcDbLine
 62
7
  6
CONTINUOUS
 10
142.0601193666
 20
108.0963628315
 11
155.7675293838
 21
105.0600130698
  0
LINE
  5
346
100
AcDbEntity
  8
0
100
AcDbLine
 62
7
  6
CONTINUOUS
 10
30.5153382605
 20
132.8238172576
 11
44.1853382611
 21
129.7932512207
  0
LINE
  5
347
100
AcDbEntity
  8
0
100
AcDbLine
 62
7
  6
CONTINUOUS
 10
67.7153382622
 20
124.5775074155
 11
81.3853382628
 21
121.546941376
  0
LINE
  5
348
100
AcDbEntity
  8
0
100
AcDbLine
 62
7
  6
CONTINUOUS
 10
49.1153382614
 20
128.7021534994
 11
62.7853382619
 21
125.67158746
  0
LINE
  5
349
100
AcDbEntity
  8
0
100
AcDbLine
 62
7
  6
CONTINUOUS
 10
86.3153382605
 20
120.4591152306
 11
99.9525766045
 21
117.435812278
  0
LINE
  5
34A
100
AcDbEntity
  8
0
100
AcDbLine
 62
7
  6
CONTINUOUS
 10
197.9035123989
 20
54.2853483049
 11
194.8735123985
 21
67.9302530318
  0
LINE
  5
34B
100
AcDbEntity
  8
0
100
AcDbLine
 62
7
  6
CONTINUOUS
 10
189.2640067798
 20
71.8888056658
 11
186.2286234501
 21
85.5692351375
  0
LINE
  5
34C
100
AcDbEntity
  8
0
100
AcDbLine
 62
7
  6
CONTINUOUS
 10
183.4735123995
 20
119.4543397015
 11
180.443512399
 21
133.1105065801
  0
LINE
  5
34D
100
AcDbEntity
  8
0
100
AcDbLine
 62
7
  6
CONTINUOUS
 10
194.3027952468
 20
92.5200809412
 11
191.2735123976
 21
106.1730156241
  0
LINE
  5
34E
100
AcDbEntity
  8
0
100
AcDbLine
 62
7
  6
CONTINUOUS
 10
178.1647253742
 20
19.3441406538
 11
178.1653382609
 21
14.6441406939
  0
LINE
  5
34F
100
AcDbEntity
  8
0
100
AcDbLine
 62
7
  6
CONTINUOUS
 10
178.1635123997
 20
28.6459663198
 11
178.1635123997
 21
23.9459663193
  0
LINE
  5
350
100
AcDbEntity
  8
0
100
AcDbLine
 62
7
  6
CONTINUOUS
 10
142.8673379122
 20
68.8899191998
 11
139.8400459556
 21
55.2262558338
  0
LINE
  5
351
100
AcDbEntity
  8
0
100
AcDbLine
 62
7
  6
CONTINUOUS
 10
161.9399075216
 20
132.9753683794
 11
158.911690177
 21
119.3046716493
  0
LINE
  5
352
100
AcDbEntity
  8
0
100
AcDbLine
 62
7
  6
CONTINUOUS
 10
148.0509584162
 20
48.2294865203
 11
145.0227407007
 21
34.5616447552
  0
LINE
  5
353
100
AcDbEntity
  8
0
100
AcDbLine
 62
7
  6
CONTINUOUS
 10
155.7675293838
 20
105.0600130698
 11
152.7353312064
 21
91.3826509732
  0
LINE
  5
354
100
AcDbEntity
  8
0
100
AcDbLine
 62
7
  6
CONTINUOUS
 10
338.5450484305
 20
95.0150963296
 11
339.3935161265
 21
95.2042849301
  0
LINE
  5
355
100
AcDbEntity
  8
0
100
AcDbLine
 62
7
  6
CONTINUOUS
 10
307.8635161259
 20
90.941208991
 11
308.7135161252
 21
91.1305835373
  0
LINE
  5
356
100
AcDbEntity
  8
0
100
AcDbLine
 62
7
  6
CONTINUOUS
 10
312.8719402493
 20
92.6325507035
 11
314.4982440274
 21
92.9942849305
  0
LINE
  5
357
100
AcDbEntity
  8
0
100
AcDbLine
 62
7
  6
CONTINUOUS
 10
287.8840258589
 20
88.5854944797
 11
301.5314338676
 21
91.6185498334
  0
LINE
  5
358
100
AcDbEntity
  8
0
100
AcDbLine
 62
7
  6
CONTINUOUS
 10
309.453516126
 20
92.8192487909
 11
312.6735161249
 21
93.53428493
  0
LINE
  5
359
100
AcDbEntity
  8
0
100
AcDbLine
 62
7
  6
CONTINUOUS
 10
269.3941501997
 20
84.5026641617
 11
282.9463738623
 21
87.5120833194
  0
LINE
  5
35A
100
AcDbEntity
  8
0
100
AcDbLine
 62
7
  6
CONTINUOUS
 10
314.3684018969
 20
99.6542849303
 11
300.7335161264
 21
96.6265097489
  0
LINE
  5
35B
100
AcDbEntity
  8
0
100
AcDbLine
 62
7
  6
CONTINUOUS
 10
295.7696236844
 20
95.5326380631
 11
282.1321352469
 21
92.5042849301
  0
LINE
  5
35C
100
AcDbEntity
  8
0
100
AcDbLine
 62
7
  6
CONTINUOUS
 10
315.1974305869
 20
89.8456598537
 11
316.7935161247
 21
90.1997957723
  0
LINE
  5
35D
100
AcDbEntity
  8
0
100
AcDbLine
 62
7
  6
CONTINUOUS
 10
331.3435161255
 20
96.5943905929
 11
332.9835161246
 21
96.9582701522
  0
LINE
  5
35E
100
AcDbEntity
  8
0
100
AcDbLine
 62
7
  6
CONTINUOUS
 10
336.1734599479
 20
97.8037365715
 11
337.8435161252
 21
98.1742849312
  0
LINE
  5
35F
100
AcDbEntity
  8
0
100
AcDbLine
 62
7
  6
CONTINUOUS
 10
308.5896965862
 20
91.688636442
 11
309.6517609645
 21
91.9242849319
  0
LINE
  5
360
100
AcDbEntity
  8
0
100
AcDbLine
 62
7
  6
CONTINUOUS
 10
332.7835161258
 20
97.8552245051
 11
336.0035161247
 21
98.5696709603
  0
LINE
  5
361
100
AcDbEntity
  8
0
100
AcDbLine
 62
7
  6
CONTINUOUS
 10
194.8735123985
 20
67.9302530318
 11
208.6765316098
 21
70.9928362995
  0
LINE
  5
362
100
AcDbEntity
  8
0
100
AcDbLine
 62
7
  6
CONTINUOUS
 10
232.1139735435
 20
76.2182538243
 11
245.757024012
 21
79.2453435842
  0
LINE
  5
363
100
AcDbEntity
  8
0
100
AcDbLine
 62
7
  6
CONTINUOUS
 10
315.7759010962
 20
94.7861722281
 11
329.4435161256
 21
97.81871232
  0
LINE
  5
364
100
AcDbEntity
  8
0
100
AcDbLine
 62
7
  6
CONTINUOUS
 10
213.4735123993
 20
72.0890454203
 11
227.1320608556
 21
75.1195738398
  0
LINE
  5
365
100
AcDbEntity
  8
0
100
AcDbLine
 62
7
  6
CONTINUOUS
 10
221.4078803634
 20
79.0177945981
 11
207.7245325562
 21
75.9817637537
  0
LINE
  5
366
100
AcDbEntity
  8
0
100
AcDbLine
 62
7
  6
CONTINUOUS
 10
335.3235161258
 20
104.2942849315
 11
321.6535161253
 21
101.2612156687
  0
LINE
  5
367
100
AcDbEntity
  8
0
100
AcDbLine
 62
7
  6
CONTINUOUS
 10
202.9153618088
 20
74.917738023
 11
189.2640067798
 21
71.8888056658
  0
LINE
  5
368
100
AcDbEntity
  8
0
100
AcDbLine
 62
7
  6
CONTINUOUS
 10
277.3415233397
 20
91.4436926215
 11
263.5397698485
 21
88.3813901889
  0
LINE
  5
369
100
AcDbEntity
  8
0
100
AcDbLine
 62
7
  6
CONTINUOUS
 10
330.4904082584
 20
93.100384378
 11
332.043516125
 21
93.4447001029
  0
LINE
  5
36A
100
AcDbEntity
  8
0
100
AcDbLine
 62
7
  6
CONTINUOUS
 10
250.794662428
 20
80.3842205012
 11
264.4251989845
 21
83.4060377037
  0
LINE
  5
36B
100
AcDbEntity
  8
0
100
AcDbLine
 62
7
  6
CONTINUOUS
 10
258.607727038
 20
87.2701725815
 11
244.9197453716
 21
84.2356201035
  0
LINE
  5
36C
100
AcDbEntity
  8
0
100
AcDbLine
 62
7
  6
CONTINUOUS
 10
239.9911715051
 20
83.1616851673
 11
226.3235123991
 21
80.1341406941
  0
LINE
  5
36D
100
AcDbEntity
  8
0
100
AcDbLine
 62
7
  6
CONTINUOUS
 10
487.8531965827
 20
89.2497793843
 11
481.5832005071
 21
89.2427632769
  0
LINE
  5
36E
100
AcDbEntity
  8
0
100
AcDbLine
 62
7
  6
CONTINUOUS
 10
493.8834141057
 20
94.2167886095
 11
494.8034140615
 21
94.2170717915
  0
LINE
  5
36F
100
AcDbEntity
  8
0
100
AcDbLine
 62
7
  6
CONTINUOUS
 10
490.6535159148
 20
95.8957946215
 11
493.8835157616
 21
95.8967886074
  0
LINE
  5
370
100
AcDbEntity
  8
0
100
AcDbLine
 62
7
  6
CONTINUOUS
 10
481.5835161249
 20
95.8930040099
 11
486.0535159149
 21
95.8943793869
  0
LINE
  5
371
100
AcDbEntity
  8
0
100
AcDbLine
 62
7
  6
CONTINUOUS
 10
486.0535159022
 20
97.5143793879
 11
481.3535161252
 21
97.5129334218
  0
LINE
  5
372
100
AcDbEntity
  8
0
100
AcDbLine
 62
7
  6
CONTINUOUS
 10
481.5833741542
 20
90.9227632697
 11
480.6033741558
 21
90.9227021928
  0
LINE
  5
373
100
AcDbEntity
  8
0
100
AcDbLine
 62
7
  6
CONTINUOUS
 10
424.2035161252
 20
101.9842849312
 11
438.2035161261
 21
101.9842849312
  0
LINE
  5
374
100
AcDbEntity
  8
0
100
AcDbLine
 62
7
  6
CONTINUOUS
 10
443.2535161252
 20
101.9842849312
 11
457.2535161261
 21
101.9842849312
  0
LINE
  5
375
100
AcDbEntity
  8
0
100
AcDbLine
 62
7
  6
CONTINUOUS
 10
462.3035161252
 20
101.9842849312
 11
476.3035161261
 21
101.9842849312
  0
LINE
  5
376
100
AcDbEntity
  8
0
100
AcDbLine
 62
7
  6
CONTINUOUS
 10
476.3035161261
 20
107.0342849302
 11
462.3035161252
 21
107.0342849302
  0
LINE
  5
377
100
AcDbEntity
  8
0
100
AcDbLine
 62
7
  6
CONTINUOUS
 10
457.2535161261
 20
107.0342849302
 11
443.2535161252
 21
107.0342849302
  0
LINE
  5
378
100
AcDbEntity
  8
0
100
AcDbLine
 62
7
  6
CONTINUOUS
 10
438.2035161261
 20
107.0342849302
 11
424.2035161252
 21
107.0342849302
  0
LINE
  5
379
100
AcDbEntity
  8
0
100
AcDbLine
 62
7
  6
CONTINUOUS
 10
409.6335161263
 20
107.0342849302
 11
395.6335161253
 21
107.0342849302
  0
LINE
  5
37A
100
AcDbEntity
  8
0
100
AcDbLine
 62
7
  6
CONTINUOUS
 10
390.5835161263
 20
107.0342849302
 11
376.5835161253
 21
107.0342849302
  0
LINE
  5
37B
100
AcDbEntity
  8
0
100
AcDbLine
 62
7
  6
CONTINUOUS
 10
371.5335161263
 20
107.0342849302
 11
357.5335161253
 21
107.0342849302
  0
LINE
  5
37C
100
AcDbEntity
  8
0
100
AcDbLine
 62
7
  6
CONTINUOUS
 10
495.3536135555
 20
97.5129334218
 11
490.6536144261
 21
97.51579462
  0
LINE
  5
37D
100
AcDbEntity
  8
0
100
AcDbLine
 62
7
  6
CONTINUOUS
 10
493.8831857318
 20
89.2465286186
 11
490.6531920394
 21
89.2529125708
  0
LINE
  5
37E
100
AcDbEntity
  8
0
100
AcDbLine
 62
7
  6
CONTINUOUS
 10
480.6035161266
 20
94.2227021918
 11
481.5834681367
 21
94.2130040095
  0
LINE
  5
37F
100
AcDbEntity
  8
0
100
AcDbLine
 62
7
  6
CONTINUOUS
 10
494.8032143184
 20
90.9170717977
 11
493.8832629249
 21
90.926528619
  0
LINE
  5
380
100
AcDbEntity
  8
0
100
AcDbLine
 62
7
  6
CONTINUOUS
 10
47.3453382606
 20
143.6301441641
 11
33.6753382626
 21
146.6582071732
  0
LINE
  5
381
100
AcDbEntity
  8
0
100
AcDbLine
 62
7
  6
CONTINUOUS
 10
103.1310289039
 20
131.6546765961
 11
89.4653382623
 21
134.6817850326
  0
LINE
  5
382
100
AcDbEntity
  8
0
100
AcDbLine
 62
7
  6
CONTINUOUS
 10
158.911690177
 20
119.3046716493
 11
145.2412951861
 21
122.3328221512
  0
LINE
  5
383
100
AcDbEntity
  8
0
100
AcDbLine
 62
7
  6
CONTINUOUS
 10
84.535338262
 20
135.8684788848
 11
70.8753382617
 21
138.8943267777
  0
LINE
  5
384
100
AcDbEntity
  8
0
100
AcDbLine
 62
7
  6
CONTINUOUS
 10
129.6933260484
 20
140.1047229904
 11
143.3418082206
 21
137.0814264284
  0
LINE
  5
385
100
AcDbEntity
  8
0
100
AcDbLine
 62
7
  6
CONTINUOUS
 10
111.0963799531
 20
144.2377974243
 11
124.7518578872
 21
141.2129512235
  0
LINE
  5
386
100
AcDbEntity
  8
0
100
AcDbLine
 62
7
  6
CONTINUOUS
 10
148.2695125282
 20
136.003518884
 11
161.9399075216
 21
132.9753683794
  0
LINE
  5
387
100
AcDbEntity
  8
0
100
AcDbLine
 62
7
  6
CONTINUOUS
 10
121.7206174447
 20
127.5286069057
 11
108.063279588
 21
130.5563658159
  0
LINE
  5
388
100
AcDbEntity
  8
0
100
AcDbLine
 62
7
  6
CONTINUOUS
 10
140.3111545435
 20
123.4110311099
 11
126.6632004501
 21
126.4367096889
  0
LINE
  5
389
100
AcDbEntity
  8
0
100
AcDbLine
 62
7
  6
CONTINUOUS
 10
36.7053382605
 20
160.3256539378
 11
50.3748093492
 21
157.2952051575
  0
LINE
  5
38A
100
AcDbEntity
  8
0
100
AcDbLine
 62
7
  6
CONTINUOUS
 10
92.4989306609
 20
148.3654360625
 11
106.1617047247
 21
145.3364719757
  0
LINE
  5
38B
100
AcDbEntity
  8
0
100
AcDbLine
 62
7
  6
CONTINUOUS
 10
73.8953382619
 20
152.5392049667
 11
87.5571914486
 21
149.5104450349
  0
LINE
  5
38C
100
AcDbEntity
  8
0
100
AcDbLine
 62
7
  6
CONTINUOUS
 10
226.2073490373
 20
21.8041406944
 11
226.4222418435
 21
20.8441406942
  0
LINE
  5
38D
100
AcDbEntity
  8
0
100
AcDbLine
 62
7
  6
CONTINUOUS
 10
199.8775907927
 20
88.5976377218
 11
202.9153618088
 21
74.917738023
  0
LINE
  5
38E
100
AcDbEntity
  8
0
100
AcDbLine
 62
7
  6
CONTINUOUS
 10
211.4481028103
 20
37.7841406952
 11
208.4131216489
 21
51.4514769241
  0
LINE
  5
38F
100
AcDbEntity
  8
0
100
AcDbLine
 62
7
  6
CONTINUOUS
 10
208.6765316098
 20
70.9928362995
 11
211.7059966684
 21
57.3503405645
  0
LINE
  5
390
100
AcDbEntity
  8
0
100
AcDbLine
 62
7
  6
CONTINUOUS
 10
204.9578936699
 20
109.209275772
 11
207.9895594023
 21
95.5568697952
  0
LINE
  5
391
100
AcDbEntity
  8
0
100
AcDbLine
 62
7
  6
CONTINUOUS
 10
216.5035123972
 20
58.4441406934
 11
213.4735123993
 21
72.0890454203
  0
LINE
  5
392
100
AcDbEntity
  8
0
100
AcDbLine
 62
7
  6
CONTINUOUS
 10
202.0905731663
 20
123.5049194311
 11
199.0417607371
 21
137.2345415883
  0
LINE
  5
393
100
AcDbEntity
  8
0
100
AcDbLine
 62
7
  6
CONTINUOUS
 10
225.1612629735
 20
34.174140694
 11
225.8606089815
 21
31.0241406948
  0
LINE
  5
394
100
AcDbEntity
  8
0
100
AcDbLine
 62
7
  6
CONTINUOUS
 10
226.7192411733
 20
31.2141406933
 11
227.3275611936
 21
28.4741406945
  0
LINE
  5
395
100
AcDbEntity
  8
0
100
AcDbLine
 62
7
  6
CONTINUOUS
 10
194.1101138618
 20
136.1428217829
 11
197.1401138597
 21
122.4866549043
  0
LINE
  5
396
100
AcDbEntity
  8
0
100
AcDbLine
 62
7
  6
CONTINUOUS
 10
207.7245325562
 20
75.9817637537
 11
204.6924517522
 21
89.6473087899
  0
LINE
  5
397
100
AcDbEntity
  8
0
100
AcDbLine
 62
7
  6
CONTINUOUS
 10
220.3010140021
 20
33.094140695
 11
220.101365674
 21
33.9941406933
  0
LINE
  5
398
100
AcDbEntity
  8
0
100
AcDbLine
 62
7
  6
CONTINUOUS
 10
223.339150923
 20
34.7123833793
 11
223.5384094247
 21
33.8141406952
  0
LINE
  5
399
100
AcDbEntity
  8
0
100
AcDbLine
 62
7
  6
CONTINUOUS
 10
226.4752774905
 20
28.2841406935
 11
227.8328861316
 21
22.1641406958
  0
LINE
  5
39A
100
AcDbEntity
  8
0
100
AcDbLine
 62
7
  6
CONTINUOUS
 10
222.0716740219
 20
54.4820062123
 11
225.104269689
 21
40.8141406957
  0
LINE
  5
39B
100
AcDbEntity
  8
0
100
AcDbLine
 62
7
  6
CONTINUOUS
 10
213.0266521018
 20
96.6869317997
 11
209.8735123984
 21
110.8980875684
  0
LINE
  5
39C
100
AcDbEntity
  8
0
100
AcDbLine
 62
7
  6
CONTINUOUS
 10
218.3757995569
 20
92.6833396317
 11
221.4078803634
 21
79.0177945981
  0
LINE
  5
39D
100
AcDbEntity
  8
0
100
AcDbLine
 62
7
  6
CONTINUOUS
 10
230.0168841766
 20
41.904140695
 11
226.9838149164
 21
55.5741406955
  0
LINE
  5
39E
100
AcDbEntity
  8
0
100
AcDbLine
 62
7
  6
CONTINUOUS
 10
221.3423366286
 20
20.7241406954
 11
220.3737332801
 21
25.0941406955
  0
LINE
  5
39F
100
AcDbEntity
  8
0
100
AcDbLine
 62
7
  6
CONTINUOUS
 10
223.224254051
 20
20.1341406943
 11
223.0116473997
 21
21.0941406945
  0
LINE
  5
3A0
100
AcDbEntity
  8
0
100
AcDbLine
 62
7
  6
CONTINUOUS
 10
219.3766837426
 20
29.5841406944
 11
218.6794990663
 21
32.7341406936
  0
LINE
  5
3A1
100
AcDbEntity
  8
0
100
AcDbLine
 62
7
  6
CONTINUOUS
 10
300.9835161268
 20
116.217439998
 11
287.3135161262
 21
113.1818673163
  0
LINE
  5
3A2
100
AcDbEntity
  8
0
100
AcDbLine
 62
7
  6
CONTINUOUS
 10
279.1331423498
 20
106.0095563295
 11
292.7735161257
 21
109.0360521916
  0
LINE
  5
3A3
100
AcDbEntity
  8
0
100
AcDbLine
 62
7
  6
CONTINUOUS
 10
318.6235161248
 20
114.9173825473
 11
332.2935161254
 21
117.9504518101
  0
LINE
  5
3A4
100
AcDbEntity
  8
0
100
AcDbLine
 62
7
  6
CONTINUOUS
 10
297.7021318894
 20
110.2776480574
 11
311.3399283578
 21
113.3035720716
  0
LINE
  5
3A5
100
AcDbEntity
  8
0
100
AcDbLine
 62
7
  6
CONTINUOUS
 10
241.8888078496
 20
97.8960123864
 11
255.5786440741
 21
100.9334828647
  0
LINE
  5
3A6
100
AcDbEntity
  8
0
100
AcDbLine
 62
7
  6
CONTINUOUS
 10
223.2996430696
 20
93.7739337853
 11
236.9686258662
 21
96.8067773513
  0
LINE
  5
3A7
100
AcDbEntity
  8
0
100
AcDbLine
 62
7
  6
CONTINUOUS
 10
204.6924517522
 20
89.6473087899
 11
218.3757995569
 21
92.6833396317
  0
LINE
  5
3A8
100
AcDbEntity
  8
0
100
AcDbLine
 62
7
  6
CONTINUOUS
 10
186.2286234501
 20
85.5692351375
 11
199.8775907927
 21
88.5976377218
  0
LINE
  5
3A9
100
AcDbEntity
  8
0
100
AcDbLine
 62
7
  6
CONTINUOUS
 10
282.3877440372
 20
112.06417389
 11
268.6945415126
 21
109.0259565019
  0
LINE
  5
3AA
100
AcDbEntity
  8
0
100
AcDbLine
 62
7
  6
CONTINUOUS
 10
263.7900250148
 20
107.9377532681
 11
250.1626461787
 21
104.9141406945
  0
LINE
  5
3AB
100
AcDbEntity
  8
0
100
AcDbLine
 62
7
  6
CONTINUOUS
 10
207.9895594023
 20
95.5568697952
 11
194.3027952468
 21
92.5200809412
  0
LINE
  5
3AC
100
AcDbEntity
  8
0
100
AcDbLine
 62
7
  6
CONTINUOUS
 10
326.5535161246
 20
121.8642849298
 11
312.8859010951
 21
118.8317448405
  0
LINE
  5
3AD
100
AcDbEntity
  8
0
100
AcDbLine
 62
7
  6
CONTINUOUS
 10
245.1823646457
 20
103.8215699358
 11
231.5377841397
 21
100.7941406948
  0
LINE
  5
3AE
100
AcDbEntity
  8
0
100
AcDbLine
 62
7
  6
CONTINUOUS
 10
226.6025838018
 20
99.6991293948
 11
213.0266521018
 21
96.6869317997
  0
LINE
  5
3AF
100
AcDbEntity
  8
0
100
AcDbLine
 62
7
  6
CONTINUOUS
 10
260.5109960991
 20
102.0320303755
 11
274.3132840622
 21
105.0919239483
  0
LINE
  5
3B0
100
AcDbEntity
  8
0
100
AcDbLine
 62
7
  6
CONTINUOUS
 10
494.8034930911
 20
114.8229334245
 11
493.8835474405
 21
114.8129334217
  0
LINE
  5
3B1
100
AcDbEntity
  8
0
100
AcDbLine
 62
7
  6
CONTINUOUS
 10
480.6035161266
 20
118.1129334206
 11
481.5835151927
 21
118.1142849317
  0
LINE
  5
3B2
100
AcDbEntity
  8
0
100
AcDbLine
 62
7
  6
CONTINUOUS
 10
481.5835161249
 20
119.7842849318
 11
487.853510161
 21
119.792933421
  0
LINE
  5
3B3
100
AcDbEntity
  8
0
100
AcDbLine
 62
7
  6
CONTINUOUS
 10
481.3535161252
 20
111.5129334202
 11
486.0535161257
 21
111.5129334202
  0
LINE
  5
3B4
100
AcDbEntity
  8
0
100
AcDbLine
 62
7
  6
CONTINUOUS
 10
490.6535161256
 20
111.5129334202
 11
495.3535161261
 21
111.5129334202
  0
LINE
  5
3B5
100
AcDbEntity
  8
0
100
AcDbLine
 62
7
  6
CONTINUOUS
 10
493.8835047812
 20
113.1429334216
 11
490.653504782
 21
113.1429334216
  0
LINE
  5
3B6
100
AcDbEntity
  8
0
100
AcDbLine
 62
7
  6
CONTINUOUS
 10
486.0535161257
 20
113.1429334216
 11
481.5835161249
 21
113.1429334216
  0
LINE
  5
3B7
100
AcDbEntity
  8
0
100
AcDbLine
 62
7
  6
CONTINUOUS
 10
481.5835161249
 20
114.8129334217
 11
480.6035161266
 21
114.8129334217
  0
LINE
  5
3B8
100
AcDbEntity
  8
0
100
AcDbLine
 62
7
  6
CONTINUOUS
 10
493.8836319895
 20
118.1229334209
 11
494.8036319884
 21
118.1229334209
  0
LINE
  5
3B9
100
AcDbEntity
  8
0
100
AcDbLine
 62
7
  6
CONTINUOUS
 10
490.6537022771
 20
119.792933421
 11
493.8837022763
 21
119.792933421
  0
LINE
  5
3BA
100
AcDbEntity
  8
0
100
AcDbLine
 62
7
  6
CONTINUOUS
 10
487.8537393096
 20
120.6729333908
 11
490.6537393103
 21
120.6729334187
  0
LINE
  5
3BB
100
AcDbEntity
  8
0
100
AcDbLine
 62
7
  6
CONTINUOUS
 10
357.5335161253
 20
121.0342849312
 11
371.5335161263
 21
121.0342849312
  0
LINE
  5
3BC
100
AcDbEntity
  8
0
100
AcDbLine
 62
7
  6
CONTINUOUS
 10
376.5835161253
 20
121.0342849312
 11
390.5835161263
 21
121.0342849312
  0
LINE
  5
3BD
100
AcDbEntity
  8
0
100
AcDbLine
 62
7
  6
CONTINUOUS
 10
395.6335161253
 20
121.0342849312
 11
409.6335161263
 21
121.0342849312
  0
LINE
  5
3BE
100
AcDbEntity
  8
0
100
AcDbLine
 62
7
  6
CONTINUOUS
 10
424.2035161252
 20
121.0342849312
 11
438.2035161261
 21
121.0342849312
  0
LINE
  5
3BF
100
AcDbEntity
  8
0
100
AcDbLine
 62
7
  6
CONTINUOUS
 10
443.2535161252
 20
121.0342849312
 11
457.2535161261
 21
121.0342849312
  0
LINE
  5
3C0
100
AcDbEntity
  8
0
100
AcDbLine
 62
7
  6
CONTINUOUS
 10
462.3035161252
 20
121.0342849312
 11
476.3035161261
 21
121.0342849312
  0
LINE
  5
3C1
100
AcDbEntity
  8
0
100
AcDbLine
 62
7
  6
CONTINUOUS
 10
495.3535161261
 20
126.0842849302
 11
481.3535161252
 21
126.0842849302
  0
LINE
  5
3C2
100
AcDbEntity
  8
0
100
AcDbLine
 62
7
  6
CONTINUOUS
 10
476.3035161261
 20
126.0842849302
 11
462.3035161252
 21
126.0842849302
  0
LINE
  5
3C3
100
AcDbEntity
  8
0
100
AcDbLine
 62
7
  6
CONTINUOUS
 10
457.2535161261
 20
126.0842849302
 11
443.2535161252
 21
126.0842849302
  0
LINE
  5
3C4
100
AcDbEntity
  8
0
100
AcDbLine
 62
7
  6
CONTINUOUS
 10
438.2035161261
 20
126.0842849302
 11
424.2035161252
 21
126.0842849302
  0
LINE
  5
3C5
100
AcDbEntity
  8
0
100
AcDbLine
 62
7
  6
CONTINUOUS
 10
409.6335161263
 20
126.0842849302
 11
395.6335161253
 21
126.0842849302
  0
LINE
  5
3C6
100
AcDbEntity
  8
0
100
AcDbLine
 62
7
  6
CONTINUOUS
 10
390.5835161263
 20
126.0842849302
 11
376.5835161253
 21
126.0842849302
  0
LINE
  5
3C7
100
AcDbEntity
  8
0
100
AcDbLine
 62
7
  6
CONTINUOUS
 10
371.5335161263
 20
126.0842849302
 11
357.5335161253
 21
126.0842849302
  0
LINE
  5
3C8
100
AcDbEntity
  8
0
100
AcDbLine
 62
7
  6
CONTINUOUS
 10
116.8509693532
 20
163.5017611086
 11
41.1309894752
 21
180.2884765039
  0
LINE
  5
3C9
100
AcDbEntity
  8
0
100
AcDbLine
 62
7
  6
CONTINUOUS
 10
212.7098021894
 20
140.2696793509
 11
215.7591443508
 21
126.5376716689
  0
LINE
  5
3CA
100
AcDbEntity
  8
0
100
AcDbLine
 62
7
  6
CONTINUOUS
 10
238.8118893984
 20
24.3341406941
 11
235.7769639036
 21
38.0012262377
  0
LINE
  5
3CB
100
AcDbEntity
  8
0
100
AcDbLine
 62
7
  6
CONTINUOUS
 10
240.626333867
 20
58.6036109079
 11
243.6617889035
 21
44.9341406954
  0
LINE
  5
3CC
100
AcDbEntity
  8
0
100
AcDbLine
 62
7
  6
CONTINUOUS
 10
249.4440494472
 20
41.0361517299
 11
252.4789749394
 21
27.3690661863
  0
LINE
  5
3CD
100
AcDbEntity
  8
0
100
AcDbLine
 62
7
  6
CONTINUOUS
 10
248.5445442358
 20
46.009418964
 11
245.5057024344
 21
59.6941406953
  0
LINE
  5
3CE
100
AcDbEntity
  8
0
100
AcDbLine
 62
7
  6
CONTINUOUS
 10
227.1320608556
 20
75.1195738398
 11
230.1596792784
 21
61.4741406938
  0
LINE
  5
3CF
100
AcDbEntity
  8
0
100
AcDbLine
 62
7
  6
CONTINUOUS
 10
223.4494440984
 20
113.910285166
 11
226.6025838018
 21
99.6991293948
  0
LINE
  5
3D0
100
AcDbEntity
  8
0
100
AcDbLine
 62
7
  6
CONTINUOUS
 10
220.50808721
 20
127.6714889694
 11
217.4834179863
 21
141.3036301151
  0
LINE
  5
3D1
100
AcDbEntity
  8
0
100
AcDbLine
 62
7
  6
CONTINUOUS
 10
235.1435178629
 20
62.5641406957
 11
232.1139735435
 21
76.2182538243
  0
LINE
  5
3D2
100
AcDbEntity
  8
0
100
AcDbLine
 62
7
  6
CONTINUOUS
 10
231.5377841397
 20
100.7941406948
 11
228.5026364482
 21
114.4735081493
  0
LINE
  5
3D3
100
AcDbEntity
  8
0
100
AcDbLine
 62
7
  6
CONTINUOUS
 10
226.3235123991
 20
80.1341406941
 11
223.2996430696
 21
93.7739337853
  0
LINE
  5
3D4
100
AcDbEntity
  8
0
100
AcDbLine
 62
7
  6
CONTINUOUS
 10
236.9686258662
 20
96.8067773513
 11
239.9911715051
 21
83.1616851673
  0
LINE
  5
3D5
100
AcDbEntity
  8
0
100
AcDbLine
 62
7
  6
CONTINUOUS
 10
252.9535161265
 20
134.8142849302
 11
239.2885042541
 21
131.7748143289
  0
LINE
  5
3D6
100
AcDbEntity
  8
0
100
AcDbLine
 62
7
  6
CONTINUOUS
 10
247.1286554064
 20
118.5882939304
 11
260.755506522
 21
121.6142849294
  0
LINE
  5
3D7
100
AcDbEntity
  8
0
100
AcDbLine
 62
7
  6
CONTINUOUS
 10
290.1465912881
 20
143.0542849297
 11
276.4735161248
 21
140.0180293766
  0
LINE
  5
3D8
100
AcDbEntity
  8
0
100
AcDbLine
 62
7
  6
CONTINUOUS
 10
308.7435161262
 20
147.1842849298
 11
295.0735161256
 21
144.1487122506
  0
LINE
  5
3D9
100
AcDbEntity
  8
0
100
AcDbLine
 62
7
  6
CONTINUOUS
 10
191.2735123976
 20
106.1730156241
 11
204.9578936699
 21
109.209275772
  0
LINE
  5
3DA
100
AcDbEntity
  8
0
100
AcDbLine
 62
7
  6
CONTINUOUS
 10
284.2860653129
 20
126.8265450434
 11
297.9565947054
 21
129.8597317659
  0
LINE
  5
3DB
100
AcDbEntity
  8
0
100
AcDbLine
 62
7
  6
CONTINUOUS
 10
309.8533610058
 20
132.4993598699
 11
323.5209760352
 21
135.5318999593
  0
LINE
  5
3DC
100
AcDbEntity
  8
0
100
AcDbLine
 62
7
  6
CONTINUOUS
 10
228.5026364482
 20
114.4735081493
 11
242.1472169543
 21
117.5009373903
  0
LINE
  5
3DD
100
AcDbEntity
  8
0
100
AcDbLine
 62
7
  6
CONTINUOUS
 10
265.6591520893
 20
122.7177133779
 11
279.349965048
 21
125.7554005715
  0
LINE
  5
3DE
100
AcDbEntity
  8
0
100
AcDbLine
 62
7
  6
CONTINUOUS
 10
209.8735123984
 20
110.8980875684
 11
223.4494440984
 21
113.910285166
  0
LINE
  5
3DF
100
AcDbEntity
  8
0
100
AcDbLine
 62
7
  6
CONTINUOUS
 10
215.7591443508
 20
126.5376716689
 11
202.0905731663
 21
123.5049194311
  0
LINE
  5
3E0
100
AcDbEntity
  8
0
100
AcDbLine
 62
7
  6
CONTINUOUS
 10
271.5520574206
 20
138.9254818513
 11
257.878501166
 21
135.891623535
  0
LINE
  5
3E1
100
AcDbEntity
  8
0
100
AcDbLine
 62
7
  6
CONTINUOUS
 10
234.3414931322
 20
130.7408143751
 11
220.50808721
 21
127.6714889694
  0
LINE
  5
3E2
100
AcDbEntity
  8
0
100
AcDbLine
 62
7
  6
CONTINUOUS
 10
197.1401138597
 20
122.4866549043
 11
183.4735123995
 21
119.4543397015
  0
LINE
  5
3E3
100
AcDbEntity
  8
0
100
AcDbLine
 62
7
  6
CONTINUOUS
 10
357.5335161253
 20
140.0842849312
 11
371.5335161263
 21
140.0842849312
  0
LINE
  5
3E4
100
AcDbEntity
  8
0
100
AcDbLine
 62
7
  6
CONTINUOUS
 10
376.5835161253
 20
140.0842849312
 11
390.5835161263
 21
140.0842849312
  0
LINE
  5
3E5
100
AcDbEntity
  8
0
100
AcDbLine
 62
7
  6
CONTINUOUS
 10
395.6335161253
 20
140.0842849312
 11
409.6335161263
 21
140.0842849312
  0
LINE
  5
3E6
100
AcDbEntity
  8
0
100
AcDbLine
 62
7
  6
CONTINUOUS
 10
424.2035161252
 20
140.0842849312
 11
438.2035161261
 21
140.0842849312
  0
LINE
  5
3E7
100
AcDbEntity
  8
0
100
AcDbLine
 62
7
  6
CONTINUOUS
 10
443.2535161252
 20
140.0842849312
 11
457.2535161261
 21
140.0842849312
  0
LINE
  5
3E8
100
AcDbEntity
  8
0
100
AcDbLine
 62
7
  6
CONTINUOUS
 10
462.3035161252
 20
140.0842849312
 11
476.3035161261
 21
140.0842849312
  0
LINE
  5
3E9
100
AcDbEntity
  8
0
100
AcDbLine
 62
7
  6
CONTINUOUS
 10
481.3535161252
 20
140.0842849312
 11
495.3535161261
 21
140.0842849312
  0
LINE
  5
3EA
100
AcDbEntity
  8
0
100
AcDbLine
 62
7
  6
CONTINUOUS
 10
259.2145146383
 20
62.7383320466
 11
262.2557448728
 21
49.0541406952
  0
LINE
  5
3EB
100
AcDbEntity
  8
0
100
AcDbLine
 62
7
  6
CONTINUOUS
 10
266.7905067532
 20
30.524140694
 11
263.7524304621
 21
44.1941406946
  0
LINE
  5
3EC
100
AcDbEntity
  8
0
100
AcDbLine
 62
7
  6
CONTINUOUS
 10
245.757024012
 20
79.2453435842
 11
248.7884225873
 21
65.5941406936
  0
LINE
  5
3ED
100
AcDbEntity
  8
0
100
AcDbLine
 62
7
  6
CONTINUOUS
 10
239.2885042541
 20
131.7748143289
 11
236.2479891236
 21
145.4670715164
  0
LINE
  5
3EE
100
AcDbEntity
  8
0
100
AcDbLine
 62
7
  6
CONTINUOUS
 10
267.2489796818
 20
50.1541406948
 11
264.2138331334
 21
63.8222217152
  0
LINE
  5
3EF
100
AcDbEntity
  8
0
100
AcDbLine
 62
7
  6
CONTINUOUS
 10
231.3168239085
 20
144.3729555207
 11
234.3414931322
 21
130.7408143751
  0
LINE
  5
3F0
100
AcDbEntity
  8
0
100
AcDbLine
 62
7
  6
CONTINUOUS
 10
244.9197453716
 20
84.2356201035
 11
241.8888078496
 21
97.8960123864
  0
LINE
  5
3F1
100
AcDbEntity
  8
0
100
AcDbLine
 62
7
  6
CONTINUOUS
 10
242.1472169543
 20
117.5009373903
 11
245.1823646457
 21
103.8215699358
  0
LINE
  5
3F2
100
AcDbEntity
  8
0
100
AcDbLine
 62
7
  6
CONTINUOUS
 10
250.1626461787
 20
104.9141406945
 11
247.1286554064
 21
118.5882939304
  0
LINE
  5
3F3
100
AcDbEntity
  8
0
100
AcDbLine
 62
7
  6
CONTINUOUS
 10
253.8302003726
 20
66.6917936901
 11
250.794662428
 21
80.3842205012
  0
LINE
  5
3F4
100
AcDbEntity
  8
0
100
AcDbLine
 62
7
  6
CONTINUOUS
 10
255.5786440741
 20
100.9334828647
 11
258.607727038
 21
87.2701725815
  0
LINE
  5
3F5
100
AcDbEntity
  8
0
100
AcDbLine
 62
7
  6
CONTINUOUS
 10
199.0417607371
 20
137.2345415883
 11
212.7098021894
 21
140.2696793509
  0
LINE
  5
3F6
100
AcDbEntity
  8
0
100
AcDbLine
 62
7
  6
CONTINUOUS
 10
292.0395093615
 20
157.8116605152
 11
305.7124234787
 21
160.8453763553
  0
LINE
  5
3F7
100
AcDbEntity
  8
0
100
AcDbLine
 62
7
  6
CONTINUOUS
 10
254.8450430242
 20
149.5633762143
 11
268.5185992787
 21
152.5972345306
  0
LINE
  5
3F8
100
AcDbEntity
  8
0
100
AcDbLine
 62
7
  6
CONTINUOUS
 10
273.4375563471
 20
153.7010569
 11
287.1111610166
 21
156.734925958
  0
LINE
  5
3F9
100
AcDbEntity
  8
0
100
AcDbLine
 62
7
  6
CONTINUOUS
 10
217.4834179863
 20
141.3036301151
 11
231.3168239085
 21
144.3729555207
  0
LINE
  5
3FA
100
AcDbEntity
  8
0
100
AcDbLine
 62
7
  6
CONTINUOUS
 10
236.2479891236
 20
145.4670715164
 11
249.914589959
 21
148.4993865795
  0
LINE
  5
3FB
100
AcDbEntity
  8
0
100
AcDbLine
 62
7
  6
CONTINUOUS
 10
180.443512399
 20
133.1105065801
 11
194.1101138618
 21
136.1428217829
  0
LINE
  5
3FC
100
AcDbEntity
  8
0
100
AcDbLine
 62
7
  6
CONTINUOUS
 10
409.6335161263
 20
154.6642849304
 11
395.6335161253
 21
154.6642849304
  0
LINE
  5
3FD
100
AcDbEntity
  8
0
100
AcDbLine
 62
7
  6
CONTINUOUS
 10
390.5835161263
 20
154.6642849304
 11
376.5835161253
 21
154.6642849304
  0
LINE
  5
3FE
100
AcDbEntity
  8
0
100
AcDbLine
 62
7
  6
CONTINUOUS
 10
371.5335161263
 20
154.6642849304
 11
357.5335161253
 21
154.6642849304
  0
LINE
  5
3FF
100
AcDbEntity
  8
0
100
AcDbLine
 62
7
  6
CONTINUOUS
 10
357.5335161253
 20
168.6642849314
 11
371.5335161263
 21
168.6642849314
  0
LINE
  5
400
100
AcDbEntity
  8
0
100
AcDbLine
 62
7
  6
CONTINUOUS
 10
376.5835161253
 20
168.6642849314
 11
390.5835161263
 21
168.6642849314
  0
LINE
  5
401
100
AcDbEntity
  8
0
100
AcDbLine
 62
7
  6
CONTINUOUS
 10
395.6335161253
 20
168.6642849314
 11
409.6335161263
 21
168.6642849314
  0
LINE
  5
402
100
AcDbEntity
  8
0
100
AcDbLine
 62
7
  6
CONTINUOUS
 10
277.3866195564
 20
47.2217611722
 11
280.4241670144
 21
33.5541406945
  0
LINE
  5
403
100
AcDbEntity
  8
0
100
AcDbLine
 62
7
  6
CONTINUOUS
 10
249.914589959
 20
148.4993865795
 11
252.9535161265
 21
134.8142849302
  0
LINE
  5
404
100
AcDbEntity
  8
0
100
AcDbLine
 62
7
  6
CONTINUOUS
 10
272.4291500403
 20
70.8352438029
 11
269.3941501997
 21
84.5026641617
  0
LINE
  5
405
100
AcDbEntity
  8
0
100
AcDbLine
 62
7
  6
CONTINUOUS
 10
277.8582090247
 20
66.8546031993
 11
280.8938844087
 21
53.1841406953
  0
LINE
  5
406
100
AcDbEntity
  8
0
100
AcDbLine
 62
7
  6
CONTINUOUS
 10
282.9463738623
 20
87.5120833194
 11
285.9818989469
 21
73.8422976517
  0
LINE
  5
407
100
AcDbEntity
  8
0
100
AcDbLine
 62
7
  6
CONTINUOUS
 10
282.1321352469
 20
92.5042849301
 11
279.1331423498
 21
106.0095563295
  0
LINE
  5
408
100
AcDbEntity
  8
0
100
AcDbLine
 62
7
  6
CONTINUOUS
 10
294.5331658703
 20
36.7041406937
 11
291.4975931911
 21
50.3741406942
  0
LINE
  5
409
100
AcDbEntity
  8
0
100
AcDbLine
 62
7
  6
CONTINUOUS
 10
264.4251989845
 20
83.4060377037
 11
267.4631267059
 21
69.7141406934
  0
LINE
  5
40A
100
AcDbEntity
  8
0
100
AcDbLine
 62
7
  6
CONTINUOUS
 10
263.5397698485
 20
88.3813901889
 11
260.5109960991
 21
102.0320303755
  0
LINE
  5
40B
100
AcDbEntity
  8
0
100
AcDbLine
 62
7
  6
CONTINUOUS
 10
260.755506522
 20
121.6142849294
 11
263.7900250148
 21
107.9377532681
  0
LINE
  5
40C
100
AcDbEntity
  8
0
100
AcDbLine
 62
7
  6
CONTINUOUS
 10
257.878501166
 20
135.891623535
 11
254.8450430242
 21
149.5633762143
  0
LINE
  5
40D
100
AcDbEntity
  8
0
100
AcDbLine
 62
7
  6
CONTINUOUS
 10
274.3132840622
 20
105.0919239483
 11
277.3415233397
 21
91.4436926215
  0
LINE
  5
40E
100
AcDbEntity
  8
0
100
AcDbLine
 62
7
  6
CONTINUOUS
 10
285.8432898134
 20
54.2846293452
 11
282.807287257
 21
67.9678496647
  0
LINE
  5
40F
100
AcDbEntity
  8
0
100
AcDbLine
 62
7
  6
CONTINUOUS
 10
268.5185992787
 20
152.5972345306
 11
271.5520574206
 21
138.9254818513
  0
LINE
  5
410
100
AcDbEntity
  8
0
100
AcDbLine
 62
7
  6
CONTINUOUS
 10
268.6945415126
 20
109.0259565019
 11
265.6591520893
 21
122.7177133779
  0
LINE
  5
411
100
AcDbEntity
  8
0
100
AcDbLine
 62
7
  6
CONTINUOUS
 10
327.675862107
 20
186.2863245259
 11
225.1559709241
 21
163.5206638978
  0
LINE
  5
412
100
AcDbEntity
  8
0
100
AcDbLine
 62
7
  6
CONTINUOUS
 10
495.3535161261
 20
188.6642849313
 11
349.3539013416
 21
188.6642849313
  0
LINE
  5
413
100
AcDbEntity
  8
0
100
AcDbLine
 62
7
  6
CONTINUOUS
 10
290.9179581401
 20
74.9341406953
 11
287.8840258589
 21
88.5854944797
  0
LINE
  5
414
100
AcDbEntity
  8
0
100
AcDbLine
 62
7
  6
CONTINUOUS
 10
305.6035123986
 20
68.0809064821
 11
305.5763314268
 21
68.2032343299
  0
LINE
  5
415
100
AcDbEntity
  8
0
100
AcDbLine
 62
7
  6
CONTINUOUS
 10
296.3640224575
 20
70.9782706594
 11
299.4024130939
 21
57.2955806385
  0
LINE
  5
416
100
AcDbEntity
  8
0
100
AcDbLine
 62
7
  6
CONTINUOUS
 10
305.1419690798
 20
53.4065221809
 11
308.1780705946
 21
39.7341406941
  0
LINE
  5
417
100
AcDbEntity
  8
0
100
AcDbLine
 62
7
  6
CONTINUOUS
 10
301.5314338676
 20
91.6185498334
 11
304.5635123983
 21
77.9642849296
  0
LINE
  5
418
100
AcDbEntity
  8
0
100
AcDbLine
 62
7
  6
CONTINUOUS
 10
300.7335161264
 20
96.6265097489
 11
297.7021318894
 21
110.2776480574
  0
LINE
  5
419
100
AcDbEntity
  8
0
100
AcDbLine
 62
7
  6
CONTINUOUS
 10
279.349965048
 20
125.7554005715
 11
282.3877440372
 21
112.06417389
  0
LINE
  5
41A
100
AcDbEntity
  8
0
100
AcDbLine
 62
7
  6
CONTINUOUS
 10
276.4735161248
 20
140.0180293766
 11
273.4375563471
 21
153.7010569
  0
LINE
  5
41B
100
AcDbEntity
  8
0
100
AcDbLine
 62
7
  6
CONTINUOUS
 10
287.3135161262
 20
113.1818673163
 11
284.2860653129
 21
126.8265450434
  0
LINE
  5
41C
100
AcDbEntity
  8
0
100
AcDbLine
 62
7
  6
CONTINUOUS
 10
292.7735161257
 20
109.0360521916
 11
295.7696236844
 21
95.5326380631
  0
LINE
  5
41D
100
AcDbEntity
  8
0
100
AcDbLine
 62
7
  6
CONTINUOUS
 10
287.1111610166
 20
156.734925958
 11
290.1465912881
 21
143.0542849297
  0
LINE
  5
41E
100
AcDbEntity
  8
0
100
AcDbLine
 62
7
  6
CONTINUOUS
 10
305.8535123989
 20
68.2648740872
 11
305.1556317449
 21
71.4134678484
  0
LINE
  5
41F
100
AcDbEntity
  8
0
100
AcDbLine
 62
7
  6
CONTINUOUS
 10
308.4272251763
 20
59.4041406936
 11
306.4635123981
 21
68.2710517126
  0
LINE
  5
420
100
AcDbEntity
  8
0
100
AcDbLine
 62
7
  6
CONTINUOUS
 10
309.6647678752
 20
58.8228972359
 11
309.4843435802
 21
59.6382556991
  0
LINE
  5
421
100
AcDbEntity
  8
0
100
AcDbLine
 62
7
  6
CONTINUOUS
 10
306.7835123982
 20
71.7742849297
 11
305.9935519766
 21
75.3620141906
  0
LINE
  5
422
100
AcDbEntity
  8
0
100
AcDbLine
 62
7
  6
CONTINUOUS
 10
295.0735161256
 20
144.1487122506
 11
292.0395093615
 21
157.8116605152
  0
LINE
  5
423
100
AcDbEntity
  8
0
100
AcDbLine
 62
7
  6
CONTINUOUS
 10
314.4982440274
 20
92.9942849305
 11
315.1974305869
 21
89.8456598537
  0
LINE
  5
424
100
AcDbEntity
  8
0
100
AcDbLine
 62
7
  6
CONTINUOUS
 10
297.9565947054
 20
129.8597317659
 11
300.9835161268
 21
116.217439998
  0
LINE
  5
425
100
AcDbEntity
  8
0
100
AcDbLine
 62
7
  6
CONTINUOUS
 10
313.2998459695
 20
65.2772826176
 11
314.3135123979
 21
60.7077488408
  0
LINE
  5
426
100
AcDbEntity
  8
0
100
AcDbLine
 62
7
  6
CONTINUOUS
 10
309.041146392
 20
85.6336461365
 11
307.8635161259
 21
90.941208991
  0
LINE
  5
427
100
AcDbEntity
  8
0
100
AcDbLine
 62
7
  6
CONTINUOUS
 10
308.7135161252
 20
91.1305835373
 11
308.5896965862
 21
91.688636442
  0
LINE
  5
428
100
AcDbEntity
  8
0
100
AcDbLine
 62
7
  6
CONTINUOUS
 10
312.4858022763
 20
78.9542849308
 11
312.2727996061
 21
79.9142849311
  0
LINE
  5
429
100
AcDbEntity
  8
0
100
AcDbLine
 62
7
  6
CONTINUOUS
 10
315.5214710132
 20
80.6299524329
 11
315.7335123976
 21
79.674284931
  0
LINE
  5
42A
100
AcDbEntity
  8
0
100
AcDbLine
 62
7
  6
CONTINUOUS
 10
316.1971161415
 20
85.3498191044
 11
317.1635123976
 21
80.9942849301
  0
LINE
  5
42B
100
AcDbEntity
  8
0
100
AcDbLine
 62
7
  6
CONTINUOUS
 10
311.3399283578
 20
113.3035720716
 11
314.3684018969
 21
99.6542849303
  0
LINE
  5
42C
100
AcDbEntity
  8
0
100
AcDbLine
 62
7
  6
CONTINUOUS
 10
318.793512399
 20
81.113364316
 11
317.775879245
 21
85.6998224583
  0
LINE
  5
42D
100
AcDbEntity
  8
0
100
AcDbLine
 62
7
  6
CONTINUOUS
 10
316.7935161247
 20
90.1997957723
 11
315.7759010962
 21
94.7861722281
  0
LINE
  5
42E
100
AcDbEntity
  8
0
100
AcDbLine
 62
7
  6
CONTINUOUS
 10
312.8859010951
 20
118.8317448405
 11
309.8533610058
 21
132.4993598699
  0
LINE
  5
42F
100
AcDbEntity
  8
0
100
AcDbLine
 62
7
  6
CONTINUOUS
 10
305.7124234787
 20
160.8453763553
 11
308.7435161262
 21
147.1842849298
  0
LINE
  5
430
100
AcDbEntity
  8
0
100
AcDbLine
 62
7
  6
CONTINUOUS
 10
328.7979350952
 20
67.6808474828
 11
329.6135123973
 21
64.00428493
  0
LINE
  5
431
100
AcDbEntity
  8
0
100
AcDbLine
 62
7
  6
CONTINUOUS
 10
321.6535161253
 20
101.2612156687
 11
318.6235161248
 21
114.9173825473
  0
LINE
  5
432
100
AcDbEntity
  8
0
100
AcDbLine
 62
7
  6
CONTINUOUS
 10
329.1835123987
 20
73.4342849295
 11
328.4829309246
 21
76.5924547294
  0
LINE
  5
433
100
AcDbEntity
  8
0
100
AcDbLine
 62
7
  6
CONTINUOUS
 10
312.7031770791
 20
60.3511155053
 11
312.8835123978
 21
59.5375055349
  0
LINE
  5
434
100
AcDbEntity
  8
0
100
AcDbLine
 62
7
  6
CONTINUOUS
 10
310.6635123979
 20
79.5572198565
 11
309.3034354508
 21
85.6921305077
  0
LINE
  5
435
100
AcDbEntity
  8
0
100
AcDbLine
 62
7
  6
CONTINUOUS
 10
315.9563222314
 20
60.9771910883
 11
314.9235123996
 21
65.6368683298
  0
LINE
  5
436
100
AcDbEntity
  8
0
100
AcDbLine
 62
7
  6
CONTINUOUS
 10
322.3925599253
 20
42.8941406936
 11
319.3630887859
 21
56.5620563931
  0
LINE
  5
437
100
AcDbEntity
  8
0
100
AcDbLine
 62
7
  6
CONTINUOUS
 10
330.9408226662
 20
64.5742849304
 11
330.1835123977
 21
67.9910043555
  0
LINE
  5
438
100
AcDbEntity
  8
0
100
AcDbLine
 62
7
  6
CONTINUOUS
 10
333.0335123975
 20
59.5945866602
 11
336.0635123979
 21
45.9242849305
  0
LINE
  5
439
100
AcDbEntity
  8
0
100
AcDbLine
 62
7
  6
CONTINUOUS
 10
312.2597442601
 20
72.8508274324
 11
312.9565941237
 21
69.7042849295
  0
LINE
  5
43A
100
AcDbEntity
  8
0
100
AcDbLine
 62
7
  6
CONTINUOUS
 10
313.968141872
 20
69.927937233
 11
312.9230070102
 21
74.6471191408
  0
LINE
  5
43B
100
AcDbEntity
  8
0
100
AcDbLine
 62
7
  6
CONTINUOUS
 10
309.6517609645
 20
91.9242849319
 11
309.453516126
 21
92.8192487909
  0
LINE
  5
43C
100
AcDbEntity
  8
0
100
AcDbLine
 62
7
  6
CONTINUOUS
 10
326.5918133683
 20
77.6742849305
 11
327.6083389248
 21
73.084284931
  0
LINE
  5
43D
100
AcDbEntity
  8
0
100
AcDbLine
 62
7
  6
CONTINUOUS
 10
309.8135123987
 20
76.2080027272
 11
310.6320159915
 21
72.4906401797
  0
LINE
  5
43E
100
AcDbEntity
  8
0
100
AcDbLine
 62
7
  6
CONTINUOUS
 10
312.6735161249
 20
93.53428493
 11
312.8719402493
 21
92.6325507035
  0
LINE
  5
43F
100
AcDbEntity
  8
0
100
AcDbLine
 62
7
  6
CONTINUOUS
 10
332.9835161246
 20
96.9582701522
 11
332.7835161258
 21
97.8552245051
  0
LINE
  5
440
100
AcDbEntity
  8
0
100
AcDbLine
 62
7
  6
CONTINUOUS
 10
332.043516125
 20
93.4447001029
 11
331.3435161255
 21
96.5943905929
  0
LINE
  5
441
100
AcDbEntity
  8
0
100
AcDbLine
 62
7
  6
CONTINUOUS
 10
336.5369125433
 20
75.0642849308
 11
337.1435123995
 21
72.3342849298
  0
LINE
  5
442
100
AcDbEntity
  8
0
100
AcDbLine
 62
7
  6
CONTINUOUS
 10
335.0076452386
 20
77.894965081
 11
335.6782803541
 21
74.8742849298
  0
LINE
  5
443
100
AcDbEntity
  8
0
100
AcDbLine
 62
7
  6
CONTINUOUS
 10
337.8435161252
 20
98.1742849312
 11
338.5450484305
 21
95.0150963296
  0
LINE
  5
444
100
AcDbEntity
  8
0
100
AcDbLine
 62
7
  6
CONTINUOUS
 10
339.3935161265
 20
95.2042849301
 11
339.9975054545
 21
92.4843585742
  0
LINE
  5
445
100
AcDbEntity
  8
0
100
AcDbLine
 62
7
  6
CONTINUOUS
 10
329.4435161256
 20
97.81871232
 11
330.4904082584
 21
93.100384378
  0
LINE
  5
446
100
AcDbEntity
  8
0
100
AcDbLine
 62
7
  6
CONTINUOUS
 10
336.2839410477
 20
72.1431326756
 11
337.6435123977
 21
66.0142849308
  0
LINE
  5
447
100
AcDbEntity
  8
0
100
AcDbLine
 62
7
  6
CONTINUOUS
 10
334.0564089826
 20
84.5191912432
 11
333.0435161265
 21
89.0842849299
  0
LINE
  5
448
100
AcDbEntity
  8
0
100
AcDbLine
 62
7
  6
CONTINUOUS
 10
323.5209760352
 20
135.5318999593
 11
326.5535161246
 21
121.8642849298
  0
LINE
  5
449
100
AcDbEntity
  8
0
100
AcDbLine
 62
7
  6
CONTINUOUS
 10
336.0035161247
 20
98.5696709603
 11
336.1734599479
 21
97.8037365715
  0
LINE
  5
44A
100
AcDbEntity
  8
0
100
AcDbLine
 62
7
  6
CONTINUOUS
 10
332.2935161254
 20
117.9504518101
 11
335.3235161258
 21
104.2942849315
  0
LINE
  5
44B
100
AcDbEntity
  8
0
100
AcDbLine
 62
7
  6
CONTINUOUS
 10
339.0980038423
 20
92.2842849307
 11
340.5035161265
 21
85.9496610671
  0
LINE
  5
44C
100
AcDbEntity
  8
0
100
AcDbLine
 62
7
  6
CONTINUOUS
 10
331.4535161264
 20
88.7320815525
 11
332.4703487613
 21
84.1454459404
  0
LINE
  5
44D
100
AcDbEntity
  8
0
100
AcDbLine
 62
7
  6
CONTINUOUS
 10
336.011299368
 20
65.6525075847
 11
336.223512398
 21
64.6942849317
  0
LINE
  5
44E
100
AcDbEntity
  8
0
100
AcDbLine
 62
7
  6
CONTINUOUS
 10
332.9935123987
 20
63.9783607171
 11
332.7723639028
 21
64.9802430466
  0
LINE
  5
44F
100
AcDbEntity
  8
0
100
AcDbLine
 62
7
  6
CONTINUOUS
 10
335.8372401835
 20
84.1274132282
 11
335.6717518098
 21
84.8775999244
  0
LINE
  5
450
100
AcDbEntity
  8
0
100
AcDbLine
 62
7
  6
CONTINUOUS
 10
338.9077747764
 20
85.5956015186
 11
339.0735123977
 21
84.8442849314
  0
LINE
  5
451
100
AcDbEntity
  8
0
100
AcDbLine
 62
7
  6
CONTINUOUS
 10
333.1435123985
 20
81.3968051055
 11
333.9660365141
 21
77.6642849302
  0
LINE
  5
452
100
AcDbEntity
  8
0
100
AcDbLine
 62
7
  6
CONTINUOUS
 10
330.1235123983
 20
76.9542849303
 11
329.3320132346
 21
80.5519925558
  0
LINE
  5
453
100
AcDbEntity
  8
0
100
AcDbLine
 62
7
  6
CONTINUOUS
 10
357.5235123988
 20
49.8842849302
 11
357.5235123988
 21
63.8842849312
  0
LINE
  5
454
100
AcDbEntity
  8
0
100
AcDbLine
 62
7
  6
CONTINUOUS
 10
357.5335161253
 20
107.0342849302
 11
357.5335161253
 21
121.0342849312
  0
LINE
  5
455
100
AcDbEntity
  8
0
100
AcDbLine
 62
7
  6
CONTINUOUS
 10
357.5335161253
 20
126.0842849302
 11
357.5335161253
 21
140.0842849312
  0
LINE
  5
456
100
AcDbEntity
  8
0
100
AcDbLine
 62
7
  6
CONTINUOUS
 10
357.5335161253
 20
154.6642849304
 11
357.5335161253
 21
168.6642849314
  0
LINE
  5
457
100
AcDbEntity
  8
0
100
AcDbLine
 62
7
  6
CONTINUOUS
 10
371.5235123973
 20
63.8842849312
 11
371.5235123973
 21
49.8842849302
  0
LINE
  5
458
100
AcDbEntity
  8
0
100
AcDbLine
 62
7
  6
CONTINUOUS
 10
371.5335161263
 20
168.6642849314
 11
371.5335161263
 21
154.6642849304
  0
LINE
  5
459
100
AcDbEntity
  8
0
100
AcDbLine
 62
7
  6
CONTINUOUS
 10
371.5335161263
 20
140.0842849312
 11
371.5335161263
 21
126.0842849302
  0
LINE
  5
45A
100
AcDbEntity
  8
0
100
AcDbLine
 62
7
  6
CONTINUOUS
 10
371.5335161263
 20
121.0342849312
 11
371.5335161263
 21
107.0342849302
  0
LINE
  5
45B
100
AcDbEntity
  8
0
100
AcDbLine
 62
7
  6
CONTINUOUS
 10
376.5735123988
 20
49.8842849302
 11
376.5735123988
 21
63.8842849312
  0
LINE
  5
45C
100
AcDbEntity
  8
0
100
AcDbLine
 62
7
  6
CONTINUOUS
 10
376.5735123988
 20
68.9342849302
 11
376.5735123988
 21
82.9342849312
  0
LINE
  5
45D
100
AcDbEntity
  8
0
100
AcDbLine
 62
7
  6
CONTINUOUS
 10
376.5835161253
 20
107.0342849302
 11
376.5835161253
 21
121.0342849312
  0
LINE
  5
45E
100
AcDbEntity
  8
0
100
AcDbLine
 62
7
  6
CONTINUOUS
 10
376.5835161253
 20
126.0842849302
 11
376.5835161253
 21
140.0842849312
  0
LINE
  5
45F
100
AcDbEntity
  8
0
100
AcDbLine
 62
7
  6
CONTINUOUS
 10
376.5835161253
 20
154.6642849304
 11
376.5835161253
 21
168.6642849314
  0
LINE
  5
460
100
AcDbEntity
  8
0
100
AcDbLine
 62
7
  6
CONTINUOUS
 10
390.5735123973
 20
82.9342849312
 11
390.5735123973
 21
68.9342849302
  0
LINE
  5
461
100
AcDbEntity
  8
0
100
AcDbLine
 62
7
  6
CONTINUOUS
 10
390.5735123973
 20
63.8842849312
 11
390.5735123973
 21
49.8842849302
  0
LINE
  5
462
100
AcDbEntity
  8
0
100
AcDbLine
 62
7
  6
CONTINUOUS
 10
390.5835161263
 20
168.6642849314
 11
390.5835161263
 21
154.6642849304
  0
LINE
  5
463
100
AcDbEntity
  8
0
100
AcDbLine
 62
7
  6
CONTINUOUS
 10
390.5835161263
 20
140.0842849312
 11
390.5835161263
 21
126.0842849302
  0
LINE
  5
464
100
AcDbEntity
  8
0
100
AcDbLine
 62
7
  6
CONTINUOUS
 10
390.5835161263
 20
121.0342849312
 11
390.5835161263
 21
107.0342849302
  0
LINE
  5
465
100
AcDbEntity
  8
0
100
AcDbLine
 62
7
  6
CONTINUOUS
 10
395.6235123988
 20
49.8842849302
 11
395.6235123988
 21
63.8842849312
  0
LINE
  5
466
100
AcDbEntity
  8
0
100
AcDbLine
 62
7
  6
CONTINUOUS
 10
395.6335161253
 20
107.0342849302
 11
395.6335161253
 21
121.0342849312
  0
LINE
  5
467
100
AcDbEntity
  8
0
100
AcDbLine
 62
7
  6
CONTINUOUS
 10
395.6335161253
 20
126.0842849302
 11
395.6335161253
 21
140.0842849312
  0
LINE
  5
468
100
AcDbEntity
  8
0
100
AcDbLine
 62
7
  6
CONTINUOUS
 10
395.6335161253
 20
154.6642849304
 11
395.6335161253
 21
168.6642849314
  0
LINE
  5
469
100
AcDbEntity
  8
0
100
AcDbLine
 62
7
  6
CONTINUOUS
 10
409.6235123973
 20
63.8842849312
 11
409.6235123973
 21
49.8842849302
  0
LINE
  5
46A
100
AcDbEntity
  8
0
100
AcDbLine
 62
7
  6
CONTINUOUS
 10
409.6335161263
 20
168.6642849314
 11
409.6335161263
 21
154.6642849304
  0
LINE
  5
46B
100
AcDbEntity
  8
0
100
AcDbLine
 62
7
  6
CONTINUOUS
 10
409.6335161263
 20
140.0842849312
 11
409.6335161263
 21
126.0842849302
  0
LINE
  5
46C
100
AcDbEntity
  8
0
100
AcDbLine
 62
7
  6
CONTINUOUS
 10
409.6335161263
 20
121.0342849312
 11
409.6335161263
 21
107.0342849302
  0
LINE
  5
46D
100
AcDbEntity
  8
0
100
AcDbLine
 62
7
  6
CONTINUOUS
 10
447.6137208439
 20
54.5841394675
 11
447.7068240486
 21
49.885061708
  0
LINE
  5
46E
100
AcDbEntity
  8
0
100
AcDbLine
 62
7
  6
CONTINUOUS
 10
424.5735123981
 20
56.3842882167
 11
424.5708385884
 21
59.1842869398
  0
LINE
  5
46F
100
AcDbEntity
  8
0
100
AcDbLine
 62
7
  6
CONTINUOUS
 10
425.4594869584
 20
50.1121663998
 11
425.453509833
 21
56.3821635499
  0
LINE
  5
470
100
AcDbEntity
  8
0
100
AcDbLine
 62
7
  6
CONTINUOUS
 10
424.2035161252
 20
68.9342849302
 11
424.2035161252
 21
82.9342849312
  0
LINE
  5
471
100
AcDbEntity
  8
0
100
AcDbLine
 62
7
  6
CONTINUOUS
 10
424.2035161252
 20
87.9842849302
 11
424.2035161252
 21
101.9842849312
  0
LINE
  5
472
100
AcDbEntity
  8
0
100
AcDbLine
 62
7
  6
CONTINUOUS
 10
424.2035161252
 20
107.0342849302
 11
424.2035161252
 21
121.0342849312
  0
LINE
  5
473
100
AcDbEntity
  8
0
100
AcDbLine
 62
7
  6
CONTINUOUS
 10
424.2035161252
 20
126.0842849302
 11
424.2035161252
 21
140.0842849312
  0
LINE
  5
474
100
AcDbEntity
  8
0
100
AcDbLine
 62
7
  6
CONTINUOUS
 10
438.2035161261
 20
140.0842849312
 11
438.2035161261
 21
126.0842849302
  0
LINE
  5
475
100
AcDbEntity
  8
0
100
AcDbLine
 62
7
  6
CONTINUOUS
 10
438.2035161261
 20
121.0342849312
 11
438.2035161261
 21
107.0342849302
  0
LINE
  5
476
100
AcDbEntity
  8
0
100
AcDbLine
 62
7
  6
CONTINUOUS
 10
438.2035161261
 20
101.9842849312
 11
438.2035161261
 21
87.9842849302
  0
LINE
  5
477
100
AcDbEntity
  8
0
100
AcDbLine
 62
7
  6
CONTINUOUS
 10
438.2035161261
 20
82.9342849312
 11
438.2035161261
 21
68.9342849302
  0
LINE
  5
478
100
AcDbEntity
  8
0
100
AcDbLine
 62
7
  6
CONTINUOUS
 10
443.2535161252
 20
68.9342849302
 11
443.2535161252
 21
82.9342849312
  0
LINE
  5
479
100
AcDbEntity
  8
0
100
AcDbLine
 62
7
  6
CONTINUOUS
 10
443.2535161252
 20
87.9842849302
 11
443.2535161252
 21
101.9842849312
  0
LINE
  5
47A
100
AcDbEntity
  8
0
100
AcDbLine
 62
7
  6
CONTINUOUS
 10
443.2535161252
 20
107.0342849302
 11
443.2535161252
 21
121.0342849312
  0
LINE
  5
47B
100
AcDbEntity
  8
0
100
AcDbLine
 62
7
  6
CONTINUOUS
 10
443.2535161252
 20
126.0842849302
 11
443.2535161252
 21
140.0842849312
  0
LINE
  5
47C
100
AcDbEntity
  8
0
100
AcDbLine
 62
7
  6
CONTINUOUS
 10
425.4508385886
 20
59.1842973081
 11
425.4592921328
 21
62.4142862456
  0
LINE
  5
47D
100
AcDbEntity
  8
0
100
AcDbLine
 62
7
  6
CONTINUOUS
 10
427.1392921332
 20
62.4142880769
 11
427.1416983159
 21
63.3342849314
  0
LINE
  5
47E
100
AcDbEntity
  8
0
100
AcDbLine
 62
7
  6
CONTINUOUS
 10
430.4416983173
 20
63.3342823533
 11
430.4393091578
 21
62.4142854557
  0
LINE
  5
47F
100
AcDbEntity
  8
0
100
AcDbLine
 62
7
  6
CONTINUOUS
 10
430.4074084748
 20
50.114137356
 11
430.4048507837
 21
49.1341406952
  0
LINE
  5
480
100
AcDbEntity
  8
0
100
AcDbLine
 62
7
  6
CONTINUOUS
 10
432.1193091582
 20
62.414285189
 11
432.1109322763
 21
59.1842960508
  0
LINE
  5
481
100
AcDbEntity
  8
0
100
AcDbLine
 62
7
  6
CONTINUOUS
 10
432.099002102
 20
54.5842152256
 11
432.0874084727
 21
50.1142302616
  0
LINE
  5
482
100
AcDbEntity
  8
0
100
AcDbLine
 62
7
  6
CONTINUOUS
 10
433.706824068
 20
49.8843164643
 11
433.719002098
 21
54.5843006889
  0
LINE
  5
483
100
AcDbEntity
  8
0
100
AcDbLine
 62
7
  6
CONTINUOUS
 10
433.7309322773
 20
59.1843007218
 11
433.7431159741
 21
63.8842849312
  0
LINE
  5
484
100
AcDbEntity
  8
0
100
AcDbLine
 62
7
  6
CONTINUOUS
 10
427.1048508102
 20
49.1345688706
 11
427.1394860038
 21
50.1139566401
  0
LINE
  5
485
100
AcDbEntity
  8
0
100
AcDbLine
 62
7
  6
CONTINUOUS
 10
456.0035161319
 20
62.4147135701
 11
456.0035161293
 21
59.1847135709
  0
LINE
  5
486
100
AcDbEntity
  8
0
100
AcDbLine
 62
7
  6
CONTINUOUS
 10
456.8735161267
 20
59.1847861895
 11
456.873512398
 21
56.3847861913
  0
LINE
  5
487
100
AcDbEntity
  8
0
100
AcDbLine
 62
7
  6
CONTINUOUS
 10
457.2535161261
 20
140.0842849312
 11
457.2535161261
 21
126.0842849302
  0
LINE
  5
488
100
AcDbEntity
  8
0
100
AcDbLine
 62
7
  6
CONTINUOUS
 10
457.2535161261
 20
121.0342849312
 11
457.2535161261
 21
107.0342849302
  0
LINE
  5
489
100
AcDbEntity
  8
0
100
AcDbLine
 62
7
  6
CONTINUOUS
 10
457.2535161261
 20
101.9842849312
 11
457.2535161261
 21
87.9842849302
  0
LINE
  5
48A
100
AcDbEntity
  8
0
100
AcDbLine
 62
7
  6
CONTINUOUS
 10
457.2535161261
 20
82.9342849312
 11
457.2535161261
 21
68.9342849302
  0
LINE
  5
48B
100
AcDbEntity
  8
0
100
AcDbLine
 62
7
  6
CONTINUOUS
 10
462.3035161252
 20
49.8842849302
 11
462.3035161252
 21
63.8842849312
  0
LINE
  5
48C
100
AcDbEntity
  8
0
100
AcDbLine
 62
7
  6
CONTINUOUS
 10
462.3035161252
 20
68.9342849302
 11
462.3035161252
 21
82.9342849312
  0
LINE
  5
48D
100
AcDbEntity
  8
0
100
AcDbLine
 62
7
  6
CONTINUOUS
 10
462.3035161252
 20
87.9842849302
 11
462.3035161252
 21
101.9842849312
  0
LINE
  5
48E
100
AcDbEntity
  8
0
100
AcDbLine
 62
7
  6
CONTINUOUS
 10
462.3035161252
 20
107.0342849302
 11
462.3035161252
 21
121.0342849312
  0
LINE
  5
48F
100
AcDbEntity
  8
0
100
AcDbLine
 62
7
  6
CONTINUOUS
 10
462.3035161252
 20
126.0842849302
 11
462.3035161252
 21
140.0842849312
  0
LINE
  5
490
100
AcDbEntity
  8
0
100
AcDbLine
 62
7
  6
CONTINUOUS
 10
454.3363681022
 20
63.3345697136
 11
454.3335161368
 21
62.4145741343
  0
LINE
  5
491
100
AcDbEntity
  8
0
100
AcDbLine
 62
7
  6
CONTINUOUS
 10
447.743115975
 20
63.8842849312
 11
447.677730086
 21
59.1847397735
  0
LINE
  5
492
100
AcDbEntity
  8
0
100
AcDbLine
 62
7
  6
CONTINUOUS
 10
449.2977300819
 20
59.1846019658
 11
449.3429842612
 21
62.4142849299
  0
LINE
  5
493
100
AcDbEntity
  8
0
100
AcDbLine
 62
7
  6
CONTINUOUS
 10
449.1706479409
 20
50.1150524011
 11
449.2337207764
 21
54.5846073939
  0
LINE
  5
494
100
AcDbEntity
  8
0
100
AcDbLine
 62
7
  6
CONTINUOUS
 10
450.8367456602
 20
49.1351403351
 11
450.8506479413
 21
50.115041723
  0
LINE
  5
495
100
AcDbEntity
  8
0
100
AcDbLine
 62
7
  6
CONTINUOUS
 10
451.0229842591
 20
62.4143822881
 11
451.0363681134
 21
63.3342849314
  0
LINE
  5
496
100
AcDbEntity
  8
0
100
AcDbLine
 62
7
  6
CONTINUOUS
 10
456.0035161268
 20
56.3822397905
 11
455.8433852964
 21
50.11428493
  0
LINE
  5
497
100
AcDbEntity
  8
0
100
AcDbLine
 62
7
  6
CONTINUOUS
 10
454.1733853141
 20
50.1145380664
 11
454.1367456592
 21
49.1352232381
  0
LINE
  5
498
100
AcDbEntity
  8
0
100
AcDbLine
 62
7
  6
CONTINUOUS
 10
476.3035161261
 20
140.0842849312
 11
476.3035161261
 21
126.0842849302
  0
LINE
  5
499
100
AcDbEntity
  8
0
100
AcDbLine
 62
7
  6
CONTINUOUS
 10
476.3035161261
 20
121.0342849312
 11
476.3035161261
 21
107.0342849302
  0
LINE
  5
49A
100
AcDbEntity
  8
0
100
AcDbLine
 62
7
  6
CONTINUOUS
 10
476.3035161261
 20
101.9842849312
 11
476.3035161261
 21
87.9842849302
  0
LINE
  5
49B
100
AcDbEntity
  8
0
100
AcDbLine
 62
7
  6
CONTINUOUS
 10
476.3035161261
 20
82.9342849312
 11
476.3035161261
 21
68.9342849302
  0
LINE
  5
49C
100
AcDbEntity
  8
0
100
AcDbLine
 62
7
  6
CONTINUOUS
 10
476.3035161261
 20
63.8842849312
 11
476.3035161261
 21
49.8842849302
  0
LINE
  5
49D
100
AcDbEntity
  8
0
100
AcDbLine
 62
7
  6
CONTINUOUS
 10
480.6035161266
 20
52.7930666285
 11
480.6035161266
 21
56.09306663
  0
LINE
  5
49E
100
AcDbEntity
  8
0
100
AcDbLine
 62
7
  6
CONTINUOUS
 10
480.6035161266
 20
76.7142849303
 11
480.6035161266
 21
80.0142849317
  0
LINE
  5
49F
100
AcDbEntity
  8
0
100
AcDbLine
 62
7
  6
CONTINUOUS
 10
480.6035161266
 20
114.8129334217
 11
480.6035161266
 21
118.1129334206
  0
LINE
  5
4A0
100
AcDbEntity
  8
0
100
AcDbLine
 62
7
  6
CONTINUOUS
 10
480.6033741558
 20
90.9227021928
 11
480.6035161266
 21
94.2227021918
  0
LINE
  5
4A1
100
AcDbEntity
  8
0
100
AcDbLine
 62
7
  6
CONTINUOUS
 10
481.3535161252
 20
59.420678179
 11
481.3535161252
 21
73.4206781774
  0
LINE
  5
4A2
100
AcDbEntity
  8
0
100
AcDbLine
 62
7
  6
CONTINUOUS
 10
481.3535161252
 20
97.5129334218
 11
481.3535161252
 21
111.5129334202
  0
LINE
  5
4A3
100
AcDbEntity
  8
0
100
AcDbLine
 62
7
  6
CONTINUOUS
 10
481.3535161252
 20
126.0842849302
 11
481.3535161252
 21
140.0842849312
  0
LINE
  5
4A4
100
AcDbEntity
  8
0
100
AcDbLine
 62
7
  6
CONTINUOUS
 10
481.5835161249
 20
75.0528012809
 11
481.5834791197
 21
76.7228012785
  0
LINE
  5
4A5
100
AcDbEntity
  8
0
100
AcDbLine
 62
7
  6
CONTINUOUS
 10
481.5834774737
 20
80.0229888285
 11
481.5834644867
 21
81.692988826
  0
LINE
  5
4A6
100
AcDbEntity
  8
0
100
AcDbLine
 62
7
  6
CONTINUOUS
 10
481.5835161249
 20
113.1429334216
 11
481.5835161249
 21
114.8129334217
  0
LINE
  5
4A7
100
AcDbEntity
  8
0
100
AcDbLine
 62
7
  6
CONTINUOUS
 10
481.5835151927
 20
118.1142849317
 11
481.5835161249
 21
119.7842849318
  0
LINE
  5
4A8
100
AcDbEntity
  8
0
100
AcDbLine
 62
7
  6
CONTINUOUS
 10
481.5834669454
 20
56.1028845784
 11
481.5834918476
 21
57.7828845788
  0
LINE
  5
4A9
100
AcDbEntity
  8
0
100
AcDbLine
 62
7
  6
CONTINUOUS
 10
481.5834681367
 20
94.2130040095
 11
481.5835161249
 21
95.8930040099
  0
LINE
  5
4AA
100
AcDbEntity
  8
0
100
AcDbLine
 62
7
  6
CONTINUOUS
 10
486.0535159149
 20
95.8943793869
 11
486.0535159022
 21
97.5143793879
  0
LINE
  5
4AB
100
AcDbEntity
  8
0
100
AcDbLine
 62
7
  6
CONTINUOUS
 10
486.0535161257
 20
111.5129334202
 11
486.0535161257
 21
113.1429334216
  0
LINE
  5
4AC
100
AcDbEntity
  8
0
100
AcDbLine
 62
7
  6
CONTINUOUS
 10
486.0533381174
 20
73.4615835236
 11
486.0533478837
 21
75.0915835249
  0
LINE
  5
4AD
100
AcDbEntity
  8
0
100
AcDbLine
 62
7
  6
CONTINUOUS
 10
481.5831941621
 20
51.1342849321
 11
481.5832863972
 21
52.81428493
  0
LINE
  5
4AE
100
AcDbEntity
  8
0
100
AcDbLine
 62
7
  6
CONTINUOUS
 10
481.5832005071
 20
89.2427632769
 11
481.5833741542
 21
90.9227632697
  0
LINE
  5
4AF
100
AcDbEntity
  8
0
100
AcDbLine
 62
7
  6
CONTINUOUS
 10
486.0532658417
 20
57.8278340342
 11
486.0534376727
 21
59.4478340251
  0
LINE
  5
4B0
100
AcDbEntity
  8
0
100
AcDbLine
 62
7
  6
CONTINUOUS
 10
487.8538423777
 20
50.3282943724
 11
487.8527573609
 21
51.2082937046
  0
LINE
  5
4B1
100
AcDbEntity
  8
0
100
AcDbLine
 62
7
  6
CONTINUOUS
 10
494.8030973235
 20
56.2462868062
 11
494.8036140941
 21
52.9462868453
  0
LINE
  5
4B2
100
AcDbEntity
  8
0
100
AcDbLine
 62
7
  6
CONTINUOUS
 10
487.8532281016
 20
81.7474332892
 11
487.8532092243
 21
82.6274332894
  0
LINE
  5
4B3
100
AcDbEntity
  8
0
100
AcDbLine
 62
7
  6
CONTINUOUS
 10
487.8531820108
 20
88.3697793866
 11
487.8531965827
 21
89.2497793843
  0
LINE
  5
4B4
100
AcDbEntity
  8
0
100
AcDbLine
 62
7
  6
CONTINUOUS
 10
490.6532455826
 20
75.1314980755
 11
490.6533359126
 21
73.5014980793
  0
LINE
  5
4B5
100
AcDbEntity
  8
0
100
AcDbLine
 62
7
  6
CONTINUOUS
 10
490.653504782
 20
113.1429334216
 11
490.6535161256
 21
111.5129334202
  0
LINE
  5
4B6
100
AcDbEntity
  8
0
100
AcDbLine
 62
7
  6
CONTINUOUS
 10
490.6531920394
 20
89.2529125708
 11
490.6531802589
 21
88.3729125731
  0
LINE
  5
4B7
100
AcDbEntity
  8
0
100
AcDbLine
 62
7
  6
CONTINUOUS
 10
490.6537393103
 20
120.6729334187
 11
490.6537022771
 21
119.792933421
  0
LINE
  5
4B8
100
AcDbEntity
  8
0
100
AcDbLine
 62
7
  6
CONTINUOUS
 10
493.8831031919
 20
57.9072344164
 11
493.8832946216
 21
56.2272344262
  0
LINE
  5
4B9
100
AcDbEntity
  8
0
100
AcDbLine
 62
7
  6
CONTINUOUS
 10
493.8836696272
 20
52.93617842
 11
493.8837809224
 21
51.2561784222
  0
LINE
  5
4BA
100
AcDbEntity
  8
0
100
AcDbLine
 62
7
  6
CONTINUOUS
 10
493.882928793
 20
81.799696258
 11
493.8829824251
 21
80.1296962579
  0
LINE
  5
4BB
100
AcDbEntity
  8
0
100
AcDbLine
 62
7
  6
CONTINUOUS
 10
493.8830884091
 20
76.8295246007
 11
493.8831239869
 21
75.1595246032
  0
LINE
  5
4BC
100
AcDbEntity
  8
0
100
AcDbLine
 62
7
  6
CONTINUOUS
 10
493.8835474405
 20
114.8129334217
 11
493.8835047812
 21
113.1429334216
  0
LINE
  5
4BD
100
AcDbEntity
  8
0
100
AcDbLine
 62
7
  6
CONTINUOUS
 10
493.8837022763
 20
119.792933421
 11
493.8836319895
 21
118.1229334209
  0
LINE
  5
4BE
100
AcDbEntity
  8
0
100
AcDbLine
 62
7
  6
CONTINUOUS
 10
493.8832629249
 20
90.926528619
 11
493.8831857318
 21
89.2465286186
  0
LINE
  5
4BF
100
AcDbEntity
  8
0
100
AcDbLine
 62
7
  6
CONTINUOUS
 10
494.802949559
 20
80.1374726203
 11
494.8030540775
 21
76.8374726214
  0
LINE
  5
4C0
100
AcDbEntity
  8
0
100
AcDbLine
 62
7
  6
CONTINUOUS
 10
494.8036319884
 20
118.1229334209
 11
494.8034930911
 21
114.8229334245
  0
LINE
  5
4C1
100
AcDbEntity
  8
0
100
AcDbLine
 62
7
  6
CONTINUOUS
 10
495.3535161261
 20
111.5129334202
 11
495.3536135555
 21
97.5129334218
  0
LINE
  5
4C2
100
AcDbEntity
  8
0
100
AcDbLine
 62
7
  6
CONTINUOUS
 10
495.3535161261
 20
140.0842849312
 11
495.3535161261
 21
126.0842849302
  0
LINE
  5
4C3
100
AcDbEntity
  8
0
100
AcDbLine
 62
7
  6
CONTINUOUS
 10
495.3531584408
 20
73.5423417949
 11
495.3531089692
 21
59.5423417939
  0
LINE
  5
4C4
100
AcDbEntity
  8
0
100
AcDbLine
 62
7
  6
CONTINUOUS
 10
505.3535161261
 20
44.8842849303
 11
505.3535161261
 21
178.6642849313
  0
LINE
  5
4C5
100
AcDbEntity
  8
0
100
AcDbLine
 62
7
  6
CONTINUOUS
 10
490.6536144261
 20
97.51579462
 11
490.6535159148
 21
95.8957946215
  0
LINE
  5
4C6
100
AcDbEntity
  8
0
100
AcDbLine
 62
7
  6
CONTINUOUS
 10
490.6531036677
 20
82.6517459738
 11
490.6530497257
 21
81.7717459736
  0
LINE
  5
4C7
100
AcDbEntity
  8
0
100
AcDbLine
 62
7
  6
CONTINUOUS
 10
490.6533516504
 20
59.4945805813
 11
490.6532682546
 21
57.8745805828
  0
LINE
  5
4C8
100
AcDbEntity
  8
0
100
AcDbLine
 62
7
  6
CONTINUOUS
 10
490.6538827263
 20
51.2305338938
 11
490.653754055
 21
50.3505339012
  0
LINE
  5
4C9
100
AcDbEntity
  8
0
100
AcDbLine
 62
7
  6
CONTINUOUS
 10
493.8835157616
 20
95.8967886074
 11
493.8834141057
 21
94.2167886095
  0
LINE
  5
4CA
100
AcDbEntity
  8
0
100
AcDbLine
 62
7
  6
CONTINUOUS
 10
494.8034140615
 20
94.2170717915
 11
494.8032143184
 21
90.9170717977
  0
LINE
  5
4CB
100
AcDbEntity
  8
0
100
AcDbLine
 62
7
  6
CONTINUOUS
 10
487.853510161
 20
119.792933421
 11
487.8537393096
 21
120.6729333908
  0
LINE
  5
4CC
100
AcDbEntity
  8
0
100
AcDbLine
 62
7
  6
CONTINUOUS
 10
0.0
 20
420.0
 11
594.0
 21
420.0
  0
LINE
  5
4CD
100
AcDbEntity
  8
0
100
AcDbLine
 62
7
  6
CONTINUOUS
 10
594.0
 20
0.0
 11
594.0
 21
420.0
  0
ARC
  5
4CE
100
AcDbEntity
  8
0
100
AcDbCircle
 62
7
  6
CONTINUOUS
 10
170.9995502989
 20
249.999999999
 40
249.999999999
100
AcDbArc
 50
257.5
 51
282.52
  0
ARC
  5
4CF
100
AcDbEntity
  8
0
100
AcDbCircle
 62
7
  6
CONTINUOUS
 10
170.9608728401
 20
407.5757628885
 40
249.999999999
100
AcDbArc
 50
257.5
 51
282.52
  0
ARC
  5
4D0
100
AcDbEntity
  8
0
100
AcDbCircle
 62
7
  6
CONTINUOUS
 10
349.3539013416
 20
88.6642849317
 40
99.9999999996
100
AcDbArc
 50
90.0
 51
102.52
  0
ARC
  5
4D1
100
AcDbEntity
  8
0
100
AcDbCircle
 62
7
  6
CONTINUOUS
 10
366.4859197293
 20
-65.1157150693
 40
99.9999999996
100
AcDbArc
 50
90.0
 51
102.52
  0
ARC
  5
4D2
100
AcDbEntity
  8
0
100
AcDbCircle
 62
7
  6
CONTINUOUS
 10
495.3535161261
 20
44.8842849303
 40
10.0
100
AcDbArc
 50
270.0
 51
360.0
  0
ARC
  5
4D3
100
AcDbEntity
  8
0
100
AcDbCircle
 62
7
  6
CONTINUOUS
 10
10.0
 20
39.8656575507
 40
10.0
100
AcDbArc
 50
167.5
 51
257.5
  0
ARC
  5
4D4
100
AcDbEntity
  8
0
100
AcDbCircle
 62
7
  6
CONTINUOUS
 10
38.9665933367
 20
170.5255164337
 40
10.0
100
AcDbArc
 50
77.5
 51
167.5
  0
ARC
  5
4D5
100
AcDbEntity
  8
0
100
AcDbCircle
 62
7
  6
CONTINUOUS
 10
495.3535161261
 20
178.6642849313
 40
10.0
100
AcDbArc
 50
0.0
 51
90.0
  0
ENDSEC
  0
SECTION
  2
OBJECTS
  0
DICTIONARY
  5
4D6
100
AcDbDictionary
  3
ACAD_GROUP
350
4D7
  3
ACAD_MLINESTYLE
350
4D8
  0
DICTIONARY
  5
4D7
102
{ACAD_REACTORS
330
4D6
102
}
100
AcDbDictionary
  0
DICTIONARY
  5
4D8
102
{ACAD_REACTORS
330
4D6
102
}
100
AcDbDictionary
  3
STANDARD
350
4D9
  0
MLINESTYLE
  5
4D9
102
{ACAD_REACTORS
330
4D8
102
}
100
AcDbMlineStyle
  2
STANDARD
 70
0
  3

 62
256
 51
90.0
 52
90.0
 71
2
 49
0.5
 62
256
  6
BYLAYER
 49
-0.5
 62
256
  6
BYLAYER
  0
ENDSEC
  0
EOF
